<?xml version="1.0" encoding="utf-8"?>
<!-- Generator: Adobe Illustrator 21.0.2, SVG Export Plug-In . SVG Version: 6.00 Build 0)  -->
<svg version="1.1" id="Capa_1" xmlns="http://www.w3.org/2000/svg" xmlns:xlink="http://www.w3.org/1999/xlink" x="0px" y="0px"
	 viewBox="0 0 512 512" style="enable-background:new 0 0 512 512;" xml:space="preserve">
<style type="text/css">
	.st0{fill:#00A86B;}
	.st1{fill:#424A5E;}
	.st2{fill:#EBBAA1;}
	.st3{fill:#E8A990;}
	.st4{fill:#FDD4BB;}
	.st5{fill:#00935B;}
	.st6{fill:#F7C4A8;}
	.st7{fill:#03E086;}
	.st8{fill:#13BF75;}
</style>
<g>
	<g>
		<g>
			<path class="st0" d="M467.3,493.4l9-28.5v-35.4c0-70-49.5-128.4-115.4-142.2c-13.6,7.2-29.2,11.4-45.7,11.4s-32.1-4.1-45.7-11.4
				c-65.9,13.8-115.4,72.2-115.4,142.2v35.4l9,28.5l155.6,9L467.3,493.4z"/>
			<path class="st1" d="M188.1,166.7c0,0-28.1-37.8-29.3-92.4c-0.1-3.1,2.6-5.4,5.7-5c6.3,0.9,16.7,1.6,26.4-1
				c29.5-7.9,58.5-66.4,109.5-68.1s61,22.1,61,22.1s18.8-11.2,46.8-7.4c42,5.7,78.9,69.7,41.4,157.6L188.1,166.7z"/>
			<path class="st2" d="M174,183.9c0,19,15.4,30.1,29,30.1l14.6-12.8c0-0.1,12.8-17.3,12.8-17.4l-12.8-17.4
				c-4.3-2.4-9.3-3.7-14.6-3.7C189.4,162.8,177.9,171.7,174,183.9L174,183.9z"/>
			<path class="st3" d="M202.9,205c-13.6,0-25-8.9-29-21.1c-0.9,2.9-1.5,6-1.5,9.3c0,16.8,13.6,30.4,30.4,30.4
				c6,0,11.6-1.7,16.3-4.7l8-10.6l-9.6-7C213.2,203.7,208.2,205,202.9,205L202.9,205z"/>
			<path class="st2" d="M456.4,183.9c0,19-15.4,30.1-29,30.1l-14.6-12.8c0-0.1-12.8-17.3-12.8-17.4l12.8-17.4
				c4.3-2.4,9.3-3.7,14.6-3.7C441,162.8,452.5,171.7,456.4,183.9L456.4,183.9z"/>
			<path class="st3" d="M427.5,205c13.6,0,25-8.9,29-21.1c0.9,2.9,1.5,6,1.5,9.3c0,16.8-13.6,30.4-30.4,30.4c-6,0-11.6-1.7-16.3-4.7
				l-8-10.6l9.6-7C417.2,203.7,422.2,205,427.5,205L427.5,205z"/>
			<path class="st4" d="M315.2,289.1c53.9,0,97.6-37.9,97.6-106.6v-28c0-8.5-3.5-16.8-9.8-22.6c-18.2-16.8-38.5-45.9-46.7-58.1
				c-1.9-2.8-5.8-3.1-8.1-0.6c-41.1,44.9-94.4,59.9-118.2,64.5c-7.3,1.4-12.5,7.8-12.5,15.2v29.5
				C217.5,247.3,261.3,289.1,315.2,289.1z"/>
			<path class="st5" d="M235.8,512h158.7l7.7-9.3l-7.7-9.3H235.8l-7.7,9.3L235.8,512z"/>
			<path class="st2" d="M269.1,287.2c-0.1,1.2-0.2,2.4-0.2,3.6c0,25.5,20.7,46.2,46.2,46.2s46.2-20.7,46.2-46.2
				c0-1.2-0.1-2.4-0.2-3.6H269.1z"/>
			<path class="st4" d="M476.3,493.4l-37,9l-37-9v-28.5h74L476.3,493.4z"/>
			<path class="st4" d="M154.1,493.4l37,9l37-9v-28.5h-74V493.4z"/>
			<path class="st6" d="M410,512h61.3c2.8,0,5-2.2,5-5v-13.6H410l-7.7,9.3L410,512z"/>
			<path class="st6" d="M159.1,512h61.3l7.7-9.3l-7.7-9.3h-66.3V507C154.1,509.8,156.3,512,159.1,512L159.1,512z"/>
			<g>
				<path class="st7" d="M410,493.4v-72.8c0-4.3-3.5-7.7-7.7-7.7s-7.7,3.5-7.7,7.7v72.8l7.7,9.3L410,493.4z"/>
				<path class="st8" d="M394.5,493.4H410V512h-15.5V493.4z"/>
				<path class="st7" d="M235.8,493.4v-72.8c0-4.3-3.5-7.7-7.7-7.7s-7.7,3.5-7.7,7.7v72.8l7.7,9.3L235.8,493.4z"/>
				<path class="st8" d="M220.4,493.4h15.5V512h-15.5V493.4z"/>
			</g>
			<path class="st6" d="M315.2,280.1c-53.9,0-97.6-43.7-97.6-97.6V201c0,53.9,43.7,97.6,97.6,97.6s97.6-43.7,97.6-97.6v-18.6
				C412.8,236.4,369.1,280.1,315.2,280.1z"/>
		</g>
		<g>
			<path class="st1" d="M315.2,215.8c-15.4,0-28.2,11-31,25.6c-0.6,3.1,1.7,6,4.9,6h52.2c3.2,0,5.5-2.9,4.9-6
				C343.4,226.8,330.6,215.8,315.2,215.8L315.2,215.8z"/>
		</g>
		<g>
			<path class="st0" d="M95.3,230.8l22.4,9c8.7,0,15.7-9.4,15.7-24.7v-9.7c0-8.7-7-15.7-15.7-15.7h-27l-6.5,21.8L95.3,230.8z"/>
			<path class="st0" d="M117.7,230.8H95.3l-7.9,9.9l10,8.7h20.3c8.7,0,15.7-7,15.7-15.7v-18.6C133.4,223.7,126.4,230.8,117.7,230.8z
				"/>
			<path class="st5" d="M65.9,71.2l-0.2-1.9c-0.9-7.8-7.5-13.6-15.4-13.6H35.1c-8.7,0-15.5,7.1-15.5,15.5l23.2,9L65.9,71.2z"/>
			<path class="st0" d="M19.6,71.2c0,0.6,0,1.2,0.1,1.8l2,16.8l22.1,9l24.3-9l-2.2-18.6H19.6z"/>
			<path class="st7" d="M25.8,208.1c4.6,24.1,15.7,31.7,29.8,31.7l39.7-9L79.9,94.3c-0.3-2.5-2.4-4.4-5-4.4H18c-3,0-5.3,2.6-5,5.6
				L25.8,208.1z"/>
			<path class="st8" d="M55.6,230.8c-14.1,0-26.2-9.5-29.8-22.7l1.6,13.8c1.8,15.6,15,27.5,30.8,27.5h39.3l-2.1-18.6L55.6,230.8z"/>
		</g>
	</g>
	<g>
		<g>
			<path class="st1" d="M259.2,189.9c0.6-0.2,13.7-3.8,25.1-14.9c3.1-3,3.1-7.9,0.1-11s-7.9-3.1-11-0.1c-8.3,8.1-18.1,11-18.3,11.1
				c-4.1,1.1-6.5,5.4-5.4,9.5c0.9,3.5,4.1,5.7,7.5,5.7C257.8,190.2,258.5,190.1,259.2,189.9z"/>
			<path class="st1" d="M371.4,189.9c0.7,0.2,1.4,0.3,2,0.3c3.4,0,6.5-2.3,7.5-5.7c1.1-4.1-1.3-8.4-5.4-9.6c-0.1,0-10-2.9-18.3-11.1
				c-3.1-3-8-3-11,0.1c-3,3.1-3,8,0.1,11C357.7,186,370.9,189.7,371.4,189.9L371.4,189.9z"/>
		</g>
		<g>
			<path class="st7" d="M139.4,344.9c-1.4,0-2.9-0.4-4.2-1.2c-3.6-2.3-4.6-7.1-2.3-10.7c15-23.2,33.4-42.5,53.2-55.8
				c3.6-2.4,8.4-1.4,10.8,2.1s1.4,8.4-2.1,10.8c-18.1,12.1-35,29.9-48.8,51.3C144.4,343.7,141.9,344.9,139.4,344.9L139.4,344.9z"/>
			<path class="st7" d="M139.4,297.9c-1.7,0-3.5-0.6-4.9-1.8c-3.3-2.7-3.8-7.6-1.1-10.9c0.5-0.6,12.2-14.7,30.8-26.5
				c3.6-2.3,8.4-1.2,10.7,2.4c2.3,3.6,1.2,8.4-2.4,10.7c-16.4,10.4-27,23.1-27.1,23.3C143.9,297,141.6,297.9,139.4,297.9z"/>
			<path class="st7" d="M491.2,344.9c-2.5,0-5-1.3-6.5-3.6c-13.8-21.5-30.7-39.2-48.8-51.3c-3.6-2.4-4.5-7.2-2.1-10.8
				s7.2-4.5,10.8-2.1c19.8,13.3,38.2,32.6,53.2,55.8c2.3,3.6,1.3,8.4-2.3,10.7C494.1,344.5,492.7,344.9,491.2,344.9L491.2,344.9z"/>
			<path class="st7" d="M491.2,297.9c-2.2,0-4.5-1-6-2.8c-0.1-0.1-10.7-12.9-27.1-23.3c-3.6-2.3-4.7-7.1-2.4-10.7
				c2.3-3.6,7.1-4.7,10.7-2.4c18.6,11.8,30.3,25.9,30.8,26.5c2.7,3.3,2.2,8.2-1.1,10.9C494.7,297.4,493,297.9,491.2,297.9
				L491.2,297.9z"/>
		</g>
	</g>
</g>
</svg>
