<?xml version="1.0" encoding="utf-8"?>
<!-- Generator: Adobe Illustrator 21.0.2, SVG Export Plug-In . SVG Version: 6.00 Build 0)  -->
<svg version="1.1" id="Capa_1" xmlns="http://www.w3.org/2000/svg" xmlns:xlink="http://www.w3.org/1999/xlink" x="0px" y="0px"
	 viewBox="0 0 512 512" style="enable-background:new 0 0 512 512;" xml:space="preserve">
<style type="text/css">
	.st0{fill:#424A5E;}
	.st1{fill:#EBBAA1;}
	.st2{fill:#E8A990;}
	.st3{fill:#FDD4BB;}
	.st4{fill:#13BF75;}
	.st5{fill:#00935B;}
	.st6{fill:#EBF2F8;}
	.st7{fill:#F7C4A8;}
	.st8{fill:#D6E3ED;}
</style>
<g>
	<g>
		<path class="st0" d="M128.9,166.7c0,0-28.1-37.8-29.3-92.4c-0.1-3.1,2.6-5.4,5.7-5c6.3,0.9,16.7,1.6,26.4-1
			c29.5-7.9,58.5-66.4,109.5-68.1c51.1-1.7,61,22.1,61,22.1S321,11.1,349,14.8c42,5.7,78.9,69.7,41.4,157.6L128.9,166.7z"/>
		<g>
			<path class="st1" d="M114.8,183.9c0,19.9,15.4,30.1,29,30.1c0,0,14.6-13,14.6-12.8c0-0.1,0-0.2,0-0.2l9-18.6l-9-15.9
				c-4.3-2.4-9.3-3.7-14.6-3.7C130.2,162.8,118.7,171.7,114.8,183.9z"/>
			<path class="st2" d="M143.7,205c-13.6,0-25-8.9-29-21.1c-0.9,2.9-1.5,6-1.5,9.3c0,16.8,13.6,30.4,30.4,30.4
				c6,0,11.6-1.7,16.3-4.7l7.9-8.1l-9.5-9.6C154,203.7,149,205,143.7,205L143.7,205z"/>
			<path class="st1" d="M397.2,183.9c0,19.9-15.4,30.1-29,30.1c0,0-14.6-13-14.6-12.8c0-0.1,0-0.2,0-0.2l-9-18.6l9-15.9
				c4.3-2.4,9.3-3.7,14.6-3.7C381.8,162.8,393.3,171.7,397.2,183.9z"/>
			<path class="st2" d="M368.3,205c13.6,0,25-8.9,29-21.1c0.9,2.9,1.5,6,1.5,9.3c0,16.8-13.6,30.4-30.4,30.4c-6,0-11.6-1.7-16.3-4.7
				l-7.9-8.1l9.5-9.6C358,203.7,363,205,368.3,205z"/>
		</g>
		<path class="st3" d="M256,289.1c53.9,0,97.6-33.1,97.6-106.6v-28c0-8.5-3.5-16.8-9.8-22.6c-18.2-16.8-38.5-45.9-46.7-58.1
			c-1.9-2.8-5.8-3.1-8.1-0.6c-41.1,44.9-94.4,59.9-118.2,64.5c-7.3,1.4-12.5,7.8-12.5,15.2v29.5C158.4,247.4,202.1,289.1,256,289.1z
			"/>
		<path class="st4" d="M301.7,287.3c-13.6,7.2-29.2,11.4-45.7,11.4s-32.1-4.1-45.7-11.4c-65.9,13.8-115.4,72.2-115.4,142.2v63.9
			l161.1,9l161.1-9v-63.9C417.1,359.5,367.6,301.1,301.7,287.3L301.7,287.3z"/>
		<path class="st5" d="M94.9,512l55.1-9.3l29.7,9.3h152.6l34.4-9.3l50.4,9.3v-18.6H94.9V512z"/>
		<path class="st1" d="M210,287.2c-0.1,1.2-0.2,2.4-0.2,3.6c0,25.5,20.7,46.2,46.2,46.2s46.2-20.7,46.2-46.2c0-1.2-0.1-2.4-0.2-3.6
			H210z"/>
		<path class="st0" d="M256,215.8c-15.4,0-28.2,11-31,25.6c-0.6,3.1,1.7,6,4.9,6h52.2c3.2,0,5.5-2.9,4.9-6
			C284.2,226.8,271.4,215.8,256,215.8L256,215.8z"/>
		<path class="st6" d="M374.7,271.4l23.2,18.2c0,0.2-0.1,0.4-0.1,0.6c0.1,0,0.2-0.1,0.3-0.1c0.3,12.7,12,22.1,20.9,22.6
			c4.1,0.2,8-0.6,11.5-2.2c1.7-0.8,3.7-0.6,5.2,0.5c4.7,3.5,10.5,5.5,16.8,5.5c12.6,0,26.9-10.9,26.9-28.7c0.1,0,0.2,0,0.2-0.1
			c-0.8-2.6-2-5-3.4-7.2c1.7-3.4,2.5-7.3,2.2-11.5c-0.8-10.4-9.1-18.9-19.5-20.1c-4.5-0.5-8.7,0.4-12.4,2.2
			c-3.4-7.8-11.2-13.3-20.2-13.3c-12.2,0-22,9.9-22,22c0,0.7,0,1.4,0.1,2.2h-26.5C373,262.2,370.9,268.4,374.7,271.4L374.7,271.4z"
			/>
		<path class="st6" d="M134.1,262.2h-26.5c0.1-0.7,0.1-1.4,0.1-2.2c0-12.2-9.9-22-22-22c-9.1,0-16.8,5.5-20.2,13.3
			c-3.7-1.9-7.9-2.7-12.4-2.2c-10.4,1.2-18.7,9.7-19.5,20.1c-0.3,4.1,0.5,8.1,2.2,11.5c-1.4,2.1-2.5,4.4-3.3,6.9
			c0,18.1,14.4,28.7,27,28.7c6.3,0,12.1-2.1,16.9-5.6c1.5-1.1,3.5-1.3,5.2-0.5c3.5,1.6,7.4,2.4,11.6,2.2c9-0.4,21-11.1,21-22.7
			c0,0,0-0.1,0-0.1l23.2-18.2C141.1,268.4,139,262.2,134.1,262.2L134.1,262.2z"/>
		<path class="st1" d="M401,493.4l-80-93.8c0,0,20.9-27.3,7.7-40.5c-9.2-9.2-27.9-0.2-38.4,6.1c6.3,19.5,0.8,45.1-28,63.8l54.3,64.4
			l50.1,9.3L401,493.4z"/>
		<path class="st3" d="M256,337c-35.4,0-50.4,33.7-50.4,33.7s-14.4-20.1-27.6-6.9c-13.2,13.2,8,41.8,8,41.8l-75,87.8l39,9.3
			l45.4-9.3l45.3-53.5C320.9,408.8,293.5,337,256,337z"/>
		<path class="st7" d="M111,493.4L95.1,512h84.6l15.7-18.6H111z"/>
		<path class="st7" d="M256,280.1c-53.9,0-97.6-43.7-97.6-97.6V201c0,53.9,43.7,97.6,97.6,97.6s97.6-43.7,97.6-97.6v-18.6
			C353.6,236.4,309.9,280.1,256,280.1z"/>
		<path class="st2" d="M316.6,493.4l15.7,18.6h84.6L401,493.4H316.6z"/>
		<g>
			<path class="st8" d="M93,303.4c-4.1,0.2-8.1-0.6-11.6-2.2c-1.7-0.8-3.7-0.6-5.2,0.5c-4.7,3.5-10.5,5.6-16.9,5.6
				c-12.7,0-23.4-8.3-27-19.7c-1.3,3.9-1.7,8.2-1,12.7c1.9,12.5,12.3,22.2,24.9,23.3c8.2,0.7,15.8-2.2,21.3-7.3
				c4.3,2.6,9.4,4,14.8,3.5c9.9-0.8,18.3-7.7,21.3-17.1c1.4-4.6,1.4-9,0.4-13C110,297.5,102,302.9,93,303.4L93,303.4z"/>
		</g>
		<g>
			<path class="st8" d="M452.6,307.4c-6.3,0-12.2-2.1-16.9-5.6c-1.5-1.1-3.5-1.3-5.2-0.5c-3.5,1.6-7.4,2.4-11.6,2.2
				c-9-0.4-17-5.8-21-13.6c-0.9,4-1,8.4,0.5,12.9c3,9.4,11.4,16.3,21.3,17.1c5.5,0.5,10.6-0.9,14.8-3.5c5.5,5.1,13,8,21.3,7.3
				c12.6-1.1,23-10.8,24.9-23.3c0.7-4.5,0.3-8.8-1-12.7C476,299.1,465.3,307.4,452.6,307.4z"/>
		</g>
	</g>
	<g>
		<path class="st0" d="M199.9,184.7c0.2,0,1.7-0.5,4-1.4v1.1c0,4.3,3.5,7.8,7.8,7.8s7.8-3.5,7.8-7.8v-9.9c1.9-1.4,3.7-3,5.6-4.8
			c3.1-3,3.1-7.9,0.1-11c-3-3.1-7.9-3.1-11-0.1c-8.3,8.1-18,11-18.3,11.1c-4.1,1.1-6.5,5.4-5.4,9.5c0.9,3.4,4.1,5.7,7.5,5.7
			C198.5,185,199.2,184.9,199.9,184.7L199.9,184.7z"/>
		<path class="st0" d="M292.7,174.6v9.9c0,4.3,3.5,7.8,7.8,7.8s7.8-3.5,7.8-7.8v-1.1c2.3,0.9,3.8,1.3,4,1.4c0.7,0.2,1.4,0.3,2,0.3
			c3.4,0,6.5-2.3,7.5-5.7c1.1-4.1-1.3-8.4-5.4-9.5c-0.1,0-9.9-2.9-18.3-11.1c-3.1-3-8-3-11,0.1s-3,8,0.1,11
			C288.9,171.5,290.8,173.1,292.7,174.6L292.7,174.6z"/>
	</g>
</g>
</svg>
