<?xml version="1.0" encoding="utf-8"?>
<!-- Generator: Adobe Illustrator 21.0.2, SVG Export Plug-In . SVG Version: 6.00 Build 0)  -->
<svg version="1.1" id="Capa_1" xmlns="http://www.w3.org/2000/svg" xmlns:xlink="http://www.w3.org/1999/xlink" x="0px" y="0px"
	 viewBox="0 0 512 512" style="enable-background:new 0 0 512 512;" xml:space="preserve">
<style type="text/css">
	.st0{fill:#00A86B;}
	.st1{fill:#424A5E;}
	.st2{fill:#EBBAA1;}
	.st3{fill:#E8A990;}
	.st4{fill:#FDD4BB;}
	.st5{fill:#00935B;}
	.st6{fill:#F7C4A8;}
	.st7{fill:#03E086;}
	.st8{fill:#13BF75;}
</style>
<g>
	<g>
		<path class="st0" d="M408.1,493.4l9-28.5v-35.4c0-70-49.5-128.4-115.4-142.2c-13.6,7.2-29.2,11.4-45.7,11.4s-32.1-4.1-45.7-11.4
			c-65.9,13.8-115.4,72.2-115.4,142.2v35.4l9,28.5l155.6,9L408.1,493.4z"/>
		<path class="st1" d="M128.9,166.7c0,0-28.1-37.8-29.3-92.4c-0.1-3.1,2.6-5.4,5.7-5c6.3,0.9,16.7,1.6,26.4-1
			c29.5-7.9,58.5-66.4,109.5-68.1c51.1-1.7,61,22.1,61,22.1S321,11.1,349,14.8c42,5.7,78.9,69.7,41.4,157.6L128.9,166.7z"/>
		<path class="st2" d="M114.8,183.9c0,19,15.4,30.1,29,30.1l14.6-12.8c0-0.1,12.8-17.3,12.8-17.4l-12.8-17.4
			c-4.3-2.4-9.3-3.7-14.6-3.7C130.2,162.8,118.7,171.7,114.8,183.9L114.8,183.9z"/>
		<path class="st3" d="M143.7,205c-13.6,0-25-8.9-29-21.1c-0.9,2.9-1.5,6-1.5,9.3c0,16.8,13.6,30.4,30.4,30.4c6,0,11.6-1.7,16.3-4.7
			l8-10.6l-9.6-7C154,203.7,149,205,143.7,205L143.7,205z"/>
		<path class="st2" d="M397.2,183.9c0,19-15.4,30.1-29,30.1l-14.6-12.8c0-0.1-12.8-17.3-12.8-17.4l12.8-17.4
			c4.3-2.4,9.3-3.7,14.6-3.7C381.8,162.8,393.3,171.7,397.2,183.9L397.2,183.9z"/>
		<path class="st3" d="M368.3,205c13.6,0,25-8.9,29-21.1c0.9,2.9,1.5,6,1.5,9.3c0,16.8-13.6,30.4-30.4,30.4c-6,0-11.6-1.7-16.3-4.7
			l-8-10.6l9.6-7C358,203.7,363,205,368.3,205z"/>
		<path class="st4" d="M256,289.1c53.9,0,97.6-37.9,97.6-106.6v-28c0-8.5-3.5-16.8-9.8-22.6c-18.2-16.8-38.5-45.9-46.7-58.1
			c-1.9-2.8-5.8-3.1-8.1-0.6c-41.1,44.9-94.4,59.9-118.2,64.5c-7.3,1.4-12.5,7.8-12.5,15.2v29.5C158.4,247.3,202.1,289.1,256,289.1z
			"/>
		<path class="st5" d="M176.7,512h158.7l7.7-9.3l-7.7-9.3H176.7l-7.7,9.3L176.7,512z"/>
		<path class="st2" d="M210,287.2c-0.1,1.2-0.2,2.4-0.2,3.6c0,25.5,20.7,46.2,46.2,46.2s46.2-20.7,46.2-46.2c0-1.2-0.1-2.4-0.2-3.6
			H210z"/>
		<path class="st4" d="M417.1,493.4l-37,9l-37-9v-28.5h74L417.1,493.4z"/>
		<path class="st4" d="M94.9,493.4l37,9l37-9v-28.5h-74L94.9,493.4z"/>
		<path class="st6" d="M350.8,512h61.3c2.8,0,5-2.2,5-5v-13.6h-66.3l-7.7,9.3L350.8,512z"/>
		<path class="st6" d="M99.9,512h61.3l7.7-9.3l-7.7-9.3H94.9V507C94.9,509.8,97.1,512,99.9,512L99.9,512z"/>
		<g>
			<path class="st7" d="M350.8,493.4v-72.8c0-4.3-3.5-7.7-7.7-7.7s-7.7,3.5-7.7,7.7v72.8l7.7,9.3L350.8,493.4z"/>
			<path class="st8" d="M335.3,493.4h15.5V512h-15.5V493.4z"/>
			<path class="st7" d="M176.7,493.4v-72.8c0-4.3-3.5-7.7-7.7-7.7s-7.7,3.5-7.7,7.7v72.8l7.7,9.3L176.7,493.4z"/>
			<path class="st8" d="M161.2,493.4h15.5V512h-15.5V493.4z"/>
		</g>
		<path class="st6" d="M256,280.1c-53.9,0-97.6-43.7-97.6-97.6V201c0,53.9,43.7,97.6,97.6,97.6s97.6-43.7,97.6-97.6v-18.6
			C353.6,236.4,309.9,280.1,256,280.1z"/>
	</g>
	<g>
		<path class="st1" d="M195,192.3c1.4,2.5,4.1,4,6.8,4c1.3,0,2.6-0.3,3.8-1l20-11.3c2.5-1.4,4-4.1,4-6.9c-0.1-2.9-1.7-5.4-4.2-6.8
			l-20-10.3c-3.8-2-8.5-0.5-10.5,3.3s-0.5,8.5,3.3,10.5l7.2,3.7l-7.5,4.2C194.2,183.8,192.9,188.6,195,192.3L195,192.3z"/>
		<path class="st1" d="M286.4,184l20,11.3c1.2,0.7,2.5,1,3.8,1c2.7,0,5.3-1.4,6.8-4c2.1-3.7,0.8-8.5-3-10.6l-7.5-4.2l7.2-3.7
			c3.8-2,5.3-6.6,3.3-10.5s-6.6-5.3-10.5-3.3l-20,10.3c-2.5,1.3-4.2,3.9-4.2,6.8C282.4,180,284,182.6,286.4,184L286.4,184z"/>
		<path class="st1" d="M215.8,227.3c-2.7,3.3-2.2,8.3,1.2,10.9c3.3,2.7,8.2,2.2,10.9-1.2c1-1.3,3.9-3.8,6.3-4
			c0.6,0.4,1.8,1.5,2.6,2.3c3.7,3.5,9.2,8.7,19.2,8.7c10,0,15.5-5.2,19.2-8.7c0.8-0.8,2-1.9,2.6-2.3c2.4,0.2,5.3,2.7,6.3,4
			c2.7,3.3,7.6,3.8,10.9,1.2c3.3-2.7,3.9-7.6,1.2-10.9c-0.8-1-8.1-9.7-18.6-9.7c-6.2,0-10.1,3.8-13,6.5c-3.1,2.9-4.9,4.5-8.5,4.5
			s-5.4-1.5-8.5-4.5c-2.9-2.8-6.9-6.5-13-6.5C223.9,217.6,216.6,226.3,215.8,227.3L215.8,227.3z"/>
		<g>
			<path class="st7" d="M91,324.9l-0.6-2.5c-0.9-3.5,1-5.9,1.8-6.7c0.8-0.9,3.1-2.8,6.7-2c4.2,0.9,8.3-1.7,9.3-5.9s-1.7-8.3-5.9-9.3
				c-7.7-1.7-15.6,0.6-21.2,6.3c-5.5,5.7-7.7,13.7-5.7,21.3l0.6,2.5c0.5,1.9,0.2,3.9-0.9,5.6c-1.1,1.7-2.8,2.8-4.7,3.2l-3,0.5
				c-7.8,1.4-14.2,6.6-17.1,14s-1.8,15.5,2.9,21.9c1.3,1.8,1.8,4,1.2,6.2c-0.6,2.1-2.1,3.9-4.1,4.7l-1.4,0.6
				c-6.8,2.8-11.7,8.5-13.4,15.7c-1.7,7.1,0.1,14.4,4.8,20l4.2,4.9c1.4,1.6,1.9,3.6,1.6,5.7c-0.3,2.1-1.4,3.8-3.2,5l-4.5,2.9
				c-5.8,3.8-9.5,9.8-10.2,16.7c-0.7,6.8,1.7,13.5,6.6,18.4l4.4,4.4c2.1,2.1,2.2,4.5,2.1,5.8c-0.1,1.3-0.7,3.6-3.2,5.2
				c-3.6,2.4-4.6,7.2-2.2,10.8c1.5,2.3,4,3.5,6.5,3.5c1.5,0,3-0.4,4.3-1.3c5.7-3.8,9.4-9.8,10.1-16.7c0.7-6.8-1.7-13.5-6.6-18.3
				l-4.4-4.4c-1.5-1.5-2.3-3.6-2.1-5.8c0.2-2.2,1.4-4.1,3.2-5.2l4.5-2.9c5.5-3.6,9.1-9.3,10.1-15.8c0.9-6.5-1-13-5.2-18l-4.2-4.9
				c-1.5-1.8-2.1-4.1-1.5-6.3c0.5-2.2,2.1-4,4.2-4.9l1.4-0.6c6.5-2.7,11.3-8.1,13.2-14.9c1.9-6.8,0.5-13.9-3.7-19.6
				c-2.2-2.9-1.4-5.8-0.9-6.9c0.4-1.1,1.8-3.8,5.4-4.4l3-0.5c6.2-1.1,11.6-4.8,15-10C91.4,337.5,92.5,331,91,324.9L91,324.9z"/>
			<path class="st7" d="M474,489.9c-2.5-1.6-3-4-3.2-5.2s0-3.7,2.1-5.8l4.4-4.4c4.9-4.8,7.3-11.5,6.6-18.4s-4.4-12.9-10.2-16.7
				l-4.5-2.9c-1.7-1.1-2.9-2.9-3.2-5c-0.3-2.1,0.3-4.1,1.6-5.7l4.2-4.9c4.8-5.6,6.5-12.9,4.8-20c-1.7-7.1-6.6-12.9-13.4-15.7
				l-1.4-0.6c-2-0.8-3.6-2.6-4.1-4.7c-0.6-2.1-0.2-4.4,1.2-6.2c4.7-6.3,5.8-14.5,2.9-21.9c-2.9-7.4-9.3-12.6-17.1-14l-3-0.5
				c-2-0.4-3.6-1.5-4.7-3.2c-1.1-1.7-1.4-3.7-0.9-5.6l0.6-2.5c1.9-7.7-0.2-15.7-5.7-21.3s-13.4-8-21.2-6.3c-4.2,0.9-6.8,5.1-5.9,9.3
				c0.9,4.2,5.1,6.8,9.3,5.9c3.5-0.8,5.8,1.1,6.7,2c0.8,0.9,2.7,3.2,1.8,6.7l-0.6,2.5c-1.5,6.1-0.5,12.6,2.9,17.8
				c3.4,5.3,8.9,8.9,15,10l3,0.5c3.5,0.6,4.9,3.3,5.4,4.4c0.4,1.1,1.2,4-0.9,6.9c-4.2,5.6-5.6,12.8-3.7,19.6
				c1.9,6.8,6.7,12.2,13.2,14.9l1.4,0.6c2.1,0.9,3.7,2.7,4.2,4.9c0.5,2.2,0,4.5-1.5,6.3l-4.2,4.9c-4.2,5-6.2,11.5-5.2,18
				c0.9,6.5,4.6,12.2,10.1,15.8l4.5,2.9c1.8,1.2,3,3.1,3.2,5.2c0.2,2.2-0.5,4.3-2.1,5.8l-4.4,4.4c-4.9,4.8-7.2,11.5-6.6,18.3
				c0.7,6.8,4.3,12.9,10.1,16.7c1.3,0.9,2.8,1.3,4.3,1.3c2.5,0,5-1.2,6.5-3.5C478.5,497,477.5,492.2,474,489.9L474,489.9z"/>
			<path class="st7" d="M66.1,209.7l3.1,1.8c2.1,1.2,2.8,3.8,1.8,5.9l-1.2,2.3c-2.9,5.7-2.9,12.5,0,18.2c2.9,5.7,8.4,9.7,14.8,10.6
				l0.2,0c1.8,0.3,2.7,1.4,3.1,2.1c1.5,2.4,4,3.7,6.6,3.7c1.4,0,2.8-0.4,4-1.1c3.7-2.2,4.8-7,2.6-10.7c-3.1-5.1-8.2-8.5-14.1-9.4
				l-0.2,0c-2-0.3-2.9-1.6-3.3-2.4s-0.9-2.3,0-4l1.2-2.3c4.9-9.5,1.4-21.1-7.9-26.4l-3.1-1.8c-1.9-1.1-2.2-2.8-2.2-3.5
				s0-2.5,1.7-3.8c5.2-4.1,8.1-10.5,7.6-17.1c-0.3-4.3-4-7.5-8.3-7.2c-4.3,0.3-7.5,4-7.2,8.3c0,0.7,0,2.5-1.7,3.8
				c-5.3,4.1-8.1,10.5-7.6,17.2C56.5,200.4,60.3,206.4,66.1,209.7z"/>
			<path class="st7" d="M425.1,233.1l-0.2,0c-5.9,0.9-11,4.3-14.1,9.4c-2.2,3.7-1.1,8.4,2.6,10.7c1.3,0.8,2.7,1.1,4,1.1
				c2.6,0,5.2-1.3,6.6-3.7c0.4-0.7,1.3-1.8,3.1-2.1l0.2,0c6.3-1,11.9-4.9,14.8-10.6c2.9-5.7,2.9-12.5,0-18.2l-1.2-2.3
				c-1.1-2.1-0.3-4.7,1.8-5.9l3.1-1.8c5.8-3.3,9.6-9.3,10-15.9s-2.4-13.1-7.6-17.2c-1.7-1.3-1.7-3.1-1.7-3.8c0.3-4.3-2.9-8-7.2-8.3
				c-4.3-0.3-8,2.9-8.3,7.2c-0.5,6.6,2.4,13.1,7.6,17.1c1.7,1.3,1.7,3.1,1.7,3.8s-0.4,2.5-2.2,3.5l-3.1,1.8
				c-9.3,5.3-12.8,16.9-7.9,26.4l1.2,2.3c0.9,1.8,0.4,3.3,0,4C428,231.5,427.1,232.8,425.1,233.1L425.1,233.1z"/>
		</g>
	</g>
</g>
</svg>
