<?xml version="1.0" encoding="utf-8"?>
<!-- Generator: Adobe Illustrator 21.0.2, SVG Export Plug-In . SVG Version: 6.00 Build 0)  -->
<svg version="1.1" id="Capa_1" xmlns="http://www.w3.org/2000/svg" xmlns:xlink="http://www.w3.org/1999/xlink" x="0px" y="0px"
	 viewBox="0 0 512 512" style="enable-background:new 0 0 512 512;" xml:space="preserve">
<style type="text/css">
	.st0{fill:#00A86B;}
	.st1{fill:#03E086;}
	.st2{fill:#13BF75;}
	.st3{fill:#00935B;}
	.st4{fill:#B5B5B5;}
</style>
<g>
	<g>
		<g id="XMLID_427_">
			<g>
				<path class="st0" d="M499,259.1c8.7,1.7,14.4,10.1,12.7,18.8l-6.3,32.3c-1.8,9-10.6,14.7-19.6,12.5
					c-8.4-2.1-13.5-10.6-11.8-19.1l0.2-0.9l-41.8,1.9c-1.3,0.1-2.4,0.9-2.7,2.1c-4.1,12.3-9.5,24.1-16,35.1
					c-0.7,1.1-0.6,2.5,0.3,3.5l18.5,22c3.7-3.5,8.5-5.3,13.3-5.3c4.1,0,8.2,1.3,11.7,4c8.5,6.5,10.1,18.6,3.6,27.1l-5.4,7
					c-6.3,8.2-18,10.4-26.6,4.6c-7.4-5.1-10-14.2-7.4-22.1L395,370.9c-1.2-0.5-2.6-0.2-3.5,0.8c-12.3,13.6-26.7,25.2-42.6,34.5
					c-1.1,0.6-1.7,1.9-1.5,3.1l6.8,41.6l5.9-2.4c8.5-3.4,18.1,0.9,21.1,9.7c2.8,8.2-1.6,17.1-9.6,20.3l-30.2,12.1
					c-8.5,3.4-18.1-0.9-21.1-9.7c-2.8-8.2,1.6-17.1,9.6-20.3l0.8-0.3l-24.3-34.1c-0.7-1-2-1.5-3.3-1.2c-14.5,3.8-29.8,5.8-45.5,5.8
					c-12.4,0-24.6-1.3-36.3-3.7c-1.2-0.2-2.5,0.3-3.2,1.3l-24.4,38.2l0.9,0.3c7.9,2.9,12.8,10.4,12.8,18.3c0,2.2-0.4,4.5-1.2,6.7
					c0,11.4-8.8,17.6-19.5,13.7l-29.9-10.9c-10-3.6-15.2-14.6-11.8-24.7c3.6-10.4,15.4-15.6,25.6-11.8l0.7,0.2l5-44.8
					c0.1-1.3-0.5-2.5-1.6-3c-19-9.8-36-22.8-50.3-38.4c-0.9-0.9-2.2-1.2-3.4-0.8l-36.5,15c4.1,7.7,1.8,17.5-5.7,22.5
					c-7.9,5.2-18.5,2.8-23.9-5l-9.4-13.5c-5.2-7.5-4-18,3.2-23.7c7.7-6,18.6-4.5,24.4,3.1L98.9,341c0.9-1,1-2.4,0.4-3.5
					c-10.6-19-17.8-40.2-20.9-62.6c-0.2-1.3-1.1-2.3-2.3-2.6l-41.1-9.5l0,4.8c0,4.8-2,9.2-5.2,12.3c-3.2,3.2-7.6,5.1-12.4,5.1
					c-9.6,0-17.4-7.8-17.3-17.4l0.3-29.9c0.1-9.8,8.2-18,17.9-17.7c9.5,0.2,17,8,17,17.5L76,228c1.2-0.3,2.2-1.3,2.3-2.6
					c3.2-23.7,11-46,22.5-65.9c0.6-1.1,0.5-2.5-0.3-3.5L81,133.1l-1.7,2.2c-5.2,6.9-15.3,8.1-22,2.5c-6.3-5.3-7.1-14.8-2.1-21.3
					l13-17.1c3-4,7.6-6.1,12.2-6.1c3.2,0,6.5,1,9.2,3.1c6.4,4.8,7.9,13.7,3.7,20.4l27.2,11.8c1.2,0.5,2.6,0.2,3.5-0.8
					c12.8-14.1,27.9-26.1,44.6-35.6c1.1-0.6,1.7-1.9,1.5-3.1l-6.3-41.7l-5.9,2.3c-8.5,3.3-18.1-1.2-21-10
					c-2.7-8.2,1.8-17.1,9.9-20.2l30.3-11.7c8.5-3.3,18.1,1.2,21,10c2.7,8.2-1.8,17.1-9.9,20.2l-0.8,0.3l23.9,34.4
					c0.7,1,2,1.5,3.2,1.2c13.9-3.4,28.3-5.2,43.2-5.2h0c1.3,0,2.5-0.8,2.9-2l7.9-22.1c-9.2-2.9-15.3-11.9-14.1-21.8
					c1.3-11.2,12-19.1,23.2-17.7l10.9,1.4C299.5,8,307.8,17.9,306.6,29c-0.9,8.6-7.2,15.4-15.1,17.4l2.7,24c0.1,1.3,1.1,2.3,2.4,2.6
					c18.4,4,35.7,10.9,51.5,20c1.1,0.6,2.5,0.5,3.4-0.3l32.8-26.6l-5-4c-7.2-5.7-8.2-16.2-2.1-23.1c5.7-6.5,15.6-7.1,22.4-1.7
					l25.4,20.2c7.2,5.7,8.2,16.2,2.1,23.1c-5.7,6.5-15.6,7.1-22.4,1.7l-0.7-0.5L386.6,120c-0.5,1.1-0.3,2.5,0.6,3.4
					c12.3,12.6,22.9,27.1,31.1,42.9c0.6,1.1,1.8,1.8,3.1,1.6l24.9-3.5c-3.7-10.2,1.8-21.5,12.2-24.9c9.9-3.3,20.7,2.3,24.3,12.1
					l5.7,15.4c3.6,9.7-0.7,20.8-10.2,25c-9.1,4-19.4,0.4-24.3-7.7l-20.6,14c-1.1,0.7-1.6,2.1-1.2,3.3c4.2,15.4,6.5,31.6,6.5,48.3
					c0,2.8-0.1,5.6-0.2,8.3c-0.1,1.3,0.7,2.4,1.8,2.9L479,278l1.2-6.2C481.9,263.1,490.3,257.4,499,259.1L499,259.1z"/>
			</g>
		</g>
		<ellipse class="st1" cx="336.3" cy="160.7" rx="25.6" ry="21.4"/>
		<circle class="st1" cx="244" cy="293.8" r="27.9"/>
		<circle class="st2" cx="352.9" cy="279.2" r="20"/>
		<circle class="st2" cx="279" cy="376.8" r="19.4"/>
		<g>
			<path class="st3" d="M147.6,241.2c0-69.6,33.2-131.4,84.6-170.6c-6,0.8-11.9,2-17.7,3.4c-1.2,0.3-2.5-0.2-3.2-1.2l-23.9-34.4
				l0.8-0.3c8.1-3.1,12.6-12,9.9-20.2c-2.9-8.8-12.5-13.2-21-10l-30.3,11.7c-8.1,3.1-12.6,12-9.9,20.2c2.9,8.8,12.5,13.2,21,10
				l5.9-2.3l6.3,41.7c0.2,1.2-0.4,2.5-1.5,3.1c-16.7,9.5-31.7,21.5-44.6,35.6c-0.9,1-2.3,1.3-3.5,0.8l-27.2-11.8
				c4.2-6.7,2.7-15.6-3.7-20.4c-2.8-2.1-6-3.1-9.2-3.1c-4.6,0-9.2,2.1-12.2,6.1l-13,17.1c-5,6.6-4.2,16.1,2.1,21.3
				c6.8,5.6,16.8,4.4,22-2.5l1.7-2.2l19.5,22.9c0.8,1,0.9,2.4,0.3,3.5c-11.5,19.9-19.3,42.2-22.5,65.9c-0.2,1.3-1.1,2.3-2.3,2.6
				l-40.8,9.6c0.1-9.5-7.5-17.3-17-17.5c-9.8-0.3-17.8,8-17.9,17.7L0,267.6c-0.1,9.6,7.7,17.4,17.3,17.4c4.8,0,9.2-1.9,12.4-5.1
				c3.2-3.1,5.2-7.5,5.2-12.3l0-4.8l41.1,9.5c1.2,0.3,2.1,1.3,2.3,2.6c3.1,22.5,10.3,43.6,20.9,62.6c0.6,1.1,0.5,2.5-0.4,3.5
				L73.2,370c-5.7-7.6-16.7-9.2-24.4-3.1c-7.2,5.7-8.4,16.2-3.2,23.7l9.4,13.5c5.4,7.7,16,10.1,23.9,5c7.5-5,9.9-14.7,5.7-22.5
				l36.5-15c1.2-0.5,2.5-0.2,3.4,0.8c14.3,15.6,31.3,28.6,50.3,38.4c1.1,0.6,1.8,1.8,1.6,3l-5,44.8l-0.7-0.2
				c-10.3-3.7-22.1,1.5-25.6,11.8c-3.5,10,1.8,21,11.8,24.7l29.9,10.9c10.7,3.9,19.5-2.2,19.5-13.7c0.8-2.2,1.2-4.5,1.2-6.7
				c0-8-4.9-15.5-12.8-18.3l-0.9-0.3l24.4-38.2c0.7-1.1,2-1.6,3.2-1.3c11.7,2.4,23.9,3.7,36.3,3.7c1.5,0,3,0,4.4-0.1
				C194,394.9,147.6,323.4,147.6,241.2L147.6,241.2z"/>
		</g>
		<circle class="st1" cx="157.4" cy="330.3" r="20.3"/>
		<g>
			<path class="st2" d="M307.3,241.2h-6.8c-4.3,0-7.7-3.5-7.7-7.7c0-4.3,3.5-7.7,7.7-7.7h6.8c4.3,0,7.7,3.5,7.7,7.7
				C315,237.7,311.6,241.2,307.3,241.2z"/>
		</g>
		<g>
			<path class="st2" d="M216.1,376.5h-7c-4.3,0-7.7-3.5-7.7-7.7c0-4.3,3.5-7.7,7.7-7.7h7c4.3,0,7.7,3.5,7.7,7.7
				C223.8,373,220.4,376.5,216.1,376.5z"/>
		</g>
		<g>
			<path class="st1" d="M143.9,263.7h-6.8c-4.3,0-7.7-3.5-7.7-7.7c0-4.3,3.5-7.7,7.7-7.7h6.8c4.3,0,7.7,3.5,7.7,7.7
				C151.6,260.3,148.2,263.7,143.9,263.7z"/>
		</g>
		<g>
			<path class="st2" d="M281.4,128.3H272c-4.3,0-7.7-3.5-7.7-7.7c0-4.3,3.5-7.7,7.7-7.7h9.4c4.3,0,7.7,3.5,7.7,7.7
				C289.1,124.8,285.7,128.3,281.4,128.3z"/>
		</g>
		<g>
			<path class="st1" d="M343.3,351.3h-10.4c-4.3,0-7.7-3.5-7.7-7.7c0-4.3,3.5-7.7,7.7-7.7h10.4c4.3,0,7.7,3.5,7.7,7.7
				C351,347.8,347.6,351.3,343.3,351.3L343.3,351.3z"/>
		</g>
	</g>
	
		<ellipse transform="matrix(0.7852 -0.6192 0.6192 0.7852 -70.2619 161.4752)" class="st1" cx="197.7" cy="182" rx="53.3" ry="44.5"/>
</g>
<g>
	<title>Layer 1</title>
	<g id="svg_3">
		<g id="svg_1">
			<g id="g34" transform="matrix(1.8567727604970585,0,0,-1.8567727604970585,-176.67777920769038,3151.531026866454) ">
				<path id="path36" class="st4" d="M1227.7,1996.7c-6.2,5.2-15.3,7.7-27.3,7.7h-32.4v-59.9h32.4c11.9,0,21,2.6,27.3,7.9
					c6.2,5.2,9.3,12.6,9.3,22.1C1237.1,1984.1,1234,1991.5,1227.7,1996.7 M1237.8,1865l-33.1,47.9h-2h-34.6V1865h-39.8v171.9h74.4
					c15.2,0,28.4-2.5,39.7-7.6c11.2-5.1,19.8-12.3,25.9-21.6c6.1-9.3,9.1-20.4,9.1-33.2c0-12.8-3.1-23.8-9.2-33
					c-6.1-9.3-14.9-16.3-26.2-21.2l38.6-55.3L1237.8,1865L1237.8,1865z"/>
			</g>
			<g id="g38" transform="matrix(1.8567727604970585,0,0,-1.8567727604970585,-176.67777920769038,3151.531026866454) ">
				<path id="path40" class="st4" d="M1441.9,1896.9V1865h-133.1v171.9h129.9v-31.9h-90.4v-37.3h79.8v-30.9h-79.8v-39.8
					L1441.9,1896.9L1441.9,1896.9z"/>
			</g>
			<g id="g42" transform="matrix(1.8567727604970585,0,0,-1.8567727604970585,-176.67777920769038,3151.531026866454) ">
				<path id="path44" class="st4" d="M1490.6,1867.5c-12.7,3.7-22.9,8.5-30.6,14.4l13.5,30c7.4-5.4,16.1-9.7,26.3-13
					c10.1-3.3,20.3-4.9,30.4-4.9c11.3,0,19.6,1.7,25,5c5.4,3.4,8.1,7.8,8.1,13.4c0,4.1-1.6,7.5-4.8,10.2c-3.2,2.7-7.3,4.9-12.3,6.5
					c-5,1.6-11.7,3.4-20.3,5.4c-13.1,3.1-23.8,6.2-32.2,9.3c-8.3,3.1-15.5,8.1-21.5,15c-6,6.9-9,16-9,27.5c0,10,2.7,19,8.1,27.1
					c5.4,8.1,13.5,14.5,24.4,19.3c10.9,4.7,24.2,7.1,39.9,7.1c11,0,21.7-1.3,32.2-3.9c10.5-2.6,19.6-6.4,27.5-11.3l-12.3-30.2
					c-15.9,9-31.8,13.5-47.6,13.5c-11.1,0-19.4-1.8-24.7-5.4c-5.3-3.6-8-8.3-8-14.2c0-5.9,3.1-10.3,9.2-13.1
					c6.1-2.9,15.5-5.7,28.1-8.5c13.1-3.1,23.8-6.2,32.2-9.3c8.3-3.1,15.5-8,21.5-14.7c6-6.7,9-15.8,9-27.3c0-9.8-2.7-18.8-8.2-26.9
					c-5.5-8.1-13.7-14.5-24.7-19.3c-11-4.7-24.3-7.1-40-7.1C1516.4,1862,1503.3,1863.8,1490.6,1867.5"/>
			</g>
			<g id="g46" transform="matrix(1.8567727604970585,0,0,-1.8567727604970585,-176.67777920769038,3151.531026866454) ">
				<path id="path48" class="st0" d="M1664.9,1873.4c-14.2,7.6-25.3,18.2-33.4,31.7c-8.1,13.5-12.2,28.8-12.2,45.8
					c0,17,4.1,32.3,12.2,45.8c8.1,13.5,19.2,24.1,33.4,31.7c14.2,7.6,30.1,11.4,47.8,11.4c14.9,0,28.4-2.6,40.4-7.9
					c12-5.2,22.1-12.8,30.3-22.6l-25.5-23.6c-11.6,13.4-26,20.1-43.2,20.1c-10.6,0-20.1-2.3-28.5-7c-8.3-4.7-14.9-11.2-19.5-19.5
					c-4.7-8.3-7-17.8-7-28.5c0-10.6,2.3-20.1,7-28.5c4.7-8.3,11.2-14.9,19.5-19.5c8.3-4.7,17.8-7,28.5-7c17.2,0,31.6,6.8,43.2,20.4
					l25.5-23.6c-8.2-10-18.3-17.6-30.4-22.8c-12.1-5.2-25.6-7.9-40.5-7.9C1694.9,1862,1679.1,1865.8,1664.9,1873.4"/>
			</g>
			<g id="g50" transform="matrix(1.8567727604970585,0,0,-1.8567727604970585,-176.67777920769038,3151.531026866454) ">
				<path id="path52" class="st0" d="M1827.7,1882.4c-13.7,13.6-20.5,33-20.5,58.2v96.3h39.8v-94.8c0-30.8,12.8-46.2,38.3-46.2
					c12.4,0,21.9,3.7,28.5,11.2c6.5,7.4,9.8,19.1,9.8,35v94.8h39.3v-96.3c0-25.2-6.8-44.6-20.5-58.2c-13.7-13.6-32.8-20.4-57.3-20.4
					C1860.5,1862,1841.4,1868.8,1827.7,1882.4"/>
			</g>
			<g id="g54" transform="matrix(1.8567727604970585,0,0,-1.8567727604970585,-176.67777920769038,3151.531026866454) ">
				<path id="path56" class="st0" d="M2135.3,1896.9V1865h-133.1v171.9h129.9v-31.9h-90.4v-37.3h79.8v-30.9h-79.8v-39.8
					L2135.3,1896.9L2135.3,1896.9z"/>
			</g>
			<g id="g58" transform="matrix(1.8567727604970585,0,0,-1.8567727604970585,-176.67777920769038,3151.531026866454) ">
				<path id="path60" class="st4" d="M1355,1824.3v-51.4h-5.4v23.7h-32.2v-23.7h-5.4v51.4h5.4v-22.9h32.2v22.9H1355z"/>
			</g>
			<g id="g62" transform="matrix(1.8567727604970585,0,0,-1.8567727604970585,-176.67777920769038,3151.531026866454) ">
				<path id="path64" class="st4" d="M1376.2,1803.7c-2.5-2.4-4-5.5-4.3-9.3h27.4c-0.3,3.8-1.8,6.9-4.3,9.3
					c-2.5,2.4-5.7,3.6-9.4,3.6C1381.9,1807.3,1378.8,1806.1,1376.2,1803.7 M1404.3,1790.6h-32.3c0.3-4,1.8-7.3,4.6-9.7
					c2.8-2.5,6.3-3.7,10.6-3.7c2.4,0,4.6,0.4,6.6,1.3c2,0.9,3.7,2.1,5.2,3.8l2.9-3.4c-1.7-2.1-3.9-3.6-6.4-4.7s-5.4-1.6-8.5-1.6
					c-4,0-7.5,0.8-10.5,2.5c-3.1,1.7-5.4,4-7.2,7c-1.7,3-2.6,6.4-2.6,10.1c0,3.8,0.8,7.2,2.5,10.1c1.6,3,3.9,5.3,6.8,7
					c2.9,1.7,6.1,2.5,9.7,2.5c3.6,0,6.8-0.8,9.6-2.5c2.8-1.7,5.1-4,6.7-6.9c1.6-3,2.4-6.4,2.4-10.2L1404.3,1790.6L1404.3,1790.6z"/>
			</g>
			<path id="path66" class="st4" d="M2450.6-241.5h9.7v101.2h-9.7V-241.5L2450.6-241.5z"/>
			<g id="g68" transform="matrix(1.8567727604970585,0,0,-1.8567727604970585,-176.67777920769038,3151.531026866454) ">
				<path id="path70" class="st4" d="M1461.6,1779c2.2,1.3,3.9,3,5.2,5.3c1.2,2.3,1.9,4.9,1.9,7.9c0,2.9-0.6,5.5-1.9,7.8
					c-1.2,2.3-3,4.1-5.2,5.3c-2.2,1.3-4.7,1.9-7.3,1.9c-2.7,0-5.2-0.6-7.4-1.9c-2.2-1.3-3.9-3.1-5.1-5.3c-1.2-2.3-1.9-4.9-1.9-7.8
					c0-2.9,0.6-5.6,1.9-7.9s3-4.1,5.1-5.3c2.2-1.2,4.6-1.9,7.4-1.9C1457,1777.1,1459.4,1777.7,1461.6,1779 M1464.5,1809.3
					c2.9-1.6,5.2-4,6.9-6.9c1.7-3,2.5-6.4,2.5-10.2c0-3.9-0.8-7.3-2.5-10.3c-1.7-3-4-5.3-6.9-6.9c-2.9-1.6-6.2-2.5-9.9-2.5
					c-3.1,0-6,0.7-8.5,1.9c-2.5,1.3-4.6,3.2-6.2,5.7v-21.5h-5.2v52.9h5v-7.6c1.6,2.5,3.6,4.5,6.2,5.9c2.6,1.4,5.5,2.1,8.7,2.1
					C1458.3,1811.8,1461.6,1811,1464.5,1809.3"/>
			</g>
			<g id="g72" transform="matrix(1.8567727604970585,0,0,-1.8567727604970585,-176.67777920769038,3151.531026866454) ">
				<path id="path74" class="st4" d="M1487.7,1826.6c0.7-0.8,1.1-1.7,1.1-2.8c0-0.6-0.1-1.2-0.3-1.9s-0.4-1.4-0.7-2.3l-3.2-10.1
					h-3.5l2.6,10.6c-0.8,0.2-1.5,0.7-2,1.4c-0.5,0.7-0.7,1.5-0.7,2.4c0,1.2,0.4,2.1,1.1,2.9c0.7,0.7,1.7,1.1,2.8,1.1
					C1486.1,1827.7,1487,1827.4,1487.7,1826.6"/>
			</g>
			<g id="g76" transform="matrix(1.8567727604970585,0,0,-1.8567727604970585,-176.67777920769038,3151.531026866454) ">
				<path id="path78" class="st4" d="M1500.1,1773.8c-2.9,0.9-5.1,2-6.7,3.4l2.4,4.1c1.6-1.3,3.6-2.3,6.1-3.1c2.4-0.8,5-1.2,7.6-1.2
					c3.5,0,6.1,0.6,7.8,1.7c1.7,1.1,2.5,2.7,2.5,4.7c0,1.4-0.5,2.5-1.4,3.3c-0.9,0.8-2.1,1.4-3.5,1.8c-1.4,0.4-3.3,0.8-5.7,1.2
					c-3.1,0.6-5.7,1.2-7.6,1.8c-1.9,0.6-3.5,1.7-4.9,3.1s-2,3.5-2,6.1c0,3.2,1.3,5.9,4,7.9c2.7,2.1,6.4,3.1,11.2,3.1
					c2.5,0,5-0.3,7.5-1c2.5-0.7,4.6-1.5,6.2-2.6l-2.3-4.2c-3.2,2.2-7,3.3-11.4,3.3c-3.3,0-5.8-0.6-7.5-1.8c-1.7-1.2-2.5-2.7-2.5-4.6
					c0-1.5,0.5-2.6,1.4-3.5c1-0.9,2.1-1.5,3.6-1.9c1.4-0.4,3.4-0.8,5.9-1.3c3.1-0.6,5.6-1.2,7.4-1.8c1.9-0.6,3.5-1.6,4.8-3
					c1.3-1.4,2-3.4,2-5.9c0-3.4-1.4-6.1-4.2-8c-2.8-2-6.7-3-11.7-3C1506,1772.5,1503,1772.9,1500.1,1773.8"/>
			</g>
			<g id="g80" transform="matrix(1.8567727604970585,0,0,-1.8567727604970585,-176.67777920769038,3151.531026866454) ">
				<path id="path82" class="st4" d="M1577.1,1779c2.2,1.3,3.9,3,5.1,5.3c1.2,2.3,1.8,4.9,1.8,7.9c0,2.9-0.6,5.6-1.8,7.9
					c-1.2,2.3-2.9,4.1-5.1,5.3c-2.2,1.2-4.6,1.9-7.4,1.9c-2.7,0-5.2-0.6-7.4-1.9c-2.2-1.3-3.9-3-5.1-5.3s-1.9-4.9-1.9-7.9
					c0-2.9,0.6-5.6,1.9-7.9s3-4.1,5.1-5.3c2.2-1.2,4.6-1.9,7.4-1.9C1572.5,1777.1,1574.9,1777.7,1577.1,1779 M1559.7,1775
					c-3,1.7-5.3,4-7.1,7c-1.7,3-2.6,6.4-2.6,10.1c0,3.8,0.9,7.2,2.6,10.1c1.7,3,4.1,5.3,7.1,7c3,1.7,6.3,2.5,10.1,2.5
					c3.7,0,7.1-0.8,10.1-2.5c3-1.7,5.3-4,7-7c1.7-3,2.5-6.4,2.5-10.1c0-3.8-0.8-7.2-2.5-10.1c-1.7-3-4-5.3-7-7
					c-3-1.7-6.3-2.5-10.1-2.5C1566,1772.5,1562.6,1773.3,1559.7,1775"/>
			</g>
			<g id="g84" transform="matrix(1.8567727604970585,0,0,-1.8567727604970585,-176.67777920769038,3151.531026866454) ">
				<path id="path86" class="st4" d="M1631.3,1807.6c2.9-2.8,4.3-6.9,4.3-12.3v-22.4h-5.2v21.9c0,4-1,7.1-3,9.2
					c-2,2.1-4.9,3.2-8.6,3.2c-4.2,0-7.5-1.2-9.9-3.7c-2.4-2.5-3.6-5.9-3.6-10.3v-20.3h-5.2v38.6h5v-7.1c1.4,2.3,3.4,4.2,5.9,5.5
					c2.5,1.3,5.4,1.9,8.8,1.9C1624.5,1811.8,1628.4,1810.4,1631.3,1807.6"/>
			</g>
			<g id="g88" transform="matrix(1.8567727604970585,0,0,-1.8567727604970585,-176.67777920769038,3151.531026866454) ">
				<path id="path90" class="st4" d="M1689.3,1775.2c-1-0.9-2.2-1.6-3.6-2c-1.4-0.5-3-0.7-4.5-0.7c-3.6,0-6.4,1-8.4,2.9
					c-2,2-2.9,4.7-2.9,8.3v23.4h-6.9v4.4h6.9v8.4h5.2v-8.4h11.8v-4.4h-11.8V1784c0-2.3,0.6-4.1,1.7-5.3c1.2-1.2,2.8-1.8,5-1.8
					c1.1,0,2.1,0.2,3.1,0.5c1,0.3,1.9,0.8,2.6,1.5L1689.3,1775.2L1689.3,1775.2z"/>
			</g>
			<g id="g92" transform="matrix(1.8567727604970585,0,0,-1.8567727604970585,-176.67777920769038,3151.531026866454) ">
				<path id="path94" class="st4" d="M1730.1,1807.6c2.9-2.8,4.3-6.9,4.3-12.3v-22.4h-5.2v21.9c0,4-1,7.1-3,9.2
					c-2,2.1-4.9,3.2-8.6,3.2c-4.2,0-7.5-1.2-9.9-3.7c-2.4-2.5-3.6-5.9-3.6-10.3v-20.3h-5.2v54.5h5.2v-22.6c1.4,2.3,3.4,4,5.9,5.2
					c2.5,1.2,5.4,1.8,8.6,1.8C1723.4,1811.8,1727.2,1810.4,1730.1,1807.6"/>
			</g>
			<g id="g96" transform="matrix(1.8567727604970585,0,0,-1.8567727604970585,-176.67777920769038,3151.531026866454) ">
				<path id="path98" class="st4" d="M1754.3,1803.7c-2.5-2.4-4-5.5-4.3-9.3h27.4c-0.3,3.8-1.8,6.9-4.3,9.3
					c-2.5,2.4-5.7,3.6-9.4,3.6C1760,1807.3,1756.8,1806.1,1754.3,1803.7 M1782.4,1790.6H1750c0.3-4,1.8-7.3,4.6-9.7
					c2.8-2.5,6.3-3.7,10.6-3.7c2.4,0,4.6,0.4,6.6,1.3c2,0.9,3.7,2.1,5.2,3.8l2.9-3.4c-1.7-2.1-3.9-3.6-6.4-4.7
					c-2.6-1.1-5.4-1.6-8.5-1.6c-4,0-7.5,0.8-10.5,2.5c-3.1,1.7-5.4,4-7.2,7c-1.7,3-2.6,6.4-2.6,10.1c0,3.8,0.8,7.2,2.5,10.1
					c1.6,3,3.9,5.3,6.8,7c2.9,1.7,6.1,2.5,9.7,2.5c3.6,0,6.8-0.8,9.6-2.5c2.8-1.7,5.1-4,6.7-6.9c1.6-3,2.4-6.4,2.4-10.2
					L1782.4,1790.6L1782.4,1790.6z"/>
			</g>
			<g id="g100" transform="matrix(1.8567727604970585,0,0,-1.8567727604970585,-176.67777920769038,3151.531026866454) ">
				<path id="path102" class="st4" d="M1869,1811.5l-14.6-38.6h-4.9l-12.2,31.7l-12.2-31.7h-4.9l-14.5,38.6h5l12.1-32.8l12.4,32.8
					h4.5l12.3-32.8l12.3,32.8H1869L1869,1811.5z"/>
			</g>
			<g id="g104" transform="matrix(1.8567727604970585,0,0,-1.8567727604970585,-176.67777920769038,3151.531026866454) ">
				<path id="path106" class="st4" d="M1895,1778.6c2.1,1.3,3.7,3.3,4.7,5.8v6.3h-12.1c-6.6,0-9.9-2.3-9.9-6.9c0-2.3,0.9-4,2.6-5.3
					c1.7-1.3,4.1-1.9,7.2-1.9C1890.4,1776.6,1892.9,1777.3,1895,1778.6 M1900.9,1808c2.7-2.5,4-6.3,4-11.2v-24h-5v6
					c-1.2-2-2.9-3.6-5.2-4.7c-2.3-1.1-5-1.7-8.1-1.7c-4.3,0-7.7,1-10.3,3.1c-2.5,2.1-3.8,4.8-3.8,8.2c0,3.3,1.2,5.9,3.6,7.9
					c2.4,2,6.2,3,11.4,3h12.3v2.3c0,3.3-0.9,5.9-2.8,7.6c-1.9,1.7-4.6,2.6-8.2,2.6c-2.5,0-4.8-0.4-7.1-1.2c-2.3-0.8-4.2-1.9-5.8-3.3
					l-2.3,3.9c2,1.7,4.3,2.9,7.1,3.9c2.7,0.9,5.6,1.4,8.7,1.4C1894.3,1811.8,1898.2,1810.5,1900.9,1808"/>
			</g>
			<g id="g108" transform="matrix(1.8567727604970585,0,0,-1.8567727604970585,-176.67777920769038,3151.531026866454) ">
				<path id="path110" class="st4" d="M1950.8,1811.5l-19.3-43.3c-1.6-3.6-3.4-6.2-5.4-7.7c-2.1-1.5-4.5-2.3-7.4-2.3
					c-1.9,0-3.6,0.3-5.2,0.9c-1.6,0.6-3,1.5-4.2,2.6l2.4,3.9c2-2,4.3-2.9,7.1-2.9c1.8,0,3.3,0.5,4.5,1.5c1.2,1,2.4,2.6,3.5,5
					l1.7,3.7l-17.3,38.6h5.4l14.5-32.8l14.5,32.8L1950.8,1811.5L1950.8,1811.5z"/>
			</g>
		</g>
		<g id="svg_2">
			<g id="g22" transform="matrix(0.8106326555086831,0,0,-0.8106326555086831,72.2923639600009,2620.343971013989) ">
				<path id="path24" class="st0" d="M1429.4,3747.2c0,0,236.5,0,361.9-52.8c0,0,285.6-63.3,259.5-438.3h-231
					c0,0,18.5,184-20.5,268.6c0,0-55.8,162.9-264.4,174l6.8-287.4l-112.4-161.4V3747.2L1429.4,3747.2z"/>
			</g>
			<g id="g26" transform="matrix(0.8106326555086831,0,0,-0.8106326555086831,72.2923639600009,2620.343971013989) ">
				<path id="path28" class="st4" d="M1428.2,4090.2c0,0,109.9,1.9,109.9,0v-98.7h95.6v-109.3h-96.2v-100h-109.3v99.3h-102.4v109.9
					h102.4V4090.2L1428.2,4090.2z"/>
			</g>
			<g id="g30" transform="matrix(0.8106326555086831,0,0,-0.8106326555086831,72.2923639600009,2620.343971013989) ">
				<path id="path32" class="st4" d="M2004.2,3974.9c-16.2,35-38.2,59.3-40.2,61.6c-133.1,138.9-374.4,96.3-374.4,96.3h-3.7v-88.2
					c212.3,10.6,247.1-134.1,247.1-134.1c8-27.3,9.6-54.8,7-81.3c3.3,19,2,11.4-0.2-1.7c-1.4-13.3-3.8-26.3-6.9-39
					c-2.8-16-8.4-32.4-16.1-48.9c-8.2-19.9-17.4-37.7-26-52.5c-24.2-36.2-55.5-66.2-69.1-78.5c-2.3-2-4.5-4-6.8-5.9c0,0,0,0,0,0v0
					c-0.2-0.2-0.5-0.4-0.7-0.6c-38.4-39.4-71.2-65.8-71.3-65.9c-191.6-185.7-213.5-286.2-213.5-286.2
					c72.7,103.5,210.7,186.4,287.5,227.1c6.4,3.4,12.3,6.5,17.8,9.3v0c0,0,0,0,0,0c0.6,0.3,1.2,0.6,1.8,0.9
					c15.5,8,127.3,67.5,211.1,166.8l2.1,2.5c6.2,7.5,12.3,15.2,18.3,23.1c56.1,78.5,60,170.1,60.2,176.1
					C2027.8,3906.4,2015.2,3948.2,2004.2,3974.9"/>
			</g>
		</g>
	</g>
</g>
</svg>
