<?xml version="1.0" encoding="utf-8"?>
<!-- Generator: Adobe Illustrator 21.0.2, SVG Export Plug-In . SVG Version: 6.00 Build 0)  -->
<svg version="1.1" id="Capa_1" xmlns="http://www.w3.org/2000/svg" xmlns:xlink="http://www.w3.org/1999/xlink" x="0px" y="0px"
	 viewBox="0 0 512 512" style="enable-background:new 0 0 512 512;" xml:space="preserve">
<style type="text/css">
	.st0{fill:#424A5E;}
	.st1{fill:#FDD4BB;}
	.st2{fill:#F7C4A8;}
	.st3{fill:#03E086;}
	.st4{fill:#00A86B;}
	.st5{fill:#00935B;}
	.st6{fill:#13BF75;}
</style>
<g>
	<path class="st0" d="M294.8,0.2C226-2.4,215.6,27.8,182.3,36.3c-15.4,3.9-30.4,0.6-43.4-5.2c-13.9-6.3-27.6,9-19.7,22.1
		c9.2,15.2,22.3,30.8,40.7,42.4l0,0l173.5,171.5c0,0,77.4-50,84.8-119.7C426,74.8,378.5,3.2,294.8,0.2z"/>
	<path class="st1" d="M300.2,200.7c14.3-4.3,24.6-17.9,23.8-33.8c-0.9-17.1-14.9-30.8-31.9-31.5c-10-0.4-19,3.6-25.4,10.2
		c-2.3,2.4-6.2,2-7.9-0.8L241,115.7c-1-1.6-2.7-2.5-4.6-2.4c-32.3,1.9-57.2-5.7-76.4-17.8v114.2c0,2.6,2,4.7,4.6,5
		c8.3,0.7,26.1,3.6,36.3,15c2.2,2.5,1.4,6.4-1.6,7.8l-24.8,11.9c-2.7,1.3-3.7,4.7-2,7.2c12.5,19.2,33.2,32.6,57.2,35.1v21.8
		l103.7-26.9v-19.7l-36-58.9C295.7,205.3,297.1,201.7,300.2,200.7z"/>
	<g>
		<path class="st2" d="M229.6,313.6v18.6l103.7-26.9v-18.6c-3.3-2.1-6.8-3.7-10.5-4.9C293,272.2,258.9,285.2,229.6,313.6
			L229.6,313.6z"/>
	</g>
	<g>
		<path class="st0" d="M222.6,181.3l-7.5-4.2l7.2-3.7c3.8-2,5.3-6.6,3.3-10.4s-6.6-5.3-10.4-3.3l-20,10.3c-2.5,1.3-4.1,3.9-4.2,6.8
			s1.5,5.5,4,6.9l20,11.3c1.2,0.7,2.5,1,3.8,1c2.7,0,5.3-1.4,6.8-4C227.6,188.2,226.3,183.4,222.6,181.3L222.6,181.3z"/>
		<g>
			<path class="st3" d="M139,243.8c-1.6-4-6.2-5.8-10.1-4.2l-22.3,9.3c-4,1.6-5.8,6.2-4.2,10.1c1.2,3,4.1,4.8,7.2,4.8
				c1,0,2-0.2,3-0.6l22.3-9.3C138.7,252.3,140.6,247.8,139,243.8L139,243.8z"/>
			<path class="st3" d="M127,224.5c3.5,0,6.6-2.4,7.5-5.9c1-4.2-1.5-8.4-5.7-9.4l-26.3-6.5c-4.2-1-8.4,1.5-9.4,5.7s1.5,8.4,5.7,9.4
				l26.3,6.5C125.8,224.4,126.4,224.5,127,224.5L127,224.5z"/>
			<path class="st3" d="M152,266.7c-3.5-2.5-8.3-1.8-10.8,1.7l-15.9,21.9c-2.5,3.5-1.8,8.3,1.7,10.8c3.4,2.5,8.3,1.8,10.8-1.7
				l15.9-21.9C156.2,274,155.5,269.2,152,266.7z"/>
		</g>
	</g>
	<path class="st4" d="M394.4,493.4c-2.7-48.2-15-174.8-71.5-193c-66.7-21.5-154.2,69.7-162.3,193l122.4,9.3L394.4,493.4z"/>
	<path class="st5" d="M160.5,493.4c-0.3,4.5-0.5,8.9-0.6,13.5c-0.1,2.8,2.2,5.1,5,5.1H227l55.9-9.3l55.9,9.3H390
		c2.8,0,5.1-2.3,5-5.2c-0.1-3.2-0.3-7.8-0.6-13.4H160.5z"/>
	<path class="st1" d="M331.1,493.4l-48.2,9.3l-48.2-9.3V464H331v29.4H331.1z"/>
	<path class="st2" d="M234.8,493.4h96.3V512h-96.3V493.4z"/>
	<path class="st3" d="M338.9,493.4v-88.8c0-4.3-3.5-7.7-7.7-7.7s-7.7,3.5-7.7,7.7v88.8l7.7,9.3L338.9,493.4z"/>
	<path class="st3" d="M242.6,493.4v-88.8c0-4.3-3.5-7.7-7.7-7.7s-7.7,3.5-7.7,7.7v88.8l7.7,9.3L242.6,493.4z"/>
	<g>
		<path class="st6" d="M227.1,493.4h15.5V512h-15.5V493.4z"/>
		<path class="st6" d="M323.4,493.4h15.5V512h-15.5V493.4z"/>
	</g>
</g>
</svg>
