<?xml version="1.0" encoding="utf-8"?>
<!-- Generator: Adobe Illustrator 21.0.2, SVG Export Plug-In . SVG Version: 6.00 Build 0)  -->
<svg version="1.1" id="Layer_1" xmlns="http://www.w3.org/2000/svg" xmlns:xlink="http://www.w3.org/1999/xlink" x="0px" y="0px"
	 viewBox="0 0 512 512" style="enable-background:new 0 0 512 512;" xml:space="preserve">
<style type="text/css">
	.st0{fill:#00A86B;}
	.st1{fill:#424A5E;}
	.st2{fill:#EBBAA1;}
	.st3{fill:#E8A990;}
	.st4{fill:#FDD4BB;}
	.st5{fill:#00935B;}
	.st6{fill:#03E086;}
	.st7{fill:#F7C4A8;}
	.st8{fill:#13BF75;}
	.st9{fill:#008E57;}
</style>
<g>
	<path class="st0" d="M248.3,287.3c-13.6,7.2-29.2,11.4-45.7,11.4s-32.1-4.1-45.7-11.4C91,301.1,41.5,359.5,41.5,429.5v35.4l9,28.5
		l152.1,9l152.1-9l9-28.5v-35.4C363.7,359.5,314.2,301.1,248.3,287.3L248.3,287.3z"/>
	<path class="st1" d="M75.6,166.7c0,0-28.1-37.8-29.3-92.4c-0.1-3.1,2.6-5.4,5.7-5c6.3,0.9,16.7,1.6,26.4-1
		c29.5-7.9,58.5-66.4,109.5-68.1s61,22.1,61,22.1s18.8-11.2,46.8-7.5c42,5.7,78.9,69.7,41.4,157.6L75.6,166.7z"/>
	<path class="st2" d="M61.6,183.9c0,19,15.4,30.1,29,30.1l14.6-12.8c0-0.1,12.8-17.3,12.8-17.4l-12.8-17.4
		c-4.3-2.4-9.3-3.7-14.6-3.7C77,162.8,65.5,171.7,61.6,183.9L61.6,183.9z"/>
	<path class="st3" d="M90.5,205c-13.6,0-25-8.9-29-21.1c-0.9,2.9-1.5,6-1.5,9.3c0,16.8,13.6,30.4,30.4,30.4c6,0,11.6-1.7,16.3-4.7
		l8-10.6l-9.6-7C100.8,203.7,95.8,205,90.5,205L90.5,205z"/>
	<path class="st2" d="M344,183.9c0,19-15.4,30.1-29,30.1l-14.6-12.8c0-0.1-12.8-17.3-12.8-17.4l12.8-17.4c4.3-2.4,9.3-3.7,14.6-3.7
		C328.6,162.8,340.1,171.7,344,183.9L344,183.9z"/>
	<path class="st3" d="M315.1,205c13.6,0,25-8.9,29-21.1c0.9,2.9,1.5,6,1.5,9.3c0,16.8-13.6,30.4-30.4,30.4c-6,0-11.6-1.7-16.3-4.7
		l-8-10.6l9.6-7C304.8,203.7,309.8,205,315.1,205z"/>
	<path class="st4" d="M202.7,289.1c53.9,0,97.6-41.6,97.6-106.6v-28c0-8.5-3.5-16.8-9.8-22.6C272.3,115.1,252,86,243.8,73.8
		c-1.9-2.8-5.8-3.1-8.1-0.6c-41.1,44.9-94.4,59.9-118.2,64.5c-7.3,1.4-12.5,7.8-12.5,15.2v29.5C105,246.8,148.8,289.1,202.7,289.1z"
		/>
	<path class="st5" d="M123.5,512h158.7l7.7-9.3l-7.7-9.3H123.5l-7.7,9.3L123.5,512z"/>
	<path class="st4" d="M363.8,493.4l-37,9l-37-9v-28.5h74V493.4z"/>
	<path class="st4" d="M41.6,493.4l37,9l37-9v-28.5h-74V493.4z"/>
	<rect x="282.1" y="493.4" class="st6" width="81.7" height="18.6"/>
	<path class="st7" d="M41.6,493.4H108l7.7,9.3L108,512H46.6c-2.8,0-5-2.2-5-5V493.4z"/>
	<path class="st2" d="M156.7,287.2c-0.1,1.2-0.2,2.4-0.2,3.6c0,25.5,20.7,46.2,46.2,46.2s46.2-20.7,46.2-46.2c0-1.2-0.1-2.4-0.2-3.6
		H156.7z"/>
	<path class="st7" d="M202.7,280.1c-53.9,0-97.6-43.7-97.6-97.6V201c0,53.9,43.7,97.6,97.6,97.6s97.6-43.7,97.6-97.6v-18.6
		C300.3,236.4,256.6,280.1,202.7,280.1z"/>
	<g>
		<path class="st6" d="M297.6,493.4v-72.8c0-4.3-3.5-7.7-7.7-7.7s-7.7,3.5-7.7,7.7v72.8l7.7,9.3L297.6,493.4z"/>
		<path class="st6" d="M123.5,493.4v-72.8c0-4.3-3.5-7.7-7.7-7.7s-7.7,3.5-7.7,7.7v72.8l7.7,9.3L123.5,493.4z"/>
		<path class="st8" d="M108,493.4h15.5V512H108V493.4z"/>
	</g>
	<g>
		<g>
			<path class="st9" d="M415.8,414.3c-0.1,26-10.8,49.5-28.1,66.4c-16.8,16.3-39.7,26.4-65,26.3c-51.3-0.1-92.8-41.8-92.7-93.2
				c0.1-36.9,22-70.2,55.8-84.9c47-20.5,101.8,1,122.3,48C413.2,388.6,415.9,401.4,415.8,414.3z"/>
			<path class="st6" d="M322.9,512c-0.1,0-0.2,0-0.2,0c-54-0.1-97.9-44.2-97.7-98.2c0.1-38.9,23.2-74,58.8-89.6
				c24-10.5,50.6-11,75-1.4c24.4,9.6,43.5,28,54,52c5.5,12.5,8.2,25.8,8.2,39.4c-0.1,26.6-10.6,51.4-29.6,70
				C372.8,502.1,348.6,512,322.9,512z M322.9,326.1c-11.9,0-23.9,2.5-35.1,7.4c-31.9,13.9-52.6,45.5-52.7,80.3
				c-0.1,48.4,39.2,88,87.6,88.1c0.1,0,0.1,0,0.2,0c23,0,44.8-8.8,61.3-24.9c17.1-16.6,26.5-38.9,26.6-62.7l0,0
				c0-12.3-2.4-24.2-7.3-35.4c-9.4-21.5-26.6-38.1-48.4-46.7C344.6,328.1,333.7,326.1,322.9,326.1z"/>
		</g>
		<polygon class="st6" points="369.4,395.7 341.5,395.7 341.5,367.8 304.3,367.8 304.3,395.7 276.4,395.7 276.4,432.8 304.3,432.8 
			304.3,460.7 341.5,460.7 341.5,432.8 369.4,432.8 		"/>
	</g>
	<g>
		<path class="st1" d="M228.2,251.4c-15.3-9.5-34.7-9.5-50,0c-5,2.7-11.2,0.8-13.8-4.2c-2.3-4.3-1.2-9.7,2.6-12.8
			c35.9-23.9,87.1-3.5,75.4,14.1C239.2,253.2,232.9,254.5,228.2,251.4z"/>
		<path class="st1" d="M152.2,191.8c-5.6,0-10.2-4.6-10.2-10.2c0-5.6,4.6-10.2,10.2-10.2c5.6,0,10.2-4.6,10.2-10.2
			s4.6-10.2,10.2-10.2C192.1,151,182.8,191.8,152.2,191.8z"/>
		<path class="st1" d="M254.3,191.8c-30.6,0-40-40.8-20.4-40.8c5.6,0,10.2,4.6,10.2,10.2s4.6,10.2,10.2,10.2
			c5.6,0,10.2,4.6,10.2,10.2C264.5,187.3,259.9,191.8,254.3,191.8z"/>
	</g>
	<g>
		<g>
			<g id="XMLID_427_">
				<g>
					<path class="st0" d="M464.9,261.2c2,0.4,3.4,2.4,3,4.4l-1.5,7.5c-0.4,2.1-2.5,3.4-4.6,2.9c-2-0.5-3.1-2.5-2.7-4.5l0-0.2
						l-9.7,0.4c-0.3,0-0.6,0.2-0.6,0.5c-1,2.9-2.2,5.6-3.7,8.2c-0.2,0.3-0.1,0.6,0.1,0.8l4.3,5.1c0.9-0.8,2-1.2,3.1-1.2
						c1,0,1.9,0.3,2.7,0.9c2,1.5,2.4,4.3,0.8,6.3l-1.3,1.6c-1.5,1.9-4.2,2.4-6.2,1.1c-1.7-1.2-2.3-3.3-1.7-5.1l-6.2-2.7
						c-0.3-0.1-0.6,0-0.8,0.2c-2.9,3.2-6.2,5.9-9.9,8c-0.3,0.1-0.4,0.4-0.3,0.7l1.6,9.7l1.4-0.6c2-0.8,4.2,0.2,4.9,2.3
						c0.7,1.9-0.4,4-2.2,4.7l-7,2.8c-2,0.8-4.2-0.2-4.9-2.3c-0.7-1.9,0.4-4,2.2-4.7l0.2-0.1l-5.7-7.9c-0.2-0.2-0.5-0.3-0.8-0.3
						c-3.4,0.9-6.9,1.4-10.6,1.4c-2.9,0-5.7-0.3-8.5-0.9c-0.3,0-0.6,0.1-0.7,0.3l-5.7,8.9l0.2,0.1c1.8,0.7,3,2.4,3,4.3
						c0,0.5-0.1,1-0.3,1.6c0,2.7-2.1,4.1-4.5,3.2l-7-2.5c-2.3-0.8-3.5-3.4-2.7-5.8c0.8-2.4,3.6-3.6,6-2.7l0.2,0l1.2-10.4
						c0-0.3-0.1-0.6-0.4-0.7c-4.4-2.3-8.4-5.3-11.7-8.9c-0.2-0.2-0.5-0.3-0.8-0.2l-8.5,3.5c1,1.8,0.4,4.1-1.3,5.2
						c-1.8,1.2-4.3,0.7-5.6-1.2l-2.2-3.1c-1.2-1.7-0.9-4.2,0.7-5.5c1.8-1.4,4.3-1,5.7,0.7l6-6.7c0.2-0.2,0.2-0.6,0.1-0.8
						c-2.5-4.4-4.1-9.4-4.9-14.6c0-0.3-0.3-0.5-0.5-0.6l-9.6-2.2v1.1c0,1.1-0.5,2.1-1.2,2.9c-0.7,0.7-1.8,1.2-2.9,1.2
						c-2.2,0-4.1-1.8-4-4.1l0.1-7c0-2.3,1.9-4.2,4.2-4.1c2.2,0,4,1.9,4,4.1l9.5-2.2c0.3-0.1,0.5-0.3,0.5-0.6
						c0.7-5.5,2.6-10.7,5.2-15.4c0.1-0.3,0.1-0.6-0.1-0.8l-4.5-5.3l-0.4,0.5c-1.2,1.6-3.6,1.9-5.1,0.6c-1.5-1.2-1.7-3.4-0.5-5l3-4
						c0.7-0.9,1.8-1.4,2.8-1.4c0.7,0,1.5,0.2,2.1,0.7c1.5,1.1,1.8,3.2,0.9,4.8l6.3,2.7c0.3,0.1,0.6,0,0.8-0.2
						c3-3.3,6.5-6.1,10.4-8.3c0.3-0.1,0.4-0.4,0.3-0.7l-1.5-9.7l-1.4,0.5c-2,0.8-4.2-0.3-4.9-2.3c-0.6-1.9,0.4-4,2.3-4.7l7.1-2.7
						c2-0.8,4.2,0.3,4.9,2.3c0.6,1.9-0.4,4-2.3,4.7l-0.2,0.1l5.6,8c0.2,0.2,0.5,0.3,0.7,0.3c3.2-0.8,6.6-1.2,10.1-1.2l0,0
						c0.3,0,0.6-0.2,0.7-0.5l1.8-5.1c-2.1-0.7-3.6-2.8-3.3-5.1c0.3-2.6,2.8-4.5,5.4-4.1l2.5,0.3c2.6,0.3,4.5,2.7,4.2,5.2
						c-0.2,2-1.7,3.6-3.5,4.1l0.6,5.6c0,0.3,0.3,0.5,0.6,0.6c4.3,0.9,8.3,2.5,12,4.7c0.3,0.1,0.6,0.1,0.8-0.1l7.6-6.2l-1.2-0.9
						c-1.7-1.3-1.9-3.8-0.5-5.4c1.3-1.5,3.6-1.7,5.2-0.4l5.9,4.7c1.7,1.3,1.9,3.8,0.5,5.4c-1.3,1.5-3.6,1.7-5.2,0.4l-0.2-0.1
						l-4.1,8.9c-0.1,0.3-0.1,0.6,0.1,0.8c2.9,2.9,5.3,6.3,7.2,10c0.1,0.3,0.4,0.4,0.7,0.4l5.8-0.8c-0.9-2.4,0.4-5,2.8-5.8
						c2.3-0.8,4.8,0.5,5.7,2.8l1.3,3.6c0.8,2.3-0.2,4.8-2.4,5.8c-2.1,0.9-4.5,0.1-5.7-1.8l-4.8,3.3c-0.3,0.2-0.4,0.5-0.3,0.8
						c1,3.6,1.5,7.4,1.5,11.3c0,0.7,0,1.3,0,1.9c0,0.3,0.2,0.6,0.4,0.7l9,3.9l0.3-1.4C460.9,262.2,462.9,260.8,464.9,261.2
						L464.9,261.2z"/>
				</g>
			</g>
			<ellipse class="st6" cx="427" cy="238.3" rx="6" ry="5"/>
			<circle class="st6" cx="405.5" cy="269.3" r="6.5"/>
			<circle class="st8" cx="430.8" cy="265.9" r="4.7"/>
			<circle class="st8" cx="413.6" cy="288.6" r="4.5"/>
			<g>
				<path class="st5" d="M383,257c0-16.2,7.7-30.6,19.7-39.8c-1.4,0.2-2.8,0.5-4.1,0.8c-0.3,0.1-0.6,0-0.7-0.3l-5.6-8l0.2-0.1
					c1.9-0.7,2.9-2.8,2.3-4.7c-0.7-2.1-2.9-3.1-4.9-2.3l-7.1,2.7c-1.9,0.7-2.9,2.8-2.3,4.7c0.7,2.1,2.9,3.1,4.9,2.3l1.4-0.5l1.5,9.7
					c0,0.3-0.1,0.6-0.3,0.7c-3.9,2.2-7.4,5-10.4,8.3c-0.2,0.2-0.5,0.3-0.8,0.2l-6.3-2.7c1-1.6,0.6-3.6-0.9-4.8
					c-0.7-0.5-1.4-0.7-2.1-0.7c-1.1,0-2.1,0.5-2.8,1.4l-3,4c-1.2,1.5-1,3.8,0.5,5c1.6,1.3,3.9,1,5.1-0.6l0.4-0.5l4.5,5.3
					c0.2,0.2,0.2,0.6,0.1,0.8c-2.7,4.6-4.5,9.8-5.2,15.4c0,0.3-0.3,0.5-0.5,0.6l-9.5,2.2c0-2.2-1.7-4-4-4.1
					c-2.3-0.1-4.1,1.9-4.2,4.1l-0.1,6.9c0,2.2,1.8,4.1,4,4.1c1.1,0,2.1-0.4,2.9-1.2c0.7-0.7,1.2-1.7,1.2-2.9v-1.1l9.6,2.2
					c0.3,0.1,0.5,0.3,0.5,0.6c0.7,5.2,2.4,10.2,4.9,14.6c0.1,0.3,0.1,0.6-0.1,0.8l-6,6.8c-1.3-1.8-3.9-2.1-5.7-0.7
					c-1.7,1.3-2,3.8-0.7,5.5l2.2,3.1c1.3,1.8,3.7,2.4,5.6,1.2c1.7-1.2,2.3-3.4,1.3-5.2l8.5-3.5c0.3-0.1,0.6,0,0.8,0.2
					c3.3,3.6,7.3,6.7,11.7,8.9c0.3,0.1,0.4,0.4,0.4,0.7l-1.2,10.4l-0.2,0c-2.4-0.9-5.1,0.3-6,2.7c-0.8,2.3,0.4,4.9,2.7,5.8l7,2.5
					c2.5,0.9,4.5-0.5,4.5-3.2c0.2-0.5,0.3-1,0.3-1.6c0-1.9-1.1-3.6-3-4.3l-0.2-0.1l5.7-8.9c0.2-0.3,0.5-0.4,0.7-0.3
					c2.7,0.6,5.6,0.9,8.5,0.9c0.3,0,0.7,0,1,0C393.8,292.9,383,276.2,383,257L383,257z"/>
			</g>
			<circle class="st6" cx="385.3" cy="277.8" r="4.7"/>
			<g>
				<path class="st8" d="M420.2,257h-1.6c-1,0-1.8-0.8-1.8-1.8c0-1,0.8-1.8,1.8-1.8h1.6c1,0,1.8,0.8,1.8,1.8
					C422,256.2,421.2,257,420.2,257z"/>
			</g>
			<g>
				<path class="st8" d="M399,288.6h-1.6c-1,0-1.8-0.8-1.8-1.8c0-1,0.8-1.8,1.8-1.8h1.6c1,0,1.8,0.8,1.8,1.8
					C400.8,287.8,400,288.6,399,288.6z"/>
			</g>
			<g>
				<path class="st6" d="M382.1,262.3h-1.6c-1,0-1.8-0.8-1.8-1.8c0-1,0.8-1.8,1.8-1.8h1.6c1,0,1.8,0.8,1.8,1.8
					C383.9,261.5,383.1,262.3,382.1,262.3z"/>
			</g>
			<g>
				<path class="st8" d="M414.2,230.7H412c-1,0-1.8-0.8-1.8-1.8c0-1,0.8-1.8,1.8-1.8h2.2c1,0,1.8,0.8,1.8,1.8
					C416,229.9,415.2,230.7,414.2,230.7z"/>
			</g>
			<g>
				<path class="st6" d="M428.6,282.7h-2.4c-1,0-1.8-0.8-1.8-1.8c0-1,0.8-1.8,1.8-1.8h2.4c1,0,1.8,0.8,1.8,1.8
					S429.6,282.7,428.6,282.7L428.6,282.7z"/>
			</g>
		</g>
		
			<ellipse transform="matrix(0.7852 -0.6192 0.6192 0.7852 -65.857 296.6281)" class="st6" cx="394.7" cy="243.2" rx="12.4" ry="10.4"/>
	</g>
	<g>
		<g>
			<g id="XMLID_1_">
				<g>
					<path class="st0" d="M397.4,165.7c0.6,0.1,1.1,0.7,0.9,1.4l-0.5,2.4c-0.1,0.7-0.8,1.1-1.4,0.9c-0.6-0.2-1-0.8-0.9-1.4l0-0.1
						l-3.1,0.1c-0.1,0-0.2,0.1-0.2,0.2c-0.3,0.9-0.7,1.8-1.2,2.6c-0.1,0.1,0,0.2,0,0.3l1.4,1.6c0.3-0.3,0.6-0.4,1-0.4
						c0.3,0,0.6,0.1,0.9,0.3c0.6,0.5,0.7,1.4,0.3,2l-0.4,0.5c-0.5,0.6-1.3,0.8-2,0.3c-0.5-0.4-0.7-1-0.5-1.6l-2-0.9
						c-0.1,0-0.2,0-0.3,0.1c-0.9,1-2,1.9-3.1,2.5c-0.1,0-0.1,0.1-0.1,0.2l0.5,3.1l0.4-0.2c0.6-0.3,1.3,0.1,1.6,0.7
						c0.2,0.6-0.1,1.3-0.7,1.5l-2.2,0.9c-0.6,0.3-1.3-0.1-1.6-0.7c-0.2-0.6,0.1-1.3,0.7-1.5l0.1,0l-1.8-2.5
						c-0.1-0.1-0.1-0.1-0.2-0.1c-1.1,0.3-2.2,0.4-3.4,0.4c-0.9,0-1.8-0.1-2.7-0.3c-0.1,0-0.2,0-0.2,0.1l-1.8,2.8l0.1,0
						c0.6,0.2,0.9,0.8,0.9,1.3c0,0.2,0,0.3-0.1,0.5c0,0.8-0.6,1.3-1.4,1l-2.2-0.8c-0.7-0.3-1.1-1.1-0.9-1.8c0.3-0.8,1.1-1.1,1.9-0.9
						l0.1,0l0.4-3.3c0-0.1,0-0.2-0.1-0.2c-1.4-0.7-2.7-1.7-3.7-2.8c-0.1-0.1-0.2-0.1-0.3-0.1l-2.7,1.1c0.3,0.6,0.1,1.3-0.4,1.7
						c-0.6,0.4-1.4,0.2-1.8-0.4l-0.7-1c-0.4-0.6-0.3-1.3,0.2-1.7c0.6-0.4,1.4-0.3,1.8,0.2l1.9-2.1c0.1-0.1,0.1-0.2,0-0.3
						c-0.8-1.4-1.3-3-1.5-4.6c0-0.1-0.1-0.2-0.2-0.2l-3-0.7v0.4c0,0.4-0.1,0.7-0.4,0.9c-0.2,0.2-0.6,0.4-0.9,0.4
						c-0.7,0-1.3-0.6-1.3-1.3l0-2.2c0-0.7,0.6-1.3,1.3-1.3c0.7,0,1.3,0.6,1.3,1.3l3-0.7c0.1,0,0.2-0.1,0.2-0.2
						c0.2-1.7,0.8-3.4,1.7-4.9c0-0.1,0-0.2,0-0.3l-1.4-1.7l-0.1,0.2c-0.4,0.5-1.1,0.6-1.6,0.2c-0.5-0.4-0.5-1.1-0.2-1.6l1-1.3
						c0.2-0.3,0.6-0.4,0.9-0.4c0.2,0,0.5,0.1,0.7,0.2c0.5,0.4,0.6,1,0.3,1.5l2,0.9c0.1,0,0.2,0,0.3-0.1c0.9-1,2.1-1.9,3.3-2.6
						c0.1,0,0.1-0.1,0.1-0.2l-0.5-3.1l-0.4,0.2c-0.6,0.2-1.3-0.1-1.5-0.7c-0.2-0.6,0.1-1.3,0.7-1.5l2.2-0.9c0.6-0.2,1.3,0.1,1.5,0.7
						c0.2,0.6-0.1,1.3-0.7,1.5l-0.1,0l1.8,2.5c0.1,0.1,0.1,0.1,0.2,0.1c1-0.3,2.1-0.4,3.2-0.4l0,0c0.1,0,0.2-0.1,0.2-0.1l0.6-1.6
						c-0.7-0.2-1.1-0.9-1-1.6c0.1-0.8,0.9-1.4,1.7-1.3l0.8,0.1c0.8,0.1,1.4,0.8,1.3,1.7c-0.1,0.6-0.5,1.1-1.1,1.3l0.2,1.8
						c0,0.1,0.1,0.2,0.2,0.2c1.4,0.3,2.6,0.8,3.8,1.5c0.1,0,0.2,0,0.3,0l2.4-2l-0.4-0.3c-0.5-0.4-0.6-1.2-0.2-1.7
						c0.4-0.5,1.1-0.5,1.7-0.1l1.9,1.5c0.5,0.4,0.6,1.2,0.2,1.7c-0.4,0.5-1.1,0.5-1.7,0.1l-0.1,0l-1.3,2.8c0,0.1,0,0.2,0,0.3
						c0.9,0.9,1.7,2,2.3,3.2c0,0.1,0.1,0.1,0.2,0.1l1.8-0.3c-0.3-0.8,0.1-1.6,0.9-1.8c0.7-0.2,1.5,0.2,1.8,0.9l0.4,1.1
						c0.3,0.7-0.1,1.5-0.8,1.8c-0.7,0.3-1.4,0-1.8-0.6l-1.5,1c-0.1,0.1-0.1,0.2-0.1,0.2c0.3,1.1,0.5,2.3,0.5,3.6c0,0.2,0,0.4,0,0.6
						c0,0.1,0.1,0.2,0.1,0.2l2.9,1.2l0.1-0.5C396.1,166,396.7,165.6,397.4,165.7L397.4,165.7z"/>
				</g>
			</g>
			<ellipse class="st6" cx="385.4" cy="158.5" rx="1.9" ry="1.6"/>
			<circle class="st6" cx="378.6" cy="168.3" r="2.1"/>
			<circle class="st8" cx="386.6" cy="167.2" r="1.5"/>
			<circle class="st8" cx="381.2" cy="174.4" r="1.4"/>
			<g>
				<path class="st5" d="M371.5,164.4c0-5.1,2.4-9.7,6.2-12.6c-0.4,0.1-0.9,0.1-1.3,0.3c-0.1,0-0.2,0-0.2-0.1l-1.8-2.5l0.1,0
					c0.6-0.2,0.9-0.9,0.7-1.5c-0.2-0.6-0.9-1-1.5-0.7l-2.2,0.9c-0.6,0.2-0.9,0.9-0.7,1.5c0.2,0.6,0.9,1,1.5,0.7l0.4-0.2l0.5,3.1
					c0,0.1,0,0.2-0.1,0.2c-1.2,0.7-2.3,1.6-3.3,2.6c-0.1,0.1-0.2,0.1-0.3,0.1l-2-0.9c0.3-0.5,0.2-1.1-0.3-1.5
					c-0.2-0.2-0.4-0.2-0.7-0.2c-0.3,0-0.7,0.2-0.9,0.4l-1,1.3c-0.4,0.5-0.3,1.2,0.2,1.6c0.5,0.4,1.2,0.3,1.6-0.2l0.1-0.2l1.4,1.7
					c0.1,0.1,0.1,0.2,0,0.3c-0.8,1.5-1.4,3.1-1.7,4.9c0,0.1-0.1,0.2-0.2,0.2l-3,0.7c0-0.7-0.6-1.3-1.3-1.3c-0.7,0-1.3,0.6-1.3,1.3
					l0,2.2c0,0.7,0.6,1.3,1.3,1.3c0.4,0,0.7-0.1,0.9-0.4c0.2-0.2,0.4-0.6,0.4-0.9V166l3,0.7c0.1,0,0.2,0.1,0.2,0.2
					c0.2,1.7,0.8,3.2,1.5,4.6c0,0.1,0,0.2,0,0.3l-1.9,2.1c-0.4-0.6-1.2-0.7-1.8-0.2c-0.5,0.4-0.6,1.2-0.2,1.7l0.7,1
					c0.4,0.6,1.2,0.7,1.8,0.4c0.6-0.4,0.7-1.1,0.4-1.7l2.7-1.1c0.1,0,0.2,0,0.3,0.1c1.1,1.1,2.3,2.1,3.7,2.8c0.1,0,0.1,0.1,0.1,0.2
					l-0.4,3.3l-0.1,0c-0.8-0.3-1.6,0.1-1.9,0.9c-0.3,0.7,0.1,1.5,0.9,1.8l2.2,0.8c0.8,0.3,1.4-0.2,1.4-1c0.1-0.2,0.1-0.3,0.1-0.5
					c0-0.6-0.4-1.1-0.9-1.3l-0.1,0l1.8-2.8c0.1-0.1,0.1-0.1,0.2-0.1c0.9,0.2,1.8,0.3,2.7,0.3c0.1,0,0.2,0,0.3,0
					C374.9,175.7,371.5,170.5,371.5,164.4L371.5,164.4z"/>
			</g>
			<circle class="st6" cx="372.2" cy="171" r="1.5"/>
			<g>
				<path class="st8" d="M383.3,164.4h-0.5c-0.3,0-0.6-0.3-0.6-0.6c0-0.3,0.3-0.6,0.6-0.6h0.5c0.3,0,0.6,0.3,0.6,0.6
					S383.6,164.4,383.3,164.4z"/>
			</g>
			<g>
				<path class="st8" d="M376.5,174.4H376c-0.3,0-0.6-0.3-0.6-0.6c0-0.3,0.3-0.6,0.6-0.6h0.5c0.3,0,0.6,0.3,0.6,0.6
					S376.9,174.4,376.5,174.4z"/>
			</g>
			<g>
				<path class="st6" d="M371.2,166.1h-0.5c-0.3,0-0.6-0.3-0.6-0.6c0-0.3,0.3-0.6,0.6-0.6h0.5c0.3,0,0.6,0.3,0.6,0.6
					C371.8,165.8,371.5,166.1,371.2,166.1z"/>
			</g>
			<g>
				<path class="st8" d="M381.3,156.1h-0.7c-0.3,0-0.6-0.3-0.6-0.6c0-0.3,0.3-0.6,0.6-0.6h0.7c0.3,0,0.6,0.3,0.6,0.6
					C381.9,155.8,381.7,156.1,381.3,156.1z"/>
			</g>
			<g>
				<path class="st6" d="M385.9,172.5h-0.8c-0.3,0-0.6-0.3-0.6-0.6c0-0.3,0.3-0.6,0.6-0.6h0.8c0.3,0,0.6,0.3,0.6,0.6
					S386.2,172.5,385.9,172.5L385.9,172.5z"/>
			</g>
		</g>
		
			<ellipse transform="matrix(0.7852 -0.6192 0.6192 0.7852 -18.5234 266.6899)" class="st6" cx="375.2" cy="160" rx="3.9" ry="3.3"/>
	</g>
	<g>
		<g>
			<g id="XMLID_2_">
				<g>
					<path class="st0" d="M469.1,138.9c1,0.2,1.6,1.1,1.4,2.1l-0.7,3.7c-0.2,1-1.2,1.7-2.2,1.4c-1-0.2-1.5-1.2-1.3-2.2l0-0.1
						l-4.7,0.2c-0.1,0-0.3,0.1-0.3,0.2c-0.5,1.4-1.1,2.7-1.8,4c-0.1,0.1-0.1,0.3,0,0.4l2.1,2.5c0.4-0.4,1-0.6,1.5-0.6
						c0.5,0,0.9,0.1,1.3,0.5c1,0.7,1.1,2.1,0.4,3.1l-0.6,0.8c-0.7,0.9-2,1.2-3,0.5c-0.8-0.6-1.1-1.6-0.8-2.5l-3-1.3
						c-0.1-0.1-0.3,0-0.4,0.1c-1.4,1.5-3,2.9-4.8,3.9c-0.1,0.1-0.2,0.2-0.2,0.4l0.8,4.7l0.7-0.3c1-0.4,2.1,0.1,2.4,1.1
						c0.3,0.9-0.2,1.9-1.1,2.3l-3.4,1.4c-1,0.4-2.1-0.1-2.4-1.1c-0.3-0.9,0.2-1.9,1.1-2.3l0.1,0l-2.8-3.9c-0.1-0.1-0.2-0.2-0.4-0.1
						c-1.6,0.4-3.4,0.7-5.2,0.7c-1.4,0-2.8-0.1-4.1-0.4c-0.1,0-0.3,0-0.4,0.1l-2.8,4.3l0.1,0c0.9,0.3,1.5,1.2,1.5,2.1
						c0,0.2,0,0.5-0.1,0.8c0,1.3-1,2-2.2,1.6l-3.4-1.2c-1.1-0.4-1.7-1.7-1.3-2.8c0.4-1.2,1.7-1.8,2.9-1.3l0.1,0l0.6-5.1
						c0-0.1-0.1-0.3-0.2-0.3c-2.2-1.1-4.1-2.6-5.7-4.4c-0.1-0.1-0.2-0.1-0.4-0.1l-4.1,1.7c0.5,0.9,0.2,2-0.6,2.6
						c-0.9,0.6-2.1,0.3-2.7-0.6l-1.1-1.5c-0.6-0.9-0.5-2,0.4-2.7c0.9-0.7,2.1-0.5,2.8,0.4l2.9-3.3c0.1-0.1,0.1-0.3,0-0.4
						c-1.2-2.2-2-4.6-2.4-7.1c0-0.1-0.1-0.3-0.3-0.3l-4.7-1.1v0.5c0,0.5-0.2,1-0.6,1.4c-0.4,0.4-0.9,0.6-1.4,0.6c-1.1,0-2-0.9-2-2
						l0-3.4c0-1.1,0.9-2,2-2c1.1,0,1.9,0.9,1.9,2l4.6-1.1c0.1,0,0.2-0.1,0.3-0.3c0.4-2.7,1.2-5.2,2.6-7.5c0.1-0.1,0.1-0.3,0-0.4
						l-2.2-2.6l-0.2,0.2c-0.6,0.8-1.7,0.9-2.5,0.3c-0.7-0.6-0.8-1.7-0.2-2.4l1.5-1.9c0.3-0.5,0.9-0.7,1.4-0.7c0.4,0,0.7,0.1,1,0.4
						c0.7,0.5,0.9,1.6,0.4,2.3l3.1,1.3c0.1,0.1,0.3,0,0.4-0.1c1.5-1.6,3.2-3,5.1-4c0.1-0.1,0.2-0.2,0.2-0.4l-0.7-4.7l-0.7,0.3
						c-1,0.4-2.1-0.1-2.4-1.1c-0.3-0.9,0.2-1.9,1.1-2.3l3.4-1.3c1-0.4,2.1,0.1,2.4,1.1c0.3,0.9-0.2,1.9-1.1,2.3l-0.1,0l2.7,3.9
						c0.1,0.1,0.2,0.2,0.4,0.1c1.6-0.4,3.2-0.6,4.9-0.6l0,0c0.1,0,0.3-0.1,0.3-0.2l0.9-2.5c-1-0.3-1.7-1.4-1.6-2.5
						c0.1-1.3,1.4-2.2,2.6-2l1.2,0.2c1.2,0.2,2.2,1.3,2.1,2.6c-0.1,1-0.8,1.7-1.7,2l0.3,2.7c0,0.1,0.1,0.3,0.3,0.3
						c2.1,0.5,4.1,1.2,5.8,2.3c0.1,0.1,0.3,0.1,0.4,0l3.7-3l-0.6-0.5c-0.8-0.6-0.9-1.8-0.2-2.6c0.6-0.7,1.8-0.8,2.5-0.2l2.9,2.3
						c0.8,0.6,0.9,1.8,0.2,2.6c-0.6,0.7-1.8,0.8-2.5,0.2l-0.1-0.1l-2,4.3c-0.1,0.1,0,0.3,0.1,0.4c1.4,1.4,2.6,3.1,3.5,4.9
						c0.1,0.1,0.2,0.2,0.4,0.2l2.8-0.4c-0.4-1.2,0.2-2.4,1.4-2.8c1.1-0.4,2.4,0.3,2.8,1.4l0.6,1.7c0.4,1.1-0.1,2.4-1.2,2.8
						c-1,0.5-2.2,0-2.8-0.9l-2.3,1.6c-0.1,0.1-0.2,0.2-0.1,0.4c0.5,1.7,0.7,3.6,0.7,5.5c0,0.3,0,0.6,0,0.9c0,0.1,0.1,0.3,0.2,0.3
						l4.4,1.9l0.1-0.7C467.1,139.3,468.1,138.7,469.1,138.9L469.1,138.9z"/>
				</g>
			</g>
			<ellipse class="st6" cx="450.6" cy="127.7" rx="2.9" ry="2.4"/>
			<circle class="st6" cx="440.1" cy="142.8" r="3.2"/>
			<circle class="st8" cx="452.5" cy="141.1" r="2.3"/>
			<circle class="st8" cx="444.1" cy="152.2" r="2.2"/>
			<g>
				<path class="st5" d="M429.2,136.8c0-7.9,3.8-14.9,9.6-19.4c-0.7,0.1-1.4,0.2-2,0.4c-0.1,0-0.3,0-0.4-0.1l-2.7-3.9l0.1,0
					c0.9-0.4,1.4-1.4,1.1-2.3c-0.3-1-1.4-1.5-2.4-1.1l-3.4,1.3c-0.9,0.4-1.4,1.4-1.1,2.3c0.3,1,1.4,1.5,2.4,1.1l0.7-0.3l0.7,4.7
					c0,0.1,0,0.3-0.2,0.4c-1.9,1.1-3.6,2.4-5.1,4c-0.1,0.1-0.3,0.1-0.4,0.1l-3.1-1.3c0.5-0.8,0.3-1.8-0.4-2.3
					c-0.3-0.2-0.7-0.4-1-0.4c-0.5,0-1,0.2-1.4,0.7l-1.5,1.9c-0.6,0.7-0.5,1.8,0.2,2.4c0.8,0.6,1.9,0.5,2.5-0.3l0.2-0.2l2.2,2.6
					c0.1,0.1,0.1,0.3,0,0.4c-1.3,2.3-2.2,4.8-2.6,7.5c0,0.1-0.1,0.3-0.3,0.3l-4.6,1.1c0-1.1-0.9-2-1.9-2c-1.1,0-2,0.9-2,2l0,3.4
					c0,1.1,0.9,2,2,2c0.5,0,1-0.2,1.4-0.6c0.4-0.4,0.6-0.9,0.6-1.4v-0.5l4.7,1.1c0.1,0,0.2,0.1,0.3,0.3c0.4,2.6,1.2,5,2.4,7.1
					c0.1,0.1,0.1,0.3,0,0.4l-2.9,3.3c-0.6-0.9-1.9-1-2.8-0.4c-0.8,0.6-1,1.8-0.4,2.7l1.1,1.5c0.6,0.9,1.8,1.1,2.7,0.6
					c0.9-0.6,1.1-1.7,0.6-2.6l4.1-1.7c0.1-0.1,0.3,0,0.4,0.1c1.6,1.8,3.6,3.2,5.7,4.4c0.1,0.1,0.2,0.2,0.2,0.3l-0.6,5.1l-0.1,0
					c-1.2-0.4-2.5,0.2-2.9,1.3c-0.4,1.1,0.2,2.4,1.3,2.8l3.4,1.2c1.2,0.4,2.2-0.2,2.2-1.6c0.1-0.2,0.1-0.5,0.1-0.8
					c0-0.9-0.6-1.8-1.5-2.1l-0.1,0l2.8-4.3c0.1-0.1,0.2-0.2,0.4-0.1c1.3,0.3,2.7,0.4,4.1,0.4c0.2,0,0.3,0,0.5,0
					C434.4,154.3,429.2,146.2,429.2,136.8L429.2,136.8z"/>
			</g>
			<circle class="st6" cx="430.3" cy="146.9" r="2.3"/>
			<g>
				<path class="st8" d="M447.3,136.8h-0.8c-0.5,0-0.9-0.4-0.9-0.9c0-0.5,0.4-0.9,0.9-0.9h0.8c0.5,0,0.9,0.4,0.9,0.9
					S447.8,136.8,447.3,136.8z"/>
			</g>
			<g>
				<path class="st8" d="M436.9,152.2h-0.8c-0.5,0-0.9-0.4-0.9-0.9c0-0.5,0.4-0.9,0.9-0.9h0.8c0.5,0,0.9,0.4,0.9,0.9
					C437.8,151.8,437.4,152.2,436.9,152.2z"/>
			</g>
			<g>
				<path class="st6" d="M428.7,139.4H428c-0.5,0-0.9-0.4-0.9-0.9c0-0.5,0.4-0.9,0.9-0.9h0.8c0.5,0,0.9,0.4,0.9,0.9
					C429.6,139,429.2,139.4,428.7,139.4z"/>
			</g>
			<g>
				<path class="st8" d="M444.4,124h-1.1c-0.5,0-0.9-0.4-0.9-0.9c0-0.5,0.4-0.9,0.9-0.9h1.1c0.5,0,0.9,0.4,0.9,0.9
					C445.2,123.6,444.8,124,444.4,124z"/>
			</g>
			<g>
				<path class="st6" d="M451.4,149.3h-1.2c-0.5,0-0.9-0.4-0.9-0.9c0-0.5,0.4-0.9,0.9-0.9h1.2c0.5,0,0.9,0.4,0.9,0.9
					S451.9,149.3,451.4,149.3L451.4,149.3z"/>
			</g>
		</g>
		
			<ellipse transform="matrix(0.7852 -0.6192 0.6192 0.7852 12.8379 297.2102)" class="st6" cx="434.9" cy="130.1" rx="6.1" ry="5.1"/>
	</g>
</g>
</svg>
