<?xml version="1.0" encoding="utf-8"?>
<!-- Generator: Adobe Illustrator 21.0.2, SVG Export Plug-In . SVG Version: 6.00 Build 0)  -->
<svg version="1.1" id="Layer_1" xmlns="http://www.w3.org/2000/svg" xmlns:xlink="http://www.w3.org/1999/xlink" x="0px" y="0px"
	 viewBox="0 0 512 512" style="enable-background:new 0 0 512 512;" xml:space="preserve">
<style type="text/css">
	.st0{fill:#00A86B;}
	.st1{fill:#03E086;}
	.st2{fill:#00BF6D;}
	.st3{fill:#008E57;}
	.st4{opacity:0.5;fill:#008E57;}
	.st5{opacity:0.5;}
</style>
<g>
	<g>
		<path class="st0" d="M255.8,419.7c-4.9-5.6-9.6-10.9-14.3-16.3c-32.7-38.2-63.8-77.6-91.3-119.8c-16.8-25.7-31.9-52.3-43.3-80.9
			c-13.3-33.2-12.3-66.4,0.4-99.1c21.9-56.3,63-91.5,122.5-101.2C292.4-7.8,344.2,13.9,383,64.2c22.8,29.5,32.8,63.6,30.9,100.9
			c-0.8,15.9-6.2,30.7-12.3,45.3c-14.1,33.5-33.3,64.1-54,93.8c-27.3,39.3-57.3,76.6-89,112.4C257.8,417.6,256.9,418.5,255.8,419.7z
			 M352.8,144.9C352.2,91,309,47.7,256.2,48c-54.9,0.4-97.9,44-97.3,98.6c0.6,53.4,45,96,99.5,95.2
			C310.1,241.2,353.5,196.7,352.8,144.9z"/>
		<path class="st1" d="M317.5,365.8c1.8-4.2,4.6-5,8.9-4.7c21.8,1.9,43.5,4.2,64.9,9c12.7,2.8,25.2,6.3,36.7,12.6
			c5.5,3,11,6.6,15.6,10.9c14.6,13.4,17.2,31.8,7.5,49.2c-5.9,10.6-14.6,18.6-24.4,25.5c-19.4,13.6-41,22.4-63.6,29.1
			c-41.1,12.1-83.2,16.1-125.9,14.2c-32.8-1.4-64.9-6.5-96.2-16.7c-21.8-7.1-42.7-16.2-61-30.4c-7.1-5.5-13.3-11.8-18.1-19.4
			c-12-19-8.2-40.5,9.4-54.4c11.5-9,24.8-14.1,38.6-17.8c23.9-6.5,48.3-9.4,72.9-11.3c1.1-0.1,2.2-0.2,3.3-0.3
			c5.1-0.5,5.5-0.3,8,4.8c-7.6,1.2-15.2,2.2-22.8,3.5c-20.9,3.6-41.5,8.6-61.1,17.1c-9.9,4.3-19.5,9.3-27.1,17.1
			c-10.6,10.9-10.3,22,0.9,32.4c8.1,7.6,17.8,12.4,27.9,16.6c20.4,8.3,41.7,13,63.3,16.3c42.8,6.6,85.8,7.5,128.9,3.9
			c29.6-2.5,59-7,87.1-17.2c9.3-3.4,18.4-7.9,27.1-12.7c4.6-2.5,8.7-6.4,12.3-10.3c7.4-8.2,7.4-17.3,0.5-26
			c-4.7-6-10.8-10.3-17.4-14c-18.7-10.5-39.1-16.4-59.9-20.6C341.9,369.7,329.7,367.9,317.5,365.8z"/>
	</g>
	<g>
		<g>
			<g id="XMLID_427_">
				<g>
					<path class="st2" d="M331.5,148.1c2.7,0.5,4.4,3.1,3.9,5.7l-1.9,9.8c-0.5,2.7-3.2,4.5-6,3.8c-2.6-0.6-4.1-3.2-3.6-5.8l0.1-0.3
						l-12.7,0.6c-0.4,0-0.7,0.3-0.8,0.6c-1.3,3.8-2.9,7.3-4.9,10.7c-0.2,0.3-0.2,0.8,0.1,1.1l5.6,6.7c1.1-1.1,2.6-1.6,4.1-1.6
						c1.3,0,2.5,0.4,3.6,1.2c2.6,2,3.1,5.7,1.1,8.3l-1.6,2.1c-1.9,2.5-5.5,3.2-8.1,1.4c-2.3-1.6-3-4.3-2.3-6.7l-8.1-3.6
						c-0.4-0.2-0.8-0.1-1.1,0.2c-3.8,4.1-8.1,7.7-13,10.5c-0.3,0.2-0.5,0.6-0.5,0.9l2.1,12.7l1.8-0.7c2.6-1,5.5,0.3,6.4,3
						c0.9,2.5-0.5,5.2-2.9,6.2l-9.2,3.7c-2.6,1-5.5-0.3-6.4-3c-0.9-2.5,0.5-5.2,2.9-6.2l0.2-0.1l-7.4-10.4c-0.2-0.3-0.6-0.5-1-0.4
						c-4.4,1.2-9.1,1.8-13.9,1.8c-3.8,0-7.5-0.4-11.1-1.1c-0.4-0.1-0.8,0.1-1,0.4l-7.4,11.6l0.3,0.1c2.4,0.9,3.9,3.2,3.9,5.6
						c0,0.7-0.1,1.4-0.4,2c0,3.5-2.7,5.4-5.9,4.2l-9.1-3.3c-3-1.1-4.6-4.5-3.6-7.5c1.1-3.2,4.7-4.8,7.8-3.6l0.2,0.1l1.5-13.7
						c0-0.4-0.2-0.8-0.5-0.9c-5.8-3-11-7-15.3-11.7c-0.3-0.3-0.7-0.4-1-0.2l-11.1,4.6c1.3,2.3,0.5,5.3-1.7,6.9
						c-2.4,1.6-5.6,0.9-7.3-1.5l-2.9-4.1c-1.6-2.3-1.2-5.5,1-7.2c2.3-1.8,5.7-1.4,7.4,0.9l7.9-8.8c0.3-0.3,0.3-0.7,0.1-1.1
						c-3.2-5.8-5.4-12.3-6.4-19.1c-0.1-0.4-0.3-0.7-0.7-0.8l-12.5-2.9v1.5c0,1.5-0.6,2.8-1.6,3.8c-1,1-2.3,1.6-3.8,1.6
						c-2.9,0-5.3-2.4-5.3-5.3l0.1-9.1c0-3,2.5-5.5,5.5-5.4c2.9,0.1,5.2,2.4,5.2,5.3l12.4-2.9c0.4-0.1,0.7-0.4,0.7-0.8
						c1-7.2,3.4-14,6.9-20.1c0.2-0.3,0.2-0.8-0.1-1.1l-5.9-7l-0.5,0.7c-1.6,2.1-4.7,2.5-6.7,0.8c-1.9-1.6-2.2-4.5-0.6-6.5l4-5.2
						c0.9-1.2,2.3-1.9,3.7-1.9c1,0,2,0.3,2.8,0.9c2,1.5,2.4,4.2,1.1,6.2l8.3,3.6c0.4,0.2,0.8,0.1,1.1-0.2c3.9-4.3,8.5-8,13.6-10.9
						c0.3-0.2,0.5-0.6,0.5-0.9l-1.9-12.7l-1.8,0.7c-2.6,1-5.5-0.4-6.4-3c-0.8-2.5,0.5-5.2,3-6.2l9.2-3.6c2.6-1,5.5,0.4,6.4,3
						c0.8,2.5-0.5,5.2-3,6.2l-0.2,0.1l7.3,10.5c0.2,0.3,0.6,0.5,1,0.4c4.2-1,8.6-1.6,13.2-1.6l0,0c0.4,0,0.8-0.2,0.9-0.6l2.4-6.7
						c-2.8-0.9-4.7-3.6-4.3-6.6c0.4-3.4,3.7-5.8,7.1-5.4l3.3,0.4c3.4,0.5,5.9,3.5,5.5,6.9c-0.3,2.6-2.2,4.7-4.6,5.3l0.8,7.3
						c0,0.4,0.3,0.7,0.7,0.8c5.6,1.2,10.9,3.3,15.7,6.1c0.3,0.2,0.8,0.2,1-0.1l10-8.1L295,88c-2.2-1.7-2.5-4.9-0.6-7
						c1.7-2,4.8-2.2,6.8-0.5l7.7,6.2c2.2,1.7,2.5,4.9,0.6,7c-1.7,2-4.8,2.2-6.8,0.5l-0.2-0.2l-5.3,11.6c-0.2,0.3-0.1,0.8,0.2,1
						c3.8,3.8,7,8.3,9.5,13.1c0.2,0.3,0.5,0.5,0.9,0.5l7.6-1.1c-1.1-3.1,0.5-6.6,3.7-7.6c3-1,6.3,0.7,7.4,3.7l1.7,4.7
						c1.1,3-0.2,6.3-3.1,7.6c-2.8,1.2-5.9,0.1-7.4-2.3l-6.3,4.3c-0.3,0.2-0.5,0.6-0.4,1c1.3,4.7,2,9.6,2,14.7c0,0.9,0,1.7-0.1,2.5
						c0,0.4,0.2,0.7,0.5,0.9l11.8,5.2l0.4-1.9C326.3,149.3,328.8,147.6,331.5,148.1L331.5,148.1z"/>
				</g>
			</g>
			<ellipse class="st3" cx="281.9" cy="118.1" rx="7.8" ry="6.5"/>
			<circle class="st3" cx="253.7" cy="158.7" r="8.5"/>
			<circle class="st4" cx="286.9" cy="154.2" r="6.1"/>
			<circle class="st4" cx="264.4" cy="184" r="5.9"/>
			<g class="st5">
				<path class="st3" d="M224.3,142.6c0-21.2,10.1-40.1,25.8-52c-1.8,0.2-3.6,0.6-5.4,1c-0.4,0.1-0.8-0.1-1-0.4l-7.3-10.5l0.2-0.1
					c2.5-0.9,3.8-3.7,3-6.2c-0.9-2.7-3.8-4-6.4-3l-9.2,3.6c-2.5,0.9-3.8,3.7-3,6.2c0.9,2.7,3.8,4,6.4,3l1.8-0.7l1.9,12.7
					c0.1,0.4-0.1,0.8-0.5,0.9c-5.1,2.9-9.7,6.6-13.6,10.9c-0.3,0.3-0.7,0.4-1.1,0.2l-8.3-3.6c1.3-2,0.8-4.8-1.1-6.2
					c-0.9-0.6-1.8-0.9-2.8-0.9c-1.4,0-2.8,0.6-3.7,1.9l-4,5.2c-1.5,2-1.3,4.9,0.6,6.5c2.1,1.7,5.1,1.3,6.7-0.8l0.5-0.7l5.9,7
					c0.2,0.3,0.3,0.7,0.1,1.1c-3.5,6.1-5.9,12.9-6.9,20.1c-0.1,0.4-0.3,0.7-0.7,0.8l-12.4,2.9c0-2.9-2.3-5.3-5.2-5.3
					c-3-0.1-5.4,2.4-5.5,5.4l-0.1,9.1c0,2.9,2.3,5.3,5.3,5.3c1.5,0,2.8-0.6,3.8-1.6c1-0.9,1.6-2.3,1.6-3.8v-1.5l12.5,2.9
					c0.4,0.1,0.6,0.4,0.7,0.8c0.9,6.9,3.1,13.3,6.4,19.1c0.2,0.3,0.2,0.8-0.1,1.1l-7.8,8.8c-1.7-2.3-5.1-2.8-7.4-0.9
					c-2.2,1.7-2.6,4.9-1,7.2l2.9,4.1c1.6,2.3,4.9,3.1,7.3,1.5c2.3-1.5,3-4.5,1.7-6.9l11.1-4.6c0.4-0.2,0.8-0.1,1,0.2
					c4.4,4.8,9.5,8.7,15.3,11.7c0.3,0.2,0.5,0.5,0.5,0.9l-1.5,13.7l-0.2-0.1c-3.1-1.1-6.7,0.5-7.8,3.6c-1.1,3,0.5,6.4,3.6,7.5
					l9.1,3.3c3.3,1.2,5.9-0.7,5.9-4.2c0.2-0.7,0.4-1.4,0.4-2c0-2.4-1.5-4.7-3.9-5.6l-0.3-0.1l7.4-11.6c0.2-0.3,0.6-0.5,1-0.4
					c3.6,0.7,7.3,1.1,11.1,1.1c0.5,0,0.9,0,1.3,0C238.5,189.5,224.3,167.7,224.3,142.6L224.3,142.6z"/>
			</g>
			<circle class="st3" cx="227.3" cy="169.8" r="6.2"/>
			<g class="st5">
				<path class="st3" d="M273,142.6h-2.1c-1.3,0-2.3-1.1-2.3-2.3c0-1.3,1.1-2.3,2.3-2.3h2.1c1.3,0,2.3,1.1,2.3,2.3
					C275.4,141.6,274.3,142.6,273,142.6z"/>
			</g>
			<g class="st5">
				<path class="st3" d="M245.2,183.9h-2.1c-1.3,0-2.3-1.1-2.3-2.3c0-1.3,1.1-2.3,2.3-2.3h2.1c1.3,0,2.3,1.1,2.3,2.3
					S246.5,183.9,245.2,183.9z"/>
			</g>
			<g>
				<path class="st3" d="M223.2,149.5h-2.1c-1.3,0-2.3-1.1-2.3-2.3c0-1.3,1.1-2.3,2.3-2.3h2.1c1.3,0,2.3,1.1,2.3,2.3
					C225.5,148.5,224.5,149.5,223.2,149.5z"/>
			</g>
			<g class="st5">
				<path class="st3" d="M265.1,108.2h-2.9c-1.3,0-2.3-1.1-2.3-2.3c0-1.3,1.1-2.3,2.3-2.3h2.9c1.3,0,2.3,1.1,2.3,2.3
					C267.5,107.1,266.4,108.2,265.1,108.2z"/>
			</g>
			<g>
				<path class="st3" d="M284,176.2h-3.2c-1.3,0-2.3-1.1-2.3-2.3c0-1.3,1.1-2.3,2.3-2.3h3.2c1.3,0,2.3,1.1,2.3,2.3
					C286.3,175.1,285.3,176.2,284,176.2L284,176.2z"/>
			</g>
		</g>
		
			<ellipse transform="matrix(0.7852 -0.6192 0.6192 0.7852 -25.6794 175.1161)" class="st3" cx="239.6" cy="124.6" rx="16.3" ry="13.6"/>
	</g>
</g>
</svg>
