<?xml version="1.0" encoding="utf-8"?>
<!-- Generator: Adobe Illustrator 21.0.2, SVG Export Plug-In . SVG Version: 6.00 Build 0)  -->
<svg version="1.1" id="Capa_1" xmlns="http://www.w3.org/2000/svg" xmlns:xlink="http://www.w3.org/1999/xlink" x="0px" y="0px"
	 viewBox="0 0 512 512" style="enable-background:new 0 0 512 512;" xml:space="preserve">
<style type="text/css">
	.st0{fill:#E5907B;}
	.st1{fill:#00A86B;}
	.st2{fill:#424A5E;}
	.st3{fill:#EBBAA1;}
	.st4{fill:#E8A990;}
	.st5{fill:#FDD4BB;}
	.st6{fill:#00935B;}
	.st7{fill:#F7C4A8;}
	.st8{fill:#03E086;}
	.st9{fill:#13BF75;}
	.st10{fill:#D58475;}
</style>
<g>
	<g>
		<path class="st0" d="M17.4,481.1c0,13.9,10.9,21.3,19.5,21.3h71.9c8.6,0,19.5-9,19.5-21.3c-3.3-6.9-10.1-11.8-18.1-12.3
			c3.5-3.8,5.7-8.8,5.7-14.3c0-11.6-9.4-21-21-21h-0.1c-4.5-7.6-3.7-18.3-2.3-25.8c0.9-4.8-3.2-9-8-8.3
			c-32.1,5.1-33.3,34.1-33.3,34.1h-0.1c-11.6,0-21,9.4-21,21c0,5.5,2.2,10.6,5.7,14.3C27.5,469.3,20.7,474.2,17.4,481.1L17.4,481.1z
			"/>
		<g>
			<path class="st1" d="M479.3,493.4l9-28.5v-35.4c0-70-49.5-128.4-115.4-142.2c-13.6,7.2-29.2,11.4-45.7,11.4s-32.1-4.1-45.7-11.4
				c-65.9,13.8-115.4,72.2-115.4,142.2v35.4l9,28.5l155.6,9L479.3,493.4z"/>
			<path class="st2" d="M200.1,166.7c0,0-28.1-37.8-29.3-92.4c-0.1-3.1,2.6-5.4,5.7-5c6.3,0.9,16.7,1.6,26.4-1
				c29.5-7.9,58.5-66.4,109.5-68.1c51.1-1.7,61,22.1,61,22.1s18.8-11.2,46.8-7.4c42,5.7,78.9,69.7,41.4,157.6L200.1,166.7z"/>
			<path class="st3" d="M186,183.9c0,19,15.4,30.1,29,30.1l14.6-12.8c0-0.1,12.8-17.3,12.8-17.4l-12.8-17.4
				c-4.3-2.4-9.3-3.7-14.6-3.7C201.4,162.8,189.9,171.7,186,183.9L186,183.9z"/>
			<path class="st4" d="M214.9,205c-13.6,0-25-8.9-29-21.1c-0.9,2.9-1.5,6-1.5,9.3c0,16.8,13.6,30.4,30.4,30.4
				c6,0,11.6-1.7,16.3-4.7l8-10.6l-9.6-7C225.2,203.7,220.2,205,214.9,205L214.9,205z"/>
			<path class="st3" d="M468.4,183.9c0,19-15.4,30.1-29,30.1l-14.6-12.8c0-0.1-12.8-17.3-12.8-17.4l12.8-17.4
				c4.3-2.4,9.3-3.7,14.6-3.7C453,162.8,464.5,171.7,468.4,183.9L468.4,183.9z"/>
			<path class="st4" d="M439.5,205c13.6,0,25-8.9,29-21.1c0.9,2.9,1.5,6,1.5,9.3c0,16.8-13.6,30.4-30.4,30.4c-6,0-11.6-1.7-16.3-4.7
				l-8-10.6l9.6-7C429.2,203.7,434.2,205,439.5,205z"/>
			<path class="st5" d="M327.2,289.1c53.9,0,97.6-37.9,97.6-106.6v-28c0-8.5-3.5-16.8-9.8-22.6c-18.2-16.8-38.5-45.9-46.7-58.1
				c-1.9-2.8-5.8-3.1-8.1-0.6c-41.1,44.9-94.4,59.9-118.2,64.5c-7.3,1.4-12.5,7.8-12.5,15.2v29.5
				C229.6,247.3,273.3,289.1,327.2,289.1L327.2,289.1z"/>
			<path class="st6" d="M247.9,512h158.7l7.7-9.3l-7.7-9.3H247.9l-7.7,9.3L247.9,512z"/>
			<path class="st3" d="M281.2,287.2c-0.1,1.2-0.2,2.4-0.2,3.6c0,25.5,20.7,46.2,46.2,46.2s46.2-20.7,46.2-46.2
				c0-1.2-0.1-2.4-0.2-3.6H281.2z"/>
			<path class="st5" d="M488.3,493.4l-37,9l-37-9v-28.5h74V493.4z"/>
			<path class="st5" d="M166.1,493.4l37,9l37-9v-28.5h-74L166.1,493.4z"/>
			<path class="st7" d="M422,512h61.3c2.8,0,5-2.2,5-5v-13.6H422l-7.7,9.3L422,512z"/>
			<path class="st7" d="M171.1,512h61.3l7.7-9.3l-7.7-9.3h-66.3V507C166.1,509.8,168.3,512,171.1,512L171.1,512z"/>
			<g>
				<path class="st8" d="M422,493.4v-72.8c0-4.3-3.5-7.7-7.7-7.7s-7.7,3.5-7.7,7.7v72.8l7.7,9.3L422,493.4z"/>
				<path class="st9" d="M406.5,493.4H422V512h-15.5V493.4z"/>
				<path class="st8" d="M247.9,493.4v-72.8c0-4.3-3.5-7.7-7.7-7.7s-7.7,3.5-7.7,7.7v72.8l7.7,9.3L247.9,493.4z"/>
				<path class="st9" d="M232.4,493.4h15.5V512h-15.5V493.4z"/>
			</g>
			<path class="st7" d="M327.2,280.1c-53.9,0-97.6-43.7-97.6-97.6V201c0,53.9,43.7,97.6,97.6,97.6s97.6-43.7,97.6-97.6v-18.6
				C424.9,236.4,381.1,280.1,327.2,280.1z"/>
		</g>
		<g>
			<path class="st10" d="M108.8,493.4H36.9c-8.6,0-16-5-19.5-12.3c-1.3,2.8-2.1,6-2.1,9.3c0,11.9,9.7,21.6,21.6,21.6h71.9
				c11.9,0,21.6-9.7,21.6-21.6c0-3.3-0.8-6.5-2.1-9.3C124.8,488.4,117.4,493.4,108.8,493.4z"/>
		</g>
	</g>
	<g>
		<path class="st2" d="M266.5,192.3c2.1,3.8,6.9,5,10.6,3l20-11.3c2.5-1.4,4-4.1,4-6.9c-0.1-2.9-1.7-5.4-4.2-6.8l-20-10.3
			c-3.8-2-8.5-0.5-10.5,3.3c-2,3.8-0.5,8.5,3.3,10.5l7.2,3.7l-7.5,4.2C265.7,183.8,264.4,188.6,266.5,192.3z"/>
		<path class="st2" d="M385.6,181.7l-7.5-4.2l7.2-3.7c3.8-2,5.3-6.6,3.3-10.5c-2-3.8-6.7-5.3-10.5-3.3l-20,10.3
			c-2.5,1.3-4.2,3.9-4.2,6.8c-0.1,2.9,1.5,5.5,4,6.9l20,11.3c3.7,2.1,8.5,0.8,10.6-3C390.6,188.6,389.3,183.8,385.6,181.7
			L385.6,181.7z"/>
		<path class="st2" d="M287.3,227.3c-2.7,3.3-2.2,8.3,1.2,10.9c3.3,2.7,8.2,2.2,10.9-1.2c1-1.3,3.9-3.8,6.3-4
			c0.6,0.4,1.8,1.5,2.6,2.3c3.7,3.5,9.2,8.7,19.2,8.7c10,0,15.5-5.2,19.2-8.7c0.8-0.8,2-1.9,2.6-2.3c2.4,0.2,5.3,2.7,6.3,4
			c2.7,3.3,7.5,3.8,10.9,1.2c3.3-2.7,3.9-7.6,1.2-10.9c-0.8-1-8.1-9.7-18.6-9.7c-6.2,0-10.1,3.8-13,6.5c-3.1,2.9-4.9,4.5-8.5,4.5
			c-3.6,0-5.4-1.5-8.5-4.5c-2.9-2.7-6.9-6.5-13-6.5C295.5,217.6,288.1,226.3,287.3,227.3L287.3,227.3z"/>
		<path class="st2" d="M383,148.7c4.3,0,7.8-3.5,7.8-7.8v-7.5c0-4.3-3.5-7.8-7.8-7.8s-7.8,3.5-7.8,7.8v7.5
			C375.3,145.3,378.7,148.7,383,148.7L383,148.7z"/>
		<path class="st2" d="M360.3,127.7c4.3,0,7.8-3.5,7.8-7.8v-7.5c0-4.3-3.5-7.8-7.8-7.8c-4.3,0-7.8,3.5-7.8,7.8v7.5
			C352.6,124.2,356,127.7,360.3,127.7z"/>
		<path class="st2" d="M335,145c4.3,0,7.8-3.5,7.8-7.8v-7.5c0-4.3-3.5-7.8-7.8-7.8c-4.3,0-7.8,3.5-7.8,7.8v7.5
			C327.2,141.5,330.7,145,335,145z"/>
		<g>
			<path class="st8" d="M210.9,283.9v-24.8c0-4.3-3.5-7.8-7.8-7.8c-4.3,0-7.8,3.5-7.8,7.8v24.8c0,4.3,3.5,7.8,7.8,7.8
				C207.5,291.7,210.9,288.2,210.9,283.9z"/>
			<path class="st8" d="M166.1,319.9c4.3,0,7.8-3.5,7.8-7.8V240c0-4.3-3.5-7.8-7.8-7.8s-7.8,3.5-7.8,7.8v72.1
				C158.3,316.5,161.8,319.9,166.1,319.9L166.1,319.9z"/>
			<path class="st8" d="M444.1,259.1v24.8c0,4.3,3.5,7.8,7.8,7.8c4.3,0,7.8-3.5,7.8-7.8v-24.8c0-4.3-3.5-7.8-7.8-7.8
				S444.1,254.8,444.1,259.1z"/>
			<path class="st8" d="M488.9,232.3c-4.3,0-7.8,3.5-7.8,7.8v72.1c0,4.3,3.5,7.8,7.8,7.8c4.3,0,7.8-3.5,7.8-7.8V240
				C496.7,235.8,493.2,232.3,488.9,232.3L488.9,232.3z"/>
		</g>
	</g>
</g>
</svg>
