<?xml version="1.0" encoding="utf-8"?>
<!-- Generator: Adobe Illustrator 21.0.2, SVG Export Plug-In . SVG Version: 6.00 Build 0)  -->
<svg version="1.1" id="Capa_1" xmlns="http://www.w3.org/2000/svg" xmlns:xlink="http://www.w3.org/1999/xlink" x="0px" y="0px"
	 viewBox="0 0 512 512" style="enable-background:new 0 0 512 512;" xml:space="preserve">
<style type="text/css">
	.st0{fill:#13BF75;}
	.st1{fill:#00A86B;}
	.st2{fill:#424A5E;}
	.st3{fill:#EBBAA1;}
	.st4{fill:#E8A990;}
	.st5{fill:#FDD4BB;}
	.st6{fill:#00935B;}
	.st7{fill:#F7C4A8;}
	.st8{fill:#03E086;}
</style>
<g>
	<g>
		<circle class="st0" cx="48.3" cy="166.4" r="18.7"/>
		
			<ellipse transform="matrix(0.9951 -9.900861e-02 9.900861e-02 0.9951 -11.967 46.6139)" class="st0" cx="463.7" cy="143.9" rx="18.7" ry="18.7"/>
		<g>
			<path class="st1" d="M408.1,493.4l9-28.5v-35.4c0-70-49.5-128.4-115.4-142.2c-13.6,7.2-29.2,11.4-45.7,11.4s-32.1-4.1-45.7-11.4
				c-65.9,13.8-115.4,72.2-115.4,142.2v35.4l9,28.5l155.6,9L408.1,493.4z"/>
			<path class="st2" d="M128.9,166.7c0,0-28.1-37.8-29.3-92.4c-0.1-3.1,2.6-5.4,5.7-5c6.3,0.9,16.7,1.6,26.4-1
				c29.5-7.9,58.5-66.4,109.5-68.1c51.1-1.7,61,22.1,61,22.1S321,11.1,349,14.8c42,5.7,78.9,69.7,41.4,157.6L128.9,166.7z"/>
			<path class="st3" d="M114.8,183.9c0,19,15.4,30.1,29,30.1l14.6-12.8c0-0.1,12.8-17.3,12.8-17.4l-12.8-17.4
				c-4.3-2.4-9.3-3.7-14.6-3.7C130.2,162.8,118.7,171.7,114.8,183.9L114.8,183.9z"/>
			<path class="st4" d="M143.7,205c-13.6,0-25-8.9-29-21.1c-0.9,2.9-1.5,6-1.5,9.3c0,16.8,13.6,30.4,30.4,30.4
				c6,0,11.6-1.7,16.3-4.7l8-10.6l-9.6-7C154,203.7,149,205,143.7,205L143.7,205z"/>
			<path class="st3" d="M397.2,183.9c0,19-15.4,30.1-29,30.1l-14.6-12.8c0-0.1-12.8-17.3-12.8-17.4l12.8-17.4
				c4.3-2.4,9.3-3.7,14.6-3.7C381.8,162.8,393.3,171.7,397.2,183.9L397.2,183.9z"/>
			<path class="st4" d="M368.3,205c13.6,0,25-8.9,29-21.1c0.9,2.9,1.5,6,1.5,9.3c0,16.8-13.6,30.4-30.4,30.4c-6,0-11.6-1.7-16.3-4.7
				l-8-10.6l9.6-7C358,203.7,363,205,368.3,205z"/>
			<path class="st5" d="M256,289.1c53.9,0,97.6-37.9,97.6-106.6v-28c0-8.5-3.5-16.8-9.8-22.6c-18.2-16.8-38.5-45.9-46.7-58.1
				c-1.9-2.8-5.8-3.1-8.1-0.6c-41.1,44.9-94.4,59.9-118.2,64.5c-7.3,1.4-12.5,7.8-12.5,15.2v29.5C158.4,247.3,202.1,289.1,256,289.1
				z"/>
			<path class="st6" d="M176.7,512h158.7l7.7-9.3l-7.7-9.3H176.7l-7.7,9.3L176.7,512z"/>
			<path class="st3" d="M210,287.2c-0.1,1.2-0.2,2.4-0.2,3.6c0,25.5,20.7,46.2,46.2,46.2s46.2-20.7,46.2-46.2c0-1.2-0.1-2.4-0.2-3.6
				H210z"/>
			<path class="st5" d="M417.1,493.4l-37,9l-37-9v-28.5h74L417.1,493.4z"/>
			<path class="st5" d="M94.9,493.4l37,9l37-9v-28.5h-74L94.9,493.4z"/>
			<path class="st7" d="M350.8,512h61.3c2.8,0,5-2.2,5-5v-13.6h-66.3l-7.7,9.3L350.8,512z"/>
			<path class="st7" d="M99.9,512h61.3l7.7-9.3l-7.7-9.3H94.9V507C94.9,509.8,97.1,512,99.9,512L99.9,512z"/>
			<g>
				<path class="st8" d="M350.8,493.4v-72.8c0-4.3-3.5-7.7-7.7-7.7s-7.7,3.5-7.7,7.7v72.8l7.7,9.3L350.8,493.4z"/>
				<path class="st0" d="M335.3,493.4h15.5V512h-15.5V493.4z"/>
				<path class="st8" d="M176.7,493.4v-72.8c0-4.3-3.5-7.7-7.7-7.7s-7.7,3.5-7.7,7.7v72.8l7.7,9.3L176.7,493.4z"/>
				<path class="st0" d="M161.2,493.4h15.5V512h-15.5V493.4z"/>
			</g>
			<path class="st7" d="M256,280.1c-53.9,0-97.6-43.7-97.6-97.6V201c0,53.9,43.7,97.6,97.6,97.6s97.6-43.7,97.6-97.6v-18.6
				C353.6,236.4,309.9,280.1,256,280.1z"/>
		</g>
	</g>
	<g>
		<path class="st2" d="M215.8,227.3c-2.7,3.3-2.2,8.3,1.2,10.9c3.3,2.7,8.2,2.2,10.9-1.2c1-1.3,3.9-3.8,6.3-4
			c0.6,0.4,1.8,1.5,2.6,2.3c3.7,3.5,9.2,8.7,19.2,8.7c10,0,15.5-5.2,19.2-8.7c0.8-0.8,2-1.9,2.6-2.3c2.4,0.2,5.3,2.7,6.3,4
			c2.7,3.3,7.5,3.8,10.9,1.2c3.3-2.7,3.9-7.6,1.2-10.9c-0.8-1-8.1-9.7-18.6-9.7c-6.2,0-10.1,3.8-13,6.5c-3.1,2.9-4.9,4.5-8.5,4.5
			c-3.6,0-5.4-1.5-8.5-4.5c-2.9-2.8-6.9-6.5-13-6.5C223.9,217.6,216.6,226.3,215.8,227.3L215.8,227.3z"/>
		<g>
			<path class="st2" d="M193.6,192.3c1.5,1.5,3.5,2.3,5.5,2.3c2,0,4-0.8,5.5-2.3l4.1-4.1l4.1,4.1c1.5,1.5,3.5,2.3,5.5,2.3
				s4-0.8,5.5-2.3c3-3,3-7.9,0-11l-4.1-4.1l4.1-4.1c3-3,3-7.9,0-11c-3-3-7.9-3-11,0l-4.1,4.1l-4.1-4.1c-3-3-7.9-3-11,0
				c-3,3-3,7.9,0,11l4.1,4.1l-4.1,4.1C190.5,184.3,190.5,189.3,193.6,192.3L193.6,192.3z"/>
			<path class="st2" d="M288.3,192.3c1.5,1.5,3.5,2.3,5.5,2.3s4-0.8,5.5-2.3l4.1-4.1l4.1,4.1c1.5,1.5,3.5,2.3,5.5,2.3
				c2,0,4-0.8,5.5-2.3c3-3,3-7.9,0-11l-4.1-4.1l4.1-4.1c3-3,3-7.9,0-11c-3-3-7.9-3-11,0l-4.1,4.1l-4.1-4.1c-3-3-7.9-3-11,0
				c-3,3-3,7.9,0,11l4.1,4.1l-4.1,4.1C285.2,184.3,285.2,189.3,288.3,192.3L288.3,192.3z"/>
		</g>
	</g>
	<g>
		<path class="st8" d="M136.7,127.6c-0.4,0-0.9,0-1.3-0.1c-78.3-13.4-94.8-34-94.8-48.9c0-19.4,26-34.7,77.2-45.5
			c4.2-0.9,8.3,1.8,9.2,6c0.9,4.2-1.8,8.3-6,9.2c-21.1,4.5-38.4,10-49.9,16.1c-9.4,4.9-15,10.3-15,14.3c0,6.8,17.1,22.6,81.9,33.6
			c4.2,0.7,7,4.7,6.3,8.9C143.6,124.9,140.4,127.6,136.7,127.6L136.7,127.6z"/>
		<path class="st8" d="M377.8,127.1c-3.7,0-7-2.6-7.6-6.4c-0.7-4.2,2.1-8.2,6.3-9c62.8-11.1,79.4-26.6,79.4-33.2
			c0-4.9-8.7-13.6-33.3-21.9c-4-1.4-6.2-5.8-4.8-9.8c1.4-4,5.8-6.2,9.8-4.8c29,9.9,43.8,22.2,43.8,36.6c0,14.7-16,35-92.2,48.5
			C378.7,127.1,378.3,127.1,377.8,127.1z"/>
	</g>
</g>
</svg>
