<?xml version="1.0" encoding="utf-8"?>
<!-- Generator: Adobe Illustrator 21.0.2, SVG Export Plug-In . SVG Version: 6.00 Build 0)  -->
<svg version="1.1" id="Capa_1" xmlns="http://www.w3.org/2000/svg" xmlns:xlink="http://www.w3.org/1999/xlink" x="0px" y="0px"
	 viewBox="0 0 512 512" style="enable-background:new 0 0 512 512;" xml:space="preserve">
<style type="text/css">
	.st0{fill:#424A5E;}
	.st1{fill:#EBBAA1;}
	.st2{fill:#E8A990;}
	.st3{fill:#FDD4BB;}
	.st4{fill:#00A86B;}
	.st5{fill:#00935B;}
	.st6{fill:#F7C4A8;}
	.st7{fill:#03E086;}
	.st8{fill:#13BF75;}
</style>
<g>
	<g>
		<g>
			<path class="st0" d="M128.9,166.7c0,0-28.1-37.8-29.3-92.4c-0.1-3.1,2.6-5.4,5.7-5c6.3,0.9,16.7,1.6,26.4-1
				c29.5-7.9,58.5-66.4,109.5-68.1c51.1-1.7,61,22.1,61,22.1S321,11.1,349,14.8c42,5.7,78.9,69.7,41.4,157.6L128.9,166.7z"/>
			<g>
				<path class="st1" d="M114.8,183.9c0,19.9,15.4,30.1,29,30.1c0,0,14.6-13,14.6-12.8c0-0.1,0-0.2,0-0.2l9-18.6l-9-15.9
					c-4.3-2.4-9.3-3.7-14.6-3.7C130.2,162.8,118.7,171.7,114.8,183.9L114.8,183.9z"/>
				<path class="st2" d="M143.7,205c-13.6,0-25-8.9-29-21.1c-0.9,2.9-1.5,6-1.5,9.3c0,16.8,13.6,30.4,30.4,30.4
					c6,0,11.6-1.7,16.3-4.7l7.9-8.1l-9.5-9.6C154,203.7,149,205,143.7,205L143.7,205z"/>
				<path class="st1" d="M397.2,183.9c0,19.9-15.4,30.1-29,30.1c0,0-14.6-13-14.6-12.8c0-0.1,0-0.2,0-0.2l-9-18.6l9-15.9
					c4.3-2.4,9.3-3.7,14.6-3.7C381.8,162.8,393.3,171.7,397.2,183.9L397.2,183.9z"/>
				<path class="st2" d="M368.3,205c13.6,0,25-8.9,29-21.1c0.9,2.9,1.5,6,1.5,9.3c0,16.8-13.6,30.4-30.4,30.4
					c-6,0-11.6-1.7-16.3-4.7l-7.9-8.1l9.5-9.6C358,203.7,363,205,368.3,205z"/>
			</g>
			<path class="st3" d="M256,289.1c53.9,0,97.6-43.5,97.6-106.6v-28c0-8.5-3.5-16.8-9.8-22.6c-18.2-16.8-38.5-45.9-46.7-58.1
				c-1.9-2.8-5.8-3.1-8.1-0.6c-41.1,44.9-94.4,59.9-118.2,64.5c-7.3,1.4-12.5,7.8-12.5,15.2v29.5C158.4,247.3,202.1,289.1,256,289.1
				z"/>
			<path class="st4" d="M301.7,287.3c-13.6,7.2-29.2,11.4-45.7,11.4s-32.1-4.1-45.7-11.4c-65.9,13.8-115.4,72.2-115.4,142.2v35.4
				l9,28.5l152.1,9l152.1-9l9-28.5v-35.4C417.1,359.5,367.6,301.1,301.7,287.3L301.7,287.3z"/>
			<path class="st5" d="M176.7,512h158.7l7.7-9.3l-7.7-9.3H176.7l-7.7,9.3L176.7,512z"/>
			<path class="st1" d="M210,287.2c-0.1,1.2-0.2,2.4-0.2,3.6c0,25.5,20.7,46.2,46.2,46.2s46.2-20.7,46.2-46.2c0-1.2-0.1-2.4-0.2-3.6
				H210z"/>
			<path class="st3" d="M417.1,493.4l-37,9l-37-9v-28.5h74V493.4z"/>
			<path class="st3" d="M94.9,493.4l37,9l37-9v-28.5h-74L94.9,493.4z"/>
			<path class="st6" d="M350.8,512h61.3c2.8,0,5-2.2,5-5v-13.6h-66.3l-7.7,9.3L350.8,512z"/>
			<path class="st6" d="M99.9,512h61.3l7.7-9.3l-7.7-9.3H94.9V507C94.9,509.8,97.1,512,99.9,512L99.9,512z"/>
			<path class="st7" d="M203.8,237.4c-2.4,0-4.8-1.1-6.3-3.2L152,171.1c-2.5-3.5-1.7-8.3,1.8-10.8s8.3-1.7,10.8,1.8l45.5,63.1
				c2.5,3.5,1.7,8.3-1.8,10.8C207,236.9,205.4,237.4,203.8,237.4z"/>
			<path class="st7" d="M308.2,237.4c-1.6,0-3.2-0.5-4.5-1.5c-3.5-2.5-4.3-7.3-1.8-10.8l45.5-63.1c2.5-3.5,7.3-4.3,10.8-1.8
				s4.3,7.3,1.8,10.8l-45.5,63.1C312.9,236.3,310.6,237.4,308.2,237.4L308.2,237.4z"/>
			<g>
				<path class="st6" d="M178,241.3c-12.4-16.4-19.7-36.7-19.7-58.8V201c0,17.4,4.6,33.7,12.5,47.9l8.3,1.9L178,241.3z"/>
				<path class="st6" d="M334,241.3l-0.9,9.5l8-1.9c8-14.1,12.5-30.5,12.5-47.9v-18.6C353.6,204.5,346.3,224.9,334,241.3L334,241.3z
					"/>
			</g>
			<path class="st4" d="M178,241.3c10.7,27.2,46.1,47.8,78,47.8s63.4-20.6,78-47.8c-14.6-14.7-44.1-39.1-78-39.1
				S192.7,226.6,178,241.3L178,241.3z"/>
			<path class="st4" d="M256,280.1c-31.8,0-60.1-15.2-78-38.8c-3.1,3.1-5.5,5.7-7.2,7.6c16.7,29.7,48.6,49.8,85.1,49.8
				s68.4-20.1,85.1-49.8c-1.7-1.9-4.1-4.6-7.2-7.6C316.1,264.9,287.8,280.1,256,280.1L256,280.1z"/>
			<g>
				<path class="st7" d="M176.7,493.4v-72.8c0-4.3-3.5-7.7-7.7-7.7s-7.7,3.5-7.7,7.7v72.8l7.7,9.3L176.7,493.4z"/>
				<path class="st7" d="M350.8,493.4v-72.8c0-4.3-3.5-7.7-7.7-7.7s-7.7,3.5-7.7,7.7v72.8l7.7,9.3L350.8,493.4z"/>
				<g>
					<path class="st8" d="M161.2,493.4h15.5V512h-15.5V493.4z"/>
					<path class="st8" d="M335.3,493.4h15.5V512h-15.5V493.4z"/>
				</g>
			</g>
		</g>
	</g>
	<g>
		<path class="st0" d="M211.6,192.2c4.3,0,7.8-3.5,7.8-7.8v-13.8c0-4.3-3.5-7.8-7.8-7.8s-7.8,3.5-7.8,7.8v13.8
			C203.8,188.7,207.3,192.2,211.6,192.2z"/>
		<path class="st0" d="M300.4,192.2c4.3,0,7.8-3.5,7.8-7.8v-13.8c0-4.3-3.5-7.8-7.8-7.8s-7.8,3.5-7.8,7.8v13.8
			C292.7,188.7,296.1,192.2,300.4,192.2z"/>
	</g>
</g>
</svg>
