<?xml version="1.0" encoding="utf-8"?>
<!-- Generator: Adobe Illustrator 21.0.2, SVG Export Plug-In . SVG Version: 6.00 Build 0)  -->
<svg version="1.1" id="Capa_1" xmlns="http://www.w3.org/2000/svg" xmlns:xlink="http://www.w3.org/1999/xlink" x="0px" y="0px"
	 viewBox="0 0 512 512" style="enable-background:new 0 0 512 512;" xml:space="preserve">
<style type="text/css">
	.st0{fill:#00A86B;}
	.st1{fill:#424A5E;}
	.st2{fill:#EBBAA1;}
	.st3{fill:#E8A990;}
	.st4{fill:#FDD4BB;}
	.st5{fill:#F7C4A8;}
	.st6{fill:#00935B;}
	.st7{fill:#03E086;}
	.st8{fill:#13BF75;}
</style>
<g>
	<g>
		<g>
			<g>
				<path class="st0" d="M464.5,493.4l9-28.5v-35.4c0-70-49.5-128.4-115.4-142.2c-13.6,7.2-29.2,11.4-45.7,11.4s-32.1-4.1-45.7-11.4
					c-65.9,13.8-115.4,72.2-115.4,142.2v63.9l161.1,9L464.5,493.4z"/>
				<path class="st1" d="M185.3,166.7c0,0-28.1-37.8-29.3-92.4c-0.1-3.1,2.6-5.4,5.7-5c6.3,0.9,16.7,1.6,26.4-1
					c29.5-7.9,58.5-66.4,109.5-68.1c51.1-1.7,61,22.1,61,22.1s18.8-11.2,46.8-7.4c42,5.7,78.9,69.7,41.4,157.6L185.3,166.7z"/>
				<path class="st2" d="M171.2,183.9c0,19,15.4,30.1,29,30.1l14.6-12.8c0-0.1,12.8-17.3,12.8-17.4l-12.8-17.4
					c-4.3-2.4-9.3-3.7-14.6-3.7C186.6,162.8,175.1,171.7,171.2,183.9z"/>
				<path class="st3" d="M200.1,205c-13.6,0-25-8.9-29-21.1c-0.9,2.9-1.5,6-1.5,9.3c0,16.8,13.6,30.4,30.4,30.4
					c6,0,11.6-1.7,16.3-4.7l8-10.6l-9.6-7C210.4,203.7,205.4,205,200.1,205L200.1,205z"/>
				<path class="st2" d="M453.6,183.9c0,19-15.4,30.1-29,30.1l-14.6-12.8c0-0.1-12.8-17.3-12.8-17.4l12.8-17.4
					c4.3-2.4,9.3-3.7,14.6-3.7C438.2,162.8,449.7,171.7,453.6,183.9z"/>
				<path class="st3" d="M424.7,205c13.6,0,25-8.9,29-21.1c0.9,2.9,1.5,6,1.5,9.3c0,16.8-13.6,30.4-30.4,30.4
					c-6,0-11.6-1.7-16.3-4.7l-8-10.6l9.6-7C414.4,203.7,419.4,205,424.7,205z"/>
				<path class="st2" d="M266.1,287.2c-0.1,1.2-0.2,2.4-0.2,3.6c0,25.5,20.7,46.2,46.2,46.2s46.2-20.7,46.2-46.2
					c0-1.2-0.1-2.4-0.2-3.6C358.2,287.2,266.1,288.4,266.1,287.2z"/>
				<path class="st4" d="M312.4,289.1c53.9,0,97.6-37.9,97.6-106.6v-28c0-8.5-3.5-16.8-9.8-22.6c-18.2-16.8-38.5-45.9-46.7-58.1
					c-1.9-2.8-5.8-3.1-8.1-0.6c-41.1,44.9-94.4,59.9-118.2,64.5c-7.3,1.4-12.5,7.8-12.5,15.2v29.5
					C214.8,247.3,258.5,289.1,312.4,289.1L312.4,289.1z"/>
				<path class="st5" d="M312.4,280.1c-53.9,0-97.6-43.7-97.6-97.6V201c0,53.9,43.7,97.6,97.6,97.6s97.6-43.7,97.6-97.6v-18.6
					C410.1,236.4,366.3,280.1,312.4,280.1z"/>
				<path class="st6" d="M151.3,512h240.5l7.7-9.3l-7.7-9.3H151.3V512z"/>
				<path class="st4" d="M473.5,493.4v-28.5h-74v28.5l37,9L473.5,493.4z"/>
				<path class="st5" d="M473.5,493.4h-66.3l-7.7,9.3l7.7,9.3h61.3c2.8,0,5-2.2,5-5V493.4z"/>
				<path class="st7" d="M407.2,493.4v-72.8c0-4.3-3.5-7.7-7.7-7.7s-7.7,3.5-7.7,7.7v72.8l7.7,9.3L407.2,493.4z"/>
				<path class="st8" d="M391.8,493.4h15.5V512h-15.5V493.4z"/>
			</g>
			<path class="st8" d="M61.5,502.4h159.2c17.1,0,31-15.2,31-40V348.4c0-4.4-5.2-6.8-8.6-3.9l-35.9,31.4H61.5c-17.1,0-31,13.9-31,31
				v55.6C30.5,491.8,44.4,502.4,61.5,502.4z"/>
			<path class="st8" d="M220.7,493.4H61.5c-17.1,0-31-13.9-31-31V481c0,17.1,13.9,31,31,31h159.2c17.1,0,31-13.9,31-31v-18.6
				C251.7,479.6,237.8,493.4,220.7,493.4L220.7,493.4z"/>
		</g>
		<g>
			<path class="st1" d="M184.4,427.4c-1.2,0-2.3,0.3-3.3,0.7c-0.9-4.7-5.1-8.3-10.1-8.3h-44.3l-9.3,23.6l9.3,23.6H171
				c5,0,9.2-3.6,10.1-8.3c1,0.5,2.1,0.7,3.3,0.7c4.3,0,7.7-3.5,7.7-7.7v-16.5C192.1,430.9,188.6,427.4,184.4,427.4z"/>
			<path class="st7" d="M126.6,419.8h-22.1c-5.7,0-10.3,4.6-10.3,10.3v26.5c0,5.7,4.6,10.3,10.3,10.3h22.1V419.8z"/>
		</g>
	</g>
	<g>
		<path class="st1" d="M255.1,187.8c0.5-0.1,12.9-1.6,23.8-6.3c3.9-1.7,5.7-6.3,4-10.2c-1.7-3.9-6.3-5.7-10.2-4
			c-8.8,3.8-19.4,5.2-19.5,5.2c-4.3,0.5-7.3,4.4-6.8,8.6c0.5,3.9,3.8,6.8,7.7,6.8C254.4,187.9,254.7,187.8,255.1,187.8L255.1,187.8z
			"/>
		<path class="st1" d="M345.7,181.4c10.9,4.7,23.3,6.3,23.8,6.3c0.3,0,0.6,0.1,0.9,0.1c3.9,0,7.2-2.9,7.7-6.8
			c0.5-4.3-2.5-8.1-6.8-8.6c-0.1,0-10.7-1.3-19.5-5.2c-3.9-1.7-8.5,0.1-10.2,4C340,175.2,341.8,179.7,345.7,181.4L345.7,181.4z"/>
		<path class="st1" d="M293.2,239.3h38.4c4.3,0,7.8-3.5,7.8-7.8s-3.5-7.8-7.8-7.8h-38.4c-4.3,0-7.8,3.5-7.8,7.8
			C285.4,235.8,288.9,239.3,293.2,239.3z"/>
		<g>
			<path class="st7" d="M121,257.1h12.8L115,279.7c-1.9,2.3-2.3,5.5-1.1,8.3c1.3,2.7,4,4.5,7,4.5h29.4c4.3,0,7.8-3.5,7.8-7.8
				c0-4.3-3.5-7.8-7.8-7.8h-12.8l18.8-22.5c1.9-2.3,2.3-5.5,1.1-8.3s-4-4.5-7-4.5H121c-4.3,0-7.8,3.5-7.8,7.8
				C113.2,253.7,116.7,257.1,121,257.1L121,257.1z"/>
			<path class="st7" d="M436.5,254.4c0,4.3,3.5,7.8,7.8,7.8h12.8l-18.8,22.5c-1.9,2.3-2.3,5.5-1.1,8.3s4,4.5,7,4.5h29.4
				c4.3,0,7.8-3.5,7.8-7.8c0-4.3-3.5-7.8-7.8-7.8h-12.8l18.8-22.5c1.9-2.3,2.4-5.5,1.1-8.3c-1.3-2.7-4-4.5-7-4.5h-29.4
				C440,246.6,436.5,250.1,436.5,254.4L436.5,254.4z"/>
			<path class="st7" d="M72.5,129.3h12.8l-18.8,22.5c-1.9,2.3-2.3,5.5-1.1,8.3c1.3,2.7,4,4.5,7,4.5H102c4.3,0,7.8-3.5,7.8-7.8
				c0-4.3-3.5-7.8-7.8-7.8H89.1l18.8-22.5c1.9-2.3,2.3-5.5,1.1-8.3c-1.3-2.7-4-4.5-7-4.5H72.5c-4.3,0-7.8,3.5-7.8,7.8
				C64.8,125.8,68.2,129.3,72.5,129.3L72.5,129.3z"/>
		</g>
	</g>
</g>
</svg>
