<?xml version="1.0" encoding="utf-8"?>
<!-- Generator: Adobe Illustrator 21.0.2, SVG Export Plug-In . SVG Version: 6.00 Build 0)  -->
<svg version="1.1" id="Capa_1" xmlns="http://www.w3.org/2000/svg" xmlns:xlink="http://www.w3.org/1999/xlink" x="0px" y="0px"
	 viewBox="0 0 512 512" style="enable-background:new 0 0 512 512;" xml:space="preserve">
<style type="text/css">
	.st0{fill:#424A5E;}
	.st1{fill:#FDD4BB;}
	.st2{fill:#F7C4A8;}
	.st3{fill:#00A86B;}
	.st4{fill:#00935B;}
	.st5{fill:#03E086;}
	.st6{fill:#13BF75;}
	.st7{fill:#E84642;}
</style>
<g>
	<g>
		<g>
			<path class="st0" d="M337.7,0.2c-68.8-2.5-79.2,27.6-112.5,36.1c-15.4,3.9-30.4,0.6-43.4-5.2c-13.9-6.3-27.6,9-19.7,22.1
				c9.2,15.2,22.3,30.8,40.7,42.4v0l173.5,171.5c0,0,77.4-50,84.8-119.7C468.8,74.8,421.3,3.2,337.7,0.2L337.7,0.2z"/>
			<path class="st1" d="M272.5,313.6l103.7-26.9v-19.7l-36-58.9c-1.7-2.8-0.3-6.5,2.8-7.4c14.3-4.3,24.6-17.9,23.8-33.8
				c-0.9-17.1-14.9-30.8-31.9-31.5c-10-0.4-19,3.6-25.4,10.2c-2.3,2.4-6.2,2-7.9-0.8l-17.8-29.1c-1-1.6-2.7-2.5-4.6-2.4
				c-32.3,1.9-57.2-5.7-76.4-17.8v112.3l7,7l-6.6,8c3.9,36.4,32.9,65.2,69.3,69V313.6z"/>
			<g>
				<path class="st2" d="M272.5,313.6v18.6l103.7-26.9v-18.6c-3.3-2.1-6.8-3.7-10.5-4.9C335.8,272.2,301.7,285.2,272.5,313.6
					L272.5,313.6z"/>
			</g>
			<path class="st3" d="M437.2,493.4c-2.7-48.2-15-174.8-71.5-193c-66.7-21.5-154.2,69.7-162.3,193l122.4,9.6L437.2,493.4z"/>
			<path class="st4" d="M203.4,493.4c-0.3,4.5-0.5,8.9-0.6,13.5c-0.1,2.8,2.2,5.1,5,5.1h62.1l55.9-9l55.9,9h51.1
				c2.8,0,5.1-2.3,5-5.2c-0.1-3.2-0.3-7.8-0.6-13.4L203.4,493.4z"/>
			<path class="st1" d="M374,493.4l-48.2,9.6l-48.2-9.6V464H374V493.4z"/>
			<path class="st2" d="M285.4,512h80.8l7.7-9.3l-7.7-9.3h-80.8l-7.7,9.3L285.4,512z"/>
			<g>
				<path class="st5" d="M381.7,493.4v-88.8c0-4.3-3.5-7.7-7.7-7.7s-7.7,3.5-7.7,7.7v88.8l7.7,9.3L381.7,493.4z"/>
				<path class="st5" d="M285.4,493.4v-88.8c0-4.3-3.5-7.7-7.7-7.7s-7.7,3.5-7.7,7.7v88.8l7.7,9.3L285.4,493.4z"/>
				<g>
					<path class="st6" d="M269.9,493.4h15.5V512h-15.5V493.4z"/>
					<path class="st6" d="M366.2,493.4h15.5V512h-15.5V493.4z"/>
				</g>
			</g>
			<path class="st0" d="M229.3,232.7c1.2,2.9,4,4.7,7,4.7c0.9,0,1.9-0.2,2.8-0.5c3.9-1.5,5.7-5.9,4.2-9.7
				c-7.8-19.6-30.3-20.1-40.5-19.3v6.7c0,2.8,0.2,5.6,0.5,8.3C209.6,222.3,225.1,222,229.3,232.7z"/>
		</g>
		<g>
			<path class="st7" d="M65.8,286.6H25.9c-6.3,0-11.1-5.6-10.2-11.8l-2.8,18.6c-0.9,6.2,3.9,11.8,10.2,11.8H63
				c5.1,0,9.5-3.8,10.2-8.9l2.6-17.9C74.8,283.2,70.6,286.6,65.8,286.6L65.8,286.6z"/>
			<path class="st7" d="M65.8,286.6H25.9c-6.3,0-11.1-5.6-10.2-11.8l-2.8,18.6c-0.9,6.2,3.9,11.8,10.2,11.8H63
				c5.1,0,9.5-3.8,10.2-8.9l2.6-17.9C74.8,283.2,70.6,286.6,65.8,286.6L65.8,286.6z"/>
			<path class="st7" d="M65.8,286.6H25.9c-6.3,0-11.1-5.6-10.2-11.8l-2.8,18.6c-0.9,6.2,3.9,11.8,10.2,11.8H63
				c5.1,0,9.5-3.8,10.2-8.9l2.6-17.9C74.8,283.2,70.6,286.6,65.8,286.6L65.8,286.6z"/>
			<path class="st5" d="M125.3,171.9l7.4,7.4l-9,9.6c-19.6,0-36.2,14-39.7,33.2c-0.1,0.5-0.2,0.9-0.2,1.4l-7.9,55
				c-1.5,10.6-5.2,17.2-10.1,17.2H25.9c-6.3,0-11.9-9.8-10.2-20.8l-0.1,0.1l10.5-73.1l50-90.3h47.5l9,32.2L125.3,171.9z"/>
		</g>
		<path class="st4" d="M68.8,156.7l7.3-45.1H65.9c-15.4,0-28.5,11.3-30.6,26.5l-6.5,45.1C40.4,201.9,64.5,176.4,68.8,156.7z"/>
		<g>
			<path class="st6" d="M65.8,286.6H25.9c-6.3,0-11.1-5.6-10.2-11.8l-2.8,18.6c-0.9,6.2,3.9,11.8,10.2,11.8H63
				c5.1,0,9.5-3.8,10.2-8.9l2.6-17.9C74.8,283.2,70.6,286.6,65.8,286.6L65.8,286.6z"/>
		</g>
		<g>
			<path class="st4" d="M28.8,183.2l-2.7,18.7c20.5,0,37.9-14.8,41.1-35l1.6-10.1C62.2,171.7,45.4,182.2,28.8,183.2z"/>
			<path class="st6" d="M155,121.9v56.7c0,5.7-4.6,10.3-10.3,10.3h-21.1v-77.3h21.1C150.4,111.6,155,116.2,155,121.9z"/>
		</g>
	</g>
	<g>
		<g>
			<path class="st4" d="M206,358.5c-4.3,0-7.8-3.5-7.8-7.8c0-5.9-1.5-7.7-4.1-10.9c-2.6-3.2-6.1-7.5-7.6-15.4
				c-2.9-15.6,9.1-26.7,9.6-27.1c3.2-2.9,8.1-2.6,11,0.5c2.9,3.2,2.6,8-0.5,10.9c-0.2,0.2-6.1,5.9-4.8,12.8c0.7,4,2.2,5.7,4.4,8.4
				c3.4,4.1,7.6,9.3,7.6,20.7C213.7,355,210.2,358.5,206,358.5L206,358.5z"/>
			<path class="st4" d="M471.8,382.3c-4.3,0-7.8-3.5-7.8-7.8c0-13.4,6.4-21.4,11.5-27.7c4-4.9,7.1-8.8,7.9-15
				c1.4-10.5-5.2-16.6-5.2-16.7c-3.2-2.8-3.5-7.7-0.7-11c2.8-3.2,7.7-3.5,11-0.7c0.5,0.5,12.8,11.5,10.3,30.3
				c-1.4,10.4-6.6,16.9-11.2,22.7c-4.5,5.6-8.1,10-8.1,18C479.6,378.9,476.1,382.3,471.8,382.3L471.8,382.3z"/>
			<path class="st4" d="M441.1,358.5c-4.3,0-7.8-3.5-7.8-7.8c0-11.4,4.2-16.6,7.6-20.7c2.2-2.7,3.6-4.4,4.4-8.4
				c1.3-7-4.7-12.7-4.7-12.8c-3.2-2.9-3.4-7.8-0.5-11c2.9-3.2,7.8-3.4,11-0.5c0.5,0.5,12.5,11.5,9.6,27.1c-1.5,7.9-5,12.2-7.6,15.4
				c-2.6,3.2-4.1,5-4.1,10.9C448.9,355,445.4,358.5,441.1,358.5L441.1,358.5z"/>
			<path class="st4" d="M175.2,382.3c4.3,0,7.8-3.5,7.8-7.8c0-13.4-6.4-21.4-11.5-27.7c-4-4.9-7.1-8.8-7.9-15
				c-1.4-10.5,5.2-16.6,5.2-16.7c3.2-2.8,3.5-7.7,0.7-11c-2.8-3.2-7.7-3.5-10.9-0.7c-0.5,0.5-12.8,11.5-10.3,30.3
				c1.4,10.4,6.6,16.9,11.2,22.7c4.5,5.6,8.1,10,8.1,18C167.5,378.9,170.9,382.3,175.2,382.3L175.2,382.3z"/>
		</g>
		<path class="st0" d="M263.4,168.3c-0.1,0-10.3-1.3-19.8-8c-3.5-2.5-8.3-1.7-10.8,1.8c-2.5,3.5-1.7,8.3,1.8,10.8
			c12.9,9.2,26.5,10.7,27.1,10.8c0.3,0,0.6,0,0.8,0c3.9,0,7.2-2.9,7.7-6.9C270.7,172.6,267.7,168.8,263.4,168.3L263.4,168.3z"/>
	</g>
</g>
</svg>
