<?xml version="1.0" encoding="utf-8"?>
<!-- Generator: Adobe Illustrator 21.0.2, SVG Export Plug-In . SVG Version: 6.00 Build 0)  -->
<svg version="1.1" id="Capa_1" xmlns="http://www.w3.org/2000/svg" xmlns:xlink="http://www.w3.org/1999/xlink" x="0px" y="0px"
	 viewBox="0 0 512 512" style="enable-background:new 0 0 512 512;" xml:space="preserve">
<style type="text/css">
	.st0{fill:#EBF2F8;}
	.st1{fill:#00A86B;}
	.st2{fill:#424A5E;}
	.st3{fill:#EBBAA1;}
	.st4{fill:#E8A990;}
	.st5{fill:#FDD4BB;}
	.st6{fill:#00935B;}
	.st7{fill:#F7C4A8;}
	.st8{fill:#03E086;}
	.st9{fill:#13BF75;}
</style>
<g>
	<g>
		<path class="st0" d="M63.4,55.7c-12.5,0-22.6,10.1-22.6,22.6v34.9l22.6,9l22.6-9V78.4C86.1,65.9,75.9,55.7,63.4,55.7z"/>
		<path class="st1" d="M27.2,224.8c0,23.4,18.8,37.1,36.3,37.1s36.3-15.9,36.3-37.1c-2.1-8.3-7-15.5-13.6-20.5v-91H40.8v91
			C34.2,209.3,29.3,216.5,27.2,224.8L27.2,224.8z"/>
		<g>
			<path class="st1" d="M346.6,287.3c-13.6,7.2-29.2,11.4-45.7,11.4s-32.1-4.1-45.7-11.4c-65.9,13.8-115.4,72.2-115.4,142.2v35.4
				l9,28.5l152.1,9l152.1-9l9-28.5v-35.4C462,359.5,412.5,301.1,346.6,287.3L346.6,287.3z"/>
			<path class="st2" d="M173.9,166.7c0,0-28.1-37.8-29.3-92.4c-0.1-3.1,2.6-5.4,5.7-5c6.3,0.9,16.7,1.6,26.4-1
				c29.5-7.9,58.5-66.4,109.5-68.1s61,22.1,61,22.1S366,11.1,394,14.8c42,5.7,78.9,69.7,41.4,157.6L173.9,166.7z"/>
			<path class="st3" d="M159.9,183.9c0,19,15.4,30.1,29,30.1l14.6-12.8c0-0.1,12.8-17.3,12.8-17.4l-12.8-17.4
				c-4.3-2.4-9.3-3.7-14.6-3.7C175.3,162.8,163.8,171.7,159.9,183.9L159.9,183.9z"/>
			<path class="st4" d="M188.8,205c-13.6,0-25-8.9-29-21.1c-0.9,2.9-1.5,6-1.5,9.3c0,16.8,13.6,30.4,30.4,30.4
				c6,0,11.6-1.7,16.3-4.7l8-10.6l-9.6-7C199.1,203.7,194.1,205,188.8,205L188.8,205z"/>
			<path class="st3" d="M442.3,183.9c0,19-15.4,30.1-29,30.1l-14.6-12.8c0-0.1-12.8-17.3-12.8-17.4l12.8-17.4
				c4.3-2.4,9.3-3.7,14.6-3.7C426.9,162.8,438.4,171.7,442.3,183.9L442.3,183.9z"/>
			<path class="st4" d="M413.4,205c13.6,0,25-8.9,29-21.1c0.9,2.9,1.5,6,1.5,9.3c0,16.8-13.6,30.4-30.4,30.4c-6,0-11.6-1.7-16.3-4.7
				l-8-10.6l9.6-7C403.1,203.7,408.1,205,413.4,205z"/>
			<path class="st5" d="M301,289.1c53.9,0,97.6-41.6,97.6-106.6v-28c0-8.5-3.5-16.8-9.8-22.6c-18.2-16.8-38.5-45.9-46.7-58.1
				c-1.9-2.8-5.8-3.1-8.1-0.6c-41.1,44.9-94.4,59.9-118.2,64.5c-7.3,1.4-12.5,7.8-12.5,15.2v29.5C203.3,246.8,247.1,289.1,301,289.1
				z"/>
			<path class="st6" d="M221.8,512h158.7l7.7-9.3l-7.7-9.3H221.8l-7.7,9.3L221.8,512z"/>
			<path class="st5" d="M462.1,493.4l-37,9l-37-9v-28.5h74L462.1,493.4z"/>
			<path class="st5" d="M139.9,493.4l37,9l37-9v-28.5h-74L139.9,493.4z"/>
			<path class="st7" d="M462.1,493.4h-66.2l-7.7,9.3l7.7,9.3h61.2c2.8,0,5-2.2,5-5V493.4z"/>
			<path class="st7" d="M139.9,493.4h66.4l7.7,9.3l-7.7,9.3h-61.4c-2.8,0-5-2.2-5-5V493.4z"/>
			<path class="st3" d="M255,287.2c-0.1,1.2-0.2,2.4-0.2,3.6c0,25.5,20.7,46.2,46.2,46.2s46.2-20.7,46.2-46.2c0-1.2-0.1-2.4-0.2-3.6
				H255z"/>
			<path class="st7" d="M301,280.1c-53.9,0-97.6-43.7-97.6-97.6V201c0,53.9,43.7,97.6,97.6,97.6s97.6-43.7,97.6-97.6v-18.6
				C398.6,236.4,354.9,280.1,301,280.1z"/>
			<g>
				<path class="st8" d="M395.9,493.4v-72.8c0-4.3-3.5-7.7-7.7-7.7s-7.7,3.5-7.7,7.7v72.8l7.7,9.3L395.9,493.4z"/>
				<path class="st9" d="M380.4,493.4h15.5V512h-15.5V493.4z"/>
				<path class="st8" d="M221.8,493.4v-72.8c0-4.3-3.5-7.7-7.7-7.7s-7.7,3.5-7.7,7.7v72.8l7.7,9.3L221.8,493.4z"/>
				<path class="st9" d="M206.3,493.4h15.5V512h-15.5V493.4z"/>
			</g>
		</g>
		<path class="st8" d="M254,127.8h93.7c8.5,0,15.5-11,15.5-24.5V87c0-8.5-7-15.5-15.5-15.5H254c-8.5,0-15.5,7-15.5,15.5v16.4
			C238.5,121.9,245.5,127.8,254,127.8z"/>
		<path class="st6" d="M63.4,253c-17.5,0-32.1-12-36.3-28.1c-0.8,3-1.2,6.1-1.2,9.3c0,20.7,16.8,37.4,37.4,37.4s37.4-16.8,37.4-37.4
			c0-3.2-0.4-6.3-1.2-9.3C95.6,241,80.9,253,63.4,253L63.4,253z"/>
		<path class="st9" d="M347.8,118.8H254c-8.5,0-15.5-7-15.5-15.5v18.6c0,8.5,7,15.5,15.5,15.5h93.7c8.5,0,15.5-7,15.5-15.5v-18.6
			C363.2,111.9,356.3,118.8,347.8,118.8z"/>
	</g>
	<g>
		<path class="st2" d="M243.8,187.8c0.5-0.1,12.9-1.6,23.8-6.3c3.9-1.7,5.7-6.3,4-10.2c-1.7-3.9-6.3-5.7-10.2-4
			c-8.8,3.8-19.4,5.2-19.5,5.2c-4.2,0.5-7.3,4.4-6.8,8.6c0.5,3.9,3.8,6.8,7.7,6.8C243.1,187.8,243.4,187.8,243.8,187.8L243.8,187.8z
			"/>
		<path class="st2" d="M334.4,181.4c10.9,4.7,23.3,6.3,23.8,6.3c0.3,0,0.6,0.1,0.9,0.1c3.9,0,7.2-2.9,7.7-6.8
			c0.5-4.3-2.5-8.1-6.8-8.6c-0.1,0-10.6-1.3-19.5-5.2c-3.9-1.7-8.5,0.1-10.2,4C328.7,175.2,330.5,179.7,334.4,181.4L334.4,181.4z"/>
		<g>
			<path class="st2" d="M285.9,248.9c4.3,0,7.8-3.5,7.8-7.8c0-5.3,3.4-9.8,7.4-9.8c4,0,7.4,4.5,7.4,9.8c0,4.3,3.5,7.8,7.8,7.8
				s7.8-3.5,7.8-7.8c0-14-10.3-25.3-22.9-25.3s-22.9,11.4-22.9,25.3C278.1,245.4,281.6,248.9,285.9,248.9L285.9,248.9z"/>
			<path class="st6" d="M174.7,252.9c3.1-2.9,3.4-7.8,0.5-10.9c-2.9-3.2-7.8-3.4-11-0.5c-0.5,0.5-12.5,11.5-9.6,27.1
				c1.5,7.9,5,12.2,7.6,15.4c2.6,3.2,4.1,5,4.1,10.9c0,4.3,3.5,7.8,7.8,7.8s7.8-3.5,7.8-7.8c0-11.4-4.2-16.6-7.6-20.7
				c-2.2-2.7-3.6-4.4-4.4-8.4C168.6,258.8,174.4,253.1,174.7,252.9L174.7,252.9z"/>
			<path class="st6" d="M427.8,274.1c-3.4,4.1-7.6,9.3-7.6,20.7c0,4.3,3.5,7.8,7.8,7.8c4.3,0,7.8-3.5,7.8-7.8
				c0-5.9,1.5-7.7,4.1-10.9c2.6-3.2,6.1-7.5,7.6-15.4c2.9-15.6-9.1-26.7-9.6-27.1c-3.2-2.9-8.1-2.7-11,0.5
				c-2.9,3.2-2.7,8.1,0.5,10.9c0.1,0.1,6.1,5.8,4.8,12.9C431.4,269.7,429.9,271.4,427.8,274.1L427.8,274.1z"/>
			<path class="st6" d="M476.7,249c-0.4-0.5-0.9-0.9-1.3-1.3c-1.3-1-3-1.6-4.8-1.6c-4.3,0-7.8,3.5-7.8,7.8c0,2.1,0.8,4,2.2,5.4
				c0,0,0.1,0.1,0.2,0.2c1.1,1.1,6.4,7,5.1,16.6c-0.8,6.1-3.9,10-7.9,15c-5.1,6.4-11.5,14.3-11.5,27.7c0,4.3,3.5,7.8,7.8,7.8
				c4.3,0,7.8-3.5,7.8-7.8c0-8,3.6-12.4,8.1-18c4.6-5.7,9.8-12.2,11.2-22.7C487.7,262.7,479.9,252.5,476.7,249L476.7,249z"/>
			<path class="st6" d="M143.3,326.4c4.3,0,7.8-3.5,7.8-7.8c0-13.4-6.4-21.4-11.5-27.7c-4-4.9-7.1-8.8-7.9-15
				c-1.2-9.6,4.1-15.5,5.1-16.6c0.1-0.1,0.2-0.2,0.2-0.2c1.4-1.4,2.2-3.3,2.2-5.4c0-4.3-3.5-7.8-7.8-7.8c-1.8,0-3.4,0.6-4.8,1.6
				c-0.5,0.4-0.9,0.8-1.3,1.3c-3.2,3.5-11,13.7-9,29c1.4,10.4,6.6,17,11.2,22.7c4.5,5.6,8.1,10,8.1,18
				C135.6,323,139,326.4,143.3,326.4L143.3,326.4z"/>
		</g>
	</g>
</g>
</svg>
