<svg xmlns="http://www.w3.org/2000/svg" xmlns:xlink="http://www.w3.org/1999/xlink" viewBox="0 0 2666.7 750" xmlns:v="https://vecta.io/nano"><g fill="#898989"><path d="M968.765 193.692c-11.512-9.655-28.409-14.297-50.69-14.297h-60.159v111.221h60.159c22.096 0 38.992-4.828 50.69-14.669 11.512-9.655 17.268-23.395 17.268-41.035 0-18.011-5.756-31.751-17.268-41.22m18.753 244.537l-61.459-88.939h-3.714-64.244v88.939h-73.9V119.049h138.144c28.223 0 52.732 4.642 73.714 14.111 20.796 9.47 36.764 22.838 48.09 40.106s16.897 37.878 16.897 61.645-5.756 44.191-17.082 61.274c-11.326 17.268-27.666 30.265-48.647 39.364l71.671 102.68h-79.47 0z"/><use xlink:href="#B"/><path d="M1456.911 433.401c-23.581-6.87-42.52-15.783-56.817-26.738l25.066-55.703c13.74 10.027 29.894 18.011 48.833 24.138 18.753 6.127 37.692 9.098 56.446 9.098 20.982 0 36.393-3.157 46.419-9.284 10.027-6.313 15.04-14.483 15.04-24.881 0-7.613-2.971-13.926-8.913-18.939s-13.554-9.098-22.838-12.069-21.724-6.313-37.692-10.027c-24.324-5.756-44.191-11.512-59.788-17.268-15.411-5.756-28.78-15.04-39.921-27.852s-16.711-29.708-16.711-51.061c0-18.568 5.013-35.279 15.04-50.319s25.066-26.923 45.305-35.836c20.239-8.727 44.934-13.183 74.085-13.183 20.425 0 40.292 2.414 59.788 7.241s36.393 11.883 51.061 20.982l-22.838 56.075c-29.523-16.711-59.045-25.066-88.382-25.066-20.61 0-36.021 3.342-45.862 10.027s-14.854 15.411-14.854 26.366 5.756 19.125 17.082 24.324c11.326 5.385 28.78 10.584 52.175 15.783 24.324 5.756 44.191 11.512 59.788 17.268 15.411 5.756 28.78 14.854 39.921 27.295s16.711 29.337 16.711 50.69c0 18.196-5.013 34.907-15.226 49.947s-25.438 26.923-45.862 35.836c-20.425 8.727-45.12 13.183-74.271 13.183-24.881.371-49.39-3.157-72.786-10.027"/></g><g fill="#00a86b"><path d="M1780.547 422.446c-26.366-14.111-46.976-33.793-62.016-58.86s-22.653-53.475-22.653-85.04 7.613-59.974 22.653-85.04 35.65-44.748 62.016-58.86 55.889-21.167 88.754-21.167c27.666 0 52.732 4.828 75.014 14.669 22.281 9.655 41.035 23.767 56.26 41.963l-47.348 43.82c-21.539-24.881-48.276-37.321-80.213-37.321-19.682 0-37.321 4.271-52.918 12.997-15.411 8.727-27.666 20.796-36.207 36.207-8.727 15.411-12.997 33.051-12.997 52.918 0 19.682 4.271 37.321 12.997 52.918 8.727 15.411 20.796 27.666 36.207 36.207 15.411 8.727 33.051 12.997 52.918 12.997 31.936 0 58.674-12.626 80.213-37.878l47.348 43.82c-15.226 18.568-33.979 32.679-56.446 42.334s-47.533 14.669-75.199 14.669c-32.679 0-62.016-7.241-88.382-21.353m302.281-16.525c-25.438-25.252-38.064-61.274-38.064-108.064V119.049h73.9v176.022c0 57.189 23.767 85.783 71.114 85.783 23.024 0 40.663-6.87 52.918-20.796 12.069-13.74 18.196-35.464 18.196-64.987V119.049h72.971v178.807c0 46.791-12.626 82.812-38.064 108.064s-60.902 37.878-106.393 37.878c-45.677 0-81.141-12.626-106.579-37.878"/><use xlink:href="#B" x="1287.672"/></g><path d="M1204.947 513.799v95.438h-10.027v-44.006h-59.788v44.006h-10.027v-95.438h10.027v42.52h59.788v-42.52h10.027zm39.549 38.064c-4.642 4.456-7.427 10.212-7.984 17.268h50.876c-.557-7.056-3.342-12.812-7.984-17.268s-10.584-6.684-17.454-6.684c-7.056 0-12.812 2.228-17.454 6.684m51.99 24.509h-59.974c.557 7.427 3.342 13.554 8.541 18.011 5.199 4.642 11.698 6.87 19.682 6.87 4.456 0 8.541-.743 12.255-2.414s6.87-3.899 9.655-7.056l5.385 6.313c-3.157 3.899-7.241 6.684-11.883 8.727s-10.027 2.971-15.783 2.971c-7.427 0-13.926-1.485-19.496-4.642-5.756-3.157-10.212-7.427-13.369-12.997s-4.828-11.883-4.828-18.753c0-7.056 1.485-13.369 4.642-18.753 2.971-5.57 7.241-9.841 12.626-12.997s11.326-4.642 18.011-4.642 12.626 1.485 17.825 4.642 9.47 7.427 12.44 12.812c2.971 5.57 4.456 11.883 4.456 18.939l-.186 2.971h0zM1316.5 508h9.7v101.2h-9.7V508h0zm86.565 89.911c4.085-2.414 7.241-5.57 9.655-9.841 2.228-4.271 3.528-9.098 3.528-14.669 0-5.385-1.114-10.212-3.528-14.483a23.5 23.5 0 0 0-9.655-9.841c-4.085-2.414-8.727-3.528-13.554-3.528-5.013 0-9.655 1.114-13.74 3.528s-7.241 5.756-9.47 9.841c-2.228 4.271-3.528 9.098-3.528 14.483s1.114 10.398 3.528 14.669 5.57 7.613 9.47 9.841c4.085 2.228 8.541 3.528 13.74 3.528 5.013-.186 9.47-1.3 13.554-3.528m5.385-56.446c5.385 2.971 9.655 7.427 12.812 12.812 3.157 5.57 4.642 11.883 4.642 18.939 0 7.241-1.485 13.554-4.642 19.125s-7.427 9.841-12.812 12.812-11.512 4.642-18.382 4.642c-5.756 0-11.141-1.3-15.783-3.528-4.642-2.414-8.541-5.942-11.512-10.584v39.921h-9.655V537.38h9.284v14.111c2.971-4.642 6.684-8.355 11.512-10.955s10.212-3.899 16.154-3.899c6.87.371 12.812 1.857 18.382 4.828m43.076-31.936c1.3 1.485 2.042 3.157 2.042 5.199 0 1.114-.186 2.228-.557 3.528l-1.3 4.271-5.942 18.753h-6.499l4.828-19.682c-1.485-.371-2.785-1.3-3.714-2.599s-1.3-2.785-1.3-4.456c0-2.228.743-3.899 2.042-5.385 1.3-1.3 3.157-2.042 5.199-2.042 2.042.186 3.899.928 5.199 2.414m23.026 97.851c-5.385-1.671-9.47-3.714-12.44-6.313l4.456-7.613c2.971 2.414 6.684 4.271 11.326 5.756 4.456 1.485 9.284 2.228 14.111 2.228 6.499 0 11.326-1.114 14.483-3.157s4.642-5.013 4.642-8.727c0-2.599-.928-4.642-2.599-6.127s-3.899-2.599-6.499-3.342-6.127-1.485-10.584-2.228c-5.756-1.114-10.584-2.228-14.111-3.342s-6.499-3.157-9.098-5.756c-2.414-2.785-3.714-6.499-3.714-11.326 0-5.942 2.414-10.955 7.427-14.669 5.013-3.899 11.883-5.756 20.796-5.756 4.642 0 9.284.557 13.926 1.857s8.541 2.785 11.512 4.828l-4.271 7.798c-5.942-4.085-12.997-6.127-21.167-6.127-6.127 0-10.769 1.114-13.926 3.342s-4.642 5.013-4.642 8.541c0 2.785.928 4.828 2.599 6.499 1.857 1.671 3.899 2.785 6.684 3.528 2.599.743 6.313 1.485 10.955 2.414 5.756 1.114 10.398 2.228 13.74 3.342 3.528 1.114 6.499 2.971 8.913 5.57s3.714 6.313 3.714 10.955c0 6.313-2.599 11.326-7.798 14.854-5.199 3.714-12.44 5.57-21.724 5.57a54.31 54.31 0 0 1-16.711-2.599m142.972-9.47c4.085-2.414 7.241-5.57 9.47-9.841s3.342-9.098 3.342-14.669c0-5.385-1.114-10.398-3.342-14.669s-5.385-7.613-9.47-9.841-8.541-3.528-13.74-3.528c-5.013 0-9.655 1.114-13.74 3.528s-7.241 5.57-9.47 9.841-3.528 9.098-3.528 14.669c0 5.385 1.114 10.398 3.528 14.669s5.57 7.613 9.47 9.841c4.085 2.228 8.541 3.528 13.74 3.528 5.013-.186 9.655-1.3 13.74-3.528m-32.494 7.241c-5.57-3.157-9.841-7.427-13.183-12.997-3.157-5.57-4.828-11.883-4.828-18.753 0-7.056 1.671-13.369 4.828-18.753 3.157-5.57 7.613-9.841 13.183-12.997s11.698-4.642 18.753-4.642c6.87 0 13.183 1.485 18.753 4.642s9.841 7.427 12.997 12.997 4.642 11.883 4.642 18.753c0 7.056-1.485 13.369-4.642 18.753-3.157 5.57-7.427 9.841-12.997 12.997s-11.698 4.642-18.753 4.642c-6.87.186-13.183-1.485-18.753-4.642m132.945-60.345c5.385 5.199 7.984 12.812 7.984 22.838v41.592h-9.655v-40.663c0-7.427-1.857-13.183-5.57-17.082s-9.098-5.942-15.968-5.942c-7.798 0-13.926 2.228-18.382 6.87s-6.684 10.955-6.684 19.125v37.692h-9.655v-71.671h9.284v13.183c2.599-4.271 6.313-7.798 10.955-10.212s10.212-3.528 16.34-3.528c8.913 0 16.154 2.599 21.353 7.798m107.877 60.16a16.84 16.84 0 0 1-6.684 3.714c-2.599.928-5.57 1.3-8.355 1.3-6.684 0-11.883-1.857-15.597-5.385-3.714-3.714-5.385-8.727-5.385-15.411v-43.448h-12.812v-8.17h12.812V521.97h9.655v15.597h21.91v8.17h-21.91v42.891c0 4.271 1.114 7.613 3.157 9.841 2.228 2.228 5.199 3.342 9.284 3.342 2.042 0 3.899-.371 5.756-.928s3.528-1.485 4.828-2.785l3.342 6.87h0zm75.571-60.16c5.385 5.199 7.984 12.812 7.984 22.838v41.592h-9.655v-40.663c0-7.427-1.857-13.183-5.57-17.082s-9.098-5.942-15.968-5.942c-7.798 0-13.926 2.228-18.382 6.87s-6.684 10.955-6.684 19.125v37.692h-9.655V508.043h9.655v41.963c2.599-4.271 6.313-7.427 10.955-9.655s10.027-3.342 15.968-3.342c8.913 0 16.154 2.599 21.353 7.798m45.118 7.056c-4.642 4.456-7.427 10.212-7.984 17.268h50.876c-.557-7.056-3.342-12.812-7.984-17.268s-10.584-6.684-17.454-6.684c-7.056 0-12.812 2.228-17.454 6.684m51.99 24.509h-59.974c.557 7.427 3.342 13.554 8.541 18.011 5.199 4.642 11.698 6.87 19.682 6.87 4.456 0 8.541-.743 12.255-2.414s6.87-3.899 9.655-7.056l5.385 6.313c-3.157 3.899-7.241 6.684-11.883 8.727-4.828 2.042-10.027 2.971-15.783 2.971-7.427 0-13.926-1.485-19.496-4.642-5.756-3.157-10.027-7.427-13.369-12.997-3.157-5.57-4.828-11.883-4.828-18.753 0-7.056 1.485-13.369 4.642-18.753 2.971-5.57 7.241-9.841 12.626-12.997s11.326-4.642 18.011-4.642 12.626 1.485 17.825 4.642 9.47 7.427 12.44 12.812c2.971 5.57 4.456 11.883 4.456 18.939l-.186 2.971h0zm160.982-38.806l-27.109 71.671h-9.098l-22.653-58.86-22.653 58.86h-9.098l-26.923-71.671h9.284l22.467 60.902 23.024-60.902h8.355l22.838 60.902 22.838-60.902h8.727 0zm48.09 60.902c3.899-2.414 6.87-6.127 8.727-10.769v-11.698h-22.467c-12.255 0-18.382 4.271-18.382 12.812 0 4.271 1.671 7.427 4.828 9.841s7.613 3.528 13.369 3.528c5.385.186 10.027-1.114 13.926-3.714m10.955-54.589c5.013 4.642 7.427 11.698 7.427 20.796v44.563h-9.284v-11.141c-2.228 3.714-5.385 6.684-9.655 8.727s-9.284 3.157-15.04 3.157c-7.984 0-14.297-1.857-19.125-5.756-4.642-3.899-7.056-8.913-7.056-15.226 0-6.127 2.228-10.955 6.684-14.669s11.512-5.57 21.167-5.57h22.838v-4.271c0-6.127-1.671-10.955-5.199-14.111s-8.541-4.828-15.226-4.828c-4.642 0-8.913.743-13.183 2.228s-7.798 3.528-10.769 6.127l-4.271-7.241c3.714-3.157 7.984-5.385 13.183-7.241 5.013-1.671 10.398-2.599 16.154-2.599 9.284.186 16.34 2.414 21.353 7.056m92.84-6.314l-35.836 80.398c-2.971 6.684-6.313 11.512-10.027 14.297-3.899 2.785-8.355 4.271-13.74 4.271-3.528 0-6.684-.557-9.655-1.671s-5.57-2.785-7.798-4.828l4.456-7.241c3.714 3.714 7.984 5.385 13.183 5.385 3.342 0 6.127-.928 8.355-2.785s4.456-4.828 6.499-9.284l3.157-6.87-32.122-71.671h10.027l26.923 60.902 26.923-60.902h9.655 0z" fill="#898989"/><path d="M96.855 332.17s191.715 0 293.368 42.801c0 0 231.517 51.313 210.359 355.3H413.326s14.997-149.156-16.618-217.736c0 0-45.233-132.052-214.331-141.05l5.512 232.976-91.034 130.836V332.17h0z" fill="#00a86b"/><path d="M95.801 54.204s89.089-1.54 89.089 0v80.009h77.497v88.602h-77.983v81.063H95.801v-80.496H12.792v-89.089h83.009V54.204h0zm467.005 93.466c-13.132-28.372-30.966-48.071-32.587-49.935C422.324-14.862 226.718 19.671 226.718 19.671h-2.999v71.498c172.097-8.593 200.307 108.706 200.307 108.706 6.485 22.13 7.782 44.423 5.674 65.904 2.675-15.402 1.621-9.241-.162 1.378-1.135 10.781-3.08 21.32-5.593 31.615-2.27 12.97-6.809 26.265-13.051 39.64-6.647 16.132-14.105 30.561-21.076 42.558-19.617 29.345-44.99 53.664-56.015 63.635l-5.512 4.783h0c-.162.162-.405.324-.567.486-31.128 31.939-57.717 53.34-57.798 53.421C114.609 653.83 96.856 735.298 96.856 735.298c58.933-83.901 170.8-151.102 233.057-184.095l14.429-7.539h0l1.459-.73c12.565-6.485 103.194-54.718 171.125-135.214l1.702-2.027a579.28 579.28 0 0 0 14.835-18.726c45.477-63.635 48.638-137.889 48.8-142.752-.324-41.018-10.619-74.902-19.455-96.546" fill="#898989"/><defs ><path id="B" d="M1366.301 378.998v59.231h-247.136V119.049h241.195v59.231h-167.852v69.258h148.17v57.56h-148.17v73.9h173.794 0z"/></defs></svg>