<?xml version="1.0" encoding="utf-8"?>
<!-- Generator: Adobe Illustrator 21.0.2, SVG Export Plug-In . SVG Version: 6.00 Build 0)  -->
<svg version="1.1" id="Layer_1" xmlns="http://www.w3.org/2000/svg" xmlns:xlink="http://www.w3.org/1999/xlink" x="0px" y="0px"
	 viewBox="0 0 2666.7 750" style="enable-background:new 0 0 2666.7 750;" xml:space="preserve">
<style type="text/css">
	.st0{fill:#898989;}
	.st1{fill:#00A86B;}
</style>
<g>
	<title>Layer 1</title>
	<g id="svg_3">
		<g id="svg_1">
			<g id="g34" transform="matrix(1.8567727604970585,0,0,-1.8567727604970585,-176.67777920769038,3151.531026866454) ">
				<path id="path36" class="st0" d="M616.9,1593c-6.2,5.2-15.3,7.7-27.3,7.7h-32.4v-59.9h32.4c11.9,0,21,2.6,27.3,7.9
					c6.2,5.2,9.3,12.6,9.3,22.1C626.2,1580.5,623.1,1587.9,616.9,1593 M627,1461.3l-33.1,47.9h-2h-34.6v-47.9h-39.8v171.9h74.4
					c15.2,0,28.4-2.5,39.7-7.6c11.2-5.1,19.8-12.3,25.9-21.6c6.1-9.3,9.1-20.4,9.1-33.2c0-12.8-3.1-23.8-9.2-33
					c-6.1-9.3-14.9-16.3-26.2-21.2l38.6-55.3L627,1461.3L627,1461.3z"/>
			</g>
			<g id="g38" transform="matrix(1.8567727604970585,0,0,-1.8567727604970585,-176.67777920769038,3151.531026866454) ">
				<path id="path40" class="st0" d="M831,1493.2v-31.9H697.9v171.9h129.9v-31.9h-90.4v-37.3h79.8V1533h-79.8v-39.8L831,1493.2
					L831,1493.2z"/>
			</g>
			<g id="g42" transform="matrix(1.8567727604970585,0,0,-1.8567727604970585,-176.67777920769038,3151.531026866454) ">
				<path id="path44" class="st0" d="M879.8,1463.9c-12.7,3.7-22.9,8.5-30.6,14.4l13.5,30c7.4-5.4,16.1-9.7,26.3-13
					c10.1-3.3,20.3-4.9,30.4-4.9c11.3,0,19.6,1.7,25,5c5.4,3.4,8.1,7.8,8.1,13.4c0,4.1-1.6,7.5-4.8,10.2c-3.2,2.7-7.3,4.9-12.3,6.5
					c-5,1.6-11.7,3.4-20.3,5.4c-13.1,3.1-23.8,6.2-32.2,9.3c-8.3,3.1-15.5,8.1-21.5,15c-6,6.9-9,16-9,27.5c0,10,2.7,19,8.1,27.1
					c5.4,8.1,13.5,14.5,24.4,19.3c10.9,4.7,24.2,7.1,39.9,7.1c11,0,21.7-1.3,32.2-3.9c10.5-2.6,19.6-6.4,27.5-11.3l-12.3-30.2
					c-15.9,9-31.8,13.5-47.6,13.5c-11.1,0-19.4-1.8-24.7-5.4c-5.3-3.6-8-8.3-8-14.2c0-5.9,3.1-10.3,9.2-13.1
					c6.1-2.9,15.5-5.7,28.1-8.5c13.1-3.1,23.8-6.2,32.2-9.3c8.3-3.1,15.5-8,21.5-14.7c6-6.7,9-15.8,9-27.3c0-9.8-2.7-18.8-8.2-26.9
					c-5.5-8.1-13.7-14.5-24.7-19.3c-11-4.7-24.3-7.1-40-7.1C905.6,1458.3,892.4,1460.2,879.8,1463.9"/>
			</g>
			<g id="g46" transform="matrix(1.8567727604970585,0,0,-1.8567727604970585,-176.67777920769038,3151.531026866454) ">
				<path id="path48" class="st1" d="M1054.1,1469.8c-14.2,7.6-25.3,18.2-33.4,31.7c-8.1,13.5-12.2,28.8-12.2,45.8
					c0,17,4.1,32.3,12.2,45.8c8.1,13.5,19.2,24.1,33.4,31.7c14.2,7.6,30.1,11.4,47.8,11.4c14.9,0,28.4-2.6,40.4-7.9
					c12-5.2,22.1-12.8,30.3-22.6l-25.5-23.6c-11.6,13.4-26,20.1-43.2,20.1c-10.6,0-20.1-2.3-28.5-7c-8.3-4.7-14.9-11.2-19.5-19.5
					c-4.7-8.3-7-17.8-7-28.5c0-10.6,2.3-20.1,7-28.5c4.7-8.3,11.2-14.9,19.5-19.5c8.3-4.7,17.8-7,28.5-7c17.2,0,31.6,6.8,43.2,20.4
					l25.5-23.6c-8.2-10-18.3-17.6-30.4-22.8c-12.1-5.2-25.6-7.9-40.5-7.9C1084.1,1458.3,1068.3,1462.2,1054.1,1469.8"/>
			</g>
			<g id="g50" transform="matrix(1.8567727604970585,0,0,-1.8567727604970585,-176.67777920769038,3151.531026866454) ">
				<path id="path52" class="st1" d="M1216.9,1478.7c-13.7,13.6-20.5,33-20.5,58.2v96.3h39.8v-94.8c0-30.8,12.8-46.2,38.3-46.2
					c12.4,0,21.9,3.7,28.5,11.2c6.5,7.4,9.8,19.1,9.8,35v94.8h39.3v-96.3c0-25.2-6.8-44.6-20.5-58.2c-13.7-13.6-32.8-20.4-57.3-20.4
					C1249.7,1458.3,1230.6,1465.1,1216.9,1478.7"/>
			</g>
			<g id="g54" transform="matrix(1.8567727604970585,0,0,-1.8567727604970585,-176.67777920769038,3151.531026866454) ">
				<path id="path56" class="st1" d="M1524.5,1493.2v-31.9h-133.1v171.9h129.9v-31.9h-90.4v-37.3h79.8V1533h-79.8v-39.8
					L1524.5,1493.2L1524.5,1493.2z"/>
			</g>
			<g id="g58" transform="matrix(1.8567727604970585,0,0,-1.8567727604970585,-176.67777920769038,3151.531026866454) ">
				<path id="path60" class="st0" d="M744.1,1420.6v-51.4h-5.4v23.7h-32.2v-23.7h-5.4v51.4h5.4v-22.9h32.2v22.9H744.1z"/>
			</g>
			<g id="g62" transform="matrix(1.8567727604970585,0,0,-1.8567727604970585,-176.67777920769038,3151.531026866454) ">
				<path id="path64" class="st0" d="M765.4,1400.1c-2.5-2.4-4-5.5-4.3-9.3h27.4c-0.3,3.8-1.8,6.9-4.3,9.3c-2.5,2.4-5.7,3.6-9.4,3.6
					C771,1403.7,767.9,1402.5,765.4,1400.1 M793.4,1386.9h-32.3c0.3-4,1.8-7.3,4.6-9.7c2.8-2.5,6.3-3.7,10.6-3.7
					c2.4,0,4.6,0.4,6.6,1.3c2,0.9,3.7,2.1,5.2,3.8l2.9-3.4c-1.7-2.1-3.9-3.6-6.4-4.7s-5.4-1.6-8.5-1.6c-4,0-7.5,0.8-10.5,2.5
					c-3.1,1.7-5.5,4-7.2,7c-1.7,3-2.6,6.4-2.6,10.1c0,3.8,0.8,7.2,2.5,10.1c1.6,3,3.9,5.3,6.8,7c2.9,1.7,6.1,2.5,9.7,2.5
					c3.6,0,6.8-0.8,9.6-2.5c2.8-1.7,5.1-4,6.7-6.9c1.6-3,2.4-6.4,2.4-10.2L793.4,1386.9L793.4,1386.9z"/>
			</g>
			<path id="path66" class="st0" d="M1316.5,508h9.7v101.2h-9.7V508L1316.5,508z"/>
			<g id="g68" transform="matrix(1.8567727604970585,0,0,-1.8567727604970585,-176.67777920769038,3151.531026866454) ">
				<path id="path70" class="st0" d="M850.8,1375.3c2.2,1.3,3.9,3,5.2,5.3c1.2,2.3,1.9,4.9,1.9,7.9c0,2.9-0.6,5.5-1.9,7.8
					c-1.2,2.3-3,4.1-5.2,5.3c-2.2,1.3-4.7,1.9-7.3,1.9c-2.7,0-5.2-0.6-7.4-1.9c-2.2-1.3-3.9-3.1-5.1-5.3c-1.2-2.3-1.9-4.9-1.9-7.8
					c0-2.9,0.6-5.6,1.9-7.9s3-4.1,5.1-5.3c2.2-1.2,4.6-1.9,7.4-1.9C846.2,1373.5,848.6,1374.1,850.8,1375.3 M853.7,1405.7
					c2.9-1.6,5.2-4,6.9-6.9c1.7-3,2.5-6.4,2.5-10.2c0-3.9-0.8-7.3-2.5-10.3c-1.7-3-4-5.3-6.9-6.9c-2.9-1.6-6.2-2.5-9.9-2.5
					c-3.1,0-6,0.7-8.5,1.9c-2.5,1.3-4.6,3.2-6.2,5.7v-21.5h-5.2v52.9h5v-7.6c1.6,2.5,3.6,4.5,6.2,5.9c2.6,1.4,5.5,2.1,8.7,2.1
					C847.5,1408.1,850.7,1407.3,853.7,1405.7"/>
			</g>
			<g id="g72" transform="matrix(1.8567727604970585,0,0,-1.8567727604970585,-176.67777920769038,3151.531026866454) ">
				<path id="path74" class="st0" d="M876.9,1422.9c0.7-0.8,1.1-1.7,1.1-2.8c0-0.6-0.1-1.2-0.3-1.9s-0.4-1.4-0.7-2.3l-3.2-10.1h-3.5
					l2.6,10.6c-0.8,0.2-1.5,0.7-2,1.4c-0.5,0.7-0.7,1.5-0.7,2.4c0,1.2,0.4,2.1,1.1,2.9c0.7,0.7,1.7,1.1,2.8,1.1
					C875.2,1424.1,876.2,1423.7,876.9,1422.9"/>
			</g>
			<g id="g76" transform="matrix(1.8567727604970585,0,0,-1.8567727604970585,-176.67777920769038,3151.531026866454) ">
				<path id="path78" class="st0" d="M889.3,1370.2c-2.9,0.9-5.1,2-6.7,3.4l2.4,4.1c1.6-1.3,3.6-2.3,6.1-3.1c2.4-0.8,5-1.2,7.6-1.2
					c3.5,0,6.1,0.6,7.8,1.7c1.7,1.1,2.5,2.7,2.5,4.7c0,1.4-0.5,2.5-1.4,3.3c-0.9,0.8-2.1,1.4-3.5,1.8c-1.4,0.4-3.3,0.8-5.7,1.2
					c-3.1,0.6-5.7,1.2-7.6,1.8c-1.9,0.6-3.5,1.7-4.9,3.1c-1.3,1.5-2,3.5-2,6.1c0,3.2,1.3,5.9,4,7.9c2.7,2.1,6.4,3.1,11.2,3.1
					c2.5,0,5-0.3,7.5-1c2.5-0.7,4.6-1.5,6.2-2.6l-2.3-4.2c-3.2,2.2-7,3.3-11.4,3.3c-3.3,0-5.8-0.6-7.5-1.8c-1.7-1.2-2.5-2.7-2.5-4.6
					c0-1.5,0.5-2.6,1.4-3.5c1-0.9,2.1-1.5,3.6-1.9c1.4-0.4,3.4-0.8,5.9-1.3c3.1-0.6,5.6-1.2,7.4-1.8c1.9-0.6,3.5-1.6,4.8-3
					c1.3-1.4,2-3.4,2-5.9c0-3.4-1.4-6.1-4.2-8c-2.8-2-6.7-3-11.7-3C895.1,1368.8,892.1,1369.3,889.3,1370.2"/>
			</g>
			<g id="g80" transform="matrix(1.8567727604970585,0,0,-1.8567727604970585,-176.67777920769038,3151.531026866454) ">
				<path id="path82" class="st0" d="M966.3,1375.3c2.2,1.3,3.9,3,5.1,5.3c1.2,2.3,1.8,4.9,1.8,7.9c0,2.9-0.6,5.6-1.8,7.9
					c-1.2,2.3-2.9,4.1-5.1,5.3c-2.2,1.2-4.6,1.9-7.4,1.9c-2.7,0-5.2-0.6-7.4-1.9c-2.2-1.3-3.9-3-5.1-5.3s-1.9-4.9-1.9-7.9
					c0-2.9,0.6-5.6,1.9-7.9s3-4.1,5.1-5.3c2.2-1.2,4.6-1.9,7.4-1.9C961.6,1373.5,964.1,1374.1,966.3,1375.3 M948.8,1371.4
					c-3,1.7-5.3,4-7.1,7c-1.7,3-2.6,6.4-2.6,10.1c0,3.8,0.9,7.2,2.6,10.1c1.7,3,4.1,5.3,7.1,7c3,1.7,6.3,2.5,10.1,2.5
					c3.7,0,7.1-0.8,10.1-2.5c3-1.7,5.3-4,7-7c1.7-3,2.5-6.4,2.5-10.1c0-3.8-0.8-7.2-2.5-10.1c-1.7-3-4-5.3-7-7
					c-3-1.7-6.3-2.5-10.1-2.5C955.2,1368.8,951.8,1369.7,948.8,1371.4"/>
			</g>
			<g id="g84" transform="matrix(1.8567727604970585,0,0,-1.8567727604970585,-176.67777920769038,3151.531026866454) ">
				<path id="path86" class="st0" d="M1020.4,1403.9c2.9-2.8,4.3-6.9,4.3-12.3v-22.4h-5.2v21.9c0,4-1,7.1-3,9.2
					c-2,2.1-4.9,3.2-8.6,3.2c-4.2,0-7.5-1.2-9.9-3.7c-2.4-2.5-3.6-5.9-3.6-10.3v-20.3h-5.2v38.6h5v-7.1c1.4,2.3,3.4,4.2,5.9,5.5
					c2.5,1.3,5.5,1.9,8.8,1.9C1013.7,1408.1,1017.6,1406.7,1020.4,1403.9"/>
			</g>
			<g id="g88" transform="matrix(1.8567727604970585,0,0,-1.8567727604970585,-176.67777920769038,3151.531026866454) ">
				<path id="path90" class="st0" d="M1078.5,1371.5c-1-0.9-2.2-1.6-3.6-2c-1.4-0.5-3-0.7-4.5-0.7c-3.6,0-6.4,1-8.4,2.9
					c-2,2-2.9,4.7-2.9,8.3v23.4h-6.9v4.4h6.9v8.4h5.2v-8.4h11.8v-4.4h-11.8v-23.1c0-2.3,0.6-4.1,1.7-5.3c1.2-1.2,2.8-1.8,5-1.8
					c1.1,0,2.1,0.2,3.1,0.5c1,0.3,1.9,0.8,2.6,1.5L1078.5,1371.5L1078.5,1371.5z"/>
			</g>
			<g id="g92" transform="matrix(1.8567727604970585,0,0,-1.8567727604970585,-176.67777920769038,3151.531026866454) ">
				<path id="path94" class="st0" d="M1119.2,1403.9c2.9-2.8,4.3-6.9,4.3-12.3v-22.4h-5.2v21.9c0,4-1,7.1-3,9.2
					c-2,2.1-4.9,3.2-8.6,3.2c-4.2,0-7.5-1.2-9.9-3.7c-2.4-2.5-3.6-5.9-3.6-10.3v-20.3h-5.2v54.5h5.2v-22.6c1.4,2.3,3.4,4,5.9,5.2
					c2.5,1.2,5.4,1.8,8.6,1.8C1112.5,1408.1,1116.4,1406.7,1119.2,1403.9"/>
			</g>
			<g id="g96" transform="matrix(1.8567727604970585,0,0,-1.8567727604970585,-176.67777920769038,3151.531026866454) ">
				<path id="path98" class="st0" d="M1143.5,1400.1c-2.5-2.4-4-5.5-4.3-9.3h27.4c-0.3,3.8-1.8,6.9-4.3,9.3
					c-2.5,2.4-5.7,3.6-9.4,3.6C1149.1,1403.7,1146,1402.5,1143.5,1400.1 M1171.5,1386.9h-32.3c0.3-4,1.8-7.3,4.6-9.7
					c2.8-2.5,6.3-3.7,10.6-3.7c2.4,0,4.6,0.4,6.6,1.3c2,0.9,3.7,2.1,5.2,3.8l2.9-3.4c-1.7-2.1-3.9-3.6-6.4-4.7
					c-2.6-1.1-5.4-1.6-8.5-1.6c-4,0-7.5,0.8-10.5,2.5c-3.1,1.7-5.4,4-7.2,7c-1.7,3-2.6,6.4-2.6,10.1c0,3.8,0.8,7.2,2.5,10.1
					c1.6,3,3.9,5.3,6.8,7c2.9,1.7,6.1,2.5,9.7,2.5c3.6,0,6.8-0.8,9.6-2.5c2.8-1.7,5.1-4,6.7-6.9c1.6-3,2.4-6.4,2.4-10.2
					L1171.5,1386.9L1171.5,1386.9z"/>
			</g>
			<g id="g100" transform="matrix(1.8567727604970585,0,0,-1.8567727604970585,-176.67777920769038,3151.531026866454) ">
				<path id="path102" class="st0" d="M1258.2,1407.8l-14.6-38.6h-4.9l-12.2,31.7l-12.2-31.7h-4.9l-14.5,38.6h5l12.1-32.8l12.4,32.8
					h4.5l12.3-32.8l12.3,32.8H1258.2L1258.2,1407.8z"/>
			</g>
			<g id="g104" transform="matrix(1.8567727604970585,0,0,-1.8567727604970585,-176.67777920769038,3151.531026866454) ">
				<path id="path106" class="st0" d="M1284.1,1375c2.1,1.3,3.7,3.3,4.7,5.8v6.3h-12.1c-6.6,0-9.9-2.3-9.9-6.9c0-2.3,0.9-4,2.6-5.3
					c1.7-1.3,4.1-1.9,7.2-1.9C1279.5,1372.9,1282,1373.6,1284.1,1375 M1290,1404.4c2.7-2.5,4-6.3,4-11.2v-24h-5v6
					c-1.2-2-2.9-3.6-5.2-4.7c-2.3-1.1-5-1.7-8.1-1.7c-4.3,0-7.7,1-10.3,3.1c-2.5,2.1-3.8,4.8-3.8,8.2c0,3.3,1.2,5.9,3.6,7.9
					c2.4,2,6.2,3,11.4,3h12.3v2.3c0,3.3-0.9,5.9-2.8,7.6c-1.9,1.7-4.6,2.6-8.2,2.6c-2.5,0-4.8-0.4-7.1-1.2c-2.3-0.8-4.2-1.9-5.8-3.3
					l-2.3,3.9c2,1.7,4.3,2.9,7.1,3.9c2.7,0.9,5.6,1.4,8.7,1.4C1283.5,1408.1,1287.3,1406.9,1290,1404.4"/>
			</g>
			<g id="g108" transform="matrix(1.8567727604970585,0,0,-1.8567727604970585,-176.67777920769038,3151.531026866454) ">
				<path id="path110" class="st0" d="M1340,1407.8l-19.3-43.3c-1.6-3.6-3.4-6.2-5.4-7.7c-2.1-1.5-4.5-2.3-7.4-2.3
					c-1.9,0-3.6,0.3-5.2,0.9c-1.6,0.6-3,1.5-4.2,2.6l2.4,3.9c2-2,4.3-2.9,7.1-2.9c1.8,0,3.3,0.5,4.5,1.5c1.2,1,2.4,2.6,3.5,5
					l1.7,3.7l-17.3,38.6h5.4l14.5-32.8l14.5,32.8L1340,1407.8L1340,1407.8z"/>
			</g>
		</g>
		<g id="svg_2">
			<g id="g22" transform="matrix(0.8106326555086831,0,0,-0.8106326555086831,72.2923639600009,2620.343971013989) ">
				<path id="path24" class="st1" d="M30.3,2822.7c0,0,236.5,0,361.9-52.8c0,0,285.6-63.3,259.5-438.3h-231c0,0,18.5,184-20.5,268.6
					c0,0-55.8,162.9-264.4,174l6.8-287.4L30.3,2325.4L30.3,2822.7L30.3,2822.7z"/>
			</g>
			<g id="g26" transform="matrix(0.8106326555086831,0,0,-0.8106326555086831,72.2923639600009,2620.343971013989) ">
				<path id="path28" class="st0" d="M29,3165.6c0,0,109.9,1.9,109.9,0v-98.7h95.6v-109.3h-96.2v-100H29v99.3H-73.4v109.9H29
					L29,3165.6L29,3165.6z"/>
			</g>
			<g id="g30" transform="matrix(0.8106326555086831,0,0,-0.8106326555086831,72.2923639600009,2620.343971013989) ">
				<path id="path32" class="st0" d="M605.1,3050.3c-16.2,35-38.2,59.3-40.2,61.6c-133.1,138.9-374.4,96.3-374.4,96.3h-3.7V3120
					c212.3,10.6,247.1-134.1,247.1-134.1c8-27.3,9.6-54.8,7-81.3c3.3,19,2,11.4-0.2-1.7c-1.4-13.3-3.8-26.3-6.9-39
					c-2.8-16-8.4-32.4-16.1-48.9c-8.2-19.9-17.4-37.7-26-52.5c-24.2-36.2-55.5-66.2-69.1-78.5c-2.3-2-4.5-4-6.8-5.9c0,0,0,0,0,0v0
					c-0.2-0.2-0.5-0.4-0.7-0.6c-38.4-39.4-71.2-65.8-71.3-65.9C52.2,2425.9,30.3,2325.4,30.3,2325.4
					c72.7,103.5,210.7,186.4,287.5,227.1c6.4,3.4,12.3,6.5,17.8,9.3v0c0,0,0,0,0,0c0.6,0.3,1.2,0.6,1.8,0.9
					c15.5,8,127.3,67.5,211.1,166.8l2.1,2.5c6.2,7.5,12.3,15.2,18.3,23.1c56.1,78.5,60,170.1,60.2,176.1
					C628.7,2981.8,616,3023.6,605.1,3050.3"/>
			</g>
		</g>
	</g>
</g>
</svg>
