<svg xmlns="http://www.w3.org/2000/svg" xmlns:xlink="http://www.w3.org/1999/xlink" viewBox="0 0 2322.2 1097.7" xmlns:v="https://vecta.io/nano"><style><![CDATA[.G{fill:#03e086}.H{fill:#13bf75}.I{fill:#00a86b}.J{fill:#898989}]]></style><path d="M291.3 931.5a9.35 9.35 0 0 1 7.4 11l-3.7 18.9a9.35 9.35 0 0 1-11 7.4c-.2 0-.3-.1-.4-.1-4.9-1.3-7.9-6.2-6.9-11.2l.1-.5-24.4 1.1c-.7 0-1.4.5-1.6 1.2-2.4 7.1-5.5 14-9.3 20.5-.4.6-.3 1.5.2 2.1l10.8 12.8c4.3-4.5 11.4-4.6 15.9-.3 4.3 4.1 4.7 10.8.8 15.4l-3.1 4.1c-3.6 4.9-10.5 6-15.5 2.7a11.24 11.24 0 0 1-4.3-12.9l-15.6-6.8c-.7-.3-1.5-.1-2 .4-7.2 7.9-15.6 14.7-24.9 20.2-.6.4-1 1.1-.9 1.8l4 24.3 3.4-1.4c4.8-1.9 10.3.4 12.2 5.2.1.1.1.3.2.4 1.6 4.8-.9 10-5.6 11.8l-17.6 7c-4.8 1.9-10.3-.4-12.2-5.2-.1-.1-.1-.3-.2-.4-1.6-4.8.9-10 5.6-11.9l.5-.2L179 1029a1.76 1.76 0 0 0-1.9-.7c-15.6 4-32 4.5-47.8 1.2-.7-.1-1.5.2-1.9.8l-14.2 22.3.5.2c5.9 2.2 9 8.7 6.8 14.6 0 6.7-5.1 10.3-11.4 8l-17.5-6.4c-5.8-2.1-8.9-8.5-6.9-14.4 2.1-6 9-9.1 15-6.9l.4.1 2.9-26.1c.1-.7-.3-1.4-1-1.8-11-5.7-20.9-13.2-29.3-22.3-.5-.5-1.3-.7-2-.4l-21.3 8.7c2.4 4.6 1 10.3-3.3 13.1-4.7 2.9-10.8 1.7-13.9-2.9l-5.5-7.9c-3.1-4.4-2.3-10.4 1.9-13.8 4.3-3.4 10.7-2.7 14.1 1.6 0 .1.1.1.1.2l15-17c.5-.6.6-1.4.2-2-6.3-11.3-10.4-23.7-12.2-36.6-.1-.7-.6-1.3-1.4-1.5l-24-5.5v2.8c-.1 5.6-4.6 10.2-10.3 10.2A10.07 10.07 0 0 1 0 936.5v-.1L.2 919c0-5.7 4.8-10.5 10.5-10.4 5.5.1 9.9 4.7 9.9 10.2l23.8-5.6a1.98 1.98 0 0 0 1.4-1.4c1.8-13.6 6.3-26.6 13.1-38.5.4-.7.3-1.5-.2-2L47.3 858l-1 1.3c-3 3.9-8.6 4.7-12.5 1.7l-.3-.3c-3.6-3.2-4.2-8.6-1.2-12.5l7.6-10c3.1-3.9 8.7-4.5 12.5-1.5 3.6 2.8 4.5 7.8 2.1 11.7l15.9 6.9c.7.3 1.5.1 2-.4 7.5-8.3 16.3-15.3 26-20.8.6-.4 1-1.1.9-1.8l-3.6-24.4-3.5 1.3c-4.8 1.9-10.3-.6-12.1-5.4-.1-.1-.1-.3-.1-.4-1.5-4.8 1-10 5.8-11.8l17.7-6.8c4.8-1.9 10.2.6 12.1 5.4.1.1.1.3.2.4 1.5 4.8-1 10-5.8 11.8l-.5.2 13.9 20.1a1.76 1.76 0 0 0 1.9.7c8.3-2 16.7-3 25.2-3h0c.8 0 1.4-.5 1.7-1.2l4.6-12.9c-5.4-1.7-8.9-7-8.2-12.7.8-6.5 7-11.1 13.5-10.3l6.3.8c6.5.8 11.3 6.6 10.6 13.1-.5 4.9-4 8.9-8.8 10.2l1.6 14c.1.8.7 1.4 1.4 1.5 10.5 2.3 20.7 6.2 30 11.6.6.4 1.4.3 2-.2l19.1-15.5-2.9-2.3c-4.1-3.2-4.7-9.1-1.5-13.2.1-.1.2-.2.3-.4 3.4-3.8 9.1-4.2 13.1-1l14.9 11.8c4.1 3.2 4.7 9.1 1.5 13.2a1.38 1.38 0 0 0-.3.4c-3.4 3.7-9.1 4.2-13.1 1l-.4-.3-10.2 22.2c-.3.7-.2 1.5.4 2 7.2 7.4 13.4 15.9 18.2 25.1.3.7 1.1 1.1 1.8.9l14.5-2c-2.1-5.9.9-12.3 6.8-14.4.1 0 .2-.1.3-.1 5.9-1.8 12.1 1.3 14.2 7l3.3 9c2.2 5.7-.4 12.1-6 14.6-5.2 2.3-11.2.3-14.2-4.5l-12 8.2a1.76 1.76 0 0 0-.7 1.9c2.5 9.2 3.8 18.7 3.8 28.2 0 1.6 0 3.3-.1 4.9 0 .7.4 1.4 1.1 1.7l22.6 9.8.7-3.6c1-5.1 5.9-8.4 10.9-7.4h0z" class="I"/><g class="G"><ellipse cx="196.3" cy="874.1" rx="14.9" ry="12.5"/><circle cx="142.5" cy="951.8" r="16.3"/></g><g class="H"><circle cx="206" cy="943.3" r="11.7"/><circle cx="162.9" cy="1000.2" r="11.3"/></g><path d="M86.2 921a124.94 124.94 0 0 1 49.4-99.6c-3.5.5-7 1.2-10.4 2a1.76 1.76 0 0 1-1.9-.7l-13.9-20.1.5-.2c4.7-1.8 7.3-6.9 5.8-11.8-1.6-4.9-6.9-7.6-11.8-6-.1 0-.3.1-.4.1l-17.7 6.8c-4.7 1.8-7.3 6.9-5.8 11.8 1.6 4.9 6.9 7.6 11.8 5.9.1 0 .3-.1.4-.1l3.5-1.3 3.7 24.4c.1.7-.2 1.4-.9 1.8-9.7 5.5-18.5 12.5-26 20.8-.5.6-1.3.7-2 .4l-15.9-6.9c2.6-4.2 1.4-9.7-2.8-12.3-3.9-2.5-9-1.5-11.9 2.1l-7.6 10c-2.9 3.8-2.4 9.3 1.2 12.5 3.8 3.2 9.4 2.7 12.6-1.1l.3-.3 1-1.3 11.4 13.4c.5.6.6 1.4.2 2-6.8 11.9-11.3 24.9-13.1 38.5-.1.7-.6 1.3-1.4 1.5l-23.8 5.5c0-5.5-4.4-10.1-9.9-10.2C5.1 908.5.4 913.3.3 919L0 936.5c-.1 5.6 4.4 10.1 10 10.2h.1c5.6 0 10.2-4.5 10.3-10.2v-2.8l24 5.5c.7.2 1.3.8 1.4 1.5 1.8 12.8 5.9 25.2 12.2 36.6.4.7.3 1.5-.2 2l-15 17c-3.3-4.4-9.6-5.3-14.1-2-.1 0-.1.1-.2.1-4.2 3.4-5 9.4-1.9 13.8l5.5 7.9c3.1 4.6 9.3 5.8 13.9 2.9a9.97 9.97 0 0 0 3.3-13.1l21.3-8.7c.7-.3 1.5-.1 2 .4 8.4 9.1 18.3 16.7 29.3 22.4.7.3 1 1 1 1.8l-2.9 26.1-.4-.1c-6-2.2-12.9.9-15 6.9-2 5.9 1 12.3 6.9 14.4l17.5 6.4c6.3 2.3 11.4-1.3 11.4-8 2.2-5.9-.9-12.5-6.8-14.6l-.5-.2 14.2-22.3c.4-.6 1.1-.9 1.9-.8a108.09 108.09 0 0 0 21.2 2.1h2.6c-41.1-21.6-66.9-64.2-66.8-110.7z" fill="#00935b"/><circle cx="91.9" cy="973.1" r="11.8" class="G"/><g class="H"><use xlink:href="#B"/><path d="M126.2 1000.1h-4.1a4.48 4.48 0 1 1 0-9h4.1a4.48 4.48 0 0 1 4.5 4.5c0 2.4-2.1 4.5-4.5 4.5z"/></g><use xlink:href="#B" x="-95.4" y="13.2" class="G"/><path d="M164.3 855.2h-5.5a4.48 4.48 0 1 1 0-9h5.5a4.48 4.48 0 0 1 4.5 4.5 4.55 4.55 0 0 1-4.5 4.5z" class="H"/><g class="G"><path d="M200.4 985.3h-6a4.48 4.48 0 1 1 0-9h6a4.48 4.48 0 1 1 0 9z"/><ellipse transform="matrix(.7852 -.6192 .6192 .7852 -524.1627 261.8794)" cx="115.4" cy="886.5" rx="31.1" ry="26"/></g><path d="M2314.6 931.5a9.35 9.35 0 0 1 7.4 11l-3.7 18.9a9.35 9.35 0 0 1-11 7.4c-.2 0-.3-.1-.4-.1-4.9-1.3-7.9-6.2-6.9-11.2l.1-.5-24.5 1.1c-.7 0-1.4.5-1.6 1.2-2.4 7.1-5.5 14-9.3 20.5-.4.6-.3 1.5.2 2.1l10.8 12.8c4.3-4.5 11.4-4.6 15.9-.3 4.3 4.1 4.7 10.8.8 15.4l-3.1 4.1c-3.6 4.9-10.5 6-15.5 2.7a11.24 11.24 0 0 1-4.3-12.9l-15.6-6.8c-.7-.3-1.5-.1-2 .4-7.2 7.9-15.6 14.7-24.9 20.2-.6.4-1 1.1-.9 1.8l4 24.3 3.4-1.4c4.8-1.9 10.3.4 12.2 5.2.1.1.1.3.2.4 1.6 4.8-.9 10-5.6 11.8l-17.6 7c-4.8 1.9-10.3-.4-12.2-5.2-.1-.1-.1-.3-.2-.4-1.6-4.8.9-10 5.6-11.9l.5-.2-14.2-19.9a1.76 1.76 0 0 0-1.9-.7c-15.6 4-32 4.5-47.8 1.2-.7-.1-1.5.2-1.9.8l-14.2 22.4.5.2c5.9 2.2 9 8.7 6.8 14.6 0 6.7-5.1 10.3-11.4 8l-17.5-6.4c-5.8-2.1-8.9-8.5-6.9-14.4 2.1-6 9-9.1 15-6.9l.4.1 2.9-26.1c.1-.7-.3-1.4-1-1.8-11-5.7-20.9-13.3-29.3-22.4-.5-.5-1.3-.7-2-.4l-21.3 8.7c2.4 4.6 1 10.3-3.3 13.1-4.7 2.9-10.8 1.7-13.9-2.9l-5.5-7.9c-3.1-4.4-2.3-10.4 1.9-13.8 4.3-3.4 10.7-2.7 14.1 1.6 0 .1.1.1.1.2l15-17c.5-.6.6-1.4.2-2-6.3-11.3-10.4-23.7-12.2-36.6-.1-.7-.6-1.3-1.4-1.5l-24-5.6v2.8c-.1 5.6-4.6 10.2-10.3 10.2a10.07 10.07 0 0 1-10.1-10.1v-.1l.2-17.4c0-5.7 4.8-10.5 10.5-10.4 5.5.1 9.9 4.7 9.9 10.2l23.8-5.6c.7-.2 1.3-.8 1.4-1.5 1.8-13.6 6.3-26.6 13.1-38.5.4-.7.3-1.5-.2-2l-11.4-13.4-1 1.3c-3 3.9-8.6 4.7-12.5 1.7l-.3-.3c-3.6-3.2-4.2-8.6-1.2-12.5l7.6-10c3-3.9 8.6-4.7 12.5-1.7 3.7 2.8 4.6 7.9 2.1 11.9l15.9 6.9c.7.3 1.5.1 2-.4 7.5-8.3 16.3-15.3 26-20.8.6-.4 1-1.1.9-1.8l-3.7-24.4-3.5 1.3c-4.8 1.9-10.3-.6-12.1-5.4-.1-.1-.1-.3-.1-.4-1.5-4.8 1-10 5.8-11.8l17.7-6.8c4.8-1.9 10.2.6 12.1 5.4.1.1.1.3.2.4 1.5 4.8-1 10-5.8 11.8l-.5.2 13.9 20.1a1.76 1.76 0 0 0 1.9.7c8.3-2 16.7-3 25.2-3h0c.8 0 1.4-.5 1.7-1.2l4.6-12.9c-5.4-1.7-8.9-7-8.2-12.7.8-6.5 7-11.1 13.5-10.3l6.3.8c6.5.8 11.3 6.6 10.6 13.1-.5 4.9-4 8.9-8.8 10.2l1.6 14c.1.8.7 1.4 1.4 1.5 10.6 2.3 20.7 6.3 30 11.7.6.4 1.4.3 2-.2l19.1-15.5-2.9-2.3c-4.1-3.2-4.7-9.1-1.5-13.2.1-.1.2-.2.3-.4 3.4-3.8 9.1-4.2 13.1-1l14.9 11.8c4.1 3.2 4.7 9.1 1.5 13.2-.1.1-.2.2-.3.4-3.4 3.7-9.1 4.2-13.1 1l-.4-.3-10.2 22.2c-.3.7-.2 1.5.4 2 7.2 7.4 13.4 15.9 18.2 25.1.3.7 1.1 1.1 1.8.9l14.5-2c-2.1-5.9.9-12.3 6.8-14.4.1 0 .2-.1.3-.1 5.9-1.8 12.1 1.3 14.2 7l3.3 9c2.2 5.7-.4 12.1-6 14.6-5.2 2.3-11.2.3-14.2-4.5l-12 8.2a1.76 1.76 0 0 0-.7 1.9c2.5 9.2 3.8 18.7 3.8 28.2 0 1.6 0 3.3-.1 4.9 0 .7.4 1.4 1.1 1.7l22.6 9.8.7-3.6c1.1-4.9 6-8.2 11.1-7.2h0z" class="I"/><g class="G"><ellipse cx="2219.6" cy="874.1" rx="14.9" ry="12.5"/><circle cx="2165.7" cy="951.8" r="16.3"/></g><g class="H"><circle cx="2229.3" cy="943.3" r="11.7"/><circle cx="2186.2" cy="1000.2" r="11.3"/></g><path d="M2109.4 921a124.94 124.94 0 0 1 49.4-99.6c-3.5.5-6.9 1.2-10.4 2a1.76 1.76 0 0 1-1.9-.7l-13.9-20.1.5-.2c4.7-1.8 7.3-6.9 5.8-11.8-1.6-4.9-6.9-7.6-11.8-6a.76.76 0 0 0-.4.2l-17.7 6.8c-4.7 1.8-7.3 6.9-5.8 11.8 1.6 4.9 6.9 7.6 11.8 6 .1 0 .3-.1.4-.1l3.5-1.3 3.7 24.4c.1.7-.2 1.4-.9 1.8-9.7 5.5-18.5 12.5-26 20.8-.5.6-1.3.7-2 .4l-15.9-6.9c2.6-4.2 1.4-9.7-2.8-12.3-3.9-2.5-9-1.5-11.9 2.1l-7.6 10c-2.9 3.8-2.4 9.3 1.2 12.5 3.8 3.2 9.4 2.7 12.6-1.1l.3-.3 1-1.3 11.4 13.4c.5.6.6 1.4.2 2-6.9 11.9-11.3 24.9-13.2 38.5-.1.7-.6 1.3-1.4 1.5l-23.8 5.5c0-5.5-4.4-10.1-9.9-10.2-5.7-.1-10.4 4.7-10.5 10.4l-.2 17.4c-.1 5.6 4.4 10.1 10 10.2h.1c5.6 0 10.2-4.5 10.3-10.2v-2.8l24 5.5c.7.2 1.3.8 1.4 1.5 1.8 12.8 5.9 25.2 12.2 36.6.4.7.3 1.5-.2 2l-15 17c-3.3-4.4-9.6-5.3-14.1-2-.1 0-.1.1-.2.1-4.2 3.4-5 9.4-1.9 13.8l5.5 7.9c3.1 4.6 9.3 5.8 13.9 2.9a9.97 9.97 0 0 0 3.3-13.1l21.3-8.7c.7-.3 1.5-.1 2 .4 8.4 9.1 18.3 16.7 29.3 22.4.7.3 1 1 1 1.8l-2.9 26.1-.4-.1c-6-2.2-12.9.9-15 6.9-2 5.9 1 12.3 6.9 14.4l17.5 6.4c6.3 2.3 11.4-1.3 11.4-8 2.2-5.9-.9-12.5-6.8-14.6l-.5-.2 14.2-22.3c.4-.6 1.1-.9 1.9-.8a108.09 108.09 0 0 0 21.2 2.1h2.6c-41.1-21.7-66.8-64.3-66.8-110.8z" fill="#00935b"/><circle cx="2115.1" cy="973.1" r="11.8" class="G"/><g class="H"><use xlink:href="#B" x="2023.3"/><path d="M2149.4 1000h-4.1a4.48 4.48 0 1 1 0-9h4.1a4.48 4.48 0 1 1 0 9z"/></g><use xlink:href="#B" x="1927.9" y="13.2" class="G"/><path d="M2187.6 855.1h-5.5a4.48 4.48 0 1 1 0-9h5.5a4.48 4.48 0 0 1 4.5 4.5 4.55 4.55 0 0 1-4.5 4.5z" class="H"/><g class="G"><path d="M2223.7 985.3h-6.1a4.48 4.48 0 1 1 0-9h6.1a4.48 4.48 0 1 1 0 9z"/><ellipse transform="matrix(.7852 -.6192 .6192 .7852 -89.5503 1514.712)" cx="2138.6" cy="886.4" rx="31.1" ry="26"/></g><path d="M925.7 137.1c-7.5-6.2-18.4-9.3-32.7-9.3h-38.9v71.9H893c14.3 0 25.2-3.1 32.7-9.4s11.2-15.1 11.2-26.5c0-11.6-3.8-20.5-11.2-26.7m12.1 158L898 237.6h-43.9V295h-47.7V88.9h89.2c18.3 0 34.1 3 47.6 9.1s23.8 14.7 31.1 25.9 10.9 24.4 10.9 39.8c0 15.3-3.7 28.5-11 39.6s-17.8 19.6-31.4 25.5l46.2 66.3h-51.2 0zm244.6-38.3v38.3h-159.6V88.9h155.8v38.3h-108.4V172h95.7v37.1h-95.7v47.7h112.2 0zm58.5 35.2c-15.2-4.4-27.4-10.2-36.7-17.2l16.2-35.9c9.6 6.9 20.2 12.1 31.5 15.6 11.8 3.9 24.1 5.9 36.5 5.9 13.5 0 23.5-2 30-6s9.7-9.3 9.7-16c.1-4.7-2-9.3-5.7-12.2-4.4-3.5-9.4-6.2-14.7-7.8-6-2-14.1-4.1-24.3-6.5-13.1-3-25.9-6.8-38.6-11.3-10-3.7-18.8-9.9-25.8-18-7.2-8.2-10.8-19.2-10.8-33a57.66 57.66 0 0 1 9.7-32.5c6.5-9.7 16.2-17.4 29.3-23.1s29-8.5 47.8-8.5a161.84 161.84 0 0 1 38.6 4.7c11.6 2.8 22.8 7.3 33 13.5l-14.8 36.3c-19-10.8-38.1-16.2-57.1-16.2-13.3 0-23.2 2.2-29.6 6.5s-9.6 10-9.6 17.1 3.7 12.3 11 15.8c7.3 3.4 18.6 6.8 33.7 10.2a347.23 347.23 0 0 1 38.6 11.2c9.9 3.7 18.8 9.7 25.8 17.7 7.2 8.1 10.7 18.9 10.8 32.7a55.92 55.92 0 0 1-9.9 32.2c-6.6 9.7-16.4 17.4-29.6 23.1-13.1 5.7-29.1 8.5-48 8.5-15.8-.2-31.7-2.4-47-6.8" class="J"/><path d="M1449.9 284.9c-16.6-8.8-30.4-21.9-40-38-9.7-16.2-14.6-34.5-14.6-54.9s4.9-38.7 14.6-54.9c9.6-16.1 23.4-29.2 40-38 17-9.1 36.1-13.7 57.3-13.7 17.9 0 34 3.1 48.4 9.4 14.1 6 26.5 15.3 36.4 27.1l-30.6 28.3c-13.9-16.1-31.2-24.1-51.8-24.2-12.8 0-24.1 2.8-34.2 8.4-9.8 5.4-18 13.6-23.4 23.4-5.6 10-8.4 21.4-8.4 34.2s2.8 24.2 8.4 34.2c5.4 9.9 13.6 18 23.4 23.4 10 5.6 21.4 8.4 34.2 8.4 20.6 0 37.9-8.1 51.8-24.4l30.6 28.3a96.74 96.74 0 0 1-36.5 27.4c-14.5 6.3-30.7 9.4-48.6 9.4-21-.1-40-4.7-57-13.8m195.3-10.7c-16.4-16.3-24.6-39.6-24.6-69.8V88.9h47.7v113.7c0 36.9 15.3 55.4 45.9 55.4 14.9 0 26.3-4.5 34.2-13.4s11.8-22.9 11.8-42V88.9h47.1v115.4c0 30.2-8.2 53.5-24.6 69.8s-39.3 24.4-68.8 24.4c-29.4.1-52.3-8.1-68.7-24.3m368.8-17.4v38.3h-159.6V88.9h155.8v38.3h-108.4V172h95.7v37.1h-95.7v47.7H2014h0z" class="I"/><path d="M1078.2 343.8v61.7h-6.4V377h-38.6v28.5h-6.5v-61.7h6.5v27.5h38.6v-27.5h6.4zm25.5 24.7c-3.1 2.9-4.9 6.9-5.2 11.1h32.9c-.3-4.2-2.1-8.2-5.2-11.1-6.3-5.7-16-5.7-22.5 0m33.6 15.8h-38.8a16.53 16.53 0 0 0 5.6 11.7c3.5 3 8.1 4.6 12.7 4.5 2.7 0 5.4-.5 7.9-1.5 2.4-1 4.5-2.6 6.3-4.5l3.5 4c-2.1 2.5-4.7 4.4-7.7 5.6-3.2 1.3-6.7 2-10.2 1.9-4.4.1-8.8-.9-12.6-3-3.6-1.9-6.6-4.9-8.6-8.4-2.1-3.7-3.1-7.9-3.1-12.2-.1-4.2 1-8.4 3-12.2 1.9-3.5 4.7-6.4 8.1-8.4 3.5-2 7.5-3.1 11.6-3 4-.1 8 1 11.5 3 3.4 2 6.2 4.9 8 8.3 2 3.8 3 8 2.9 12.2l-.1 2h0zm12.9-44.2h6.3v65.4h-6.3v-65.4zm56 58.1c2.6-1.5 4.8-3.7 6.2-6.4 1.5-2.9 2.3-6.1 2.3-9.4.1-3.3-.7-6.5-2.3-9.4-1.4-2.7-3.6-4.9-6.2-6.4-5.5-3.1-12.2-3.1-17.7 0-2.6 1.5-4.7 3.7-6.2 6.4-1.5 2.9-2.3 6.1-2.3 9.4-.1 3.3.7 6.5 2.3 9.4 1.4 2.7 3.6 4.9 6.2 6.4 5.5 2.9 12.1 2.9 17.7 0m3.4-36.4a20.72 20.72 0 0 1 8.3 8.3c4 7.7 4 16.9 0 24.6-1.9 3.5-4.8 6.4-8.2 8.3-3.6 2-7.7 3.1-11.8 3-3.5.1-7-.8-10.2-2.3-3-1.6-5.6-3.9-7.4-6.8v25.8h-6.3v-63.4h6v9.2c1.8-3 4.4-5.4 7.4-7 3.2-1.7 6.8-2.5 10.4-2.5 4.1-.2 8.2.8 11.8 2.8m27.8-20.7c.9.9 1.4 2.1 1.3 3.4 0 .8-.1 1.5-.3 2.3l-.8 2.8-3.8 12.2h-4.2l3.1-12.7c-1-.3-1.8-.8-2.4-1.6-1.3-2-1.1-4.6.4-6.3.9-.9 2.1-1.4 3.3-1.3 1.3-.2 2.5.3 3.4 1.2m14.9 63.2c-2.9-.8-5.7-2.2-8.1-4.1l2.8-4.9c2.2 1.7 4.7 2.9 7.3 3.8a28.61 28.61 0 0 0 9.2 1.5c4.2 0 7.4-.7 9.4-2 1.9-1.2 3.1-3.3 3-5.6.1-1.5-.5-3-1.7-4s-2.7-1.8-4.2-2.2l-6.8-1.5c-3.1-.5-6.1-1.3-9.1-2.2-2.3-.7-4.3-2-5.9-3.8-1.7-2-2.6-4.7-2.4-7.3-.1-3.8 1.8-7.3 4.8-9.5 3.2-2.5 7.7-3.7 13.5-3.7 3 0 6.1.4 9 1.2 2.6.6 5.1 1.7 7.4 3.1l-2.7 5c-4-2.7-8.8-4.1-13.7-4-4 0-7 .7-9 2.1-1.9 1.2-3 3.3-3 5.5-.1 1.6.6 3.1 1.7 4.2 1.2 1.1 2.7 1.9 4.3 2.3a78.94 78.94 0 0 0 7 1.5c3 .5 6 1.2 8.9 2.1 2.2.7 4.2 1.9 5.7 3.6 1.7 1.9 2.5 4.4 2.4 7 .1 3.9-1.8 7.5-5.1 9.6-3.4 2.4-8.1 3.6-14.1 3.6-3.5.3-7.1-.3-10.6-1.3m92.3-6.1c2.6-1.5 4.7-3.7 6.1-6.4 2.9-5.9 2.9-12.9 0-18.9-1.4-2.7-3.5-4.9-6.1-6.4a18.53 18.53 0 0 0-17.7 0c-2.6 1.5-4.8 3.7-6.2 6.4-3 5.9-3 12.9 0 18.9 1.4 2.7 3.6 4.9 6.2 6.4 5.5 2.9 12.2 2.9 17.7 0m-20.9 4.7c-3.5-2-6.5-4.9-8.5-8.4a25.54 25.54 0 0 1 0-24.3 22.13 22.13 0 0 1 8.5-8.4c7.6-4 16.6-4 24.1 0 3.5 1.9 6.4 4.8 8.4 8.4a25.54 25.54 0 0 1 0 24.3c-2 3.5-4.9 6.4-8.4 8.4a25.15 25.15 0 0 1-24.1 0m85.9-39c3.4 3.4 5.2 8.3 5.2 14.8v26.9h-6.3v-26.3c0-4.8-1.2-8.5-3.6-11s-5.8-3.8-10.3-3.8c-5 0-8.9 1.5-11.8 4.5s-4.4 7.1-4.4 12.3v24.3h-6.3v-46.3h6v8.5c1.7-2.8 4.2-5.1 7.1-6.6 3.3-1.6 6.9-2.4 10.5-2.3 5.8-.1 10.4 1.6 13.9 5m69.6 38.8c-1.3 1.1-2.8 1.9-4.4 2.4-1.8.6-3.6.8-5.4.8-4.3 0-7.7-1.2-10-3.5s-3.5-5.7-3.5-10v-28h-8.3v-5.3h8.3V349h6.3v10.1h14.1v5.3h-14.1v27.7c0 2.8.7 4.9 2.1 6.3 1.6 1.5 3.8 2.3 5.9 2.2 1.3 0 2.5-.2 3.7-.6 1.1-.4 2.2-1 3.1-1.8l2.2 4.5h0zm48.8-38.8c3.4 3.4 5.2 8.3 5.2 14.8v26.9h-6.3v-26.3c0-4.8-1.2-8.5-3.6-11s-5.8-3.8-10.3-3.8c-5 0-8.9 1.5-11.8 4.5s-4.4 7.1-4.4 12.3v24.3h-6.3v-65.4h6.3v27.1c1.7-2.7 4.1-4.9 7-6.3 3.2-1.5 6.7-2.3 10.3-2.2 5.8 0 10.4 1.7 13.9 5.1m29.1 4.6c-3 2.9-4.9 6.9-5.1 11.1h32.9c-.2-4.2-2.1-8.2-5.2-11.1-6.4-5.7-16.1-5.7-22.6 0m33.7 15.8H1552a16.53 16.53 0 0 0 5.6 11.7c3.5 3 8.1 4.6 12.7 4.5 2.7 0 5.4-.5 7.9-1.5 2.4-1 4.5-2.6 6.3-4.5l3.5 4c-2.1 2.5-4.7 4.4-7.7 5.6-3.2 1.3-6.7 2-10.2 1.9-4.4.1-8.8-.9-12.6-3-3.6-1.9-6.6-4.9-8.6-8.4-2.1-3.7-3.2-7.9-3.1-12.2-.1-4.2 1-8.4 3-12.2 1.9-3.5 4.7-6.4 8.1-8.4 3.5-2 7.5-3.1 11.6-3 4-.1 8 1 11.5 3 3.4 2 6.2 4.9 8 8.3 2 3.8 3 8 2.9 12.2l-.1 2h0zm103.9-25.1l-17.5 46.3h-5.9l-14.6-38-14.6 38h-5.9l-17.4-46.4h6l14.5 39.4 14.9-39.4h5.4l14.8 39.4 14.7-39.3h5.6 0zm31.1 39.4c2.6-1.7 4.6-4.1 5.6-7V384h-14.5c-7.9 0-11.9 2.8-11.9 8.3-.1 2.5 1.1 4.9 3.1 6.4 2.1 1.6 4.9 2.3 8.6 2.3 3.2.1 6.4-.7 9.1-2.4m7-35.2c3.2 3 4.8 7.5 4.8 13.4v28.7h-6v-7.2c-1.5 2.5-3.6 4.4-6.2 5.6-3 1.4-6.4 2.1-9.7 2-5.2 0-9.3-1.2-12.3-3.7-5.4-4.5-6.1-12.5-1.6-17.9.4-.5.8-.9 1.3-1.4 2.8-2.4 7.4-3.6 13.6-3.6h14.7v-2.8c0-4-1.1-7-3.3-9.1s-5.5-3.1-9.8-3.1c-2.9 0-5.7.5-8.5 1.5-2.6.9-4.9 2.2-7 4l-2.8-4.7c2.5-2.1 5.4-3.6 8.5-4.6 3.4-1.1 6.9-1.6 10.4-1.6 6-.1 10.6 1.4 13.9 4.5m60-4.2l-23.2 51.9c-1.9 4.3-4.1 7.4-6.5 9.3-2.6 1.9-5.7 2.8-8.9 2.7-2.1 0-4.2-.3-6.3-1.1-1.9-.7-3.6-1.8-5-3.2l2.9-4.7c2.2 2.3 5.3 3.6 8.5 3.5 2 .1 3.9-.6 5.4-1.8 1.8-1.7 3.3-3.7 4.2-6l2-4.5-20.7-46.3h6.5l17.4 39.4 17.4-39.4 6.3.2h0z" class="J"/><path d="M362.5 226.6s123.8 0 189.5 27.6c0 0 149.5 33.2 135.9 229.5H567s9.7-96.3-10.8-140.6c0 0-29.2-85.3-138.4-91.1l3.6 150.5-58.8 84.5-.1-260.4h0z" class="I"/><path d="M361.9 47s57.5-1 57.5 0v51.7h50.1v57.2h-50.4v52.3h-57.2v-52h-53.6V98.7h53.6V47zm301.6 60.4C658 95.7 651 84.8 642.4 75.2c-69.7-72.7-196-50.4-196-50.4h-2V71c111.2-5.5 129.4 70.2 129.4 70.2 3.9 13.8 5.2 28.3 3.7 42.6 1.7-9.9 1.1-6-.1.9a140.49 140.49 0 0 1-3.6 20.4c-1.7 8.9-4.5 17.5-8.5 25.6-3.9 9.5-8.5 18.6-13.6 27.5-12.7 18.9-29.1 34.7-36.2 41.1l-3.5 3.1h0 0l-.4.3c-11.8 12.2-24.3 23.7-37.3 34.5C374 434.3 362.5 486.9 362.5 486.9 400.6 432.8 472.8 389.3 513 368c3.3-1.8 6.5-3.4 9.3-4.8h0l.9-.5c8.1-4.2 66.6-35.4 110.5-87.3l1.1-1.3c3.2-3.9 6.4-7.9 9.6-12.1 29.4-41.1 31.4-89.1 31.5-92.2-.1-21.4-4.4-42.6-12.4-62.4" class="J"/><g fill="#fff"><path d="M975.2 595.7c-2.8-2.5-5.8-4.8-8.9-7a127.95 127.95 0 0 0-11.1-6.9c-3.6-2.1-7.6-3.7-11.6-4.8-4.1-1-8.2-1.6-12.4-1.6-6.2 0-12.6 2.2-19.1 6.5-7.2 4.7-11 10-11.4 15.9l3.3 7.9h9l8.5 8.3H907v86.8l-8.5-8.3v-78.4h-12.6l-8.2-8.3h22.1l-5.8-5.5c-2.2-2.2-3.3-4.4-3.3-6.7 0-6.7 3.8-13.1 11.3-19 7.3-5.5 14.4-8.3 21.2-8.3 17.6 0 34.4 8.3 50.4 24.9l1.6 4.5z"/><path d="M984.7 614.1v89.3l-6.5-4.2.6-8.8c.1-9.4-2.1-19.2-6.5-29.4-6.6-11.6-14.3-17.3-23.1-17.3-.8 0-1.7.3-2.4.7 3.7 4.8 5.5 8.4 5.5 10.5.1 3.3-1 6.5-3.1 9-2.1 2.4-5.1 3.8-8.3 3.6-10.7 0-16-5.2-16-15.6-.1-5.3 2-10.4 5.9-13.9 4-3.7 9.1-5.7 14.5-5.7 11.7 0 21.9 9.2 30.8 27.6h.3v-46H918l-8.2-8.3h80.8l8.6 8.3-14.5.2z"/><path d="M1049.8 614.1c-5.8 1.3-11.3 3.7-16.2 7a44.88 44.88 0 0 0-11.6 11.8c-2.9 4.6-5.1 9.6-6.5 14.8-1.5 6-2.3 12.1-2.2 18.2 0 5.7 1.7 11.2 4.8 16 5.3 7.4 10.5 10.4 15.6 8.9-1.7-1-3.1-2.4-4.1-4.2-.8-1.5-1.3-3.2-1.3-4.9 0-2.6 1.2-5 3.2-6.5 1.9-1.7 4.4-2.7 7-2.7 2.8 0 5.4 1.2 7.1 3.3 2 2.4 3.1 5.4 3 8.5 0 1.9-.4 3.8-1.2 5.5s-1.9 3.2-3.3 4.4c-1.4 1.3-3 2.2-4.8 2.9s-3.8 1-5.7 1c-9.7 0-17.1-4.8-22.3-14.5-4.4-7.9-6.5-17.1-6.5-27.4 0-14.4 5.9-28.5 17.7-42.3H995l-8.3-8.3h55l8.1 8.5z"/><path d="M1109.4 614.1v88.3c-2.3-1.7-5.3-5.9-9.2-12.8-4.2-7.2-8.2-12.5-12-15.9-6.3-4.9-14.5-7.7-24.6-8.2l-11.1-14.4c4.4-4.3 8.8-8.3 13.1-12.2a164.01 164.01 0 0 1 11.9-9.8c-1.7-1.6-3.7-2.8-5.8-3.7-2.9-1.4-6.7-3-11.4-4.8-11.2-3.3-18.8-8.3-23-15h77l8.6 8.3-13.5.2zm-42.9 73.6c0-2.3.9-4.5 2.5-6.1 1.5-1.6 3.7-2.5 5.9-2.5 4.7 0 8.6 3.9 8.6 8.6 0 2.2-.9 4.4-2.5 5.9-1.6 1.6-3.8 2.6-6.1 2.5-4.5-.1-8.3-3.8-8.4-8.4h0zm34.8-73.6h-31.9c3.3 2.2 6.4 4.7 9.2 7.6 4.1 4 7.9 8.3 11.6 12.8l-10.1 9.9c-3.4 3.4-6.8 7-10.2 10.8 13.6 4.7 24 13.2 31.2 25.2h.3l-.1-66.3zm158.7 87.4c-1.3-.7-2.3-2.4-3.1-5.3l-2.5-6.3c-.7-1.5-1.4-2.9-2.4-4.2-3-3.8-7.1-5.6-12.3-5.6-4.3.1-8.5.6-12.8 1.3-2.9.4-5.4.7-7.5.8s-3.9.2-5.4.2c-20.3 0-30.4-10.4-30.4-31.3-.1-4.2.6-8.3 1.9-12.2 1.2-3.5 3-6.7 5.3-9.6l3.1 3.3c-1.5 2.5-2.6 5.2-3.3 8-.9 3.3-1.3 6.7-1.3 10.1a21.88 21.88 0 0 0 1.8 9.4c1 2.4 2.8 4.5 5 6 2 1.1 4.2 1.9 6.5 2.4 3.1.6 6.2.9 9.3.9h3.5c1.5 0 3 0 4.5-.2l7.9-.3c8.7 0 17 3.3 24.8 9.9v-62.9c0-1.7-2-2.5-5.9-2.5a13.33 13.33 0 0 0-7.3 2.2c-2.7 1.8-5.1 4-7.2 6.5-2 2.4-3.7 5-5.2 7.7-1.4 2.6-2.4 5.3-3 8.2 1.9-.3 3.9-.4 5.8-.5 4.1 0 6.1 3.2 6.1 9.5.1 2.8-1.1 5.5-3.3 7.2a12.21 12.21 0 0 1-8 2.6c-3.8.1-7.5-1.3-10.3-3.9-2.8-2.7-4.2-6.4-4.1-10.2 0-8.9 3.8-17.4 11.3-25.5a46.88 46.88 0 0 1 11.9-8.9c3.9-2.1 8.2-3.2 12.6-3.3 2.7 0 5.9 1.6 9.6 4.8 3.6 3 5.3 5.8 5.3 8.5v83.5l-.9-.3zm67.8-87.4c-5.8 1.3-11.3 3.7-16.2 7a44.88 44.88 0 0 0-11.6 11.8c-2.9 4.6-5.1 9.6-6.5 14.8-1.5 6-2.3 12.1-2.2 18.2 0 5.7 1.7 11.2 4.8 16 5.3 7.4 10.5 10.4 15.6 8.9-1.7-1-3.1-2.4-4.1-4.2-.8-1.5-1.3-3.2-1.3-4.9 0-2.6 1.2-5 3.2-6.5 1.9-1.7 4.4-2.7 7-2.7 2.8 0 5.4 1.2 7.1 3.3 2 2.4 3.1 5.4 3 8.5 0 1.9-.4 3.8-1.2 5.5s-1.9 3.2-3.3 4.4c-1.4 1.3-3 2.2-4.8 2.9s-3.8 1-5.7 1c-9.7 0-17.1-4.8-22.3-14.5-4.4-7.9-6.5-17.1-6.5-27.4 0-14.4 5.9-28.5 17.7-42.3h-27.6l-8.3-8.3h55l8.2 8.5z"/><path d="M1398.5 614.1v87.7l-8.6-8v-47.5c0-2.9-1.1-5.7-3.2-7.8-2-2.2-4.7-3.4-7.6-3.3-4.7 0-7.1 2.9-7.1 8.6.1 1.8.3 3.5.7 5.2l-3.4 1.3c-.7-4.4-3.1-8.3-6.7-11-3.5-2.9-7.9-4.4-12.5-4.3-2 0-4.1.4-5.9 1.3-1.8.8-3.5 1.9-5 3.3s-2.6 3.1-3.4 5-1.3 3.9-1.3 6c0 6.7 4 10.7 12 11.9-1.8-2.7-2.7-5-2.7-7 0-2.4 1.1-4.7 2.9-6.3 1.7-1.7 4-2.7 6.4-2.7 7.6.5 11.4 4.6 11.4 12.3 0 3-1.3 6-3.6 8-2.3 2.1-5.6 3.3-9.9 3.6-3.3 0-6.7-.5-9.8-1.7-2.9-1.1-5.5-2.7-7.6-4.8-2.2-2.1-3.9-4.7-5-7.5a26.9 26.9 0 0 1-1.8-9.7c0-5.6 1.6-11.2 4.8-15.9 3.6-5.3 8.1-8 13.7-8 7.1 0 13.5 3.7 19.1 11 .1-2.7 1.3-5.3 3.4-7.1 2.3-2.3 4.5-3.4 6.8-3.4 6.9 0 12.1 4.6 15.4 13.8v-22.8h-67.9l-8.6-8.3h91.8l8.4 8.3h-15.2z"/><path d="M1429.1 614.1v86.8l-8-8.3V631c0-2.4-.5-4.8-1.5-7-1-2-2.3-3.8-4.1-5.3s-3.8-2.6-5.9-3.4c-2.2-.8-4.5-1.3-6.9-1.3l-8.3-8.3h9.5c5 0 9 1.1 11.7 3.3 2.8 2.2 5 5.9 6.7 11 0-1.7-.1-3.8-.2-6.2-.1-2.5-.3-5.4-.6-8.8l-.4-8.5-.2-6.2 3 2.5c1 5.9 2.7 10.2 5.2 12.8h7.4l8.2 8.3-15.6.2z"/></g><g class="I"><path d="M659.1 909.8c-2.5-4-5.1-7-7.7-9.2h0c-2.8-2.3-5.6-3.6-8.4-3.9l-1.5-.1-.8 1.3c-1.5 2.2-2.9 4.4-4.3 6.6-1.3 2-2.9 4-4.7 5.9-2.3 2.2-4.5 3.8-6.6 4.8.9-2 1.4-3.8 1.4-5.6 0-3.9-1.5-7.1-4.6-9.7-2.9-2.5-6.4-3.7-10.3-3.7-15.1 0-18.2 9.2-18.2 16.8 0 6.5 2.7 11.7 8 15.7 4.6 3.8 10.3 5.7 16.7 5.7 12 0 22.6-4.7 31.4-14.1.6 1 1.4 3.7 1.4 10.1 0 6-2.3 11-7 15.3s-10.1 6.4-16.5 6.4c-6.5 0-12.7-1.5-18.4-4.5-5.8-3-11.1-7.3-15.9-12.7-3.3-4.4-6.6-9.7-9.9-15.7-3.3-6.1-6-12.7-8.3-19.6l-.4-1.3-11.9-3.6 1.7 4.7c3.8 10.7 7.3 20 10.5 27.7 3.2 7.8 6.2 13.8 8.9 18 11.2 17.9 25.3 27 41.9 27 12 0 21.8-4.3 29.4-12.9 3.5-4 6.1-8.4 7.8-13.3 1.7-4.8 2.5-10.1 2.5-15.9 0-5.7-2-12.5-5.9-20l-.3-.2zm91.6 8.2h0c-1.5-2.9-3.5-5.6-5.8-8.1-2.3-2.4-5.1-4.5-8.1-6.1l-1.5-.8-1.3 1.1c-2.2 1.8-4.3 4.1-6.1 6.6-1.7 2.3-3.5 4.6-5.4 6.7-1.7 2-3.7 3.6-5.8 4.8-1.3.8-2.8 1.1-4.5 1.2v-31.5h57.9l-14.4-14.1H556.8l-2.8-6.4c.6-5.2 4.6-10.1 11.9-14.6 7.1-4.4 14-6.7 20.6-6.7 4.7 0 9.3.5 13.7 1.5s8.6 2.7 12.8 4.9c4.7 2.4 8.9 4.9 12.5 7.3 3.7 2.5 7 5 10 7.5l7.6 6.4-5.7-14.6-.4-.4c-18.8-18.4-38.9-27.7-59.8-27.7-8.3 0-17 3.2-25.9 9.5-9.3 6.9-14 14.5-14 22.6 0 3.2 1.5 6.2 4.6 9.1l1.7 1.5h-11.5c-2.1-2.5-3.6-6.4-4.6-11.7l-.2-.9-8.3-6.6v5.3c0 1.9.1 4.1.2 6.8l.5 9.4c.2 1.8.3 3.5.4 5.1-1-1.2-2.1-2.2-3.2-3.1-.9-.7-1.8-1.2-2.9-1.7l-2.6-2.4h-128l5.3 4.9c-2.8 1.5-5.4 3.1-7.8 4.9l-.3.2c-6.3 6.3-11.3 13.4-14.8 21.2s-5.5 16.5-5.9 26c0 11.6 2.6 22.1 7.8 31 6.4 11.3 15.7 17 27.6 17 2.7 0 5.2-.4 7.6-1.3 2.4-.8 4.5-2.1 6.3-3.6 1.8-1.6 3.3-3.4 4.4-5.5 1.1-2.2 1.6-4.5 1.6-7.1 0-4.4-1.4-8.1-4.1-11-2.8-2.9-6.1-4.4-10-4.4-1.8 0-3.5.3-5.2 1-1.7.6-3.2 1.5-4.5 2.6s-2.4 2.4-3.2 3.8c-.9 1.6-1.4 3.3-1.4 5.1 0 2.3.6 4.5 1.8 6.5.2.3.4.7.6 1-3.6-1.1-6.8-4-9.6-8.7l-.1-.1c-3.2-4.8-4.9-10.1-4.9-15.9 0-7 .8-13.4 2.5-19 1.6-5.6 4-10.8 7.1-15.3 3.4-4.9 7.7-9 12.6-12.2s10.8-5.6 17.5-7.1h44.8v3.1c-20.2 6.4-38.5 15.6-54.4 27.5l-2.2 1.6 15.9 18.6 1 .1c10.1 1.1 19.3 5.6 27.5 13.3 3.6 3.4 7 7.3 10 11.7s5.7 9.2 7.9 14.2c.5 1.1 1.3 1.9 2.5 2.6.9.5 1.9.9 2.9 1l2.9.5v-75.4c7.7.3 13.7 2.7 17.8 6.9l.1.1c3.8 3.6 6.1 7.5 6.8 11.8-.3-.2-.7-.4-1-.6-1.9-1.1-4.1-1.6-6.4-1.6-3.8 0-7.1 1.2-9.7 3.5-2.7 2.4-4.1 5.5-4.1 9.1 0 2 .5 3.9 1.4 5.6.9 1.6 2.1 3 3.5 4.2 1.4 1.1 3 2 4.7 2.7 1.8.7 3.6 1.1 5.5 1.1 2.6 0 5.1-.5 7.4-1.6 2.2-1.1 4.2-2.5 5.8-4.3s2.8-3.8 3.7-6.1 1.4-4.8 1.4-7.3c0-9.8-3.5-18.9-10.3-27-6.8-8.5-15.6-13.1-26.4-13.7v-1.6h27.5a21.61 21.61 0 0 1 7.1 1.2c2.3.8 4.3 1.9 6.1 3.3 1.7 1.3 3 2.9 4 4.8s1.4 4 1.4 6.4v67.7l14.3 14v-97.4h12.7v83.5l14.8 13.7v-97.2H665l.4 3.8c5.2 52.6 23 79.2 52.8 79.2 11.6 0 20.9-3.7 27.6-11.1 6.4-7 9.7-16 9.7-26.9 0-3.2-.4-6.5-1.3-9.7-.8-3.2-2-6.3-3.5-9.2zm-292-5.1v36.9c-7-9.5-16.3-17-27.9-22.4 5-3.1 9.7-5.9 14.2-8.3 4.5-2.3 9.1-4.4 13.7-6.2zm239.2-21v28.3c0 18 8.6 21.8 15.8 21.8h.3c2.9-.3 5.9-1.1 8.9-2.2 2.9-1.1 5.7-2.6 8.3-4.3s5-3.8 7-6.1c1.1-1.3 2.1-2.7 2.9-4.1 1.7 2.4 2.5 4.8 2.4 7.4-.1 3.8-1.3 7.1-3.7 10.3s-5.8 5.9-9.9 8-8.5 3.1-13.1 3c-12.9 0-22.6-6.3-29.8-19.4-2.7-4.8-5-10.5-6.8-16.8-1.8-6.4-3-13-3.7-19.6l-.1-1.5-10.4-4.8h31.9zm112 48.4l-3.9-3.7h-45.2l-.7 1.3-1.7 3.8c-.5 1.4-.9 2.7-1.1 4l-.3 1.4 3.8 3.6H806l.7-1.4c.5-1 1-2.2 1.5-3.7l1.2-3.9.5-1.4zm39.4-33.1h0c-3.7-3.7-8.1-7.9-13.2-12.6 0-.6.1-1.1.1-1.6v-2.3c0-13-7.5-14.9-11.9-14.9-4.1 0-7.6 1.4-10.4 4.3-2.7 2.8-4.1 6.2-4.1 10.1 0 2.6 1.3 5.8 4 9.8 2.5 3.8 5.5 7.2 9 10.1l11.2 9.5 11 9.7c7.4 7.1 11.1 13 11.1 17.6a15.18 15.18 0 0 1-1.2 5.9c-.6 1.3-1.5 2.7-2.6 4-4.7-3.8-11.3-5.7-19.7-5.7-5.7 0-11 1.9-16 5.6s-7.5 8.4-7.5 14.1c0 4.6 2.5 8.6 7.4 11.9 3.8 2.8 8.3 4.1 13.4 4.1 10.4 0 20-3.8 28.8-11.4 8.7-7.6 13.1-16.7 13.1-26.8 0-9.5-4.4-19.9-13-30.8-2.3-3-5.5-6.6-9.5-10.6zm95.9 7.7c-2.3-1.9-4.7-3.6-7.2-5-2.4-1.4-5-2.7-7.8-3.9l-8.4-3.5-7.9-3.2-.2-.1c-5.3-2-9.5-3.8-12.4-5.6-1.3-.8-2.1-1.4-2.6-1.8 2.1-2.2 3.2-4.5 3.3-6.8.1-3.1-.8-5.9-2.8-8.3s-4.9-3.8-8.6-4c-3.8-.3-7 1.2-9.5 4.1-2.3 2.8-3.5 6.3-3.6 10.4-.1 4.9 1.5 9.5 4.9 13.6 3.2 3.9 7.6 7.6 13.1 11 4.4 3 9.4 5.5 14.9 7.6 5.3 1.9 10.5 4.2 15.4 6.6 4.8 2.4 9 5.2 12.4 8.4 3.2 3 5.1 6.8 5.8 11.7 0 1.7-.4 3.3-1.2 4.7-.9 1.6-2 3-3.4 4.1-1.5 1.3-3.2 2.5-5.1 3.6-.1.1-.2.1-.4.2.4-2.1.5-4.1.4-6.1-.1-3.6-1-7.2-2.5-10.6s-3.6-6.4-6.2-9-5.6-4.7-9-6.2c-3.5-1.5-7.3-2.3-11.4-2.1-4.5.1-8.8 1.1-12.5 2.9-3.8 1.8-7 4.2-9.5 7-2.5 2.9-4.5 6.2-5.9 9.9s-2 7.5-1.9 11.3c0 2.3.3 4.8.9 7.5s1.6 5.2 2.9 7.6c1.4 2.5 3.5 4.7 6.3 6.5 2.9 1.9 6.2 2.8 9.7 2.8 4 .1 7.3-.8 9.9-2.9s4.2-5.1 4.8-9.1v-.3c0-4.3-1.4-7.4-4.1-9.4-2.5-1.8-5.1-2.7-7.8-2.8-1.9-.1-3.4.1-4.7.4v-.1c-.2-.9-.4-1.7-.5-2.6.2-2 .5-4 1-6 .4-1.6 1.1-3.1 2.4-4.4 1.7-1.7 2.8-2.4 3.5-2.7 1.1-.4 2.6-.7 4.4-.8 2.3 0 4.2.5 5.9 1.4 1.7 1 3.2 2.2 4.4 3.6 1.1 1.4 2 3.2 2.5 5.2a29.51 29.51 0 0 1 1 6.2c-.1 1.8-.3 3.5-.7 5.3s-.9 3.6-1.5 5.4l-1.8 5.6c-.6 2-1 4-1.3 6.1l-.3 2.9 2.9-.1c4.7-.1 9.8-.9 15.1-2.4s10.2-3.6 14.6-6.3a38.85 38.85 0 0 0 11.2-10.1c3.1-4.2 4.6-9 4.5-14.3.1-7.8-1.5-14.6-4.9-20.2-2.9-5.4-6.5-9.8-10.5-12.9zm154.9-19.6h0a27.16 27.16 0 0 0-1.1-3.4h16.5l-9.5-8.3-6-5.8H992.6l14.6 14.2h1l33.9.1v.5c0 .7-.1 1.7-.3 2.9-.2 1.3-.5 2.5-.9 3.8s-.8 2.6-1.3 3.8c-.3.8-1.1 2.3-3.1 5.2-1.3 1.8-3.2 2.8-5.9 3-1.4-.1-2.5-.5-3.4-1.2-1.1-.9-2.2-2-3.2-3.4l-2.2-3.1-6.4 10.3.7 1.3c.9 1.5 2 3.1 3.3 4.6s2.6 2.8 3.9 4.1l.3.3c2 1.4 4 2.5 5.9 3.3 2.1 1 4.1 1.4 6.1 1.4 5.3 0 10.4-3.5 15-10.4 1.9-2.7 3.4-5.3 4.7-8 1.4 2.9 3.6 5.8 6.4 8.6l.1.1c2.8 2.4 5.5 4.2 8 5.4.3.2.7.3 1 .4-3.7 2.2-7.4 4.5-11 6.8l-19.4 12.6-2.3 1.5 11.1 14.2h1.2c3.7.1 7.1.5 10.1 1.2 2.9.7 5.3 1.7 7.1 3 1.4 1 3.8 3.3 7.7 9.1l.1.1c3.4 4.5 7 7.7 10.8 9.6l3.7 1.8v-59.3c.7-.3 1.4-.7 2.1-1.1l.1-.1c3.3-2.4 5.7-5.4 7.1-8.9 1.3-3.3 2-6.9 2-10.6 0-1.4-.1-2.9-.3-4.6 0-1.7-.4-3.4-.8-5zm-11.7 8.2c0 1.6 0 6-10.6 6-4.4 0-8.1-1.6-11.3-4.8-.7-.8-1.4-1.7-2-2.9s-1.1-2.6-1.4-4c-.4-1.5-.7-3-.9-4.6-.1-.4-.1-.9-.2-1.3h22c1.3.6 2.1 1.3 2.3 1.9.5 1.3.8 2.5 1.1 3.6.3 1.2.5 2.3.6 3.5.3 1.1.4 2 .4 2.6zm-12.1 37v17.6c-4.3-4.1-9-7-14-8.9 4.9-3.3 9.6-6.2 14-8.7zm29.6-3.9l-.7 1.3-1.7 3.8c-.5 1.4-.9 2.7-1.1 4l-.3 1.4 3.8 3.6h45.2l.7-1.4c.5-1 1-2.2 1.5-3.7l1.2-3.9.4-1.5-3.9-3.7h-45.1zm305.9 20.6c-3.3 0-6.2 1.2-8.6 3.4-2.5 2.3-3.7 5.1-3.7 8.4 0 3.2 1.2 6 3.7 8.3 2.4 2.3 5.3 3.4 8.6 3.4 3.4 0 6.3-1.2 8.7-3.4 2.5-2.3 3.7-5.1 3.7-8.3 0-3.3-1.2-6.1-3.7-8.4-2.3-2.3-5.3-3.4-8.7-3.4z"/><path d="M1373.2 877.8c-2.1-2.5-3.6-6.4-4.6-11.7l-.2-.9-8.3-6.6v5.3c0 1.9.1 4.2.2 6.8l.5 9.4c0 .5.1.9.1 1.4l-3.7-3.5H1131l14.7 13.6c3.7 4.7 6.8 7.8 9.4 9.4 1.7 1 3.9 2.1 6.4 3.1s5.6 2.1 9.1 3.1c7.5 2 10.7 3.9 12 5 2.4 2.3 3.8 5.9 4.3 10.7-1.5-.3-3.1-.5-4.8-.5-6.3 0-11.5 1.5-15.3 4.4-4.6 3.5-7 8.2-7 14.1 0 5.1 1.9 9.4 5.5 12.7s8 4.9 13.2 4.9c2.8 0 5.9-.7 9.1-1.9 2.9-1.2 5.8-3.3 8.6-6.3 9.4 3.4 16.5 11.6 21.2 24.2v.8c-1.1-.1-2.2-.2-3.4-.2-5.8 0-10.8 1.6-14.8 4.7-2.4 1.7-4.2 3.8-5.3 6.2-1.1 2.3-1.7 4.9-1.7 7.8 0 5.1 2.1 9.6 6.3 13.4 4 3.8 8.8 5.7 14.1 5.7 6.4.1 12.7-1.6 18.8-5.1l29.9 24 .3-15.7-31-25.2-1.6 1.2c-3.3 2.5-6.4 4.1-9.2 4.8-2.8.6-5.1.8-6.8.5h-.3c-2.7-.1-3.8-.7-4.2-1.1-.7-.6-1-1.2-1.1-1.8-.1-1.5.1-3.6 4-5.8 1.9-.6 3-.8 3.6-.8 1.1-.1 2.8-.1 5.1-.1 1.4 0 3 .3 4.7.8l2.9 1 .4-3c1.3-8.4 1.2-10.7 1-11.8l-.1-.5-.3-.4c-.1-.2-.3-.4-.4-.6v-81.2h78.1v12.3c-4-5.1-9.1-7.6-15.2-7.6-3.3 0-6.5 1.5-9.5 4.3-1.5 1.4-2.7 2.9-3.5 4.4-6.2-6.1-13.1-9.2-20.7-9.2-7.2 0-13.2 3.3-17.8 9.8-3.9 5.7-5.9 11.9-5.9 18.6 0 4.2.8 8.1 2.3 11.5 1.5 3.5 3.6 6.5 6.3 9s5.9 4.4 9.6 5.7 7.7 2 12.1 2h.2c5.5-.4 9.9-1.9 12.9-4.5 3.2-2.7 4.8-6.3 5-10.6 0-9.8-5.4-15.2-15.5-15.9h-.2c-3.4 0-6.4 1.2-9.1 3.6-2.8 2.5-4.2 5.4-4.2 8.7 0 1.2.2 2.4.7 3.7-5.6-2.2-6.3-6.1-6.3-9 0-1.9.4-3.7 1.2-5.4a13.86 13.86 0 0 1 3.3-4.6c1.4-1.3 3.1-2.4 5-3.2 1.8-.8 3.8-1.2 5.8-1.2 4.9 0 9.1 1.4 12.8 4.2 3.7 2.7 5.9 6.1 6.7 10.3l.6 3 8.9-3.3-.5-2.2c-.5-2.1-.8-3.8-.8-5 0-6 2.7-6.8 5.6-6.8 2.7 0 5 .9 7 2.9 2 1.9 2.9 4.1 2.9 6.6v52.5l15 13.1v-2.4l1.4 1 1.2-.3a55.79 55.79 0 0 0 10.3-4.2c3.4-1.8 6.5-3.8 9.2-6.1l.3-.3c3-3.3 5.4-6.8 7.1-10.3 1.7-3.7 2.6-7.4 2.6-11.1 0-2.9-.3-6.4-.9-10.6-.6-4.1-1.4-9-2.4-14.5-1.8-8.2-2.6-16.3-2.5-24.2.6-5.7 2.2-9.8 4.9-12.2 1 .5 1.9 1.1 2.7 1.8 1.7 1.3 3 2.9 4 4.8.9 1.9 1.4 4 1.4 6.4v67.7l14.3 14v-97.4h2.5c4.6 2.9 10.4 5.3 17 7.1 5.3 1.9 9.6 3.6 12.8 5 1.4.6 2.5 1.2 3.3 1.7-3.4 2.5-7.1 5.4-11 8.7l-15.2 13.2-1.8 1.6 15 18.3 1.1.1c11 .5 20 3.3 26.9 8.3 4.2 3.4 8.6 9 13.2 16.5 4.7 7.8 8.4 12.5 11.3 14.6l4 2.8v-97.9h67v38.2c-9.7-15.5-20.8-23.4-33.3-23.4-6.8 0-13 2.3-18.4 6.7-5.1 4.4-7.7 10.2-7.7 17 0 8.9 3.6 19.4 21 19.4 4.7 0 8.6-1.6 11.4-4.8 2.8-3.1 4.2-6.9 4.2-11.4 0-2.4-1.4-5.5-4.3-9.6 8.4.7 15.9 6.6 22.5 17.4 4.9 10.6 7.3 20.8 7.2 30.5l-.8 11 12.7 7.6v-98.6h20.7l-15.5-14.1h-167.3zm46.2 46.1l11.5-10.6 1.9-1.7-1.7-1.9c-4.8-5.5-9.3-10.2-13.5-14-1.5-1.4-3-2.6-4.3-3.8h26.2v61.6c-7.4-9.3-17.1-16.3-29-20.9l8.9-8.7zm-91.3-3.1c0 4.7 1.3 10.9 3.9 19 1.2 3.9 2.1 7.3 2.7 10.3.6 2.9.9 5.3.9 7.3 0 6.1-1.2 10.6-3.5 13.3-1.7 2-3.9 3.7-6.6 5.1-1.4.8-2.9 1.5-4.5 2.1V892h18.1c-7.9 8.5-11.7 18.2-11 28.8zm-135.3-14.2c-3.1-4.1-8.1-8.9-15.1-14.7h36.5v54.6c-.9-1.2-2-2.4-3-3.5-2.6-2.8-5.5-5.5-8.8-8.2v-1.1-2.1c0-8.9-3.2-17.3-9.6-25zm529 48c-3.4 0-6.3 1.1-8.7 3.3-2.5 2.3-3.7 5.1-3.7 8.5 0 3.2 1.2 6 3.7 8.3 2.4 2.3 5.4 3.5 8.8 3.5s6.3-1.2 8.8-3.5c2.4-2.4 3.7-5.2 3.7-8.3 0-3.4-1.3-6.3-3.7-8.5-2.6-2.2-5.5-3.3-8.9-3.3zm225.8-76.8h-8.4c-2.1-2.5-3.6-6.4-4.6-11.7l-.2-.9-8.3-6.6v5.3c0 1.9.1 4.2.2 6.8l.5 9.4c.2 1.8.3 3.5.4 5.1-1-1.2-2.1-2.2-3.2-3.1-.4-.3-.8-.6-1.3-.9l-3.5-3.2h-126.8c-9.8-31.4-30.7-47.4-62.3-47.4-3.8 0-7.8.4-11.8 1.3-4 .8-7.7 1.8-11.2 3.1l-.2.1c-4.6 1.9-8.2 4.2-10.8 6.7-2.9 2.8-4.4 6-4.4 9.6 0 4 1.5 7.5 4.6 10.4 2.8 2.6 6.6 4.7 11.2 6l.3.1c1.3.2 4.1.6 8.6 1.1l17.7 2.1c9.6 1 12.2 3 12.2 4.1 0 .7-.1 1.7-1.3 2.9h-60c-1.2-.4-2.1-1.2-2.8-2.6-.3-.9-.7-3.2-1.4-8.7l-.1-1-9.4-7.5.2 5.5 1.2 23.8.8 15.2c-11.2-15.4-23.5-23.2-36.5-23.2-3.9 0-8 .7-12.4 2-4.3 1.3-8.6 3.3-12.9 5.9-4.7 2.9-8.4 6.2-11 9.6-2.8 3.6-4.2 7.4-4.2 11.2 0 2.5 1 4.8 3.1 6.8 2 2 4.4 3 7 3 2 0 4.6-.6 7.7-1.9 1.5-.5 2.8-.9 3.8-1.2.8-.2 1.5-.4 2.1-.4.9 0 3.3 0 3.3 6.8 0 1.5-1.2 5-9 12.1l-3.2 2.9 19.2 6.6 33.1-31.3c.5.5 1.1 1 1.6 1.6 1.1 1.2 2.3 2.6 3.4 4.3 1.2 1.8 2.1 3.5 2.7 5 .6 1.3.8 2.6.8 3.5l-1.4 49.2 15.3 14v-97h63.6v2.2c-19.5 6.4-38.9 15.8-57.5 28l-2.3 1.5 14.3 18.9 1.7-1.3-.1 2.3c12.9 1.2 23.4 5.2 31.1 11.9a73.42 73.42 0 0 1 7.1 7.4c2.5 2.9 4.3 5.4 5.5 7.2 1.1 1.9 2.6 4.9 4.4 9.1l4.9 11.5v-6l5.3 5.9v-98.6h14.5v83.5l14.5 13.9v-97.4h15.6c.3.2.8.5 1.4 1 .8.7 1.6 1.4 2.3 2.2s1.3 1.6 1.8 2.4c-1 .2-2.1.4-3.1.7l-.3.1c-6.2 2.6-9.7 6.9-10.4 12.6v.2c-.1 5.3 1.5 9.4 4.8 12.1 3.2 2.6 6.9 4 11.2 4 4 0 7.5-1.5 10.4-4.3 2.6-2.5 4-5.4 4.4-8.7.4-.3.8-.5 1.2-.6.5-.2.9-.3 1.5-.3 3.1 0 5.6 1.1 7.7 3.3 2.2 2.3 3.2 4.8 3.2 7.6 0 .9-.1 1.7-.3 2.5-4.2-.1-7.9 1-11.2 3.1-4 2.6-6.1 6.5-6.1 11.3 0 4.1 1.5 7.5 4.5 10.2 2.9 2.6 6.4 3.9 10.5 3.9 6.6 0 11.5-2.7 14.4-8 5.5 2.9 9.8 7 12.9 12.2l.9 1.5c.7 1.3 1.4 3 2.3 5.1l4.8 12.6 4.9 13.1v-7.6l4.4 4.8v-70.9c1.7-.4 3.8-.6 6-.6 4 0 7.6.6 11 1.9 3.9 1.8 5.9 3.9 5.9 6.2v.7c-3.1-2.5-6.5-3.7-10.3-3.5-2.8 0-5.4 1.2-7.6 3.4-2.3 2.3-3.4 5.2-3.2 8.7v.4c.7 3.9 2.9 6.9 6.6 8.8 3.3 1.7 7 2.7 11.2 2.8h.3.3c4.3-.8 7.7-2.8 10.2-6.2 2.4-3.2 3.7-7.6 4-12.9v-.1c0-7.4-3.1-13.7-9.3-18.9-6.1-4.8-13.2-7.3-21.2-7.3-1.6 0-3 0-4.3.1v-9.5h21.5a21.61 21.61 0 0 1 7.1 1.2c2.3.8 4.3 1.9 6.1 3.3 1.7 1.3 3 2.9 4 4.8.9 1.9 1.4 4 1.4 6.4v67.7l14.3 14v-97.4h21.7l-14.8-14.6zm-75.7 25.3h-.1-2.3c-12 0-13.5-5.1-13.5-9.5 0-.9.1-1.4.2-1.6h15.7v11.1zm-43.3-5c-.7-.2-1.5-.5-2.4-.7-.8-2-1.5-3.7-2.2-5.1-.1-.1-.1-.2-.2-.3h18.3c1.4 6.8 5 12.9 10.5 18 5.8 4.9 12.3 8 19.4 9v24.6c-3-4.1-6.8-7.6-11.4-10.5-.4-3.4-1.3-6.8-2.7-10.1a42.47 42.47 0 0 0-6.6-10.6l-.1-.1c-2.8-3-6-5.7-9.4-7.9s-6.9-4-10.5-5.3l-2.7-1zm-75.4-34.5c-2.8-3-7-5.3-12.6-7-4.5-1.2-13.3-2.2-26.6-2.8-9.8-.5-11.9-2.1-12.3-2.4.2-1.8 3.7-3.5 9.7-4.8 2.5-.6 5-1.1 7.5-1.3 2.5-.3 5.1-.4 7.6-.4 29.4 0 46.3 10.8 51.6 33h-20.6c.2-1.3.2-1.7.2-2-.1-5-1.6-9.2-4.5-12.3zm-101.6 34.9l-17.3 16.3c-.4-2.9-1.4-5.5-3.1-7.7-2.1-2.9-5-4.7-8.8-5.5 4-5.1 9.9-7.5 17.9-7.5 4.2.1 7.9 1.5 11.3 4.4zm98.2 15.7v37.9c-7.7-9.8-17.9-17.5-30.5-23.2 5.3-3.2 10.5-6 15.4-8.4 5.1-2.3 10.2-4.5 15.1-6.3z"/></g><defs ><path id="B" d="M179.4 921h-4a4.48 4.48 0 1 1 0-9h4a4.48 4.48 0 1 1 0 9z"/></defs></svg>