<?xml version="1.0" encoding="utf-8"?>
<!-- Generator: Adobe Illustrator 21.0.2, SVG Export Plug-In . SVG Version: 6.00 Build 0)  -->
<svg version="1.1" id="Layer_1" xmlns="http://www.w3.org/2000/svg" xmlns:xlink="http://www.w3.org/1999/xlink" x="0px" y="0px"
	 viewBox="0 0 2322.2 1097.7" style="enable-background:new 0 0 2322.2 1097.7;" xml:space="preserve">
<style type="text/css">
	.st0{fill:#00A86B;}
	.st1{fill:#03E086;}
	.st2{fill:#13BF75;}
	.st3{fill:#00935B;}
	.st4{fill:#898989;}
	.st5{fill:#FFFFFF;}
</style>
<title>asdasfasfAsset 8</title>
<g>
	<g id="two_1_">
		<g id="_Group__1_">
			<path class="st0" d="M291.3,931.5c5.1,1,8.4,5.9,7.4,11l-3.7,18.9c-1,5.1-5.9,8.4-11,7.4c-0.2,0-0.3-0.1-0.4-0.1
				c-4.9-1.3-7.9-6.2-6.9-11.2l0.1-0.5l-24.4,1.1c-0.7,0-1.4,0.5-1.6,1.2c-2.4,7.1-5.5,14-9.3,20.5c-0.4,0.6-0.3,1.5,0.2,2.1
				l10.8,12.8c4.3-4.5,11.4-4.6,15.9-0.3c4.3,4.1,4.7,10.8,0.8,15.4l-3.1,4.1c-3.6,4.9-10.5,6-15.5,2.7c-4.2-2.9-5.9-8.1-4.3-12.9
				l-15.6-6.8c-0.7-0.3-1.5-0.1-2,0.4c-7.2,7.9-15.6,14.7-24.9,20.2c-0.6,0.4-1,1.1-0.9,1.8l4,24.3l3.4-1.4
				c4.8-1.9,10.3,0.4,12.2,5.2c0.1,0.1,0.1,0.3,0.2,0.4c1.6,4.8-0.9,10-5.6,11.8l-17.6,7c-4.8,1.9-10.3-0.4-12.2-5.2
				c-0.1-0.1-0.1-0.3-0.2-0.4c-1.6-4.8,0.9-10,5.6-11.9l0.5-0.2l-14.2-19.9c-0.4-0.6-1.2-0.9-1.9-0.7c-15.6,4-32,4.5-47.8,1.2
				c-0.7-0.1-1.5,0.2-1.9,0.8l-14.2,22.3l0.5,0.2c5.9,2.2,9,8.7,6.8,14.6c0,0,0,0,0,0c0,6.7-5.1,10.3-11.4,8l-17.5-6.4
				c-5.8-2.1-8.9-8.5-6.9-14.4c2.1-6,9-9.1,15-6.9l0.4,0.1l2.9-26.1c0.1-0.7-0.3-1.4-1-1.8c-11-5.7-20.9-13.2-29.3-22.3
				c-0.5-0.5-1.3-0.7-2-0.4l-21.3,8.7c2.4,4.6,1,10.3-3.3,13.1c-4.7,2.9-10.8,1.7-13.9-2.9l-5.5-7.9c-3.1-4.4-2.3-10.4,1.9-13.8
				c4.3-3.4,10.7-2.7,14.1,1.6c0,0.1,0.1,0.1,0.1,0.2l15-17c0.5-0.6,0.6-1.4,0.2-2c-6.3-11.3-10.4-23.7-12.2-36.6
				c-0.1-0.7-0.6-1.3-1.4-1.5l-24-5.5v2.8c-0.1,5.6-4.6,10.2-10.3,10.2c-5.6,0-10.1-4.5-10.1-10.1c0,0,0-0.1,0-0.1l0.2-17.4
				c0-5.7,4.8-10.5,10.5-10.4c5.5,0.1,9.9,4.7,9.9,10.2l23.8-5.6c0.7-0.2,1.2-0.7,1.4-1.4c1.8-13.6,6.3-26.6,13.1-38.5
				c0.4-0.7,0.3-1.5-0.2-2L47.3,858l-1,1.3c-3,3.9-8.6,4.7-12.5,1.7c-0.1-0.1-0.2-0.2-0.3-0.3c-3.6-3.2-4.2-8.6-1.2-12.5l7.6-10
				c3.1-3.9,8.7-4.5,12.5-1.5c3.6,2.8,4.5,7.8,2.1,11.7l15.9,6.9c0.7,0.3,1.5,0.1,2-0.4c7.5-8.3,16.3-15.3,26-20.8
				c0.6-0.4,1-1.1,0.9-1.8l-3.6-24.4l-3.5,1.3c-4.8,1.9-10.3-0.6-12.1-5.4c-0.1-0.1-0.1-0.3-0.1-0.4c-1.5-4.8,1-10,5.8-11.8
				l17.7-6.8c4.8-1.9,10.2,0.6,12.1,5.4c0.1,0.1,0.1,0.3,0.2,0.4c1.5,4.8-1,10-5.8,11.8l-0.5,0.2l13.9,20.1c0.4,0.6,1.2,0.9,1.9,0.7
				c8.3-2,16.7-3,25.2-3l0,0c0.8,0,1.4-0.5,1.7-1.2l4.6-12.9c-5.4-1.7-8.9-7-8.2-12.7c0.8-6.5,7-11.1,13.5-10.3l6.3,0.8
				c6.5,0.8,11.3,6.6,10.6,13.1c-0.5,4.9-4,8.9-8.8,10.2l1.6,14c0.1,0.8,0.7,1.4,1.4,1.5c10.5,2.3,20.7,6.2,30,11.6
				c0.6,0.4,1.4,0.3,2-0.2l19.1-15.5l-2.9-2.3c-4.1-3.2-4.7-9.1-1.5-13.2c0.1-0.1,0.2-0.2,0.3-0.4c3.4-3.8,9.1-4.2,13.1-1l14.9,11.8
				c4.1,3.2,4.7,9.1,1.5,13.2c-0.1,0.1-0.2,0.2-0.3,0.4c-3.4,3.7-9.1,4.2-13.1,1l-0.4-0.3l-10.2,22.2c-0.3,0.7-0.2,1.5,0.4,2
				c7.2,7.4,13.4,15.9,18.2,25.1c0.3,0.7,1.1,1.1,1.8,0.9l14.5-2c-2.1-5.9,0.9-12.3,6.8-14.4c0.1,0,0.2-0.1,0.3-0.1
				c5.9-1.8,12.1,1.3,14.2,7l3.3,9c2.2,5.7-0.4,12.1-6,14.6c-5.2,2.3-11.2,0.3-14.2-4.5l-12,8.2c-0.6,0.4-0.9,1.2-0.7,1.9
				c2.5,9.2,3.8,18.7,3.8,28.2c0,1.6,0,3.3-0.1,4.9c0,0.7,0.4,1.4,1.1,1.7l22.6,9.8l0.7-3.6C281.4,933.8,286.3,930.5,291.3,931.5
				L291.3,931.5z"/>
		</g>
		<ellipse class="st1" cx="196.3" cy="874.1" rx="14.9" ry="12.5"/>
		<circle class="st1" cx="142.5" cy="951.8" r="16.3"/>
		<circle class="st2" cx="206" cy="943.3" r="11.7"/>
		<circle class="st2" cx="162.9" cy="1000.2" r="11.3"/>
		<path class="st3" d="M86.2,921c0-39.1,18.2-75.9,49.4-99.6c-3.5,0.5-7,1.2-10.4,2c-0.7,0.2-1.5-0.1-1.9-0.7l-13.9-20.1l0.5-0.2
			c4.7-1.8,7.3-6.9,5.8-11.8c-1.6-4.9-6.9-7.6-11.8-6c-0.1,0-0.3,0.1-0.4,0.1l-17.7,6.8c-4.7,1.8-7.3,6.9-5.8,11.8
			c1.6,4.9,6.9,7.6,11.8,5.9c0.1,0,0.3-0.1,0.4-0.1l3.5-1.3l3.7,24.4c0.1,0.7-0.2,1.4-0.9,1.8c-9.7,5.5-18.5,12.5-26,20.8
			c-0.5,0.6-1.3,0.7-2,0.4l-15.9-6.9c2.6-4.2,1.4-9.7-2.8-12.3c-3.9-2.5-9-1.5-11.9,2.1l-7.6,10c-2.9,3.8-2.4,9.3,1.2,12.5
			c3.8,3.2,9.4,2.7,12.6-1.1c0.1-0.1,0.2-0.2,0.3-0.3l1-1.3l11.4,13.4c0.5,0.6,0.6,1.4,0.2,2c-6.8,11.9-11.3,24.9-13.1,38.5
			c-0.1,0.7-0.6,1.3-1.4,1.5l-23.8,5.5c0-5.5-4.4-10.1-9.9-10.2c-5.7-0.1-10.4,4.7-10.5,10.4L0,936.5c-0.1,5.6,4.4,10.1,10,10.2
			c0,0,0.1,0,0.1,0c5.6,0,10.2-4.5,10.3-10.2v-2.8l24,5.5c0.7,0.2,1.3,0.8,1.4,1.5c1.8,12.8,5.9,25.2,12.2,36.6
			c0.4,0.7,0.3,1.5-0.2,2l-15,17c-3.3-4.4-9.6-5.3-14.1-2c-0.1,0-0.1,0.1-0.2,0.1c-4.2,3.4-5,9.4-1.9,13.8l5.5,7.9
			c3.1,4.6,9.3,5.8,13.9,2.9c4.3-2.8,5.8-8.5,3.3-13.1l21.3-8.7c0.7-0.3,1.5-0.1,2,0.4c8.4,9.1,18.3,16.7,29.3,22.4
			c0.7,0.3,1,1,1,1.8l-2.9,26.1l-0.4-0.1c-6-2.2-12.9,0.9-15,6.9c-2,5.9,1,12.3,6.9,14.4l17.5,6.4c6.3,2.3,11.4-1.3,11.4-8
			c2.2-5.9-0.9-12.5-6.8-14.6c0,0,0,0,0,0l-0.5-0.2l14.2-22.3c0.4-0.6,1.1-0.9,1.9-0.8c7,1.4,14.1,2.1,21.2,2.1c0.9,0,1.7,0,2.6,0
			C111.9,1010.1,86.1,967.5,86.2,921z"/>
		<circle class="st1" cx="91.9" cy="973.1" r="11.8"/>
		<path class="st2" d="M179.4,921h-4c-2.5,0-4.5-2-4.5-4.5c0-2.5,2-4.5,4.5-4.5h4c2.5,0,4.5,2,4.5,4.5
			C183.9,919,181.9,921,179.4,921z"/>
		<path class="st2" d="M126.2,1000.1h-4.1c-2.5,0-4.5-2-4.5-4.5c0-2.5,2-4.5,4.5-4.5c0,0,0,0,0,0h4.1c2.5,0,4.5,2,4.5,4.5
			C130.7,998,128.6,1000.1,126.2,1000.1z"/>
		<path class="st1" d="M84,934.2h-4c-2.5,0-4.5-2-4.5-4.5s2-4.5,4.5-4.5c0,0,0,0,0,0h4c2.5,0,4.5,2,4.5,4.5
			C88.5,932.2,86.5,934.2,84,934.2C84,934.2,84,934.2,84,934.2z"/>
		<path class="st2" d="M164.3,855.2h-5.5c-2.5,0-4.5-2-4.5-4.5s2-4.5,4.5-4.5c0,0,0,0,0,0h5.5c2.5,0,4.5,2,4.5,4.5
			C168.8,853.1,166.8,855.2,164.3,855.2C164.3,855.2,164.3,855.2,164.3,855.2z"/>
		<path class="st1" d="M200.4,985.3h-6c-2.5,0-4.5-2-4.5-4.5c0-2.5,2-4.5,4.5-4.5h6c2.5,0,4.5,2,4.5,4.5
			C204.9,983.3,202.9,985.3,200.4,985.3z"/>
		
			<ellipse transform="matrix(0.7852 -0.6192 0.6192 0.7852 -524.1627 261.8794)" class="st1" cx="115.4" cy="886.5" rx="31.1" ry="26"/>
	</g>
	<g id="one_1_">
		<g id="_Group_2_1_">
			<path class="st0" d="M2314.6,931.5c5.1,1,8.4,5.9,7.4,11c0,0,0,0,0,0l-3.7,18.9c-1,5.1-5.9,8.4-11,7.4c-0.2,0-0.3-0.1-0.4-0.1
				c-4.9-1.3-7.9-6.2-6.9-11.2l0.1-0.5l-24.5,1.1c-0.7,0-1.4,0.5-1.6,1.2c-2.4,7.1-5.5,14-9.3,20.5c-0.4,0.6-0.3,1.5,0.2,2.1
				l10.8,12.8c4.3-4.5,11.4-4.6,15.9-0.3c4.3,4.1,4.7,10.8,0.8,15.4l-3.1,4.1c-3.6,4.9-10.5,6-15.5,2.7c-4.2-2.9-5.9-8.1-4.3-12.9
				l-15.6-6.8c-0.7-0.3-1.5-0.1-2,0.4c-7.2,7.9-15.6,14.7-24.9,20.2c-0.6,0.4-1,1.1-0.9,1.8l4,24.3l3.4-1.4
				c4.8-1.9,10.3,0.4,12.2,5.2c0.1,0.1,0.1,0.3,0.2,0.4c1.6,4.8-0.9,10-5.6,11.8l-17.6,7c-4.8,1.9-10.3-0.4-12.2-5.2
				c-0.1-0.1-0.1-0.3-0.2-0.4c-1.6-4.8,0.9-10,5.6-11.9l0.5-0.2l-14.2-19.9c-0.4-0.6-1.2-0.9-1.9-0.7c-15.6,4-32,4.5-47.8,1.2
				c-0.7-0.1-1.5,0.2-1.9,0.8l-14.2,22.4l0.5,0.2c5.9,2.2,9,8.7,6.8,14.6c0,0,0,0,0,0c0,6.7-5.1,10.3-11.4,8l-17.5-6.4
				c-5.8-2.1-8.9-8.5-6.9-14.4c2.1-6,9-9.1,15-6.9l0.4,0.1l2.9-26.1c0.1-0.7-0.3-1.4-1-1.8c-11-5.7-20.9-13.3-29.3-22.4
				c-0.5-0.5-1.3-0.7-2-0.4l-21.3,8.7c2.4,4.6,1,10.3-3.3,13.1c-4.7,2.9-10.8,1.7-13.9-2.9l-5.5-7.9c-3.1-4.4-2.3-10.4,1.9-13.8
				c4.3-3.4,10.7-2.7,14.1,1.6c0,0.1,0.1,0.1,0.1,0.2l15-17c0.5-0.6,0.6-1.4,0.2-2c-6.3-11.3-10.4-23.7-12.2-36.6
				c-0.1-0.7-0.6-1.3-1.4-1.5l-24-5.6v2.8c-0.1,5.6-4.6,10.2-10.3,10.2c-5.6,0-10.1-4.5-10.1-10.1c0,0,0-0.1,0-0.1l0.2-17.4
				c0-5.7,4.8-10.5,10.5-10.4c5.5,0.1,9.9,4.7,9.9,10.2l23.8-5.6c0.7-0.2,1.3-0.8,1.4-1.5c1.8-13.6,6.3-26.6,13.1-38.5
				c0.4-0.7,0.3-1.5-0.2-2l-11.4-13.4l-1,1.3c-3,3.9-8.6,4.7-12.5,1.7c-0.1-0.1-0.2-0.2-0.3-0.3c-3.6-3.2-4.2-8.6-1.2-12.5l7.6-10
				c3-3.9,8.6-4.7,12.5-1.7c3.7,2.8,4.6,7.9,2.1,11.9l15.9,6.9c0.7,0.3,1.5,0.1,2-0.4c7.5-8.3,16.3-15.3,26-20.8
				c0.6-0.4,1-1.1,0.9-1.8l-3.7-24.4l-3.5,1.3c-4.8,1.9-10.3-0.6-12.1-5.4c-0.1-0.1-0.1-0.3-0.1-0.4c-1.5-4.8,1-10,5.8-11.8
				l17.7-6.8c4.8-1.9,10.2,0.6,12.1,5.4c0.1,0.1,0.1,0.3,0.2,0.4c1.5,4.8-1,10-5.8,11.8l-0.5,0.2l13.9,20.1c0.4,0.6,1.2,0.9,1.9,0.7
				c8.3-2,16.7-3,25.2-3l0,0c0.8,0,1.4-0.5,1.7-1.2l4.6-12.9c-5.4-1.7-8.9-7-8.2-12.7c0.8-6.5,7-11.1,13.5-10.3l6.3,0.8
				c6.5,0.8,11.3,6.6,10.6,13.1c-0.5,4.9-4,8.9-8.8,10.2l1.6,14c0.1,0.8,0.7,1.4,1.4,1.5c10.6,2.3,20.7,6.3,30,11.7
				c0.6,0.4,1.4,0.3,2-0.2l19.1-15.5l-2.9-2.3c-4.1-3.2-4.7-9.1-1.5-13.2c0.1-0.1,0.2-0.2,0.3-0.4c3.4-3.8,9.1-4.2,13.1-1l14.9,11.8
				c4.1,3.2,4.7,9.1,1.5,13.2c-0.1,0.1-0.2,0.2-0.3,0.4c-3.4,3.7-9.1,4.2-13.1,1l-0.4-0.3l-10.2,22.2c-0.3,0.7-0.2,1.5,0.4,2
				c7.2,7.4,13.4,15.9,18.2,25.1c0.3,0.7,1.1,1.1,1.8,0.9l14.5-2c-2.1-5.9,0.9-12.3,6.8-14.4c0.1,0,0.2-0.1,0.3-0.1
				c5.9-1.8,12.1,1.3,14.2,7l3.3,9c2.2,5.7-0.4,12.1-6,14.6c-5.2,2.3-11.2,0.3-14.2-4.5l-12,8.2c-0.6,0.4-0.9,1.2-0.7,1.9
				c2.5,9.2,3.8,18.7,3.8,28.2c0,1.6,0,3.3-0.1,4.9c0,0.7,0.4,1.4,1.1,1.7l22.6,9.8l0.7-3.6C2304.6,933.8,2309.5,930.5,2314.6,931.5
				L2314.6,931.5z"/>
		</g>
		<ellipse class="st1" cx="2219.6" cy="874.1" rx="14.9" ry="12.5"/>
		<circle class="st1" cx="2165.7" cy="951.8" r="16.3"/>
		<circle class="st2" cx="2229.3" cy="943.3" r="11.7"/>
		<circle class="st2" cx="2186.2" cy="1000.2" r="11.3"/>
		<path class="st3" d="M2109.4,921c0-39.1,18.2-75.9,49.4-99.6c-3.5,0.5-6.9,1.2-10.4,2c-0.7,0.2-1.5-0.1-1.9-0.7l-13.9-20.1
			l0.5-0.2c4.7-1.8,7.3-6.9,5.8-11.8c-1.6-4.9-6.9-7.6-11.8-6c-0.1,0-0.3,0.1-0.4,0.2l-17.7,6.8c-4.7,1.8-7.3,6.9-5.8,11.8
			c1.6,4.9,6.9,7.6,11.8,6c0.1,0,0.3-0.1,0.4-0.1l3.5-1.3l3.7,24.4c0.1,0.7-0.2,1.4-0.9,1.8c-9.7,5.5-18.5,12.5-26,20.8
			c-0.5,0.6-1.3,0.7-2,0.4l-15.9-6.9c2.6-4.2,1.4-9.7-2.8-12.3c-3.9-2.5-9-1.5-11.9,2.1l-7.6,10c-2.9,3.8-2.4,9.3,1.2,12.5
			c3.8,3.2,9.4,2.7,12.6-1.1c0.1-0.1,0.2-0.2,0.3-0.3l1-1.3l11.4,13.4c0.5,0.6,0.6,1.4,0.2,2c-6.9,11.9-11.3,24.9-13.2,38.5
			c-0.1,0.7-0.6,1.3-1.4,1.5l-23.8,5.5c0-5.5-4.4-10.1-9.9-10.2c-5.7-0.1-10.4,4.7-10.5,10.4l-0.2,17.4c-0.1,5.6,4.4,10.1,10,10.2
			c0,0,0.1,0,0.1,0c5.6,0,10.2-4.5,10.3-10.2v-2.8l24,5.5c0.7,0.2,1.3,0.8,1.4,1.5c1.8,12.8,5.9,25.2,12.2,36.6
			c0.4,0.7,0.3,1.5-0.2,2l-15,17c-3.3-4.4-9.6-5.3-14.1-2c-0.1,0-0.1,0.1-0.2,0.1c-4.2,3.4-5,9.4-1.9,13.8l5.5,7.9
			c3.1,4.6,9.3,5.8,13.9,2.9c4.3-2.8,5.8-8.5,3.3-13.1l21.3-8.7c0.7-0.3,1.5-0.1,2,0.4c8.4,9.1,18.3,16.7,29.3,22.4
			c0.7,0.3,1,1,1,1.8l-2.9,26.1l-0.4-0.1c-6-2.2-12.9,0.9-15,6.9c-2,5.9,1,12.3,6.9,14.4l17.5,6.4c6.3,2.3,11.4-1.3,11.4-8
			c2.2-5.9-0.9-12.5-6.8-14.6c0,0,0,0,0,0l-0.5-0.2l14.2-22.3c0.4-0.6,1.1-0.9,1.9-0.8c7,1.4,14.1,2.1,21.2,2.1c0.9,0,1.7,0,2.6,0
			C2135.1,1010.1,2109.4,967.5,2109.4,921z"/>
		<circle class="st1" cx="2115.1" cy="973.1" r="11.8"/>
		<path class="st2" d="M2202.7,921h-4c-2.5,0-4.5-2-4.5-4.5c0-2.5,2-4.5,4.5-4.5c0,0,0,0,0,0h4c2.5,0,4.5,2,4.5,4.5
			C2207.2,919,2205.2,921,2202.7,921z"/>
		<path class="st2" d="M2149.4,1000h-4.1c-2.5,0-4.5-2-4.5-4.5c0-2.5,2-4.5,4.5-4.5h4.1c2.5,0,4.5,2,4.5,4.5
			C2153.9,998,2151.9,1000,2149.4,1000z"/>
		<path class="st1" d="M2107.3,934.2h-4c-2.5,0-4.5-2-4.5-4.5c0-2.5,2-4.5,4.5-4.5h4c2.5,0,4.5,2,4.5,4.5
			C2111.8,932.2,2109.8,934.2,2107.3,934.2z"/>
		<path class="st2" d="M2187.6,855.1h-5.5c-2.5,0-4.5-2-4.5-4.5c0-2.5,2-4.5,4.5-4.5h5.5c2.5,0,4.5,2,4.5,4.5
			C2192.1,853.1,2190,855.1,2187.6,855.1z"/>
		<path class="st1" d="M2223.7,985.3h-6.1c-2.5,0-4.5-2-4.5-4.5c0-2.5,2-4.5,4.5-4.5c0,0,0,0,0,0h6.1c2.5,0,4.5,2,4.5,4.5
			C2228.2,983.3,2226.2,985.3,2223.7,985.3C2223.7,985.3,2223.7,985.3,2223.7,985.3z"/>
		
			<ellipse transform="matrix(0.7852 -0.6192 0.6192 0.7852 -89.5503 1514.712)" class="st1" cx="2138.6" cy="886.4" rx="31.1" ry="26"/>
	</g>
	<g id="svg_3_1_">
		<g id="svg_1_1_">
			<g id="g34_1_">
				<path id="path36_1_" class="st4" d="M925.7,137.1c-7.5-6.2-18.4-9.3-32.7-9.3h-38.9v71.9H893c14.3,0,25.2-3.1,32.7-9.4
					s11.2-15.1,11.2-26.5C936.9,152.2,933.1,143.3,925.7,137.1 M937.8,295.1L898,237.6h-43.9v57.4h-47.7V88.9h89.2
					c18.3,0,34.1,3,47.6,9.1s23.8,14.7,31.1,25.9c7.3,11.2,10.9,24.4,10.9,39.8c0,15.3-3.7,28.5-11,39.6
					c-7.3,11.1-17.8,19.6-31.4,25.5l46.2,66.3L937.8,295.1L937.8,295.1z"/>
			</g>
			<g id="g38_1_">
				<path id="path40_1_" class="st4" d="M1182.4,256.8v38.3h-159.6V88.9h155.8v38.3h-108.4V172h95.7v37.1h-95.7v47.7L1182.4,256.8
					L1182.4,256.8z"/>
			</g>
			<g id="g42_1_">
				<path id="path44_1_" class="st4" d="M1240.9,292c-15.2-4.4-27.4-10.2-36.7-17.2l16.2-35.9c9.6,6.9,20.2,12.1,31.5,15.6
					c11.8,3.9,24.1,5.9,36.5,5.9c13.5,0,23.5-2,30-6s9.7-9.3,9.7-16c0.1-4.7-2-9.3-5.7-12.2c-4.4-3.5-9.4-6.2-14.7-7.8
					c-6-2-14.1-4.1-24.3-6.5c-13.1-3-25.9-6.8-38.6-11.3c-10-3.7-18.8-9.9-25.8-18c-7.2-8.2-10.8-19.2-10.8-33
					c-0.1-11.6,3.3-22.9,9.7-32.5c6.5-9.7,16.2-17.4,29.3-23.1c13.1-5.7,29-8.5,47.8-8.5c13,0,26,1.6,38.6,4.7
					c11.6,2.8,22.8,7.3,33,13.5l-14.8,36.3c-19-10.8-38.1-16.2-57.1-16.2c-13.3,0-23.2,2.2-29.6,6.5c-6.4,4.3-9.6,10-9.6,17.1
					c0,7.1,3.7,12.3,11,15.8c7.3,3.4,18.6,6.8,33.7,10.2c13.1,3,25.9,6.7,38.6,11.2c9.9,3.7,18.8,9.7,25.8,17.7
					c7.2,8.1,10.7,18.9,10.8,32.7c0.1,11.5-3.4,22.8-9.9,32.2c-6.6,9.7-16.4,17.4-29.6,23.1c-13.1,5.7-29.1,8.5-48,8.5
					C1272.1,298.6,1256.2,296.4,1240.9,292"/>
			</g>
			<g id="g46_1_">
				<path id="path48_1_" class="st0" d="M1449.9,284.9c-16.6-8.8-30.4-21.9-40-38c-9.7-16.2-14.6-34.5-14.6-54.9s4.9-38.7,14.6-54.9
					c9.6-16.1,23.4-29.2,40-38c17-9.1,36.1-13.7,57.3-13.7c17.9,0,34,3.1,48.4,9.4c14.1,6,26.5,15.3,36.4,27.1l-30.6,28.3
					c-13.9-16.1-31.2-24.1-51.8-24.2c-12.8,0-24.1,2.8-34.2,8.4c-9.8,5.4-18,13.6-23.4,23.4c-5.6,10-8.4,21.4-8.4,34.2
					s2.8,24.2,8.4,34.2c5.4,9.9,13.6,18,23.4,23.4c10,5.6,21.4,8.4,34.2,8.4c20.6,0,37.9-8.1,51.8-24.4l30.6,28.3
					c-9.8,11.9-22.3,21.3-36.5,27.4c-14.5,6.3-30.7,9.4-48.6,9.4C1485.9,298.6,1466.9,294,1449.9,284.9"/>
			</g>
			<g id="g50_1_">
				<path id="path52_1_" class="st0" d="M1645.2,274.2c-16.4-16.3-24.6-39.6-24.6-69.8V88.9h47.7v113.7c0,36.9,15.3,55.4,45.9,55.4
					c14.9,0,26.3-4.5,34.2-13.4c7.9-8.9,11.8-22.9,11.8-42V88.9h47.1v115.4c0,30.2-8.2,53.5-24.6,69.8
					c-16.4,16.3-39.3,24.4-68.8,24.4C1684.5,298.6,1661.6,290.4,1645.2,274.2"/>
			</g>
			<g id="g54_1_">
				<path id="path56_1_" class="st0" d="M2014,256.8v38.3h-159.6V88.9h155.8v38.3h-108.4V172h95.7v37.1h-95.7v47.7L2014,256.8
					L2014,256.8z"/>
			</g>
			<g id="g58_1_">
				<path id="path60_1_" class="st4" d="M1078.2,343.8v61.7h-6.4v-28.5h-38.6v28.5h-6.5v-61.7h6.5v27.5h38.6v-27.5H1078.2z"/>
			</g>
			<g id="g62_1_">
				<path id="path64_1_" class="st4" d="M1103.7,368.5c-3.1,2.9-4.9,6.9-5.2,11.1h32.9c-0.3-4.2-2.1-8.2-5.2-11.1
					C1119.9,362.8,1110.2,362.8,1103.7,368.5 M1137.3,384.3h-38.8c0.2,4.5,2.2,8.7,5.6,11.7c3.5,3,8.1,4.6,12.7,4.5
					c2.7,0,5.4-0.5,7.9-1.5c2.4-1,4.5-2.6,6.3-4.5l3.5,4c-2.1,2.5-4.7,4.4-7.7,5.6c-3.2,1.3-6.7,2-10.2,1.9c-4.4,0.1-8.8-0.9-12.6-3
					c-3.6-1.9-6.6-4.9-8.6-8.4c-2.1-3.7-3.1-7.9-3.1-12.2c-0.1-4.2,1-8.4,3-12.2c1.9-3.5,4.7-6.4,8.1-8.4c3.5-2,7.5-3.1,11.6-3
					c4-0.1,8,1,11.5,3c3.4,2,6.2,4.9,8,8.3c2,3.8,3,8,2.9,12.2L1137.3,384.3L1137.3,384.3z"/>
			</g>
			<path id="path66_1_" class="st4" d="M1150.2,340.1h6.3v65.4h-6.3V340.1z"/>
			<g id="g68_1_">
				<path id="path70_1_" class="st4" d="M1206.2,398.2c2.6-1.5,4.8-3.7,6.2-6.4c1.5-2.9,2.3-6.1,2.3-9.4c0.1-3.3-0.7-6.5-2.3-9.4
					c-1.4-2.7-3.6-4.9-6.2-6.4c-5.5-3.1-12.2-3.1-17.7,0c-2.6,1.5-4.7,3.7-6.2,6.4c-1.5,2.9-2.3,6.1-2.3,9.4
					c-0.1,3.3,0.7,6.5,2.3,9.4c1.4,2.7,3.6,4.9,6.2,6.4C1194,401.1,1200.6,401.1,1206.2,398.2 M1209.6,361.8
					c3.5,1.9,6.4,4.8,8.3,8.3c4,7.7,4,16.9,0,24.6c-1.9,3.5-4.8,6.4-8.2,8.3c-3.6,2-7.7,3.1-11.8,3c-3.5,0.1-7-0.8-10.2-2.3
					c-3-1.6-5.6-3.9-7.4-6.8v25.8h-6.3v-63.4h6v9.2c1.8-3,4.4-5.4,7.4-7c3.2-1.7,6.8-2.5,10.4-2.5
					C1201.9,358.8,1206,359.8,1209.6,361.8"/>
			</g>
			<g id="g72_1_">
				<path id="path74_1_" class="st4" d="M1237.4,341.1c0.9,0.9,1.4,2.1,1.3,3.4c0,0.8-0.1,1.5-0.3,2.3c-0.2,0.8-0.5,1.7-0.8,2.8
					l-3.8,12.2h-4.2l3.1-12.7c-1-0.3-1.8-0.8-2.4-1.6c-1.3-2-1.1-4.6,0.4-6.3c0.9-0.9,2.1-1.4,3.3-1.3
					C1235.3,339.7,1236.5,340.2,1237.4,341.1"/>
			</g>
			<g id="g76_1_">
				<path id="path78_1_" class="st4" d="M1252.3,404.3c-2.9-0.8-5.7-2.2-8.1-4.1l2.8-4.9c2.2,1.7,4.7,2.9,7.3,3.8c3,1,6,1.5,9.2,1.5
					c4.2,0,7.4-0.7,9.4-2c1.9-1.2,3.1-3.3,3-5.6c0.1-1.5-0.5-3-1.7-4c-1.2-1-2.7-1.8-4.2-2.2c-2.2-0.6-4.5-1.1-6.8-1.5
					c-3.1-0.5-6.1-1.3-9.1-2.2c-2.3-0.7-4.3-2-5.9-3.8c-1.7-2-2.6-4.7-2.4-7.3c-0.1-3.8,1.8-7.3,4.8-9.5c3.2-2.5,7.7-3.7,13.5-3.7
					c3,0,6.1,0.4,9,1.2c2.6,0.6,5.1,1.7,7.4,3.1l-2.7,5c-4-2.7-8.8-4.1-13.7-4c-4,0-7,0.7-9,2.1c-1.9,1.2-3,3.3-3,5.5
					c-0.1,1.6,0.6,3.1,1.7,4.2c1.2,1.1,2.7,1.9,4.3,2.3c2.3,0.6,4.6,1.1,7,1.5c3,0.5,6,1.2,8.9,2.1c2.2,0.7,4.2,1.9,5.7,3.6
					c1.7,1.9,2.5,4.4,2.4,7c0.1,3.9-1.8,7.5-5.1,9.6c-3.4,2.4-8.1,3.6-14.1,3.6C1259.4,405.9,1255.8,405.3,1252.3,404.3"/>
			</g>
			<g id="g80_1_">
				<path id="path82_1_" class="st4" d="M1344.6,398.2c2.6-1.5,4.7-3.7,6.1-6.4c2.9-5.9,2.9-12.9,0-18.9c-1.4-2.7-3.5-4.9-6.1-6.4
					c-5.5-3-12.2-3-17.7,0c-2.6,1.5-4.8,3.7-6.2,6.4c-3,5.9-3,12.9,0,18.9c1.4,2.7,3.6,4.9,6.2,6.4
					C1332.4,401.1,1339.1,401.1,1344.6,398.2 M1323.7,402.9c-3.5-2-6.5-4.9-8.5-8.4c-4.1-7.6-4.1-16.7,0-24.3c2-3.5,4.9-6.4,8.5-8.4
					c7.6-4,16.6-4,24.1,0c3.5,1.9,6.4,4.8,8.4,8.4c4.1,7.6,4.1,16.7,0,24.3c-2,3.5-4.9,6.4-8.4,8.4
					C1340.3,407,1331.2,407,1323.7,402.9"/>
			</g>
			<g id="g84_1_">
				<path id="path86_1_" class="st4" d="M1409.6,363.9c3.4,3.4,5.2,8.3,5.2,14.8v26.9h-6.3v-26.3c0-4.8-1.2-8.5-3.6-11
					s-5.8-3.8-10.3-3.8c-5,0-8.9,1.5-11.8,4.5c-2.9,3-4.4,7.1-4.4,12.3v24.3h-6.3v-46.3h6v8.5c1.7-2.8,4.2-5.1,7.1-6.6
					c3.3-1.6,6.9-2.4,10.5-2.3C1401.5,358.8,1406.1,360.5,1409.6,363.9"/>
			</g>
			<g id="g88_1_">
				<path id="path90_1_" class="st4" d="M1479.2,402.7c-1.3,1.1-2.8,1.9-4.4,2.4c-1.8,0.6-3.6,0.8-5.4,0.8c-4.3,0-7.7-1.2-10-3.5
					s-3.5-5.7-3.5-10v-28h-8.3v-5.3h8.3V349h6.3v10.1h14.1v5.3h-14.1v27.7c0,2.8,0.7,4.9,2.1,6.3c1.6,1.5,3.8,2.3,5.9,2.2
					c1.3,0,2.5-0.2,3.7-0.6c1.1-0.4,2.2-1,3.1-1.8L1479.2,402.7L1479.2,402.7z"/>
			</g>
			<g id="g92_1_">
				<path id="path94_1_" class="st4" d="M1528,363.9c3.4,3.4,5.2,8.3,5.2,14.8v26.9h-6.3v-26.3c0-4.8-1.2-8.5-3.6-11
					s-5.8-3.8-10.3-3.8c-5,0-8.9,1.5-11.8,4.5c-2.9,3-4.4,7.1-4.4,12.3v24.3h-6.3v-65.4h6.3v27.1c1.7-2.7,4.1-4.9,7-6.3
					c3.2-1.5,6.7-2.3,10.3-2.2C1519.9,358.8,1524.5,360.5,1528,363.9"/>
			</g>
			<g id="g96_1_">
				<path id="path98_1_" class="st4" d="M1557.1,368.5c-3,2.9-4.9,6.9-5.1,11.1h32.9c-0.2-4.2-2.1-8.2-5.2-11.1
					C1573.3,362.8,1563.6,362.8,1557.1,368.5 M1590.8,384.3H1552c0.2,4.5,2.2,8.7,5.6,11.7c3.5,3,8.1,4.6,12.7,4.5
					c2.7,0,5.4-0.5,7.9-1.5c2.4-1,4.5-2.6,6.3-4.5l3.5,4c-2.1,2.5-4.7,4.4-7.7,5.6c-3.2,1.3-6.7,2-10.2,1.9c-4.4,0.1-8.8-0.9-12.6-3
					c-3.6-1.9-6.6-4.9-8.6-8.4c-2.1-3.7-3.2-7.9-3.1-12.2c-0.1-4.2,1-8.4,3-12.2c1.9-3.5,4.7-6.4,8.1-8.4c3.5-2,7.5-3.1,11.6-3
					c4-0.1,8,1,11.5,3c3.4,2,6.2,4.9,8,8.3c2,3.8,3,8,2.9,12.2L1590.8,384.3L1590.8,384.3z"/>
			</g>
			<g id="g100_1_">
				<path id="path102_1_" class="st4" d="M1694.7,359.2l-17.5,46.3h-5.9l-14.6-38l-14.6,38h-5.9l-17.4-46.4h6l14.5,39.4l14.9-39.4
					h5.4l14.8,39.4l14.7-39.3H1694.7L1694.7,359.2z"/>
			</g>
			<g id="g104_1_">
				<path id="path106_1_" class="st4" d="M1725.8,398.6c2.6-1.7,4.6-4.1,5.6-7V384h-14.5c-7.9,0-11.9,2.8-11.9,8.3
					c-0.1,2.5,1.1,4.9,3.1,6.4c2.1,1.6,4.9,2.3,8.6,2.3C1719.9,401.1,1723.1,400.3,1725.8,398.6 M1732.8,363.4
					c3.2,3,4.8,7.5,4.8,13.4v28.7h-6v-7.2c-1.5,2.5-3.6,4.4-6.2,5.6c-3,1.4-6.4,2.1-9.7,2c-5.2,0-9.3-1.2-12.3-3.7
					c-5.4-4.5-6.1-12.5-1.6-17.9c0.4-0.5,0.8-0.9,1.3-1.4c2.8-2.4,7.4-3.6,13.6-3.6h14.7v-2.8c0-4-1.1-7-3.3-9.1
					c-2.2-2.1-5.5-3.1-9.8-3.1c-2.9,0-5.7,0.5-8.5,1.5c-2.6,0.9-4.9,2.2-7,4l-2.8-4.7c2.5-2.1,5.4-3.6,8.5-4.6
					c3.4-1.1,6.9-1.6,10.4-1.6C1724.9,358.8,1729.5,360.3,1732.8,363.4"/>
			</g>
			<g id="g108_1_">
				<path id="path110_1_" class="st4" d="M1792.8,359.2l-23.2,51.9c-1.9,4.3-4.1,7.4-6.5,9.3c-2.6,1.9-5.7,2.8-8.9,2.7
					c-2.1,0-4.2-0.3-6.3-1.1c-1.9-0.7-3.6-1.8-5-3.2l2.9-4.7c2.2,2.3,5.3,3.6,8.5,3.5c2,0.1,3.9-0.6,5.4-1.8c1.8-1.7,3.3-3.7,4.2-6
					l2-4.5l-20.7-46.3h6.5l17.4,39.4l17.4-39.4L1792.8,359.2L1792.8,359.2z"/>
			</g>
		</g>
		<g id="svg_2_1_">
			<g id="g22_1_">
				<path id="path24_1_" class="st0" d="M362.5,226.6c0,0,123.8,0,189.5,27.6c0,0,149.5,33.2,135.9,229.5H567
					c0,0,9.7-96.3-10.8-140.6c0,0-29.2-85.3-138.4-91.1l3.6,150.5l-58.8,84.5L362.5,226.6L362.5,226.6z"/>
			</g>
			<g id="g26_1_">
				<path id="path28_1_" class="st4" d="M361.9,47c0,0,57.5-1,57.5,0v51.7h50.1v57.2h-50.4v52.3h-57.2v-52h-53.6V98.7h53.6V47z"/>
			</g>
			<g id="g30_1_">
				<path id="path32_1_" class="st4" d="M663.5,107.4c-5.5-11.7-12.5-22.6-21.1-32.2c-69.7-72.7-196-50.4-196-50.4h-2v46.2
					c111.2-5.5,129.4,70.2,129.4,70.2c3.9,13.8,5.2,28.3,3.7,42.6c1.7-9.9,1.1-6-0.1,0.9c-0.7,6.9-1.9,13.7-3.6,20.4
					c-1.7,8.9-4.5,17.5-8.5,25.6c-3.9,9.5-8.5,18.6-13.6,27.5c-12.7,18.9-29.1,34.7-36.2,41.1l-3.5,3.1l0,0l0,0l-0.4,0.3
					c-11.8,12.2-24.3,23.7-37.3,34.5C374,434.3,362.5,486.9,362.5,486.9C400.6,432.8,472.8,389.3,513,368c3.3-1.8,6.5-3.4,9.3-4.8
					l0,0l0.9-0.5c8.1-4.2,66.6-35.4,110.5-87.3l1.1-1.3c3.2-3.9,6.4-7.9,9.6-12.1c29.4-41.1,31.4-89.1,31.5-92.2
					C675.8,148.4,671.5,127.2,663.5,107.4"/>
			</g>
		</g>
	</g>
	<g>
		<path class="st5" d="M975.2,595.7c-2.8-2.5-5.8-4.8-8.9-7c-3.6-2.5-7.3-4.8-11.1-6.9c-3.6-2.1-7.6-3.7-11.6-4.8
			c-4.1-1-8.2-1.6-12.4-1.6c-6.2,0-12.6,2.2-19.1,6.5c-7.2,4.7-11,10-11.4,15.9l3.3,7.9h9l8.5,8.3h-14.5v86.8l-8.5-8.3v-78.4h-12.6
			l-8.2-8.3h22.1l-5.8-5.5c-2.2-2.2-3.3-4.4-3.3-6.7c0-6.7,3.8-13.1,11.3-19c7.3-5.5,14.4-8.3,21.2-8.3c17.6,0,34.4,8.3,50.4,24.9
			L975.2,595.7z"/>
		<path class="st5" d="M984.7,614.1v89.3l-6.5-4.2l0.6-8.8c0.1-9.4-2.1-19.2-6.5-29.4c-6.6-11.6-14.3-17.3-23.1-17.3
			c-0.8,0-1.7,0.3-2.4,0.7c3.7,4.8,5.5,8.4,5.5,10.5c0.1,3.3-1,6.5-3.1,9c-2.1,2.4-5.1,3.8-8.3,3.6c-10.7,0-16-5.2-16-15.6
			c-0.1-5.3,2-10.4,5.9-13.9c4-3.7,9.1-5.7,14.5-5.7c11.7,0,21.9,9.2,30.8,27.6h0.3v-46h-58.4l-8.2-8.3h80.8l8.6,8.3L984.7,614.1z"
			/>
		<path class="st5" d="M1049.8,614.1c-5.8,1.3-11.3,3.7-16.2,7c-4.6,3.2-8.5,7.2-11.6,11.8c-2.9,4.6-5.1,9.6-6.5,14.8
			c-1.5,6-2.3,12.1-2.2,18.2c0,5.7,1.7,11.2,4.8,16c5.3,7.4,10.5,10.4,15.6,8.9c-1.7-1-3.1-2.4-4.1-4.2c-0.8-1.5-1.3-3.2-1.3-4.9
			c0-2.6,1.2-5,3.2-6.5c1.9-1.7,4.4-2.7,7-2.7c2.8,0,5.4,1.2,7.1,3.3c2,2.4,3.1,5.4,3,8.5c0,1.9-0.4,3.8-1.2,5.5
			c-0.8,1.7-1.9,3.2-3.3,4.4c-1.4,1.3-3,2.2-4.8,2.9c-1.8,0.7-3.8,1-5.7,1c-9.7,0-17.1-4.8-22.3-14.5c-4.4-7.9-6.5-17.1-6.5-27.4
			c0-14.4,5.9-28.5,17.7-42.3h-27.5l-8.3-8.3h55L1049.8,614.1z"/>
		<path class="st5" d="M1109.4,614.1v88.3c-2.3-1.7-5.3-5.9-9.2-12.8c-4.2-7.2-8.2-12.5-12-15.9c-6.3-4.9-14.5-7.7-24.6-8.2
			l-11.1-14.4c4.4-4.3,8.8-8.3,13.1-12.2s8.3-7.1,11.9-9.8c-1.7-1.6-3.7-2.8-5.8-3.7c-2.9-1.4-6.7-3-11.4-4.8
			c-11.2-3.3-18.8-8.3-23-15h77l8.6,8.3L1109.4,614.1z M1066.5,687.7c0-2.3,0.9-4.5,2.5-6.1c1.5-1.6,3.7-2.5,5.9-2.5
			c4.7,0,8.6,3.9,8.6,8.6c0,2.2-0.9,4.4-2.5,5.9c-1.6,1.6-3.8,2.6-6.1,2.5C1070.4,696,1066.6,692.3,1066.5,687.7L1066.5,687.7z
			 M1101.3,614.1h-31.9c3.3,2.2,6.4,4.7,9.2,7.6c4.1,4,7.9,8.3,11.6,12.8c-3.3,3.2-6.7,6.5-10.1,9.9c-3.4,3.4-6.8,7-10.2,10.8
			c13.6,4.7,24,13.2,31.2,25.2h0.3L1101.3,614.1z"/>
		<path class="st5" d="M1260,701.5c-1.3-0.7-2.3-2.4-3.1-5.3c-0.9-2.5-1.7-4.6-2.5-6.3c-0.7-1.5-1.4-2.9-2.4-4.2
			c-3-3.8-7.1-5.6-12.3-5.6c-4.3,0.1-8.5,0.6-12.8,1.3c-2.9,0.4-5.4,0.7-7.5,0.8s-3.9,0.2-5.4,0.2c-20.3,0-30.4-10.4-30.4-31.3
			c-0.1-4.2,0.6-8.3,1.9-12.2c1.2-3.5,3-6.7,5.3-9.6l3.1,3.3c-1.5,2.5-2.6,5.2-3.3,8c-0.9,3.3-1.3,6.7-1.3,10.1
			c-0.1,3.2,0.5,6.4,1.8,9.4c1,2.4,2.8,4.5,5,6c2,1.1,4.2,1.9,6.5,2.4c3.1,0.6,6.2,0.9,9.3,0.9h3.5c1.5,0,3,0,4.5-0.2l7.9-0.3
			c8.7,0,17,3.3,24.8,9.9v-62.9c0-1.7-2-2.5-5.9-2.5c-2.6,0-5.2,0.8-7.3,2.2c-2.7,1.8-5.1,4-7.2,6.5c-2,2.4-3.7,5-5.2,7.7
			c-1.4,2.6-2.4,5.3-3,8.2c1.9-0.3,3.9-0.4,5.8-0.5c4.1,0,6.1,3.2,6.1,9.5c0.1,2.8-1.1,5.5-3.3,7.2c-2.3,1.8-5.1,2.7-8,2.6
			c-3.8,0.1-7.5-1.3-10.3-3.9c-2.8-2.7-4.2-6.4-4.1-10.2c0-8.9,3.8-17.4,11.3-25.5c3.5-3.6,7.5-6.6,11.9-8.9
			c3.9-2.1,8.2-3.2,12.6-3.3c2.7,0,5.9,1.6,9.6,4.8c3.6,3,5.3,5.8,5.3,8.5v83.5L1260,701.5z"/>
		<path class="st5" d="M1327.8,614.1c-5.8,1.3-11.3,3.7-16.2,7c-4.6,3.2-8.5,7.2-11.6,11.8c-2.9,4.6-5.1,9.6-6.5,14.8
			c-1.5,6-2.3,12.1-2.2,18.2c0,5.7,1.7,11.2,4.8,16c5.3,7.4,10.5,10.4,15.6,8.9c-1.7-1-3.1-2.4-4.1-4.2c-0.8-1.5-1.3-3.2-1.3-4.9
			c0-2.6,1.2-5,3.2-6.5c1.9-1.7,4.4-2.7,7-2.7c2.8,0,5.4,1.2,7.1,3.3c2,2.4,3.1,5.4,3,8.5c0,1.9-0.4,3.8-1.2,5.5
			c-0.8,1.7-1.9,3.2-3.3,4.4c-1.4,1.3-3,2.2-4.8,2.9c-1.8,0.7-3.8,1-5.7,1c-9.7,0-17.1-4.8-22.3-14.5c-4.4-7.9-6.5-17.1-6.5-27.4
			c0-14.4,5.9-28.5,17.7-42.3h-27.6l-8.3-8.3h55L1327.8,614.1z"/>
		<path class="st5" d="M1398.5,614.1v87.7l-8.6-8v-47.5c0-2.9-1.1-5.7-3.2-7.8c-2-2.2-4.7-3.4-7.6-3.3c-4.7,0-7.1,2.9-7.1,8.6
			c0.1,1.8,0.3,3.5,0.7,5.2l-3.4,1.3c-0.7-4.4-3.1-8.3-6.7-11c-3.5-2.9-7.9-4.4-12.5-4.3c-2,0-4.1,0.4-5.9,1.3
			c-1.8,0.8-3.5,1.9-5,3.3c-1.5,1.4-2.6,3.1-3.4,5c-0.8,1.9-1.3,3.9-1.3,6c0,6.7,4,10.7,12,11.9c-1.8-2.7-2.7-5-2.7-7
			c0-2.4,1.1-4.7,2.9-6.3c1.7-1.7,4-2.7,6.4-2.7c7.6,0.5,11.4,4.6,11.4,12.3c0,3-1.3,6-3.6,8c-2.3,2.1-5.6,3.3-9.9,3.6
			c-3.3,0-6.7-0.5-9.8-1.7c-2.9-1.1-5.5-2.7-7.6-4.8c-2.2-2.1-3.9-4.7-5-7.5c-1.2-3.1-1.8-6.4-1.8-9.7c0-5.6,1.6-11.2,4.8-15.9
			c3.6-5.3,8.1-8,13.7-8c7.1,0,13.5,3.7,19.1,11c0.1-2.7,1.3-5.3,3.4-7.1c2.3-2.3,4.5-3.4,6.8-3.4c6.9,0,12.1,4.6,15.4,13.8v-22.8
			h-67.9l-8.6-8.3h91.8l8.4,8.3H1398.5z"/>
		<path class="st5" d="M1429.1,614.1v86.8l-8-8.3V631c0-2.4-0.5-4.8-1.5-7c-1-2-2.3-3.8-4.1-5.3c-1.8-1.5-3.8-2.6-5.9-3.4
			c-2.2-0.8-4.5-1.3-6.9-1.3l-8.3-8.3h9.5c5,0,9,1.1,11.7,3.3c2.8,2.2,5,5.9,6.7,11c0-1.7-0.1-3.8-0.2-6.2c-0.1-2.5-0.3-5.4-0.6-8.8
			c-0.2-3.3-0.3-6.1-0.4-8.5c-0.1-2.4-0.2-4.5-0.2-6.2l3,2.5c1,5.9,2.7,10.2,5.2,12.8h7.4l8.2,8.3L1429.1,614.1z"/>
	</g>
	<g>
		<path class="st0" d="M659.1,909.8c-2.5-4-5.1-7-7.7-9.2l0,0c-2.8-2.3-5.6-3.6-8.4-3.9l-1.5-0.1l-0.8,1.3c-1.5,2.2-2.9,4.4-4.3,6.6
			c-1.3,2-2.9,4-4.7,5.9c-2.3,2.2-4.5,3.8-6.6,4.8c0.9-2,1.4-3.8,1.4-5.6c0-3.9-1.5-7.1-4.6-9.7c-2.9-2.5-6.4-3.7-10.3-3.7
			c-15.1,0-18.2,9.2-18.2,16.8c0,6.5,2.7,11.7,8,15.7c4.6,3.8,10.3,5.7,16.7,5.7c12,0,22.6-4.7,31.4-14.1c0.6,1,1.4,3.7,1.4,10.1
			c0,6-2.3,11-7,15.3c-4.7,4.3-10.1,6.4-16.5,6.4c-6.5,0-12.7-1.5-18.4-4.5c-5.8-3-11.1-7.3-15.9-12.7c-3.3-4.4-6.6-9.7-9.9-15.7
			c-3.3-6.1-6-12.7-8.3-19.6l-0.4-1.3l-11.9-3.6l1.7,4.7c3.8,10.7,7.3,20,10.5,27.7c3.2,7.8,6.2,13.8,8.9,18
			c11.2,17.9,25.3,27,41.9,27c12,0,21.8-4.3,29.4-12.9c3.5-4,6.1-8.4,7.8-13.3c1.7-4.8,2.5-10.1,2.5-15.9c0-5.7-2-12.5-5.9-20
			L659.1,909.8z"/>
		<path class="st0" d="M750.7,918L750.7,918c-1.5-2.9-3.5-5.6-5.8-8.1c-2.3-2.4-5.1-4.5-8.1-6.1l-1.5-0.8l-1.3,1.1
			c-2.2,1.8-4.3,4.1-6.1,6.6c-1.7,2.3-3.5,4.6-5.4,6.7c-1.7,2-3.7,3.6-5.8,4.8c-1.3,0.8-2.8,1.1-4.5,1.2v-31.5h57.9l-14.4-14.1
			H556.8l-2.8-6.4c0.6-5.2,4.6-10.1,11.9-14.6c7.1-4.4,14-6.7,20.6-6.7c4.7,0,9.3,0.5,13.7,1.5c4.4,1,8.6,2.7,12.8,4.9
			c4.7,2.4,8.9,4.9,12.5,7.3c3.7,2.5,7,5,10,7.5l7.6,6.4l-5.7-14.6l-0.4-0.4c-18.8-18.4-38.9-27.7-59.8-27.7c-8.3,0-17,3.2-25.9,9.5
			c-9.3,6.9-14,14.5-14,22.6c0,3.2,1.5,6.2,4.6,9.1l1.7,1.5h-11.5c-2.1-2.5-3.6-6.4-4.6-11.7l-0.2-0.9l-8.3-6.6v5.3
			c0,1.9,0.1,4.1,0.2,6.8c0.1,2.6,0.3,5.7,0.5,9.4c0.2,1.8,0.3,3.5,0.4,5.1c-1-1.2-2.1-2.2-3.2-3.1c-0.9-0.7-1.8-1.2-2.9-1.7
			l-2.6-2.4H383.4l5.3,4.9c-2.8,1.5-5.4,3.1-7.8,4.9l-0.3,0.2c-6.3,6.3-11.3,13.4-14.8,21.2c-3.5,7.8-5.5,16.5-5.9,26
			c0,11.6,2.6,22.1,7.8,31c6.4,11.3,15.7,17,27.6,17c2.7,0,5.2-0.4,7.6-1.3c2.4-0.8,4.5-2.1,6.3-3.6c1.8-1.6,3.3-3.4,4.4-5.5
			c1.1-2.2,1.6-4.5,1.6-7.1c0-4.4-1.4-8.1-4.1-11c-2.8-2.9-6.1-4.4-10-4.4c-1.8,0-3.5,0.3-5.2,1c-1.7,0.6-3.2,1.5-4.5,2.6
			c-1.3,1.1-2.4,2.4-3.2,3.8c-0.9,1.6-1.4,3.3-1.4,5.1c0,2.3,0.6,4.5,1.8,6.5c0.2,0.3,0.4,0.7,0.6,1c-3.6-1.1-6.8-4-9.6-8.7
			l-0.1-0.1c-3.2-4.8-4.9-10.1-4.9-15.9c0-7,0.8-13.4,2.5-19c1.6-5.6,4-10.8,7.1-15.3c3.4-4.9,7.7-9,12.6-12.2
			c4.9-3.2,10.8-5.6,17.5-7.1h44.8v3.1c-20.2,6.4-38.5,15.6-54.4,27.5l-2.2,1.6l15.9,18.6l1,0.1c10.1,1.1,19.3,5.6,27.5,13.3
			c3.6,3.4,7,7.3,10,11.7c3,4.4,5.7,9.2,7.9,14.2c0.5,1.1,1.3,1.9,2.5,2.6c0.9,0.5,1.9,0.9,2.9,1l2.9,0.5v-75.4
			c7.7,0.3,13.7,2.7,17.8,6.9l0.1,0.1c3.8,3.6,6.1,7.5,6.8,11.8c-0.3-0.2-0.7-0.4-1-0.6c-1.9-1.1-4.1-1.6-6.4-1.6
			c-3.8,0-7.1,1.2-9.7,3.5c-2.7,2.4-4.1,5.5-4.1,9.1c0,2,0.5,3.9,1.4,5.6c0.9,1.6,2.1,3,3.5,4.2c1.4,1.1,3,2,4.7,2.7
			c1.8,0.7,3.6,1.1,5.5,1.1c2.6,0,5.1-0.5,7.4-1.6c2.2-1.1,4.2-2.5,5.8-4.3c1.6-1.8,2.8-3.8,3.7-6.1c0.9-2.3,1.4-4.8,1.4-7.3
			c0-9.8-3.5-18.9-10.3-27c-6.8-8.5-15.6-13.1-26.4-13.7v-1.6h27.5c2.4,0,4.8,0.4,7.1,1.2c2.3,0.8,4.3,1.9,6.1,3.3
			c1.7,1.3,3,2.9,4,4.8c1,1.9,1.4,4,1.4,6.4v67.7l14.3,14v-97.4h12.7v83.5l14.8,13.7v-97.2H665l0.4,3.8c5.2,52.6,23,79.2,52.8,79.2
			c11.6,0,20.9-3.7,27.6-11.1c6.4-7,9.7-16,9.7-26.9c0-3.2-0.4-6.5-1.3-9.7C753.4,924,752.2,920.9,750.7,918z M458.7,912.9v36.9
			c-7-9.5-16.3-17-27.9-22.4c5-3.1,9.7-5.9,14.2-8.3C449.5,916.8,454.1,914.7,458.7,912.9z M697.9,891.9v28.3
			c0,18,8.6,21.8,15.8,21.8l0.3,0c2.9-0.3,5.9-1.1,8.9-2.2c2.9-1.1,5.7-2.6,8.3-4.3c2.6-1.7,5-3.8,7-6.1c1.1-1.3,2.1-2.7,2.9-4.1
			c1.7,2.4,2.5,4.8,2.4,7.4c-0.1,3.8-1.3,7.1-3.7,10.3c-2.4,3.2-5.8,5.9-9.9,8c-4.1,2.1-8.5,3.1-13.1,3c-12.9,0-22.6-6.3-29.8-19.4
			c-2.7-4.8-5-10.5-6.8-16.8c-1.8-6.4-3-13-3.7-19.6l-0.1-1.5l-10.4-4.8H697.9z"/>
		<path class="st0" d="M809.9,940.3l-3.9-3.7h-45.2l-0.7,1.3c-0.6,1.2-1.2,2.4-1.7,3.8c-0.5,1.4-0.9,2.7-1.1,4l-0.3,1.4l3.8,3.6H806
			l0.7-1.4c0.5-1,1-2.2,1.5-3.7c0.5-1.4,0.9-2.7,1.2-3.9L809.9,940.3z"/>
		<path class="st0" d="M849.3,907.2L849.3,907.2c-3.7-3.7-8.1-7.9-13.2-12.6c0-0.6,0.1-1.1,0.1-1.6v-2.3c0-13-7.5-14.9-11.9-14.9
			c-4.1,0-7.6,1.4-10.4,4.3c-2.7,2.8-4.1,6.2-4.1,10.1c0,2.6,1.3,5.8,4,9.8c2.5,3.8,5.5,7.2,9,10.1c3.6,3,7.4,6.2,11.2,9.5
			c3.8,3.4,7.5,6.6,11,9.7c7.4,7.1,11.1,13,11.1,17.6c0,2-0.4,4-1.2,5.9c-0.6,1.3-1.5,2.7-2.6,4c-4.7-3.8-11.3-5.7-19.7-5.7
			c-5.7,0-11,1.9-16,5.6c-5,3.7-7.5,8.4-7.5,14.1c0,4.6,2.5,8.6,7.4,11.9c3.8,2.8,8.3,4.1,13.4,4.1c10.4,0,20-3.8,28.8-11.4
			c8.7-7.6,13.1-16.7,13.1-26.8c0-9.5-4.4-19.9-13-30.8C856.5,914.8,853.3,911.2,849.3,907.2z"/>
		<path class="st0" d="M945.2,914.9c-2.3-1.9-4.7-3.6-7.2-5c-2.4-1.4-5-2.7-7.8-3.9c-2.7-1.2-5.5-2.4-8.4-3.5
			c-2.7-1-5.4-2.1-7.9-3.2l-0.2-0.1c-5.3-2-9.5-3.8-12.4-5.6c-1.3-0.8-2.1-1.4-2.6-1.8c2.1-2.2,3.2-4.5,3.3-6.8
			c0.1-3.1-0.8-5.9-2.8-8.3c-2-2.4-4.9-3.8-8.6-4c-3.8-0.3-7,1.2-9.5,4.1c-2.3,2.8-3.5,6.3-3.6,10.4c-0.1,4.9,1.5,9.5,4.9,13.6
			c3.2,3.9,7.6,7.6,13.1,11c4.4,3,9.4,5.5,14.9,7.6c5.3,1.9,10.5,4.2,15.4,6.6c4.8,2.4,9,5.2,12.4,8.4c3.2,3,5.1,6.8,5.8,11.7
			c0,1.7-0.4,3.3-1.2,4.7c-0.9,1.6-2,3-3.4,4.1c-1.5,1.3-3.2,2.5-5.1,3.6c-0.1,0.1-0.2,0.1-0.4,0.2c0.4-2.1,0.5-4.1,0.4-6.1
			c-0.1-3.6-1-7.2-2.5-10.6c-1.5-3.4-3.6-6.4-6.2-9c-2.6-2.6-5.6-4.7-9-6.2c-3.5-1.5-7.3-2.3-11.4-2.1c-4.5,0.1-8.8,1.1-12.5,2.9
			c-3.8,1.8-7,4.2-9.5,7c-2.5,2.9-4.5,6.2-5.9,9.9c-1.4,3.7-2,7.5-1.9,11.3c0,2.3,0.3,4.8,0.9,7.5c0.6,2.7,1.6,5.2,2.9,7.6
			c1.4,2.5,3.5,4.7,6.3,6.5c2.9,1.9,6.2,2.8,9.7,2.8c0,0,0,0,0,0c4,0.1,7.3-0.8,9.9-2.9c2.6-2.1,4.2-5.1,4.8-9.1l0-0.3
			c0-4.3-1.4-7.4-4.1-9.4c-2.5-1.8-5.1-2.7-7.8-2.8c-1.9-0.1-3.4,0.1-4.7,0.4c0,0,0,0,0-0.1c-0.2-0.9-0.4-1.7-0.5-2.6
			c0.2-2,0.5-4,1-6c0.4-1.6,1.1-3.1,2.4-4.4c1.7-1.7,2.8-2.4,3.5-2.7c1.1-0.4,2.6-0.7,4.4-0.8c2.3,0,4.2,0.5,5.9,1.4
			c1.7,1,3.2,2.2,4.4,3.6c1.1,1.4,2,3.2,2.5,5.2c0.6,2.2,0.9,4.3,1,6.2c-0.1,1.8-0.3,3.5-0.7,5.3c-0.4,1.8-0.9,3.6-1.5,5.4
			c-0.6,1.9-1.2,3.8-1.8,5.6c-0.6,2-1,4-1.3,6.1l-0.3,2.9l2.9-0.1c4.7-0.1,9.8-0.9,15.1-2.4c5.3-1.5,10.2-3.6,14.6-6.3
			c4.5-2.7,8.2-6.1,11.2-10.1c3.1-4.2,4.6-9,4.5-14.3c0.1-7.8-1.5-14.6-4.9-20.2C952.8,922.4,949.2,918,945.2,914.9z"/>
		<path class="st0" d="M1100.1,895.3L1100.1,895.3c-0.3-1.2-0.7-2.4-1.1-3.4h16.5l-9.5-8.3l-6-5.8H992.6l14.6,14.2h1
			c23.3,0,31.4,0,33.9,0.1c0,0.1,0,0.3,0,0.5c0,0.7-0.1,1.7-0.3,2.9c-0.2,1.3-0.5,2.5-0.9,3.8c-0.4,1.3-0.8,2.6-1.3,3.8
			c-0.3,0.8-1.1,2.3-3.1,5.2c-1.3,1.8-3.2,2.8-5.9,3c-1.4-0.1-2.5-0.5-3.4-1.2c-1.1-0.9-2.2-2-3.2-3.4l-2.2-3.1l-6.4,10.3l0.7,1.3
			c0.9,1.5,2,3.1,3.3,4.6c1.3,1.5,2.6,2.8,3.9,4.1l0.3,0.3c2,1.4,4,2.5,5.9,3.3c2.1,1,4.1,1.4,6.1,1.4c5.3,0,10.4-3.5,15-10.4
			c1.9-2.7,3.4-5.3,4.7-8c1.4,2.9,3.6,5.8,6.4,8.6l0.1,0.1c2.8,2.4,5.5,4.2,8,5.4c0.3,0.2,0.7,0.3,1,0.4c-3.7,2.2-7.4,4.5-11,6.8
			c-6,3.8-12.6,8-19.4,12.6l-2.3,1.5l11.1,14.2l1.2,0c3.7,0.1,7.1,0.5,10.1,1.2c2.9,0.7,5.3,1.7,7.1,3c1.4,1,3.8,3.3,7.7,9.1
			l0.1,0.1c3.4,4.5,7,7.7,10.8,9.6l3.7,1.8v-59.3c0.7-0.3,1.4-0.7,2.1-1.1l0.1-0.1c3.3-2.4,5.7-5.4,7.1-8.9c1.3-3.3,2-6.9,2-10.6
			c0-1.4-0.1-2.9-0.3-4.6C1100.9,898.6,1100.5,896.9,1100.1,895.3z M1088.4,903.5c0,1.6,0,6-10.6,6c-4.4,0-8.1-1.6-11.3-4.8
			c-0.7-0.8-1.4-1.7-2-2.9c-0.6-1.2-1.1-2.6-1.4-4c-0.4-1.5-0.7-3-0.9-4.6c-0.1-0.4-0.1-0.9-0.2-1.3h22c1.3,0.6,2.1,1.3,2.3,1.9
			c0.5,1.3,0.8,2.5,1.1,3.6c0.3,1.2,0.5,2.3,0.6,3.5C1088.3,902,1088.4,902.9,1088.4,903.5z M1076.3,940.5v17.6c-4.3-4.1-9-7-14-8.9
			C1067.2,945.9,1071.9,943,1076.3,940.5z"/>
		<path class="st0" d="M1105.9,936.6l-0.7,1.3c-0.6,1.2-1.2,2.4-1.7,3.8c-0.5,1.4-0.9,2.7-1.1,4l-0.3,1.4l3.8,3.6h45.2l0.7-1.4
			c0.5-1,1-2.2,1.5-3.7c0.5-1.4,0.9-2.7,1.2-3.9l0.4-1.5l-3.9-3.7H1105.9z"/>
		<path class="st0" d="M1411.8,957.2c-3.3,0-6.2,1.2-8.6,3.4c-2.5,2.3-3.7,5.1-3.7,8.4c0,3.2,1.2,6,3.7,8.3c2.4,2.3,5.3,3.4,8.6,3.4
			c3.4,0,6.3-1.2,8.7-3.4c2.5-2.3,3.7-5.1,3.7-8.3c0-3.3-1.2-6.1-3.7-8.4C1418.2,958.3,1415.2,957.2,1411.8,957.2z"/>
		<path class="st0" d="M1373.2,877.8c-2.1-2.5-3.6-6.4-4.6-11.7l-0.2-0.9l-8.3-6.6v5.3c0,1.9,0.1,4.2,0.2,6.8
			c0.1,2.6,0.3,5.8,0.5,9.4c0,0.5,0.1,0.9,0.1,1.4l-3.7-3.5H1131l14.7,13.6c3.7,4.7,6.8,7.8,9.4,9.4c1.7,1,3.9,2.1,6.4,3.1
			c2.5,1,5.6,2.1,9.1,3.1c7.5,2,10.7,3.9,12,5c2.4,2.3,3.8,5.9,4.3,10.7c-1.5-0.3-3.1-0.5-4.8-0.5c-6.3,0-11.5,1.5-15.3,4.4
			c-4.6,3.5-7,8.2-7,14.1c0,5.1,1.9,9.4,5.5,12.7c3.6,3.3,8,4.9,13.2,4.9c2.8,0,5.9-0.7,9.1-1.9c2.9-1.2,5.8-3.3,8.6-6.3
			c9.4,3.4,16.5,11.6,21.2,24.2l0,0.8c-1.1-0.1-2.2-0.2-3.4-0.2c-5.8,0-10.8,1.6-14.8,4.7c-2.4,1.7-4.2,3.8-5.3,6.2
			c-1.1,2.3-1.7,4.9-1.7,7.8c0,5.1,2.1,9.6,6.3,13.4c4,3.8,8.8,5.7,14.1,5.7c6.4,0.1,12.7-1.6,18.8-5.1l29.9,24l0.3-15.7l-31-25.2
			l-1.6,1.2c-3.3,2.5-6.4,4.1-9.2,4.8c-2.8,0.6-5.1,0.8-6.8,0.5l-0.3,0c-2.7-0.1-3.8-0.7-4.2-1.1c-0.7-0.6-1-1.2-1.1-1.8
			c-0.1-1.5,0.1-3.6,4-5.8c1.9-0.6,3-0.8,3.6-0.8c1.1-0.1,2.8-0.1,5.1-0.1c1.4,0,3,0.3,4.7,0.8l2.9,1l0.4-3c1.3-8.4,1.2-10.7,1-11.8
			l-0.1-0.5l-0.3-0.4c-0.1-0.2-0.3-0.4-0.4-0.6v-81.2h78.1v12.3c-4-5.1-9.1-7.6-15.2-7.6c-3.3,0-6.5,1.5-9.5,4.3
			c-1.5,1.4-2.7,2.9-3.5,4.4c-6.2-6.1-13.1-9.2-20.7-9.2c-7.2,0-13.2,3.3-17.8,9.8c-3.9,5.7-5.9,11.9-5.9,18.6
			c0,4.2,0.8,8.1,2.3,11.5c1.5,3.5,3.6,6.5,6.3,9c2.7,2.5,5.9,4.4,9.6,5.7c3.7,1.3,7.7,2,12.1,2l0.2,0c5.5-0.4,9.9-1.9,12.9-4.5
			c3.2-2.7,4.8-6.3,5-10.6c0-9.8-5.4-15.2-15.5-15.9l-0.2,0c-3.4,0-6.4,1.2-9.1,3.6c-2.8,2.5-4.2,5.4-4.2,8.7c0,1.2,0.2,2.4,0.7,3.7
			c-5.6-2.2-6.3-6.1-6.3-9c0-1.9,0.4-3.7,1.2-5.4c0.8-1.8,1.9-3.3,3.3-4.6c1.4-1.3,3.1-2.4,5-3.2c1.8-0.8,3.8-1.2,5.8-1.2
			c4.9,0,9.1,1.4,12.8,4.2c3.7,2.7,5.9,6.1,6.7,10.3l0.6,3l8.9-3.3l-0.5-2.2c-0.5-2.1-0.8-3.8-0.8-5c0-6,2.7-6.8,5.6-6.8
			c2.7,0,5,0.9,7,2.9c2,1.9,2.9,4.1,2.9,6.6v52.5l15,13.1v-2.4l1.4,1l1.2-0.3c3.4-1,6.9-2.4,10.3-4.2c3.4-1.8,6.5-3.8,9.2-6.1
			l0.3-0.3c3-3.3,5.4-6.8,7.1-10.3c1.7-3.7,2.6-7.4,2.6-11.1c0-2.9-0.3-6.4-0.9-10.6c-0.6-4.1-1.4-9-2.4-14.5
			c-1.8-8.2-2.6-16.3-2.5-24.2c0.6-5.7,2.2-9.8,4.9-12.2c1,0.5,1.9,1.1,2.7,1.8c1.7,1.3,3,2.9,4,4.8c0.9,1.9,1.4,4,1.4,6.4v67.7
			l14.3,14v-97.4h2.5c4.6,2.9,10.4,5.3,17,7.1c5.3,1.9,9.6,3.6,12.8,5c1.4,0.6,2.5,1.2,3.3,1.7c-3.4,2.5-7.1,5.4-11,8.7
			c-4.9,4.2-10,8.6-15.2,13.2l-1.8,1.6l15,18.3l1.1,0.1c11,0.5,20,3.3,26.9,8.3c4.2,3.4,8.6,9,13.2,16.5c4.7,7.8,8.4,12.5,11.3,14.6
			l4,2.8v-97.9h67v38.2c-9.7-15.5-20.8-23.4-33.3-23.4c-6.8,0-13,2.3-18.4,6.7c-5.1,4.4-7.7,10.2-7.7,17c0,8.9,3.6,19.4,21,19.4
			c4.7,0,8.6-1.6,11.4-4.8c2.8-3.1,4.2-6.9,4.2-11.4c0-2.4-1.4-5.5-4.3-9.6c8.4,0.7,15.9,6.6,22.5,17.4c4.9,10.6,7.3,20.8,7.2,30.5
			l-0.8,11l12.7,7.6v-98.6h20.7l-15.5-14.1H1373.2z M1419.4,923.9c3.8-3.6,7.7-7.2,11.5-10.6l1.9-1.7l-1.7-1.9
			c-4.8-5.5-9.3-10.2-13.5-14c-1.5-1.4-3-2.6-4.3-3.8h26.2v61.6c-7.4-9.3-17.1-16.3-29-20.9C1413.5,929.6,1416.5,926.7,1419.4,923.9
			z M1328.1,920.8c0,4.7,1.3,10.9,3.9,19c1.2,3.9,2.1,7.3,2.7,10.3c0.6,2.9,0.9,5.3,0.9,7.3c0,6.1-1.2,10.6-3.5,13.3
			c-1.7,2-3.9,3.7-6.6,5.1c-1.4,0.8-2.9,1.5-4.5,2.1v-85.9h18.1C1331.2,900.5,1327.4,910.2,1328.1,920.8z M1192.8,906.6
			c-3.1-4.1-8.1-8.9-15.1-14.7h36.5v54.6c-0.9-1.2-2-2.4-3-3.5c-2.6-2.8-5.5-5.5-8.8-8.2c0-0.4,0-0.8,0-1.1v-2.1
			C1202.4,922.7,1199.2,914.3,1192.8,906.6z"/>
		<path class="st0" d="M1721.8,954.6c-3.4,0-6.3,1.1-8.7,3.3c-2.5,2.3-3.7,5.1-3.7,8.5c0,3.2,1.2,6,3.7,8.3c2.4,2.3,5.4,3.5,8.8,3.5
			c3.4,0,6.3-1.2,8.8-3.5c2.4-2.4,3.7-5.2,3.7-8.3c0-3.4-1.3-6.3-3.7-8.5C1728.1,955.7,1725.2,954.6,1721.8,954.6z"/>
		<path class="st0" d="M1947.6,877.8h-8.4c-2.1-2.5-3.6-6.4-4.6-11.7l-0.2-0.9l-8.3-6.6v5.3c0,1.9,0.1,4.2,0.2,6.8
			c0.1,2.6,0.3,5.8,0.5,9.4c0.2,1.8,0.3,3.5,0.4,5.1c-1-1.2-2.1-2.2-3.2-3.1c-0.4-0.3-0.8-0.6-1.3-0.9l-3.5-3.2h-126.8
			c-9.8-31.4-30.7-47.4-62.3-47.4c-3.8,0-7.8,0.4-11.8,1.3c-4,0.8-7.7,1.8-11.2,3.1l-0.2,0.1c-4.6,1.9-8.2,4.2-10.8,6.7
			c-2.9,2.8-4.4,6-4.4,9.6c0,4,1.5,7.5,4.6,10.4c2.8,2.6,6.6,4.7,11.2,6l0.3,0.1c1.3,0.2,4.1,0.6,8.6,1.1c4.4,0.5,10.3,1.2,17.7,2.1
			c9.6,1,12.2,3,12.2,4.1c0,0.7-0.1,1.7-1.3,2.9H1685c-1.2-0.4-2.1-1.2-2.8-2.6c-0.3-0.9-0.7-3.2-1.4-8.7l-0.1-1l-9.4-7.5l0.2,5.5
			c0.3,8,0.7,16,1.2,23.8c0.3,5.1,0.6,10.2,0.8,15.2c-11.2-15.4-23.5-23.2-36.5-23.2c-3.9,0-8,0.7-12.4,2c-4.3,1.3-8.6,3.3-12.9,5.9
			c-4.7,2.9-8.4,6.2-11,9.6c-2.8,3.6-4.2,7.4-4.2,11.2c0,2.5,1,4.8,3.1,6.8c2,2,4.4,3,7,3c2,0,4.6-0.6,7.7-1.9
			c1.5-0.5,2.8-0.9,3.8-1.2c0.8-0.2,1.5-0.4,2.1-0.4c0.9,0,3.3,0,3.3,6.8c0,1.5-1.2,5-9,12.1l-3.2,2.9l19.2,6.6l33.1-31.3
			c0.5,0.5,1.1,1,1.6,1.6c1.1,1.2,2.3,2.6,3.4,4.3c1.2,1.8,2.1,3.5,2.7,5c0.6,1.3,0.8,2.6,0.8,3.5l-1.4,49.2l15.3,14v-97h63.6v2.2
			c-19.5,6.4-38.9,15.8-57.5,28l-2.3,1.5l14.3,18.9l1.7-1.3l-0.1,2.3c12.9,1.2,23.4,5.2,31.1,11.9c2.2,2,4.6,4.4,7.1,7.4
			c2.5,2.9,4.3,5.4,5.5,7.2c1.1,1.9,2.6,4.9,4.4,9.1l4.9,11.5v-6l5.3,5.9v-98.6h14.5v83.5l14.5,13.9v-97.4h15.6
			c0.3,0.2,0.8,0.5,1.4,1c0.8,0.7,1.6,1.4,2.3,2.2c0.7,0.8,1.3,1.6,1.8,2.4c0,0,0,0,0,0c-1,0.2-2.1,0.4-3.1,0.7l-0.3,0.1
			c-6.2,2.6-9.7,6.9-10.4,12.6l0,0.2c-0.1,5.3,1.5,9.4,4.8,12.1c3.2,2.6,6.9,4,11.2,4c4,0,7.5-1.5,10.4-4.3c2.6-2.5,4-5.4,4.4-8.7
			c0.4-0.3,0.8-0.5,1.2-0.6c0.5-0.2,0.9-0.3,1.5-0.3c3.1,0,5.6,1.1,7.7,3.3c2.2,2.3,3.2,4.8,3.2,7.6c0,0.9-0.1,1.7-0.3,2.5
			c-4.2-0.1-7.9,1-11.2,3.1c-4,2.6-6.1,6.5-6.1,11.3c0,4.1,1.5,7.5,4.5,10.2c2.9,2.6,6.4,3.9,10.5,3.9c6.6,0,11.5-2.7,14.4-8
			c5.5,2.9,9.8,7,12.9,12.2l0.9,1.5c0.7,1.3,1.4,3,2.3,5.1c1.3,3.3,2.9,7.5,4.8,12.6l4.9,13.1v-7.6l4.4,4.8v-70.9
			c1.7-0.4,3.8-0.6,6-0.6c4,0,7.6,0.6,11,1.9c3.9,1.8,5.9,3.9,5.9,6.2c0,0.2,0,0.5,0,0.7c-3.1-2.5-6.5-3.7-10.3-3.5
			c-2.8,0-5.4,1.2-7.6,3.4c-2.3,2.3-3.4,5.2-3.2,8.7l0,0.4c0.7,3.9,2.9,6.9,6.6,8.8c3.3,1.7,7,2.7,11.2,2.8l0.3,0l0.3,0
			c4.3-0.8,7.7-2.8,10.2-6.2c2.4-3.2,3.7-7.6,4-12.9l0-0.1c0-7.4-3.1-13.7-9.3-18.9c-6.1-4.8-13.2-7.3-21.2-7.3c-1.6,0-3,0-4.3,0.1
			v-9.5h21.5c2.4,0,4.8,0.4,7.1,1.2c2.3,0.8,4.3,1.9,6.1,3.3c1.7,1.3,3,2.9,4,4.8c0.9,1.9,1.4,4,1.4,6.4v67.7l14.3,14v-97.4h21.7
			L1947.6,877.8z M1871.9,903.1c0,0-0.1,0-0.1,0h-2.3c-12,0-13.5-5.1-13.5-9.5c0-0.9,0.1-1.4,0.2-1.6h15.7V903.1z M1828.6,898.1
			c-0.7-0.2-1.5-0.5-2.4-0.7c-0.8-2-1.5-3.7-2.2-5.1c-0.1-0.1-0.1-0.2-0.2-0.3h18.3c1.4,6.8,5,12.9,10.5,18c5.8,4.9,12.3,8,19.4,9
			v24.6c-3-4.1-6.8-7.6-11.4-10.5c-0.4-3.4-1.3-6.8-2.7-10.1c-1.6-3.7-3.8-7.3-6.6-10.6l-0.1-0.1c-2.8-3-6-5.7-9.4-7.9
			c-3.4-2.2-6.9-4-10.5-5.3L1828.6,898.1z M1753.2,863.6c-2.8-3-7-5.3-12.6-7c-4.5-1.2-13.3-2.2-26.6-2.8
			c-9.8-0.5-11.9-2.1-12.3-2.4c0.2-1.8,3.7-3.5,9.7-4.8c2.5-0.6,5-1.1,7.5-1.3c2.5-0.3,5.1-0.4,7.6-0.4c29.4,0,46.3,10.8,51.6,33
			h-20.6c0.2-1.3,0.2-1.7,0.2-2C1757.6,870.9,1756.1,866.7,1753.2,863.6z M1651.6,898.5l-17.3,16.3c-0.4-2.9-1.4-5.5-3.1-7.7
			c-2.1-2.9-5-4.7-8.8-5.5c4-5.1,9.9-7.5,17.9-7.5C1644.5,894.2,1648.2,895.6,1651.6,898.5z M1749.8,914.2v37.9
			c-7.7-9.8-17.9-17.5-30.5-23.2c5.3-3.2,10.5-6,15.4-8.4C1739.8,918.2,1744.9,916,1749.8,914.2z"/>
	</g>
</g>
</svg>
