<?xml version="1.0" encoding="utf-8"?>
<!-- Generator: Adobe Illustrator 21.0.2, SVG Export Plug-In . SVG Version: 6.00 Build 0)  -->
<svg version="1.1" id="Capa_1" xmlns="http://www.w3.org/2000/svg" xmlns:xlink="http://www.w3.org/1999/xlink" x="0px" y="0px"
	 viewBox="0 0 512 512" style="enable-background:new 0 0 512 512;" xml:space="preserve">
<style type="text/css">
	.st0{fill:#EBF2F8;}
	.st1{fill:#FDD4BB;}
	.st2{fill:#F7C4A8;}
	.st3{fill:#03E086;}
	.st4{fill:#D6E3ED;}
	.st5{fill:#13BF75;}
	.st6{fill:#424A5E;}
	.st7{fill:#00A86B;}
	.st8{fill:#00935B;}
</style>
<g>
	<g>
		<path class="st0" d="M85.9,407.1v8.9l24.8,19.5l83.2,1.5c0,0,15.4-14.9,15.4-14.9v0c0.7-40.2-0.8-138.3-32.4-138.3
			C143.5,283.8,99.1,377.6,85.9,407.1C85.9,407.1,85.9,407.1,85.9,407.1z"/>
		<path class="st1" d="M199.8,493.3l19.6-24.6c0,0-10.5-29.8-10.5-29.8l0,0L117,450C117.6,469.5,153.6,503.9,199.8,493.3
			L199.8,493.3z"/>
		<path class="st2" d="M199.8,493.3c-39.5-1.5-68.8-24.5-82.8-43.3l-8.5-9.7c0,0-5.8,3.8-5.7,3.8l0,0c0,0,26.4,67.9,96.4,67.9h10.2
			L199.8,493.3z"/>
		<path class="st3" d="M117.6,227c7.5,7.5,19.8,7.5,27.3,0c4.4-4.4,7.6-14,7.6-24.8c0-0.3-0.1-0.4-0.1-0.4s-22.8-4.6-34.8,7.5
			c-1.3,1.3-2.4,2.8-3.3,4.4C114.3,221.5,116.3,225.7,117.6,227z"/>
		<path class="st3" d="M59.4,302.6c7.5,7.5,19.8,7.5,27.3,0c4.4-4.4,7.6-16.5,7.6-24.8c0-0.3-0.1-0.4-0.1-0.4s-22.8-4.6-34.8,7.5
			c-1.3,1.3-2.4,2.8-3.3,4.4C56.1,295.5,58.1,301.3,59.4,302.6L59.4,302.6z"/>
		<path class="st4" d="M163.5,430.1c-1.3-0.7-2.8-0.8-4.2-0.3c-5.9,2.3-22.8,7.3-44.3,1.1c-16.3-4.7-24.9-15.6-29.1-23.8
			c-2.5,5.5-3.8,8.8-3.8,8.8s5.6,25.7,33,33.6c16.5,4.7,30.3,2.8,38.5,0.7l8.5-8.1l7,8.7c16.9,3.7,39.7-11.8,39.7-11.8
			s0.3-6.5,0.5-16.8C200.9,426.6,177.4,437.8,163.5,430.1z"/>
		<path class="st3" d="M155.2,431.2l6.9,6.1l8.5-4.9l4.8-55.7c0.4-4.3-2.8-8-7.1-8.4c-4.3-0.4-8,2.8-8.4,7L155.2,431.2z"/>
		<g>
			<path class="st5" d="M155.2,431.2l-1.6,19c2.5-0.6,4.4-1.3,5.8-1.8c1.4-0.5,2.9-0.4,4.1,0.3c1.8,1,3.6,1.7,5.6,2.1l1.6-18.3
				c-2.6-0.4-5-1.1-7.2-2.4c-1.2-0.7-2.8-0.8-4.1-0.3C158.3,430.2,156.9,430.7,155.2,431.2L155.2,431.2z"/>
			<path class="st5" d="M86.7,293.6c-7.5,7.5-19.8,7.5-27.3,0c-1.3-1.3-2.4-2.8-3.3-4.4c-4,7.3-2.9,16.7,3.3,23
				c7.5,7.5,19.8,7.5,27.3,0c11.1-11.1,8.1-31.2,7.6-34.4C93.3,283.5,91.1,289.3,86.7,293.6z"/>
			<path class="st5" d="M144.9,218c-7.5,7.5-19.8,7.5-27.3,0c-1.3-1.3-2.4-2.8-3.3-4.4c-4,7.3-2.9,16.7,3.3,23
				c7.5,7.5,19.8,7.5,27.3,0c11.1-11.1,8.1-31.2,7.6-34.4C151.5,207.9,149.3,213.7,144.9,218z"/>
		</g>
		<g>
			<path class="st6" d="M334,0.2c-68.8-2.5-79.2,27.6-112.5,36.1c-15.4,3.9-30.4,0.6-43.4-5.2c-13.9-6.3-27.6,9-19.7,22.1
				c9.2,15.2,22.3,30.8,40.7,42.4v0l173.5,171.5c0,0,77.4-50,84.8-119.7C465.2,74.8,417.7,3.2,334,0.2L334,0.2z"/>
			<path class="st1" d="M268.8,313.6l103.7-26.9v-19.7l-36-58.9c-1.7-2.8-0.3-6.5,2.8-7.4c14.3-4.3,24.6-17.9,23.8-33.8
				c-0.9-17.1-14.9-30.8-31.9-31.5c-10-0.4-19,3.6-25.4,10.2c-2.3,2.4-6.2,2-7.9-0.8l-17.8-29.1c-1-1.6-2.7-2.5-4.6-2.4
				c-32.3,1.9-57.2-5.7-76.4-17.8v110.6l7.1,8.5l-6.8,7c3.4,36.9,32.6,66.4,69.4,70.2V313.6z"/>
			<g>
				<path class="st2" d="M268.8,313.6v18.6l103.7-26.9v-18.6c-3.3-2.1-6.8-3.7-10.5-4.9C332.2,272.2,298.1,285.2,268.8,313.6
					L268.8,313.6z"/>
			</g>
			<path class="st7" d="M433.6,493.4c-2.7-48.2-15-174.8-71.5-193c-66.7-21.5-154.2,69.7-162.3,193l122.4,9.6L433.6,493.4z"/>
			<path class="st8" d="M199.7,493.4c-0.3,4.5-0.5,8.9-0.6,13.5c-0.1,2.8,2.2,5.1,5,5.1h62.1l55.9-9l55.9,9h51.1
				c2.8,0,5.1-2.3,5-5.2c-0.1-3.2-0.3-7.8-0.6-13.4L199.7,493.4z"/>
			<path class="st1" d="M370.3,493.4l-48.2,9.6l-48.2-9.6V464h96.3V493.4z"/>
			<path class="st2" d="M281.8,512h80.8l7.7-9.3l-7.7-9.3h-80.8l-7.7,9.3L281.8,512z"/>
			<g>
				<path class="st3" d="M378.1,493.4v-88.8c0-4.3-3.5-7.7-7.7-7.7s-7.7,3.5-7.7,7.7v88.8l7.7,9.3L378.1,493.4z"/>
				<path class="st3" d="M281.8,493.4v-88.8c0-4.3-3.5-7.7-7.7-7.7s-7.7,3.5-7.7,7.7v88.8l7.7,9.3L281.8,493.4z"/>
				<g>
					<path class="st5" d="M266.3,493.4h15.5V512h-15.5V493.4z"/>
					<path class="st5" d="M362.6,493.4h15.5V512h-15.5V493.4z"/>
				</g>
			</g>
		</g>
		<path class="st6" d="M226.5,231.9c1.2,3,4.1,4.9,7.2,4.9c0.9,0,1.9-0.2,2.9-0.5c4-1.6,5.9-6.1,4.3-10.1
			c-7.5-18.9-29.9-20.6-41.8-20.1v8.4c0,2.4,0.1,4.8,0.3,7.1C207.6,221.2,222.6,221.9,226.5,231.9L226.5,231.9z"/>
	</g>
	<g>
		<path class="st6" d="M261.8,181.3l-7.5-4.2l7.2-3.7c3.8-2,5.3-6.6,3.3-10.4c-2-3.8-6.6-5.3-10.4-3.3l-20,10.3
			c-2.5,1.3-4.1,3.9-4.2,6.8c-0.1,2.9,1.5,5.5,4,6.9l20,11.3c3.7,2.1,8.5,0.8,10.6-3C266.9,188.2,265.6,183.4,261.8,181.3z"/>
	</g>
</g>
</svg>
