<?xml version="1.0" encoding="utf-8"?>
<!-- Generator: Adobe Illustrator 21.0.2, SVG Export Plug-In . SVG Version: 6.00 Build 0)  -->
<svg version="1.1" id="Capa_1" xmlns="http://www.w3.org/2000/svg" xmlns:xlink="http://www.w3.org/1999/xlink" x="0px" y="0px"
	 viewBox="0 0 512 512" style="enable-background:new 0 0 512 512;" xml:space="preserve">
<style type="text/css">
	.st0{fill:#00A86B;}
	.st1{fill:#00935B;}
	.st2{fill:#FDD4BB;}
	.st3{fill:#F7C4A8;}
	.st4{fill:#03E086;}
	.st5{fill:#13BF75;}
	.st6{fill:#424A5E;}
	.st7{fill:#EBBAA1;}
	.st8{fill:#E8A990;}
</style>
<g>
	<g>
		<path class="st0" d="M417.1,493.4v-63.9c0-70-49.5-128.4-115.4-142.2c-13.6,7.2-29.2,11.4-45.7,11.4c-16.5,0-32.1-4.1-45.7-11.4
			c-65.9,13.8-115.4,72.2-115.4,142.2v35.4l9,28.5l152.1,9L417.1,493.4z"/>
		<path class="st1" d="M175.7,512h156.6l45.4-9l39.4,9v-18.6H175.7l-9,9.3L175.7,512z"/>
		<path class="st2" d="M94.9,493.4l37,9l37-9v-28.5h-74L94.9,493.4z"/>
		<path class="st3" d="M94.9,493.4h65.3l9,9.3l-9,9.3H99.9c-2.8,0-5-2.2-5-5V493.4z"/>
		<path class="st2" d="M316.5,493.4l46.3,9l38.2-9l-75-87.8c0,0,21.2-28.6,8-41.8c-13.2-13.2-27.6,6.9-27.6,6.9S291.4,337,256,337
			c-37.5,0-64.9,71.8,15.2,102.9L316.5,493.4z"/>
		<g>
			<path class="st4" d="M175.7,493.4v-72.8c0-4.3-3.5-7.7-7.7-7.7s-7.7,3.5-7.7,7.7v72.8l7.7,9.3L175.7,493.4z"/>
			<path class="st5" d="M160.2,493.4h15.5V512h-15.5V493.4z"/>
		</g>
		<path class="st6" d="M128.9,166.7c0,0-28.1-37.8-29.3-92.4c-0.1-3.1,2.6-5.4,5.7-5c6.3,0.9,16.7,1.6,26.4-1
			c29.5-7.9,58.5-66.4,109.5-68.1c51.1-1.7,61,22.1,61,22.1S321,11.1,349,14.8c42,5.7,78.9,69.7,41.4,157.6L128.9,166.7z"/>
		<path class="st7" d="M114.8,183.9c0,19,15.4,30.1,29,30.1l14.6-12.8c0-0.1,12.8-17.3,12.8-17.4l-12.8-17.4
			c-4.3-2.4-9.3-3.7-14.6-3.7C130.2,162.8,118.7,171.7,114.8,183.9L114.8,183.9z"/>
		<path class="st8" d="M143.7,205c-13.6,0-25-8.9-29-21.1c-0.9,2.9-1.5,6-1.5,9.3c0,16.8,13.6,30.4,30.4,30.4c6,0,11.6-1.7,16.3-4.7
			l8-10.6l-9.6-7C154,203.7,149,205,143.7,205L143.7,205z"/>
		<path class="st7" d="M397.2,183.9c0,19-15.4,30.1-29,30.1l-14.6-12.8c0-0.1-12.8-17.3-12.8-17.4l12.8-17.4
			c4.3-2.4,9.3-3.7,14.6-3.7C381.8,162.8,393.3,171.7,397.2,183.9L397.2,183.9z"/>
		<path class="st8" d="M368.3,205c13.6,0,25-8.9,29-21.1c0.9,2.9,1.5,6,1.5,9.3c0,16.8-13.6,30.4-30.4,30.4c-6,0-11.6-1.7-16.3-4.7
			l-8-10.6l9.6-7C358,203.7,363,205,368.3,205z"/>
		<path class="st2" d="M256,289.1c53.9,0,97.6-37.9,97.6-106.6v-28c0-8.5-3.5-16.8-9.8-22.6c-18.2-16.8-38.5-45.9-46.7-58.1
			c-1.9-2.8-5.8-3.1-8.1-0.6c-41.1,44.9-94.4,59.9-118.2,64.5c-7.3,1.4-12.5,7.8-12.5,15.2v29.5C158.4,247.3,202.1,289.1,256,289.1z
			"/>
		<path class="st7" d="M210,287.2c-0.1,1.2-0.2,2.4-0.2,3.6c0,25.5,20.7,46.2,46.2,46.2s46.2-20.7,46.2-46.2c0-1.2-0.1-2.4-0.2-3.6
			H210z"/>
		<g>
			<path class="st3" d="M256,280.1c-53.9,0-97.6-43.7-97.6-97.6V201c0,53.9,43.7,97.6,97.6,97.6s97.6-43.7,97.6-97.6v-18.6
				C353.6,236.4,309.9,280.1,256,280.1z"/>
			<path class="st3" d="M316.5,493.4l15.7,18.6h84.6L401,493.4H316.5z"/>
		</g>
	</g>
	<g>
		<path class="st6" d="M214,163.9c-8.3,8.1-18.1,11-18.3,11.1c-4.1,1.1-6.5,5.4-5.4,9.5c0.9,3.5,4.1,5.7,7.5,5.7
			c0.7,0,1.4-0.1,2-0.3c0.6-0.2,13.7-3.8,25.1-14.9c3.1-3,3.1-7.9,0.1-11S217.1,160.8,214,163.9z"/>
		<path class="st6" d="M312.1,189.9c0.7,0.2,1.4,0.3,2,0.3c3.4,0,6.5-2.3,7.5-5.7c1.1-4.1-1.3-8.4-5.4-9.6c-0.1,0-10-2.9-18.3-11.1
			c-3.1-3-8-3-11,0.1c-3,3.1-3,8,0.1,11C298.4,186,311.6,189.7,312.1,189.9L312.1,189.9z"/>
		<g>
			<path class="st6" d="M263.4,241.1c0,4.3,3.5,7.8,7.8,7.8c4.3,0,7.8-3.5,7.8-7.8c0-14-10.3-25.3-22.9-25.3
				c-12.6,0-22.9,11.4-22.9,25.3c0,4.3,3.5,7.8,7.8,7.8s7.8-3.5,7.8-7.8c0-5.3,3.4-9.8,7.4-9.8C260,231.3,263.4,235.8,263.4,241.1
				L263.4,241.1z"/>
			<path class="st4" d="M113.4,289.9c5.5,0,10.8-2.9,15.8-5.6c3.9-2.1,8.3-4.5,11.2-4.5c6,0,9.6,3.1,9.8,3.2
				c1.4,1.4,3.3,2.2,5.4,2.2c4.3,0,7.8-3.5,7.8-7.8c0-2.4-1.1-4.6-2.8-6c-1.1-1-8.4-7.2-20.1-7.2c-6.8,0-13.1,3.4-18.6,6.4
				c-2.6,1.4-6.9,3.8-8.4,3.7c-4.3-0.2-7.9,3.1-8.1,7.4c-0.2,4.3,3.1,7.9,7.4,8.1C112.9,289.9,113.2,289.9,113.4,289.9L113.4,289.9z
				"/>
			<path class="st4" d="M188.7,321.7c-2.5,0-11.3,0.4-19.6,7.3c-5.2,4.3-7.9,10.9-10.1,16.2c-1.6,4,0.3,8.5,4.3,10.1
				c3.9,1.6,8.5-0.3,10.1-4.3c1.4-3.5,3.3-8.3,5.5-10.1c4.6-3.8,9.4-3.7,9.4-3.7c4.4,0.3,8.1-3.3,8.1-7.7c0-4.1-3.2-7.5-7.2-7.7
				C189.3,321.8,188.7,321.7,188.7,321.7L188.7,321.7z"/>
			<path class="st4" d="M398.6,289.9c-5.5,0-10.8-2.9-15.8-5.6c-3.9-2.1-8.3-4.5-11.2-4.5c-6,0-9.6,3.1-9.8,3.2
				c-1.4,1.4-3.3,2.2-5.4,2.2c-4.3,0-7.8-3.5-7.8-7.8c0-2.4,1.1-4.6,2.8-6c1.1-1,8.4-7.2,20.1-7.2c6.8,0,13.1,3.4,18.6,6.4
				c2.6,1.4,6.9,3.8,8.4,3.7c4.3-0.2,7.9,3.1,8.1,7.4c0.2,4.3-3.1,7.9-7.4,8.1C399.1,289.9,398.8,289.9,398.6,289.9z"/>
			<path class="st4" d="M329.7,321.7c2.5,0,11.3,0.4,19.6,7.3c5.2,4.3,7.9,10.9,10.1,16.2c1.6,4-0.3,8.5-4.3,10.1
				c-3.9,1.6-8.5-0.3-10.1-4.3c-1.4-3.5-3.3-8.3-5.5-10.1c-4.6-3.8-9.4-3.7-9.4-3.7c-4.4,0.3-8.1-3.3-8.1-7.7c0-4.1,3.2-7.5,7.2-7.7
				C329.1,321.8,329.7,321.7,329.7,321.7L329.7,321.7z"/>
		</g>
	</g>
</g>
</svg>
