<?xml version="1.0" encoding="utf-8"?>
<!-- Generator: Adobe Illustrator 21.0.2, SVG Export Plug-In . SVG Version: 6.00 Build 0)  -->
<svg version="1.1" id="Layer_1" xmlns="http://www.w3.org/2000/svg" xmlns:xlink="http://www.w3.org/1999/xlink" x="0px" y="0px"
	 viewBox="0 0 512 512" style="enable-background:new 0 0 512 512;" xml:space="preserve">
<style type="text/css">
	.st0{fill:#00A86B;}
	.st1{fill:#03E086;}
</style>
<g>
	<path class="st0" d="M354.3,161c-5.4,3.2-9.9,10.9-18,7.1c-23.5-11.1-39.3-4.8-48.9,20c-0.6,1.5-1.4,2.7-2.6,3.5
		c-21.7,13-43.9,25.1-68.4,36.4c1.8-5,2.4-9.9,5.9-10.2c11.9-0.9,6-6.8,3.7-12.1c3.4-1.6,6.7-3.1,9.9-4.6c0.4-1.5,1.8-4-1.5-3.3
		c-3.1,0.7-6,2.4-9.5,3.8c-1.1-6.5,4.8-13.2-1-19.4c-1-1,0.5-4,2.2-4.4c2.6-0.7,3.8,1.6,4.1,3.7c0.9,5.8,4.5,10.1,8.1,14.4
		c5.4-6.5,12.6-8.9,20.8-9c4.8-0.1,8.1-1.6,8.4-7.3c0.2-4,3.4-6.7,8.5-9.7c-13.9-1.6-10.7-9.5-7.8-19c-6.7,6.1-9.5,12-7.4,17.9
		c1.9,5.1-0.6,8-2.2,11.7c-0.7,1.5-2.7,3.2-3.2,2.6c-3.6-5-11-5-14-10.3c-2.8-5-0.3-8.2,4.5-10.8c5-2.8,5.2-8.7,6.7-13.5
		c4-13.7,12.3-17.5,24.6-10.9c15.3,8.2,17.2,7.9,33.2-5.9c-12.6,2.1-15.2-4.4-14.7-13.8c0.2-3.5-1.1-6.2-4.4-8.2
		c-21.2-13.1-44-21.5-68.7-24.8c-1.3-0.2-3-0.8-4.4,1.7c9.3,3,5.3,7.2,1,11.5c-3.1,3.2-3.7,7.5-4.7,11.6c-1.6,6.4-1.3,13.4-7.1,18.2
		c-1.1,0.9-1.8,2.1-1.2,4c3.7,10.1-4.4,13.3-10.7,15.5c-11.1,3.9-20.4,9-25.3,20.2c-2.8,6.3-5.8,3.8-7.9-0.5
		c-2.5-5.4-3.3-11.6-1-16.9c3-7.2,4.4-14.7,6.8-22c2-5.9,1.8-10.2-2.9-14.6c-6-5.7-3.8-15.1,4.3-17.7c3.8-1.2,6.5-2.5,6.8-7.1
		c-8.1,2.5-15.1,5.9-19.7,13.3c-2.1,3.4-4.2,8.5-9.6,5.3c-5.5-3.2-1.6-7.1,0.9-10.5c-8.8-2.4-8.8-2.4-16,12.1
		c-2.6-8.9-7.9-8.1-14-4.8c-1.4,0.8-2.5,1.5-2.7,3.2c-1.1,9.9-6.9,16.8-14.6,22.4c-1.7,1.2-4.5,1.5-2.6,4.3c1.5,2.3,4.2,3.1,6.2,0.8
		c3.7-4.2,8.9-6.7,11.2-12.7c4.2-10.9,8.2-12.3,16.8-8.5c0.9,0.1,1.8,0.2,2.7,0.3c5.7,1.2,11.1,1.6,9.7,10.6
		c-0.7,4.5,7.5,9,2.2,15.1c6.4,9.3-7.2,12.2-6.5,20c0.1,1.5-3.1,4.5-5.6,1.9c-2.8-2.9-6.9-5.9-4.3-10.9c1.5-2.9,3.7-5.5,5.2-8.5
		c1.8-3.7,1.3-7.7-2.3-9.5c-4.3-2.2-4.3,2.8-6,4.9c-2.9,3.6-0.9,11-8.5,11.1c-0.3,0-0.9,1.6-0.7,2.2c2.7,6.6-2.2,5.8-7,6.7
		c1-3.4,1.7-6,2.6-8.9c-25.6,9.9-24.2,21.1-9.2,40.7c0.4-1.3,0.5-2.9,1.2-3.3c8.1-4.5,7.8-13.6,11.7-20.5c1.4-2.4,0.4-8.1,5.8-4.9
		c3.3,2,9.5,3.5,4.9,9.8c-0.4,0.6-0.2,1.6-0.3,2.7c4,0.4,5.2-4,8.7-4.8c0.8,9.6,4.9,18.3,4,27.9c-0.2,1.6-0.6,3.7,1.4,4.9
		c2.7,1.5,4.8,3.6,1.8,6.3c-2,1.9-5,2-7.7,0.9c-3.8-1.6-2.5-4.1-1.3-6.6c0.4-0.8,0.6-1.7,1.3-3.9c-4.7,2.5-8.9,2.3-13.1,1.7
		c-1.1,2.2,0.6,2.9,1.4,4c1.9,2.6,6.7,4.3,5.3,7.7c-1.3,3.2-5.9,4.5-9.4,4.6c-10.7,0.6-14.8,9.6-21.1,15.7c-1.4,1.4-1.6,4.2-3,5.5
		c-7.5,6.9-15.3,13.4-5.6,26.1c-6.8-1.5-7.6-5.2-9.4-8c-2.5-3.9-4.9-9.6-10.8-3.3c-0.6,0.7-2.3,0.4-3.4,0.5
		c-11.2,0.7-15.9,7.8-12.8,18.9c0.9,3.2,2.3,5.6,5.7,6.3c3.2,0.6,6,0.4,7.5-3.3c1-2.4,3-3.5,5.7-3.4c-1.3,13.8-5.1,16.2-17.7,12.9
		c-9-2.4-16.1-6.2-19.1-15.9c-0.9-3.2-2.1-7-6-8.6c-3,7.8-2.6,15.8-1.1,23.9c-5.3-0.3-6.7-3.6-8.3-6.9c-6.5-13.1-5.9-26.9-4.4-40.8
		c8.4-75.8,64.4-140.1,137.5-158.1c76.5-18.8,154.4,10.6,197.8,75.1C353.2,154.9,359.2,158.2,354.3,161z"/>
	<path class="st0" d="M315.4,285.2c0.7,3,3.3,1.5,5.3,1.5c3,0,6.4-4.5,8.7-0.5c1.9,3.2-1.7,6-3.5,8.7c-4.2,6.3-8.7,12.4-12.8,18.8
		c-3.6,5.6-7.1,11.3-4.8,18.6c0.5,1.5,0.1,4-0.9,5.2c-8,10-10.9,23-19.2,32.8c-2.2,2.6-4.4,4.8-7.5,6.4c-9.9,5.3-11.7,4.8-14.9-6.1
		c-3.6-12.2-10.9-23.9-6.1-37.6c1.1-3.1-1.2-6.4-2.5-9.5c-2.3-5.5-6.2-10.6-4.1-17.2c1.1-3.2-3.2-3.2-3.7-5.6
		c16.5-6.8,32-13.6,47.8-19.7c4.2-1.6,8.2-7.3,13.7-2.1c0.5,0.5,1.3,0.1,2-0.8c9.7-12.2,13.2-13.3,27.2-8.2
		c-5.9,6.4-13.8,8.7-21.2,12C317.5,282.6,314.8,282.7,315.4,285.2z"/>
	<path class="st1" d="M32.8,327.9C7.6,322-2.4,307.7,0.5,281.4c7.7,21.4,25.7,24.5,44.4,25c20.2,0.5,39.7-4.8,58.7-11.3
		c64-21.8,126.1-48.1,184.5-82.5c5.7-3.4,8.2-2.7,12.2,2.3c6.6,8.4,12.1,17.2,16,27.2c2.2,5.6,1,7.6-4.1,10
		c-51.6,24.3-105,43.9-159.6,59.9c-27.1,7.9-54.4,14.8-82.6,17.5C57.4,330.9,45,330.8,32.8,327.9z"/>
	<path class="st0" d="M382.4,234.5c10.3,83.2-38.4,163.4-117.2,193.6c-78.7,30.1-168,2.7-216.4-66.4c-2.4-3.4-4.6-6.8-7-10.3
		c9.2-3.1,14.4,0.3,19.7,7.7c20.3,28,51,50.1,81.5,59.6c-1.6-6.7-5.8-11.7-8.1-17.5c-4-10.3-7.8-20.8-10.9-31.4
		c-2.9-10.1-5.4-20.1-17.3-24.5c21.8-5.9,43.1-11.2,63.9-17.9c3.1-1,4.6-0.3,4,3.4c-1.4,8.4-2.6,16.8-3.8,25.1
		c-0.1,0.9,0.1,2.3-0.4,2.6c-9.9,6.3-11.9,17.2-14.2,27c-2.7,11.5-8.2,23.6-0.7,35.7c2,3.3,5.2,2.9,7.9,3.5
		c87.7,19.6,178.4-35,202.2-121.9c2.2-8.2,3.6-16.6,5.2-24.9c0.5-2.7,1.5-6.5,0.2-8c-7.1-7.7-2.2-13.5,2-20
		c2.9-4.4,2.5-9.9,2.2-15.1c-0.2-3.8,1.7-6.2,5-6.2C383.6,228.8,382.1,232.5,382.4,234.5z"/>
	<path class="st1" d="M509.4,122.8c-4.9,7.9-12,13.7-19.8,18.4c-13,7.8-25.9,15.8-39.2,22.9c-5.6,3-6.7,6.6-6.4,12.3
		c1.4,29.1,2.5,58.2,3.7,87.3c0.2,4.2,0.5,8.3-3.7,11.5c-8.8,6.7-11.8,6-15.1-4.5c-7.5-24.3-15.1-48.6-22.3-73
		c-1.4-4.7-2.3-6.9-7.7-3.6c-13.2,7.9-26.2,16.4-40.4,22.5c-3.2,1.4-3.5,3.6-3.4,6.5c0.2,5.2,0,10.3,0.1,15.5
		c0.1,7-5.3,9.5-10.4,10.9c-5.2,1.4-6.2-4-7.3-7.5c-5.4-16.7-14-31.4-25.8-44.4c-2.4-2.6-6.8-5.9-2.8-10c3.6-3.7,8.1-6.5,13.9-4.2
		c0.6,0.2,1.1,0.5,1.6,0.9c11.6,10.9,22.1,7.6,33.6-1.2c9.3-7.1,20.2-12.1,31.4-18.7c-19.6-20.7-38.6-40.7-57.4-60.9
		c-2.6-2.8-7.9-5-4.5-10.4c3.3-5.1,12.3-7,17.7-3.7c17.8,11,35.5,22.1,53.2,33.2c8,5,16.3,9.5,23.8,15.1c5.1,3.7,8.8,2.9,13.7-0.1
		c12.7-7.7,25.6-15,38.5-22.3c8-4.5,16.5-7.8,25.7-8.3c4.4-0.3,8.8,0.5,11.1,4.7C513.1,115.4,511.5,119.3,509.4,122.8z"/>
</g>
</svg>
