<?xml version="1.0" encoding="utf-8"?>
<!-- Generator: Adobe Illustrator 21.0.2, SVG Export Plug-In . SVG Version: 6.00 Build 0)  -->
<svg version="1.1" id="Capa_1" xmlns="http://www.w3.org/2000/svg" xmlns:xlink="http://www.w3.org/1999/xlink" x="0px" y="0px"
	 viewBox="0 0 512 512" style="enable-background:new 0 0 512 512;" xml:space="preserve">
<style type="text/css">
	.st0{fill:#00A86B;}
	.st1{fill:#424A5E;}
	.st2{fill:#EBBAA1;}
	.st3{fill:#E8A990;}
	.st4{fill:#FDD4BB;}
	.st5{fill:#00935B;}
	.st6{fill:#F7C4A8;}
	.st7{fill:#03E086;}
	.st8{fill:#13BF75;}
	.st9{opacity:0.4;}
</style>
<g>
	<g>
		<path class="st0" d="M408.1,493.4l9-28.5v-35.4c0-70-49.5-128.4-115.4-142.2c-13.6,7.2-29.2,11.4-45.7,11.4s-32.1-4.1-45.7-11.4
			c-65.9,13.8-115.4,72.2-115.4,142.2v35.4l9,28.5l155.6,9L408.1,493.4z"/>
		<path class="st1" d="M128.9,166.7c0,0-28.1-37.8-29.3-92.4c-0.1-3.1,2.6-5.4,5.7-5c6.3,0.9,16.7,1.6,26.4-1
			c29.5-7.9,58.5-66.4,109.5-68.1c51.1-1.7,61,22.1,61,22.1S321,11.1,349,14.8c42,5.7,78.9,69.7,41.4,157.6L128.9,166.7z"/>
		<path class="st2" d="M114.8,183.9c0,19,15.4,30.1,29,30.1l14.6-12.8c0-0.1,12.8-17.3,12.8-17.4l-12.8-17.4
			c-4.3-2.4-9.3-3.7-14.6-3.7C130.2,162.8,118.7,171.7,114.8,183.9L114.8,183.9z"/>
		<path class="st3" d="M143.7,205c-13.6,0-25-8.9-29-21.1c-0.9,2.9-1.5,6-1.5,9.3c0,16.8,13.6,30.4,30.4,30.4c6,0,11.6-1.7,16.3-4.7
			l8-10.6l-9.6-7C154,203.7,149,205,143.7,205L143.7,205z"/>
		<path class="st2" d="M397.2,183.9c0,19-15.4,30.1-29,30.1l-14.6-12.8c0-0.1-12.8-17.3-12.8-17.4l12.8-17.4
			c4.3-2.4,9.3-3.7,14.6-3.7C381.8,162.8,393.3,171.7,397.2,183.9L397.2,183.9z"/>
		<path class="st3" d="M368.3,205c13.6,0,25-8.9,29-21.1c0.9,2.9,1.5,6,1.5,9.3c0,16.8-13.6,30.4-30.4,30.4c-6,0-11.6-1.7-16.3-4.7
			l-8-10.6l9.6-7C358,203.7,363,205,368.3,205z"/>
		<path class="st4" d="M256,289.1c53.9,0,97.6-37.9,97.6-106.6v-28c0-8.5-3.5-16.8-9.8-22.6c-18.2-16.8-38.5-45.9-46.7-58.1
			c-1.9-2.8-5.8-3.1-8.1-0.6c-41.1,44.9-94.4,59.9-118.2,64.5c-7.3,1.4-12.5,7.8-12.5,15.2v29.5C158.4,247.3,202.1,289.1,256,289.1z
			"/>
		<path class="st5" d="M176.7,512h158.7l7.7-9.3l-7.7-9.3H176.7l-7.7,9.3L176.7,512z"/>
		<path class="st2" d="M210,287.2c-0.1,1.2-0.2,2.4-0.2,3.6c0,25.5,20.7,46.2,46.2,46.2s46.2-20.7,46.2-46.2c0-1.2-0.1-2.4-0.2-3.6
			H210z"/>
		<path class="st4" d="M417.1,493.4l-37,9l-37-9v-28.5h74L417.1,493.4z"/>
		<path class="st4" d="M94.9,493.4l37,9l37-9v-28.5h-74L94.9,493.4z"/>
		<path class="st6" d="M350.8,512h61.3c2.8,0,5-2.2,5-5v-13.6h-66.3l-7.7,9.3L350.8,512z"/>
		<path class="st6" d="M99.9,512h61.3l7.7-9.3l-7.7-9.3H94.9V507C94.9,509.8,97.1,512,99.9,512L99.9,512z"/>
		<g>
			<path class="st7" d="M350.8,493.4v-72.8c0-4.3-3.5-7.7-7.7-7.7s-7.7,3.5-7.7,7.7v72.8l7.7,9.3L350.8,493.4z"/>
			<path class="st8" d="M335.3,493.4h15.5V512h-15.5V493.4z"/>
			<path class="st7" d="M176.7,493.4v-72.8c0-4.3-3.5-7.7-7.7-7.7s-7.7,3.5-7.7,7.7v72.8l7.7,9.3L176.7,493.4z"/>
			<path class="st8" d="M161.2,493.4h15.5V512h-15.5V493.4z"/>
		</g>
		<path class="st6" d="M256,280.1c-53.9,0-97.6-43.7-97.6-97.6V201c0,53.9,43.7,97.6,97.6,97.6s97.6-43.7,97.6-97.6v-18.6
			C353.6,236.4,309.9,280.1,256,280.1z"/>
	</g>
	<path class="st1" d="M256,215.8c-15.4,0-28.2,11-31,25.6c-0.6,3.1,1.7,6,4.9,6h52.2c3.2,0,5.5-2.9,4.9-6
		C284.2,226.8,271.4,215.8,256,215.8L256,215.8z"/>
	<path class="st7" d="M202.5,126.3c10.5,0,22.9-7.6,22.9-24.8c-4-12.3-14.6-21.8-19.9-26c-1.8-1.4-4.4-1.4-6.2,0
		c-5.3,4.2-15.8,13.7-19.8,26C179.5,120.1,192,126.3,202.5,126.3L202.5,126.3z"/>
	<g>
		<path class="st1" d="M199.9,184.7c0.2,0,1.7-0.5,3.9-1.4v1.1c0,4.3,3.5,7.8,7.8,7.8s7.8-3.5,7.8-7.8v-9.8c1.9-1.4,3.7-3,5.6-4.8
			c3.1-3,3.1-7.9,0.1-11c-3-3.1-7.9-3.1-11-0.1c-8.3,8.1-18.1,11-18.3,11.1c-4.1,1.1-6.5,5.4-5.4,9.5c0.9,3.5,4.1,5.7,7.5,5.7
			C198.5,185,199.2,184.9,199.9,184.7L199.9,184.7z"/>
		<path class="st1" d="M287,158.8c-3,3.1-3,8,0.1,11c1.8,1.8,3.7,3.4,5.6,4.8v9.8c0,4.3,3.5,7.8,7.8,7.8c4.3,0,7.8-3.5,7.8-7.8v-1.1
			c2.3,0.9,3.8,1.3,4,1.4c0.7,0.2,1.4,0.3,2,0.3c3.4,0,6.5-2.3,7.5-5.7c1.1-4.1-1.3-8.4-5.4-9.6c-0.1,0-10-2.9-18.3-11.1
			C294.9,155.7,290,155.7,287,158.8L287,158.8z"/>
		<g class="st9">
			<path class="st7" d="M311.5,148.7c4.3,0,7.8-3.5,7.8-7.8v-7.5c0-4.3-3.5-7.8-7.8-7.8c-4.3,0-7.8,3.5-7.8,7.8v7.5
				C303.8,145.3,307.2,148.7,311.5,148.7z"/>
			<path class="st7" d="M288.8,127.7c4.3,0,7.8-3.5,7.8-7.8v-7.5c0-4.3-3.5-7.8-7.8-7.8c-4.3,0-7.8,3.5-7.8,7.8v7.5
				C281.1,124.2,284.5,127.7,288.8,127.7z"/>
			<path class="st7" d="M263.5,145c4.3,0,7.8-3.5,7.8-7.8v-7.5c0-4.3-3.5-7.8-7.8-7.8s-7.8,3.5-7.8,7.8v7.5
				C255.7,141.5,259.2,145,263.5,145z"/>
		</g>
		<path class="st7" d="M135.4,290c3.6-2.4,4.5-7.2,2.1-10.8c-2.4-3.6-7.2-4.5-10.8-2.1c-19.8,13.3-38.2,32.6-53.2,55.8
			c-2.3,3.6-1.3,8.4,2.3,10.7c1.3,0.8,2.8,1.2,4.2,1.2c2.6,0,5-1.3,6.5-3.6C100.5,319.9,117.3,302.1,135.4,290L135.4,290z"/>
		<path class="st7" d="M438.4,332.9c-15-23.2-33.4-42.5-53.2-55.8c-3.6-2.4-8.4-1.4-10.8,2.1c-2.4,3.6-1.4,8.4,2.1,10.8
			c18.1,12.1,35,29.9,48.8,51.3c1.5,2.3,4,3.6,6.5,3.6c1.4,0,2.9-0.4,4.2-1.2C439.7,341.3,440.8,336.5,438.4,332.9L438.4,332.9z"/>
	</g>
	<path class="st8" d="M202.5,117.3c-10.5,0-19.4-6.5-22.9-15.8c-1,3.1-1.6,6.4-1.6,9.8c0,13.6,11,24.6,24.6,24.6s24.6-11,24.6-24.6
		c0-3.4-0.6-6.7-1.6-9.8C221.9,110.7,212.9,117.3,202.5,117.3z"/>
</g>
</svg>
